<svg width="1186" height="318" viewBox="0 0 1186 318" fill="none" xmlns="http://www.w3.org/2000/svg">
<path d="M15.969 143V139.976L30.081 134.216L71.697 24.92H74.001L113.313 137.816L126.561 139.976V143H84.225V139.976L96.033 138.104L83.793 103.976H45.489L33.825 134.216L46.785 139.976V143H15.969ZM46.641 100.952H82.785L65.505 50.264L46.641 100.952ZM163.714 139.976L176.962 137.816V32.984L163.714 30.968V27.8H207.634C218.002 27.8 226.258 28.76 232.402 30.68C238.546 32.6 243.01 35.528 245.794 39.464C248.578 43.304 249.97 48.392 249.97 54.728C249.97 68.552 241.234 77.384 223.762 81.224V81.944C234.418 83.384 242.674 86.552 248.53 91.448C254.482 96.344 257.458 103.16 257.458 111.896C257.458 122.456 253.57 130.28 245.794 135.368C238.114 140.456 227.698 143 214.546 143H163.714V139.976ZM208.786 80.792C216.466 80.792 222.37 78.632 226.498 74.312C230.626 69.992 232.69 63.848 232.69 55.88V55.016C232.69 39.272 224.338 31.4 207.634 31.4H192.802V80.792H208.786ZM214.546 139.544C222.706 139.544 229.042 137.192 233.554 132.488C238.066 127.688 240.322 120.872 240.322 112.04V110.456C240.322 101.72 238.066 95.192 233.554 90.872C229.138 86.552 222.802 84.392 214.546 84.392H192.802V139.544H214.546ZM359.608 145.88C349.144 145.88 339.976 143.336 332.104 138.248C324.232 133.16 318.136 126.056 313.816 116.936C309.592 107.816 307.48 97.304 307.48 85.4C307.48 73.496 309.64 62.984 313.96 53.864C318.376 44.648 324.568 37.544 332.536 32.552C340.6 27.464 349.864 24.92 360.328 24.92C364.456 24.92 368.632 25.64 372.856 27.08C377.176 28.52 381.064 30.536 384.52 33.128L394.168 24.92H397.192V60.632H394.168L385.24 38.312C381.88 35.24 377.944 32.792 373.432 30.968C369.016 29.144 364.648 28.232 360.328 28.232C353.608 28.232 347.656 29.96 342.472 33.416C337.384 36.872 333.4 41.912 330.52 48.536C327.64 55.16 326.2 63.032 326.2 72.152V98.504C326.2 107.624 327.592 115.496 330.376 122.12C333.16 128.744 337.048 133.832 342.04 137.384C347.032 140.84 352.888 142.568 359.608 142.568C364.504 142.568 369.4 141.512 374.296 139.4C379.192 137.192 383.272 134.264 386.536 130.616L394.888 107.432H397.912V144.44H394.888L384.52 137.096C381.064 139.88 377.128 142.04 372.712 143.576C368.296 145.112 363.928 145.88 359.608 145.88ZM447.214 139.976L460.462 137.816V32.984L447.214 30.968V27.8H502.366C512.926 27.8 522.286 30.2 530.446 35C538.702 39.704 545.134 46.424 549.742 55.16C554.35 63.8 556.654 73.88 556.654 85.4C556.654 96.92 554.35 107.048 549.742 115.784C545.134 124.424 538.702 131.144 530.446 135.944C522.19 140.648 512.83 143 502.366 143H447.214V139.976ZM502.366 139.544C509.374 139.544 515.566 137.912 520.942 134.648C526.414 131.384 530.686 126.536 533.758 120.104C536.83 113.576 538.366 105.704 538.366 96.488V74.312C538.366 65.096 536.83 57.272 533.758 50.84C530.686 44.408 526.414 39.56 520.942 36.296C515.566 33.032 509.374 31.4 502.366 31.4H476.302V139.544H502.366ZM604.573 143V139.976L617.821 137.816V32.984L604.573 30.968V27.8H691.261V60.776H687.373L676.285 31.4H633.661V83.24H652.381L660.877 62.36H664.621V107.864H660.877L652.237 86.696H633.661V139.544H678.877L690.685 107.864H694.429V143H604.573ZM742.808 143V139.976L756.056 137.816V32.984L742.808 30.968V27.8H829.496V60.776H825.608L814.52 31.4H771.896V85.4H796.232L804.728 64.52H808.616V110.024H804.728L796.232 88.856H771.896V137.816L785.144 139.976V143H742.808ZM928.155 145.88C917.691 145.88 908.523 143.336 900.651 138.248C892.779 133.16 886.683 126.056 882.363 116.936C878.139 107.816 876.027 97.304 876.027 85.4C876.027 73.496 878.283 62.984 882.795 53.864C887.307 44.744 893.595 37.64 901.659 32.552C909.819 27.464 919.131 24.92 929.595 24.92C939.483 24.92 947.835 27.416 954.651 32.408L963.435 24.92H966.459V60.632H963.435L953.931 36.872C947.019 31.112 938.907 28.232 929.595 28.232C922.875 28.232 916.827 29.96 911.451 33.416C906.171 36.872 901.995 41.912 898.923 48.536C895.947 55.16 894.459 63.032 894.459 72.152V98.504C894.459 107.624 895.851 115.496 898.635 122.12C901.515 128.744 905.451 133.832 910.443 137.384C915.531 140.84 921.435 142.568 928.155 142.568C936.411 142.568 942.795 140.024 947.307 134.936C951.915 129.848 954.219 123.032 954.219 114.488V101.096L940.827 99.08V95.912H983.883V99.08L970.491 101.096V114.488C970.491 119.96 969.003 125.096 966.027 129.896C963.051 134.6 958.395 138.44 952.059 141.416C945.723 144.392 937.755 145.88 928.155 145.88ZM1025.6 143V139.976L1038.85 137.816V32.984L1025.6 30.968V27.8H1067.94V30.968L1054.69 32.984V80.216H1109.41V32.984L1096.02 30.968V27.8H1138.64V30.968L1125.25 32.984V137.816L1138.64 139.976V143H1096.02V139.976L1109.41 137.816V83.816H1054.69V137.816L1067.94 139.976V143H1025.6Z" fill="white"/>
<path d="M52.113 307.88C43.761 307.88 36.465 305.624 30.225 301.112C23.985 296.6 19.137 289.832 15.681 280.808C12.225 271.688 10.497 260.552 10.497 247.4C10.497 234.248 12.225 223.16 15.681 214.136C19.137 205.016 23.985 198.2 30.225 193.688C36.465 189.176 43.761 186.92 52.113 186.92C60.465 186.92 67.761 189.176 74.001 193.688C80.241 198.2 85.089 205.016 88.545 214.136C92.001 223.16 93.729 234.248 93.729 247.4C93.729 260.552 92.001 271.688 88.545 280.808C85.089 289.832 80.241 296.6 74.001 301.112C67.761 305.624 60.465 307.88 52.113 307.88ZM52.113 304.568C59.313 304.568 64.977 301.064 69.105 294.056C73.233 287.048 75.297 276.104 75.297 261.224V233.432C75.297 218.648 73.233 207.752 69.105 200.744C64.977 193.736 59.313 190.232 52.113 190.232C44.913 190.232 39.249 193.736 35.121 200.744C30.993 207.752 28.929 218.648 28.929 233.432V261.224C28.929 276.008 30.993 286.952 35.121 294.056C39.249 301.064 44.913 304.568 52.113 304.568ZM144.64 305V302.12L154.72 300.68V194.12L144.64 192.68V189.8H169.12V300.68L179.2 302.12V305H144.64ZM226.285 293.912L256.669 262.952C264.637 254.696 270.685 246.68 274.813 238.904C279.037 231.032 281.149 222.92 281.149 214.568C281.149 206.12 279.325 199.976 275.677 196.136C272.125 192.2 267.277 190.232 261.133 190.232C256.333 190.232 252.157 191.528 248.605 194.12C245.053 196.712 243.277 200.12 243.277 204.344C243.277 209.432 245.821 213.224 250.909 215.72C250.909 219.176 249.853 221.816 247.741 223.64C245.629 225.464 243.133 226.376 240.253 226.376C237.181 226.376 234.541 225.272 232.333 223.064C230.125 220.76 229.021 217.64 229.021 213.704C229.021 208.52 230.605 203.912 233.773 199.88C236.941 195.752 241.165 192.584 246.445 190.376C251.725 188.072 257.389 186.92 263.437 186.92C275.149 186.92 283.837 189.704 289.501 195.272C295.165 200.744 297.997 207.992 297.997 217.016C297.997 222.488 296.845 227.528 294.541 232.136C292.333 236.648 289.645 240.584 286.477 243.944C283.405 247.304 279.181 251.336 273.805 256.04L269.773 259.496L235.357 289.88H289.069L294.973 268.568H298.717V305H226.285V293.912ZM382.027 307.88C376.075 307.88 370.603 306.728 365.611 304.424C360.715 302.12 356.827 299 353.947 295.064C351.067 291.128 349.627 286.712 349.627 281.816C349.627 277.88 350.731 274.808 352.939 272.6C355.147 270.296 357.787 269.144 360.859 269.144C363.739 269.144 366.235 270.056 368.347 271.88C370.459 273.704 371.515 276.344 371.515 279.8C366.427 282.296 363.883 286.136 363.883 291.32C363.883 295.256 365.515 298.472 368.779 300.968C372.139 303.368 376.555 304.568 382.027 304.568C388.939 304.568 394.555 301.976 398.875 296.792C403.195 291.608 405.355 284.36 405.355 275.048C405.355 264.968 402.475 257.192 396.715 251.72C390.955 246.152 382.459 243.032 371.227 242.36V239.192C381.307 238.616 389.131 235.928 394.699 231.128C400.363 226.232 403.195 219.656 403.195 211.4C403.195 204.968 401.419 199.832 397.867 195.992C394.411 192.152 389.755 190.232 383.899 190.232C378.619 190.232 374.443 191.144 371.371 192.968C368.395 194.696 366.907 197.144 366.907 200.312C366.907 205.4 369.307 209.048 374.107 211.256C374.107 214.52 373.099 217.064 371.083 218.888C369.163 220.616 366.811 221.48 364.027 221.48C361.147 221.48 358.651 220.376 356.539 218.168C354.427 215.96 353.371 213.032 353.371 209.384C353.371 205.064 354.859 201.224 357.835 197.864C360.811 194.408 364.747 191.72 369.643 189.8C374.635 187.88 379.915 186.92 385.483 186.92C396.427 186.92 404.971 189.128 411.115 193.544C417.259 197.96 420.331 204.152 420.331 212.12C420.331 220.472 417.307 226.952 411.259 231.56C405.307 236.072 396.619 239.096 385.195 240.632V241.064C397.195 241.64 406.843 244.856 414.139 250.712C421.531 256.472 425.227 264.584 425.227 275.048C425.227 280.904 423.595 286.328 420.331 291.32C417.163 296.312 412.315 300.344 405.787 303.416C399.355 306.392 391.435 307.88 382.027 307.88ZM502.609 305V301.976L515.857 299.816V277.352H467.329V274.328L528.385 189.8H531.697V270.584H544.945V277.352H531.697V299.816L544.945 301.976V305H502.609ZM474.385 270.584H515.857V213.128L474.385 270.584ZM622.161 307.88C616.209 307.88 610.737 306.728 605.745 304.424C600.849 302.12 596.961 299 594.081 295.064C591.201 291.128 589.761 286.712 589.761 281.816C589.761 277.88 590.865 274.808 593.073 272.6C595.281 270.296 597.921 269.144 600.993 269.144C603.873 269.144 606.369 270.056 608.481 271.88C610.593 273.704 611.649 276.344 611.649 279.8C606.561 282.296 604.017 286.136 604.017 291.32C604.017 295.256 605.649 298.472 608.913 300.968C612.273 303.368 616.689 304.568 622.161 304.568C629.361 304.568 635.025 301.496 639.153 295.352C643.377 289.208 645.489 281.24 645.489 271.448C645.489 260.12 642.993 251.624 638.001 245.96C633.105 240.2 626.577 237.32 618.417 237.32C614.097 237.32 609.393 238.136 604.305 239.768L601.713 237.896L608.049 189.8H646.209C651.969 189.8 656.145 189.368 658.737 188.504C661.425 187.544 663.249 185.384 664.209 182.024L667.521 182.168C666.753 191.48 664.401 197.912 660.465 201.464C656.625 204.92 651.153 206.648 644.049 206.648H609.633L605.889 235.304C610.689 233.96 615.729 233.288 621.009 233.288C629.553 233.288 637.185 234.968 643.905 238.328C650.721 241.688 656.001 246.296 659.745 252.152C663.489 258.008 665.361 264.488 665.361 271.592C665.361 277.64 663.825 283.448 660.753 289.016C657.681 294.488 652.881 299 646.353 302.552C639.921 306.104 631.857 307.88 622.161 307.88ZM755.174 307.88C741.062 307.88 731.078 302.456 725.222 291.608C719.366 280.76 716.438 265.544 716.438 245.96C716.438 226.568 720.182 211.88 727.67 201.896C735.254 191.912 745.67 186.92 758.918 186.92C764.87 186.92 770.198 187.784 774.902 189.512C779.702 191.144 783.446 193.448 786.134 196.424C788.918 199.4 790.31 202.712 790.31 206.36C790.31 209.624 789.254 212.408 787.142 214.712C785.126 216.92 782.582 218.024 779.51 218.024C776.918 218.024 774.758 217.304 773.03 215.864C771.302 214.424 770.438 212.456 770.438 209.96C771.878 208.808 772.886 207.656 773.462 206.504C774.134 205.352 774.47 203.96 774.47 202.328C774.47 198.776 773.03 195.8 770.15 193.4C767.27 191 763.526 189.8 758.918 189.8C751.526 189.8 745.574 192.776 741.062 198.728C736.646 204.68 734.39 214.424 734.294 227.96L734.15 244.088C737.03 240.632 740.534 237.992 744.662 236.168C748.79 234.248 753.11 233.288 757.622 233.288C764.726 233.288 771.014 234.728 776.486 237.608C781.958 240.488 786.23 244.664 789.302 250.136C792.374 255.608 793.91 262.184 793.91 269.864C793.91 277.736 792.134 284.552 788.582 290.312C785.126 295.976 780.422 300.344 774.47 303.416C768.614 306.392 762.182 307.88 755.174 307.88ZM755.174 304.712C762.086 304.712 767.366 302.264 771.014 297.368C774.758 292.472 776.63 285.704 776.63 277.064V262.952C776.63 254.6 774.95 248.168 771.59 243.656C768.326 239.048 763.334 236.744 756.614 236.744C751.91 236.744 747.542 238.04 743.51 240.632C739.478 243.128 736.358 246.584 734.15 251L734.006 271.016C733.91 281.864 735.59 290.216 739.046 296.072C742.598 301.832 747.974 304.712 755.174 304.712ZM856.071 305C856.743 297.896 858.087 291.176 860.103 284.84C862.215 278.504 864.567 272.744 867.159 267.56C869.847 262.376 873.351 255.944 877.671 248.264C882.759 239.336 886.839 231.752 889.911 225.512C892.983 219.176 895.575 212.264 897.687 204.776H849.447L845.559 221.912H841.815V189.8H905.031C903.879 199.688 902.103 209 899.703 217.736C897.303 226.376 894.039 236.84 889.911 249.128C885.783 260.936 882.567 270.968 880.263 279.224C878.055 287.384 876.567 295.976 875.799 305H856.071ZM989.308 307.88C976.924 307.88 967.276 305.288 960.364 300.104C953.452 294.92 949.996 287.528 949.996 277.928C949.996 269.288 952.444 262.328 957.34 257.048C962.236 251.768 968.716 247.064 976.78 242.936L970.156 238.616C965.164 235.16 961.276 231.416 958.492 227.384C955.804 223.256 954.46 218.936 954.46 214.424C954.46 208.856 956.044 204.008 959.212 199.88C962.476 195.752 966.796 192.584 972.172 190.376C977.548 188.072 983.356 186.92 989.596 186.92C994.972 186.92 1000.11 187.832 1005 189.656C1010 191.48 1014.03 194.216 1017.1 197.864C1020.27 201.512 1021.85 205.928 1021.85 211.112C1021.85 215.72 1020.89 219.752 1018.97 223.208C1017.05 226.568 1014.65 229.448 1011.77 231.848C1008.89 234.152 1005.29 236.552 1000.97 239.048L1004.72 241.352C1012.11 246.056 1017.87 250.904 1022 255.896C1026.22 260.792 1028.33 266.888 1028.33 274.184C1028.33 281.384 1026.46 287.528 1022.72 292.616C1018.97 297.704 1014.12 301.544 1008.17 304.136C1002.22 306.632 995.932 307.88 989.308 307.88ZM996.94 236.6C1001.55 233.24 1004.67 229.448 1006.3 225.224C1007.93 220.904 1008.75 216.344 1008.75 211.544C1008.75 205.208 1006.83 200.072 1002.99 196.136C999.148 192.2 994.108 190.232 987.868 190.232C984.316 190.232 980.956 190.952 977.788 192.392C974.62 193.736 972.076 195.656 970.156 198.152C968.236 200.648 967.276 203.48 967.276 206.648C967.276 210.68 968.476 214.28 970.876 217.448C973.276 220.616 976.876 223.784 981.676 226.952L996.94 236.6ZM988.588 304.568C993.772 304.568 998.332 303.56 1002.27 301.544C1006.3 299.528 1009.37 296.84 1011.48 293.48C1013.6 290.12 1014.65 286.52 1014.65 282.68C1014.65 277.688 1013.16 273.032 1010.19 268.712C1007.31 264.392 1002.8 260.072 996.652 255.752L980.956 245.672C975.58 249.608 971.5 254.504 968.716 260.36C966.028 266.216 964.684 272.36 964.684 278.792C964.684 286.184 966.604 292.328 970.444 297.224C974.38 302.12 980.428 304.568 988.588 304.568ZM1112.38 307.88C1106.43 307.88 1101.06 307.016 1096.26 305.288C1091.55 303.656 1087.81 301.352 1085.02 298.376C1082.34 295.4 1080.99 292.088 1080.99 288.44C1080.99 285.176 1082 282.44 1084.02 280.232C1086.13 277.928 1088.72 276.776 1091.79 276.776C1094.38 276.776 1096.54 277.496 1098.27 278.936C1100 280.376 1100.86 282.344 1100.86 284.84C1099.42 285.992 1098.37 287.144 1097.7 288.296C1097.12 289.448 1096.83 290.84 1096.83 292.472C1096.83 296.024 1098.27 299 1101.15 301.4C1104.03 303.8 1107.78 305 1112.38 305C1119.78 305 1125.68 302.024 1130.1 296.072C1134.61 290.12 1136.91 280.376 1137.01 266.84V250.712C1134.22 254.168 1130.77 256.856 1126.64 258.776C1122.61 260.6 1118.29 261.512 1113.68 261.512C1106.58 261.512 1100.29 260.072 1094.82 257.192C1089.34 254.312 1085.07 250.136 1082 244.664C1078.93 239.192 1077.39 232.616 1077.39 224.936C1077.39 217.064 1079.12 210.296 1082.58 204.632C1086.13 198.872 1090.83 194.504 1096.69 191.528C1102.64 188.456 1109.12 186.92 1116.13 186.92C1130.24 186.92 1140.22 192.344 1146.08 203.192C1151.94 214.04 1154.86 229.256 1154.86 248.84C1154.86 268.232 1151.07 282.92 1143.49 292.904C1136 302.888 1125.63 307.88 1112.38 307.88ZM1114.69 258.056C1119.3 258.056 1123.62 256.808 1127.65 254.312C1131.78 251.72 1134.94 248.216 1137.15 243.8L1137.3 223.784C1137.39 212.936 1135.66 204.632 1132.11 198.872C1128.66 193.016 1123.33 190.088 1116.13 190.088C1109.22 190.088 1103.89 192.536 1100.14 197.432C1096.5 202.328 1094.67 209.096 1094.67 217.736V231.848C1094.67 240.2 1096.3 246.68 1099.57 251.288C1102.93 255.8 1107.97 258.056 1114.69 258.056Z" fill="white"/>
<line x1="0.000976562" y1="142.5" x2="1163.97" y2="142.5" stroke="white"/>
<line x1="6" y1="310.5" x2="1169.97" y2="310.5" stroke="white"/>
<line y1="186.411" x2="1163.97" y2="186.411" stroke="white"/>
<line x1="1.02979" y1="82.4893" x2="1165" y2="82.4893" stroke="white"/>
<line x1="1" y1="29.5" x2="1164.97" y2="29.5" stroke="white"/>
<line x1="0.0297852" y1="244.489" x2="1164" y2="244.489" stroke="white"/>
</svg>
