<svg width="1166" height="534" viewBox="0 0 1166 534" fill="none" xmlns="http://www.w3.org/2000/svg">
<rect x="1" y="1" width="1164" height="532" stroke="white" stroke-width="2"/>
<path d="M30.968 177V173.976L45.08 168.216L86.696 58.92H89L128.312 171.816L141.56 173.976V177H99.224V173.976L111.032 172.104L98.792 137.976H60.488L48.824 168.216L61.784 173.976V177H30.968ZM61.64 134.952H97.784L80.504 84.264L61.64 134.952Z" fill="white"/>
<path d="M325.424 182.44C320.048 182.44 316.016 181.144 313.328 178.552C310.64 175.96 308.816 171.544 307.856 165.304L305.12 146.008C304.16 139.48 301.904 134.392 298.352 130.744C294.896 127 289.472 125.128 282.08 125.128H270.848V175.816L284.096 177.976V181H241.76V177.976L255.008 175.816V70.984L241.76 68.968V65.8H282.08C297.728 65.8 309.056 68.248 316.064 73.144C323.072 78.04 326.576 85.48 326.576 95.464C326.576 111.976 316.592 121.528 296.624 124.12V124.984C304.016 126.04 309.92 128.68 314.336 132.904C318.848 137.128 321.68 142.744 322.832 149.752L324.704 162.136C325.472 167.512 326.336 171.16 327.296 173.08C328.352 175 329.936 175.96 332.048 175.96C333.488 175.96 335.024 175.528 336.656 174.664C338.288 173.704 339.824 172.504 341.264 171.064L343.712 173.656C340.928 176.824 338.048 179.08 335.072 180.424C332.096 181.768 328.88 182.44 325.424 182.44ZM286.976 121.672C293.984 121.672 299.408 119.56 303.248 115.336C307.184 111.016 309.152 104.68 309.152 96.328V93.304C309.152 77.368 300.128 69.4 282.08 69.4H270.848V121.672H286.976Z" fill="white"/>
<path d="M421.76 193V189.976L435.008 187.816V82.984L421.76 80.968V77.8H464.096V80.968L450.848 82.984V189.544H493.904L505.712 157.864H509.6V193H421.76Z" fill="white"/>
<path d="M632.816 198.88L591.344 85.984L579.824 83.968V80.8H622.016V83.968L608.48 85.696L640.16 171.952L671.264 90.448L654.704 83.968V80.8H685.664V83.968L675.152 90.304L633.968 198.88H632.816Z" fill="white"/>
<path d="M1009.66 207.44L966.752 95.984V197.216L980.576 202.976V206H949.76V202.976L963.296 197.216V95.984L950.048 93.968V90.8H981.872L1018.02 183.248L1054.88 90.8H1083.97V93.968L1070.72 95.984V200.816L1083.97 202.976V206H1041.63V202.976L1054.88 200.816V100.304L1012.26 207.44H1009.66Z" fill="white"/>
<path d="M797.904 206.88C787.44 206.88 778.272 204.336 770.4 199.248C762.528 194.16 756.432 187.056 752.112 177.936C747.888 168.816 745.776 158.304 745.776 146.4C745.776 134.496 748.032 123.984 752.544 114.864C757.056 105.744 763.344 98.64 771.408 93.552C779.568 88.464 788.88 85.92 799.344 85.92C809.232 85.92 817.584 88.416 824.4 93.408L833.184 85.92H836.208V121.632H833.184L823.68 97.872C816.768 92.112 808.656 89.232 799.344 89.232C792.624 89.232 786.576 90.96 781.2 94.416C775.92 97.872 771.744 102.912 768.672 109.536C765.696 116.16 764.208 124.032 764.208 133.152V159.504C764.208 168.624 765.6 176.496 768.384 183.12C771.264 189.744 775.2 194.832 780.192 198.384C785.28 201.84 791.184 203.568 797.904 203.568C806.16 203.568 812.544 201.024 817.056 195.936C821.664 190.848 823.968 184.032 823.968 175.488V162.096L810.576 160.08V156.912H853.632V160.08L840.24 162.096V175.488C840.24 180.96 838.752 186.096 835.776 190.896C832.8 195.6 828.144 199.44 821.808 202.416C815.472 205.392 807.504 206.88 797.904 206.88Z" fill="white"/>
<path d="M1088.5 95.5C1088.5 112.146 1077.01 125.5 1063 125.5C1048.99 125.5 1037.5 112.146 1037.5 95.5C1037.5 78.8536 1048.99 65.5 1063 65.5C1077.01 65.5 1088.5 78.8536 1088.5 95.5Z" stroke="white"/>
<path d="M996.5 210.5C996.5 227.137 984.796 240.5 970.5 240.5C956.204 240.5 944.5 227.137 944.5 210.5C944.5 193.863 956.204 180.5 970.5 180.5C984.796 180.5 996.5 193.863 996.5 210.5Z" stroke="white"/>
<path d="M857.5 108.5C857.5 125.146 846.011 138.5 832 138.5C817.989 138.5 806.5 125.146 806.5 108.5C806.5 91.8536 817.989 78.5 832 78.5C846.011 78.5 857.5 91.8536 857.5 108.5Z" stroke="white"/>
<path d="M857.5 169.5C857.5 186.146 846.011 199.5 832 199.5C817.989 199.5 806.5 186.146 806.5 169.5C806.5 152.854 817.989 139.5 832 139.5C846.011 139.5 857.5 152.854 857.5 169.5Z" stroke="white"/>
<path d="M1101.5 390.5C1101.5 407.146 1090.01 420.5 1076 420.5C1061.99 420.5 1050.5 407.146 1050.5 390.5C1050.5 373.854 1061.99 360.5 1076 360.5C1090.01 360.5 1101.5 373.854 1101.5 390.5Z" stroke="white"/>
<path d="M634.5 451.5C634.5 468.146 623.011 481.5 609 481.5C594.989 481.5 583.5 468.146 583.5 451.5C583.5 434.854 594.989 421.5 609 421.5C623.011 421.5 634.5 434.854 634.5 451.5Z" stroke="white"/>
<path d="M531.5 179.5C531.5 196.146 520.011 209.5 506 209.5C491.989 209.5 480.5 196.146 480.5 179.5C480.5 162.854 491.989 149.5 506 149.5C520.011 149.5 531.5 162.854 531.5 179.5Z" stroke="white"/>
<path d="M841.5 377.5C841.5 394.146 830.011 407.5 816 407.5C801.989 407.5 790.5 394.146 790.5 377.5C790.5 360.854 801.989 347.5 816 347.5C830.011 347.5 841.5 360.854 841.5 377.5Z" stroke="white"/>
<path d="M351.5 173.5C351.5 190.137 339.796 203.5 325.5 203.5C311.204 203.5 299.5 190.137 299.5 173.5C299.5 156.863 311.204 143.5 325.5 143.5C339.796 143.5 351.5 156.863 351.5 173.5Z" stroke="white"/>
<path d="M153.5 173.5C153.5 190.146 142.011 203.5 128 203.5C113.989 203.5 102.5 190.146 102.5 173.5C102.5 156.854 113.989 143.5 128 143.5C142.011 143.5 153.5 156.854 153.5 173.5Z" stroke="white"/>
<path d="M155.5 397.5C155.5 414.146 144.011 427.5 130 427.5C115.989 427.5 104.5 414.146 104.5 397.5C104.5 380.854 115.989 367.5 130 367.5C144.011 367.5 155.5 380.854 155.5 397.5Z" stroke="white"/>
<path d="M322.5 377.5C322.5 394.146 311.011 407.5 297 407.5C282.989 407.5 271.5 394.146 271.5 377.5C271.5 360.854 282.989 347.5 297 347.5C311.011 347.5 322.5 360.854 322.5 377.5Z" stroke="white"/>
<path d="M466.5 378.5C466.5 395.137 454.796 408.5 440.5 408.5C426.204 408.5 414.5 395.137 414.5 378.5C414.5 361.863 426.204 348.5 440.5 348.5C454.796 348.5 466.5 361.863 466.5 378.5Z" stroke="white"/>
<path d="M695.5 487.5C695.5 504.146 684.011 517.5 670 517.5C655.989 517.5 644.5 504.146 644.5 487.5C644.5 470.854 655.989 457.5 670 457.5C684.011 457.5 695.5 470.854 695.5 487.5Z" stroke="white"/>
<path d="M225.96 279V278.496L228.168 278.136V260.664L225.96 260.328V259.8H233.016V260.328L230.808 260.664V278.4H237.288V260.664L235.08 260.328H235.056V259.8H242.16V260.328H242.136L239.928 260.664V278.4H246.408V260.664L244.176 260.328V259.8H251.28V260.328L249.048 260.664V278.136L251.28 278.496V279H225.96ZM252.738 285.312L254.418 285.072V267.312L252.738 267.072V266.592H256.818V269.112C257.218 268.248 257.754 267.576 258.426 267.096C259.114 266.6 259.93 266.352 260.874 266.352C262.01 266.352 263.01 266.624 263.874 267.168C264.738 267.696 265.41 268.448 265.89 269.424C266.37 270.384 266.61 271.512 266.61 272.808C266.61 274.104 266.37 275.24 265.89 276.216C265.41 277.176 264.738 277.92 263.874 278.448C263.01 278.976 262.01 279.24 260.874 279.24C259.93 279.24 259.114 279 258.426 278.52C257.754 278.024 257.218 277.352 256.818 276.504V285.072L259.074 285.312V285.792H252.738V285.312ZM260.634 278.64C262.858 278.64 263.97 277.096 263.97 274.008V271.608C263.97 268.504 262.858 266.952 260.634 266.952C259.93 266.952 259.29 267.16 258.714 267.576C258.138 267.976 257.682 268.52 257.346 269.208C257.01 269.896 256.834 270.64 256.818 271.44V274.008C256.818 274.824 256.978 275.592 257.298 276.312C257.634 277.016 258.09 277.584 258.666 278.016C259.258 278.432 259.914 278.64 260.634 278.64ZM268.281 279V278.52L269.961 278.28V267.288L268.281 267.048V266.568H273.801V267.048L272.361 267.288V276.624L278.433 267.768V267.288L276.993 267.048V266.568H282.513V267.048L280.833 267.288V278.28L282.513 278.52V279H276.993V278.52L278.433 278.28V268.776L272.361 277.656V278.28L273.801 278.52V279H268.281ZM289.244 285.312L290.924 285.072V279.24C289.676 279.24 288.54 278.968 287.516 278.424C286.492 277.864 285.684 277.096 285.092 276.12C284.5 275.128 284.204 274.016 284.204 272.784C284.204 271.552 284.5 270.448 285.092 269.472C285.684 268.48 286.492 267.712 287.516 267.168C288.54 266.624 289.676 266.352 290.924 266.352V260.52L289.244 260.28V259.8H293.324V266.352C294.572 266.352 295.708 266.624 296.732 267.168C297.756 267.712 298.564 268.48 299.156 269.472C299.748 270.448 300.044 271.552 300.044 272.784C300.044 274.016 299.748 275.128 299.156 276.12C298.564 277.096 297.756 277.864 296.732 278.424C295.708 278.968 294.572 279.24 293.324 279.24V285.072L295.004 285.312V285.792H289.244V285.312ZM290.924 266.88C289.628 266.88 288.62 267.304 287.9 268.152C287.196 268.984 286.844 270.128 286.844 271.584V273.984C286.844 275.44 287.196 276.592 287.9 277.44C288.62 278.288 289.628 278.712 290.924 278.712V266.88ZM293.324 278.712C294.62 278.712 295.62 278.288 296.324 277.44C297.044 276.592 297.404 275.44 297.404 273.984V271.584C297.404 270.128 297.044 268.984 296.324 268.152C295.62 267.304 294.62 266.88 293.324 266.88V278.712ZM304.486 279V278.52L306.406 278.28V267.168H304.342L302.254 271.128H301.582L301.942 266.568H313.27L313.63 271.128H312.958L310.846 267.168H308.806V278.28L310.726 278.52V279H304.486ZM320.835 278.496L323.043 278.136V260.664L320.835 260.328V259.8H328.371C330.739 259.8 332.499 260.304 333.651 261.312C334.803 262.32 335.379 263.776 335.379 265.68C335.379 267.584 334.803 269.04 333.651 270.048C332.499 271.056 330.739 271.56 328.371 271.56H325.683V278.136L327.891 278.496V279H320.835V278.496ZM328.035 270.984C330.995 270.984 332.475 269.376 332.475 266.16V265.2C332.475 262 330.995 260.4 328.035 260.4H325.683V270.984H328.035ZM336.929 278.52L338.609 278.28V267.288L336.929 267.048V266.568H341.009V268.416C342.017 267.04 343.153 266.352 344.417 266.352C345.025 266.352 345.561 266.512 346.025 266.832C346.489 267.136 346.721 267.576 346.721 268.152C346.721 268.568 346.585 268.92 346.313 269.208C346.041 269.48 345.681 269.616 345.233 269.616C344.721 269.616 344.305 269.416 343.985 269.016C344.161 268.792 344.249 268.552 344.249 268.296C344.249 268.024 344.153 267.808 343.961 267.648C343.785 267.472 343.545 267.384 343.241 267.384C342.905 267.384 342.561 267.544 342.209 267.864C341.857 268.168 341.457 268.648 341.009 269.304V278.28L342.929 278.52V279H336.929V278.52ZM351.506 279.24C350.482 279.24 349.642 278.976 348.986 278.448C348.33 277.904 348.002 277.104 348.002 276.048C348.002 274.544 348.634 273.48 349.898 272.856C351.162 272.216 352.626 271.896 354.29 271.896H355.898V270.048C355.898 269.216 355.802 268.576 355.61 268.128C355.434 267.664 355.154 267.344 354.77 267.168C354.386 266.976 353.866 266.88 353.21 266.88C352.458 266.88 351.898 267.032 351.53 267.336C351.162 267.624 350.978 268.016 350.978 268.512C350.978 268.976 351.202 269.28 351.65 269.424C351.65 269.824 351.498 270.176 351.194 270.48C350.89 270.784 350.53 270.936 350.114 270.936C349.666 270.936 349.306 270.816 349.034 270.576C348.762 270.32 348.626 269.936 348.626 269.424C348.626 268.496 349.09 267.752 350.018 267.192C350.946 266.632 352.106 266.352 353.498 266.352C356.698 266.352 358.298 267.744 358.298 270.528V277.392C358.298 277.744 358.37 278.016 358.514 278.208C358.674 278.384 358.898 278.472 359.186 278.472C359.458 278.472 359.674 278.384 359.834 278.208C359.994 278.016 360.074 277.76 360.074 277.44H360.578C360.578 278 360.394 278.44 360.026 278.76C359.674 279.08 359.178 279.24 358.538 279.24C357.802 279.24 357.178 279.032 356.666 278.616C356.17 278.184 355.914 277.52 355.898 276.624C355.514 277.44 354.922 278.08 354.122 278.544C353.338 279.008 352.466 279.24 351.506 279.24ZM352.826 278.184C353.258 278.184 353.698 278.056 354.146 277.8C354.61 277.544 355.002 277.176 355.322 276.696C355.642 276.2 355.834 275.608 355.898 274.92V272.424H354.29C352.978 272.424 351.994 272.72 351.338 273.312C350.698 273.888 350.378 274.704 350.378 275.76C350.378 276.64 350.586 277.264 351.002 277.632C351.418 278 352.026 278.184 352.826 278.184ZM366.132 279.24C365.076 279.24 364.228 278.976 363.588 278.448C362.964 277.92 362.652 277.08 362.652 275.928V267.288L360.948 267.048V266.568H362.652V264.576L365.052 263.976V266.568H368.172V267.048L365.052 267.288V275.88C365.052 277.576 365.66 278.424 366.876 278.424C367.132 278.424 367.372 278.384 367.596 278.304C367.836 278.224 368.02 278.144 368.148 278.064C368.292 277.984 368.38 277.928 368.412 277.896L368.724 278.28C368.004 278.92 367.14 279.24 366.132 279.24ZM373.444 279.24C372.42 279.24 371.58 278.976 370.924 278.448C370.268 277.904 369.94 277.104 369.94 276.048C369.94 274.544 370.572 273.48 371.836 272.856C373.1 272.216 374.564 271.896 376.228 271.896H377.836V270.048C377.836 269.216 377.74 268.576 377.548 268.128C377.372 267.664 377.092 267.344 376.708 267.168C376.324 266.976 375.804 266.88 375.148 266.88C374.396 266.88 373.836 267.032 373.468 267.336C373.1 267.624 372.916 268.016 372.916 268.512C372.916 268.976 373.14 269.28 373.588 269.424C373.588 269.824 373.436 270.176 373.132 270.48C372.828 270.784 372.468 270.936 372.052 270.936C371.604 270.936 371.244 270.816 370.972 270.576C370.7 270.32 370.564 269.936 370.564 269.424C370.564 268.496 371.028 267.752 371.956 267.192C372.884 266.632 374.044 266.352 375.436 266.352C378.636 266.352 380.236 267.744 380.236 270.528V277.392C380.236 277.744 380.308 278.016 380.452 278.208C380.612 278.384 380.836 278.472 381.124 278.472C381.396 278.472 381.612 278.384 381.772 278.208C381.932 278.016 382.012 277.76 382.012 277.44H382.516C382.516 278 382.332 278.44 381.964 278.76C381.612 279.08 381.116 279.24 380.476 279.24C379.74 279.24 379.116 279.032 378.604 278.616C378.108 278.184 377.852 277.52 377.836 276.624C377.452 277.44 376.86 278.08 376.06 278.544C375.276 279.008 374.404 279.24 373.444 279.24ZM374.764 278.184C375.196 278.184 375.636 278.056 376.084 277.8C376.548 277.544 376.94 277.176 377.26 276.696C377.58 276.2 377.772 275.608 377.836 274.92V272.424H376.228C374.916 272.424 373.932 272.72 373.276 273.312C372.636 273.888 372.316 274.704 372.316 275.76C372.316 276.64 372.524 277.264 372.94 277.632C373.356 278 373.964 278.184 374.764 278.184ZM395.443 279.24C394.291 279.24 393.243 278.976 392.299 278.448C391.355 277.904 390.603 277.144 390.043 276.168C389.499 275.176 389.227 274.048 389.227 272.784C389.227 271.52 389.499 270.4 390.043 269.424C390.603 268.448 391.355 267.696 392.299 267.168C393.243 266.624 394.291 266.352 395.443 266.352C396.595 266.352 397.643 266.624 398.587 267.168C399.531 267.696 400.275 268.448 400.819 269.424C401.379 270.4 401.659 271.52 401.659 272.784C401.659 274.048 401.379 275.176 400.819 276.168C400.275 277.144 399.531 277.904 398.587 278.448C397.643 278.976 396.595 279.24 395.443 279.24ZM395.443 278.712C396.627 278.712 397.515 278.28 398.107 277.416C398.715 276.552 399.019 275.408 399.019 273.984V271.584C399.019 270.16 398.715 269.024 398.107 268.176C397.515 267.312 396.627 266.88 395.443 266.88C394.259 266.88 393.363 267.312 392.755 268.176C392.163 269.024 391.867 270.16 391.867 271.584V273.984C391.867 275.408 392.163 276.552 392.755 277.416C393.363 278.28 394.259 278.712 395.443 278.712ZM406.088 279V278.52L408.008 278.28V267.168H405.944L403.856 271.128H403.184L403.544 266.568H414.872L415.232 271.128H414.56L412.448 267.168H410.408V278.28L412.328 278.52V279H406.088ZM416.816 279.24C416.256 279.24 415.816 279.104 415.496 278.832C415.176 278.56 415.016 278.16 415.016 277.632C415.016 277.184 415.152 276.832 415.424 276.576C415.696 276.32 416.024 276.192 416.408 276.192C416.664 276.192 416.88 276.248 417.056 276.36C417.232 276.456 417.36 276.56 417.44 276.672C417.536 276.784 417.592 276.856 417.608 276.888C417.4 277.08 417.296 277.288 417.296 277.512C417.296 277.768 417.456 277.896 417.776 277.896C418.864 277.896 419.528 275.576 419.768 270.936L419.912 268.08L417.728 267.048V266.568H428.504V267.048L426.824 267.288V278.256L428.552 278.496V279H422.936V278.496L424.424 278.256V267.168H420.536L420.344 270.96C420.248 272.896 420.064 274.464 419.792 275.664C419.536 276.864 419.168 277.76 418.688 278.352C418.208 278.944 417.584 279.24 416.816 279.24ZM429.859 279V278.52L431.539 278.28V267.288L429.859 267.048V266.568H435.379V267.048L433.939 267.288V276.624L440.011 267.768V267.288L438.571 267.048V266.568H444.091V267.048L442.411 267.288V278.28L444.091 278.52V279H438.571V278.52L440.011 278.28V268.776L433.939 277.656V278.28L435.379 278.52V279H429.859ZM452.238 278.52L454.638 278.28V273.624C454.206 273.848 453.654 274.048 452.982 274.224C452.326 274.4 451.574 274.488 450.726 274.488C449.414 274.488 448.39 274.216 447.654 273.672C446.934 273.128 446.574 272.248 446.574 271.032V267.288L444.894 267.048V266.568H450.414V267.048L448.974 267.288V271.032C448.974 271.928 449.158 272.608 449.526 273.072C449.894 273.536 450.502 273.768 451.35 273.768C452.086 273.768 452.726 273.688 453.27 273.528C453.83 273.368 454.286 273.184 454.638 272.976V267.288L453.198 267.048V266.568H458.718V267.048L457.038 267.288V278.28L458.718 278.52V279H452.238V278.52ZM463.983 279.24C462.959 279.24 462.119 278.976 461.463 278.448C460.807 277.904 460.479 277.104 460.479 276.048C460.479 274.544 461.111 273.48 462.375 272.856C463.639 272.216 465.103 271.896 466.767 271.896H468.375V270.048C468.375 269.216 468.279 268.576 468.087 268.128C467.911 267.664 467.631 267.344 467.247 267.168C466.863 266.976 466.343 266.88 465.687 266.88C464.935 266.88 464.375 267.032 464.007 267.336C463.639 267.624 463.455 268.016 463.455 268.512C463.455 268.976 463.679 269.28 464.127 269.424C464.127 269.824 463.975 270.176 463.671 270.48C463.367 270.784 463.007 270.936 462.591 270.936C462.143 270.936 461.783 270.816 461.511 270.576C461.239 270.32 461.103 269.936 461.103 269.424C461.103 268.496 461.567 267.752 462.495 267.192C463.423 266.632 464.583 266.352 465.975 266.352C469.175 266.352 470.775 267.744 470.775 270.528V277.392C470.775 277.744 470.847 278.016 470.991 278.208C471.151 278.384 471.375 278.472 471.663 278.472C471.935 278.472 472.151 278.384 472.311 278.208C472.471 278.016 472.551 277.76 472.551 277.44H473.055C473.055 278 472.871 278.44 472.503 278.76C472.151 279.08 471.655 279.24 471.015 279.24C470.279 279.24 469.655 279.032 469.143 278.616C468.647 278.184 468.391 277.52 468.375 276.624C467.991 277.44 467.399 278.08 466.599 278.544C465.815 279.008 464.943 279.24 463.983 279.24ZM465.303 278.184C465.735 278.184 466.175 278.056 466.623 277.8C467.087 277.544 467.479 277.176 467.799 276.696C468.119 276.2 468.311 275.608 468.375 274.92V272.424H466.767C465.455 272.424 464.471 272.72 463.815 273.312C463.175 273.888 462.855 274.704 462.855 275.76C462.855 276.64 463.063 277.264 463.479 277.632C463.895 278 464.503 278.184 465.303 278.184ZM480.36 279.24C479.176 279.24 478.104 278.976 477.144 278.448C476.184 277.904 475.424 277.144 474.864 276.168C474.304 275.192 474.024 274.064 474.024 272.784C474.024 271.504 474.296 270.384 474.84 269.424C475.4 268.448 476.144 267.696 477.072 267.168C478.016 266.624 479.064 266.352 480.216 266.352C481.224 266.352 482.128 266.576 482.928 267.024C483.728 267.472 484.352 268.096 484.8 268.896C485.248 269.68 485.48 270.584 485.496 271.608H476.664V273.984C476.664 275.392 476.976 276.536 477.6 277.416C478.24 278.28 479.16 278.712 480.36 278.712C481.464 278.712 482.44 278.4 483.288 277.776C484.136 277.152 484.656 276.344 484.848 275.352H485.4C485.176 276.536 484.608 277.48 483.696 278.184C482.784 278.888 481.672 279.24 480.36 279.24ZM482.856 271.008C482.856 269.616 482.64 268.584 482.208 267.912C481.776 267.224 481.104 266.88 480.192 266.88C479.12 266.88 478.288 267.256 477.696 268.008C477.104 268.76 476.768 269.76 476.688 271.008H482.856ZM489.853 279V278.52L491.773 278.28V267.168H489.709L487.621 271.128H486.949L487.309 266.568H498.637L498.997 271.128H498.325L496.213 267.168H494.173V278.28L496.093 278.52V279H489.853ZM506.748 279.24C505.596 279.24 504.548 278.976 503.604 278.448C502.66 277.904 501.908 277.144 501.348 276.168C500.804 275.176 500.532 274.048 500.532 272.784C500.532 271.456 500.82 270.304 501.396 269.328C501.988 268.352 502.756 267.616 503.7 267.12C504.644 266.608 505.66 266.352 506.748 266.352C507.66 266.352 508.492 266.512 509.244 266.832C509.996 267.136 510.588 267.568 511.02 268.128C511.468 268.688 511.692 269.32 511.692 270.024C511.692 270.552 511.556 270.96 511.284 271.248C511.012 271.52 510.652 271.656 510.204 271.656C509.772 271.656 509.412 271.512 509.124 271.224C508.836 270.936 508.692 270.576 508.692 270.144C508.932 269.984 509.1 269.808 509.196 269.616C509.292 269.424 509.34 269.184 509.34 268.896C509.34 268.304 509.1 267.824 508.62 267.456C508.156 267.072 507.532 266.88 506.748 266.88C505.596 266.88 504.708 267.296 504.084 268.128C503.476 268.944 503.172 270.096 503.172 271.584V273.984C503.172 275.408 503.468 276.552 504.06 277.416C504.668 278.28 505.564 278.712 506.748 278.712C507.836 278.712 508.78 278.408 509.58 277.8C510.396 277.176 510.9 276.36 511.092 275.352H511.644C511.42 276.536 510.86 277.48 509.964 278.184C509.084 278.888 508.012 279.24 506.748 279.24ZM514.689 279.24C514.289 279.24 513.881 279.152 513.465 278.976C513.049 278.784 512.689 278.512 512.385 278.16L512.745 277.8C513.033 278.088 513.313 278.232 513.585 278.232C513.825 278.232 514.001 278.144 514.113 277.968C514.241 277.792 514.361 277.44 514.473 276.912L514.737 275.52C514.881 274.736 515.145 274.152 515.529 273.768C515.913 273.384 516.537 273.128 517.401 273V272.88C516.553 272.736 515.857 272.424 515.313 271.944C514.785 271.464 514.521 270.76 514.521 269.832C514.521 268.76 514.881 267.952 515.601 267.408C516.321 266.848 517.489 266.568 519.105 266.568H525.969V267.072L524.241 267.312V278.256L525.969 278.52V279H520.113V278.52L521.841 278.256V273.288H519.633C518.945 273.288 518.409 273.44 518.025 273.744C517.657 274.048 517.417 274.552 517.305 275.256L516.945 277.296C516.817 278 516.585 278.504 516.249 278.808C515.913 279.096 515.393 279.24 514.689 279.24ZM521.841 272.688V267.168H519.825C518.897 267.168 518.209 267.376 517.761 267.792C517.329 268.208 517.113 268.872 517.113 269.784V270.096C517.113 270.992 517.337 271.648 517.785 272.064C518.233 272.48 518.849 272.688 519.633 272.688H521.841ZM539.607 279.24C538.455 279.24 537.407 278.976 536.463 278.448C535.519 277.904 534.767 277.144 534.207 276.168C533.663 275.176 533.391 274.048 533.391 272.784C533.391 271.456 533.679 270.304 534.255 269.328C534.847 268.352 535.615 267.616 536.559 267.12C537.503 266.608 538.519 266.352 539.607 266.352C540.519 266.352 541.351 266.512 542.103 266.832C542.855 267.136 543.447 267.568 543.879 268.128C544.327 268.688 544.551 269.32 544.551 270.024C544.551 270.552 544.415 270.96 544.143 271.248C543.871 271.52 543.511 271.656 543.063 271.656C542.631 271.656 542.271 271.512 541.983 271.224C541.695 270.936 541.551 270.576 541.551 270.144C541.791 269.984 541.959 269.808 542.055 269.616C542.151 269.424 542.199 269.184 542.199 268.896C542.199 268.304 541.959 267.824 541.479 267.456C541.015 267.072 540.391 266.88 539.607 266.88C538.455 266.88 537.567 267.296 536.943 268.128C536.335 268.944 536.031 270.096 536.031 271.584V273.984C536.031 275.408 536.327 276.552 536.919 277.416C537.527 278.28 538.423 278.712 539.607 278.712C540.695 278.712 541.639 278.408 542.439 277.8C543.255 277.176 543.759 276.36 543.951 275.352H544.503C544.279 276.536 543.719 277.48 542.823 278.184C541.943 278.888 540.871 279.24 539.607 279.24ZM546.132 278.52L547.812 278.28V267.288L546.132 267.048V266.568H552.708C554.356 266.568 555.532 266.8 556.236 267.264C556.94 267.712 557.292 268.448 557.292 269.472C557.292 270.96 556.348 271.912 554.46 272.328V272.4C556.892 272.736 558.108 273.816 558.108 275.64C558.108 276.76 557.7 277.6 556.884 278.16C556.068 278.72 554.932 279 553.476 279H546.132V278.52ZM552.132 272.184C552.964 272.184 553.596 271.968 554.028 271.536C554.476 271.104 554.7 270.456 554.7 269.592V269.496C554.7 268.712 554.476 268.128 554.028 267.744C553.58 267.36 552.9 267.168 551.988 267.168H550.212V272.184H552.132ZM552.756 278.4C553.636 278.4 554.316 278.168 554.796 277.704C555.276 277.24 555.516 276.56 555.516 275.664V275.496C555.516 274.584 555.276 273.904 554.796 273.456C554.332 272.992 553.652 272.76 552.756 272.76H550.212V278.4H552.756ZM566.256 279.24C565.104 279.24 564.056 278.976 563.112 278.448C562.168 277.904 561.416 277.144 560.856 276.168C560.312 275.176 560.04 274.048 560.04 272.784C560.04 271.52 560.312 270.4 560.856 269.424C561.416 268.448 562.168 267.696 563.112 267.168C564.056 266.624 565.104 266.352 566.256 266.352C567.408 266.352 568.456 266.624 569.4 267.168C570.344 267.696 571.088 268.448 571.632 269.424C572.192 270.4 572.472 271.52 572.472 272.784C572.472 274.048 572.192 275.176 571.632 276.168C571.088 277.144 570.344 277.904 569.4 278.448C568.456 278.976 567.408 279.24 566.256 279.24ZM566.256 278.712C567.44 278.712 568.328 278.28 568.92 277.416C569.528 276.552 569.832 275.408 569.832 273.984V271.584C569.832 270.16 569.528 269.024 568.92 268.176C568.328 267.312 567.44 266.88 566.256 266.88C565.072 266.88 564.176 267.312 563.568 268.176C562.976 269.024 562.68 270.16 562.68 271.584V273.984C562.68 275.408 562.976 276.552 563.568 277.416C564.176 278.28 565.072 278.712 566.256 278.712ZM574.14 279V278.52L575.82 278.28V267.288L574.14 267.048V266.568H579.66V267.048L578.22 267.288V276.624L584.292 267.768V267.288L582.852 267.048V266.568H588.372V267.048L586.692 267.288V278.28L588.372 278.52V279H582.852V278.52L584.292 278.28V268.776L578.22 277.656V278.28L579.66 278.52V279H574.14ZM589.679 279V278.52L591.503 277.8V267.264L589.823 267.048V266.568H594.479L598.271 275.544L602.039 266.568H606.455V267.048L604.775 267.288V278.28L606.455 278.52V279H600.935V278.52L602.375 278.28V267.36L597.407 279H597.119L592.103 267.36V277.8L593.927 278.52V279H589.679ZM607.75 279V278.52L609.43 278.28V267.288L607.75 267.048V266.568H613.27V267.048L611.83 267.288V276.624L617.902 267.768V267.288L616.462 267.048V266.568H621.982V267.048L620.302 267.288V278.28L621.982 278.52V279H616.462V278.52L617.902 278.28V268.776L611.83 277.656V278.28L613.27 278.52V279H607.75ZM634.359 279.24C632.583 279.24 631.287 278.992 630.471 278.496C629.671 277.984 629.271 277.344 629.271 276.576C629.271 276.096 629.407 275.712 629.679 275.424C629.967 275.12 630.343 274.968 630.807 274.968C631.111 274.968 631.383 275.048 631.623 275.208C631.863 275.368 632.031 275.592 632.127 275.88C631.855 276.2 631.719 276.536 631.719 276.888C631.719 277.432 631.959 277.888 632.439 278.256C632.935 278.608 633.575 278.784 634.359 278.784C635.319 278.784 636.087 278.536 636.663 278.04C637.255 277.528 637.551 276.784 637.551 275.808V275.496C637.551 274.616 637.223 273.944 636.567 273.48C635.927 273 635.127 272.76 634.167 272.76H632.823V272.184H634.167C635.079 272.184 635.775 271.968 636.255 271.536C636.735 271.088 636.975 270.44 636.975 269.592V269.496C636.975 267.704 636.127 266.808 634.431 266.808C633.519 266.808 632.679 267.032 631.911 267.48L630.471 270.912H629.967L630.231 266.352L631.671 267.048C632.567 266.584 633.503 266.352 634.479 266.352C636.271 266.352 637.567 266.616 638.367 267.144C639.167 267.656 639.567 268.432 639.567 269.472C639.567 270.224 639.287 270.848 638.727 271.344C638.183 271.84 637.359 272.176 636.255 272.352V272.376C637.551 272.504 638.519 272.848 639.159 273.408C639.815 273.968 640.143 274.712 640.143 275.64C640.143 276.776 639.663 277.664 638.703 278.304C637.743 278.928 636.295 279.24 634.359 279.24ZM645.764 279.24C644.74 279.24 643.9 278.976 643.244 278.448C642.588 277.904 642.26 277.104 642.26 276.048C642.26 274.544 642.892 273.48 644.156 272.856C645.42 272.216 646.884 271.896 648.548 271.896H650.156V270.048C650.156 269.216 650.06 268.576 649.868 268.128C649.692 267.664 649.412 267.344 649.028 267.168C648.644 266.976 648.124 266.88 647.468 266.88C646.716 266.88 646.156 267.032 645.788 267.336C645.42 267.624 645.236 268.016 645.236 268.512C645.236 268.976 645.46 269.28 645.908 269.424C645.908 269.824 645.756 270.176 645.452 270.48C645.148 270.784 644.788 270.936 644.372 270.936C643.924 270.936 643.564 270.816 643.292 270.576C643.02 270.32 642.884 269.936 642.884 269.424C642.884 268.496 643.348 267.752 644.276 267.192C645.204 266.632 646.364 266.352 647.756 266.352C650.956 266.352 652.556 267.744 652.556 270.528V277.392C652.556 277.744 652.628 278.016 652.772 278.208C652.932 278.384 653.156 278.472 653.444 278.472C653.716 278.472 653.932 278.384 654.092 278.208C654.252 278.016 654.332 277.76 654.332 277.44H654.836C654.836 278 654.652 278.44 654.284 278.76C653.932 279.08 653.436 279.24 652.796 279.24C652.06 279.24 651.436 279.032 650.924 278.616C650.428 278.184 650.172 277.52 650.156 276.624C649.772 277.44 649.18 278.08 648.38 278.544C647.596 279.008 646.724 279.24 645.764 279.24ZM647.084 278.184C647.516 278.184 647.956 278.056 648.404 277.8C648.868 277.544 649.26 277.176 649.58 276.696C649.9 276.2 650.092 275.608 650.156 274.92V272.424H648.548C647.236 272.424 646.252 272.72 645.596 273.312C644.956 273.888 644.636 274.704 644.636 275.76C644.636 276.64 644.844 277.264 645.26 277.632C645.676 278 646.284 278.184 647.084 278.184ZM662.021 279.24C660.869 279.24 659.821 278.976 658.877 278.448C657.933 277.904 657.181 277.144 656.621 276.168C656.077 275.176 655.805 274.048 655.805 272.784C655.805 271.456 656.093 270.304 656.669 269.328C657.261 268.352 658.029 267.616 658.973 267.12C659.917 266.608 660.933 266.352 662.021 266.352C662.933 266.352 663.765 266.512 664.517 266.832C665.269 267.136 665.861 267.568 666.293 268.128C666.741 268.688 666.965 269.32 666.965 270.024C666.965 270.552 666.829 270.96 666.557 271.248C666.285 271.52 665.925 271.656 665.477 271.656C665.045 271.656 664.685 271.512 664.397 271.224C664.109 270.936 663.965 270.576 663.965 270.144C664.205 269.984 664.373 269.808 664.469 269.616C664.565 269.424 664.613 269.184 664.613 268.896C664.613 268.304 664.373 267.824 663.893 267.456C663.429 267.072 662.805 266.88 662.021 266.88C660.869 266.88 659.981 267.296 659.357 268.128C658.749 268.944 658.445 270.096 658.445 271.584V273.984C658.445 275.408 658.741 276.552 659.333 277.416C659.941 278.28 660.837 278.712 662.021 278.712C663.109 278.712 664.053 278.408 664.853 277.8C665.669 277.176 666.173 276.36 666.365 275.352H666.917C666.693 276.536 666.133 277.48 665.237 278.184C664.357 278.888 663.285 279.24 662.021 279.24ZM675.266 279.24C674.082 279.24 673.01 278.976 672.05 278.448C671.09 277.904 670.33 277.144 669.77 276.168C669.21 275.192 668.93 274.064 668.93 272.784C668.93 271.504 669.202 270.384 669.746 269.424C670.306 268.448 671.05 267.696 671.978 267.168C672.922 266.624 673.97 266.352 675.122 266.352C676.13 266.352 677.034 266.576 677.834 267.024C678.634 267.472 679.258 268.096 679.706 268.896C680.154 269.68 680.386 270.584 680.402 271.608H671.57V273.984C671.57 275.392 671.882 276.536 672.506 277.416C673.146 278.28 674.066 278.712 675.266 278.712C676.37 278.712 677.346 278.4 678.194 277.776C679.042 277.152 679.562 276.344 679.754 275.352H680.306C680.082 276.536 679.514 277.48 678.602 278.184C677.69 278.888 676.578 279.24 675.266 279.24ZM677.762 271.008C677.762 269.616 677.546 268.584 677.114 267.912C676.682 267.224 676.01 266.88 675.098 266.88C674.026 266.88 673.194 267.256 672.602 268.008C672.01 268.76 671.674 269.76 671.594 271.008H677.762ZM688.84 278.52L691.24 278.28V273.624C690.808 273.848 690.256 274.048 689.584 274.224C688.928 274.4 688.176 274.488 687.328 274.488C686.016 274.488 684.992 274.216 684.256 273.672C683.536 273.128 683.176 272.248 683.176 271.032V267.288L681.496 267.048V266.568H687.016V267.048L685.576 267.288V271.032C685.576 271.928 685.76 272.608 686.128 273.072C686.496 273.536 687.104 273.768 687.952 273.768C688.688 273.768 689.328 273.688 689.872 273.528C690.432 273.368 690.888 273.184 691.24 272.976V267.288L689.8 267.048V266.568H695.32V267.048L693.64 267.288V278.28L695.32 278.52V279H688.84V278.52ZM707.809 279.24C707.105 279.24 706.585 279.096 706.249 278.808C705.913 278.504 705.681 278 705.553 277.296L705.073 274.752C704.929 274 704.689 273.472 704.353 273.168C704.017 272.864 703.561 272.704 702.985 272.688H700.753V278.256L702.481 278.52V279H696.625V278.52L698.353 278.256V267.312L696.625 267.072V266.568H702.481V267.072L700.753 267.312V272.136H703.009C703.409 272.104 703.729 271.968 703.969 271.728C704.209 271.472 704.409 271.04 704.569 270.432L705.001 268.704C705.193 267.92 705.449 267.336 705.769 266.952C706.105 266.552 706.617 266.352 707.305 266.352C707.881 266.352 708.329 266.512 708.649 266.832C708.969 267.136 709.129 267.512 709.129 267.96C709.129 268.376 708.993 268.736 708.721 269.04C708.465 269.328 708.113 269.472 707.665 269.472C707.425 269.472 707.193 269.432 706.969 269.352C707.017 269.208 707.041 269.072 707.041 268.944C707.041 268.736 706.977 268.56 706.849 268.416C706.721 268.272 706.561 268.2 706.369 268.2C705.985 268.2 705.729 268.424 705.601 268.872L705.145 270.6C704.937 271.352 704.665 271.88 704.329 272.184C705.385 272.28 706.153 272.536 706.633 272.952C707.129 273.368 707.457 274 707.617 274.848L708.025 276.912C708.137 277.44 708.249 277.792 708.361 277.968C708.489 278.144 708.673 278.232 708.913 278.232C709.185 278.232 709.465 278.088 709.753 277.8L710.113 278.16C709.809 278.512 709.449 278.784 709.033 278.976C708.617 279.152 708.209 279.24 707.809 279.24ZM714.6 279.24C713.576 279.24 712.736 278.976 712.08 278.448C711.424 277.904 711.096 277.104 711.096 276.048C711.096 274.544 711.728 273.48 712.992 272.856C714.256 272.216 715.72 271.896 717.384 271.896H718.992V270.048C718.992 269.216 718.896 268.576 718.704 268.128C718.528 267.664 718.248 267.344 717.864 267.168C717.48 266.976 716.96 266.88 716.304 266.88C715.552 266.88 714.992 267.032 714.624 267.336C714.256 267.624 714.072 268.016 714.072 268.512C714.072 268.976 714.296 269.28 714.744 269.424C714.744 269.824 714.592 270.176 714.288 270.48C713.984 270.784 713.624 270.936 713.208 270.936C712.76 270.936 712.4 270.816 712.128 270.576C711.856 270.32 711.72 269.936 711.72 269.424C711.72 268.496 712.184 267.752 713.112 267.192C714.04 266.632 715.2 266.352 716.592 266.352C719.792 266.352 721.392 267.744 721.392 270.528V277.392C721.392 277.744 721.464 278.016 721.608 278.208C721.768 278.384 721.992 278.472 722.28 278.472C722.552 278.472 722.768 278.384 722.928 278.208C723.088 278.016 723.168 277.76 723.168 277.44H723.672C723.672 278 723.488 278.44 723.12 278.76C722.768 279.08 722.272 279.24 721.632 279.24C720.896 279.24 720.272 279.032 719.76 278.616C719.264 278.184 719.008 277.52 718.992 276.624C718.608 277.44 718.016 278.08 717.216 278.544C716.432 279.008 715.56 279.24 714.6 279.24ZM715.92 278.184C716.352 278.184 716.792 278.056 717.24 277.8C717.704 277.544 718.096 277.176 718.416 276.696C718.736 276.2 718.928 275.608 718.992 274.92V272.424H717.384C716.072 272.424 715.088 272.72 714.432 273.312C713.792 273.888 713.472 274.704 713.472 275.76C713.472 276.64 713.68 277.264 714.096 277.632C714.512 278 715.12 278.184 715.92 278.184ZM724.257 279V278.52L726.081 277.8V267.264L724.401 267.048V266.568H729.057L732.849 275.544L736.617 266.568H741.033V267.048L739.353 267.288V278.28L741.033 278.52V279H735.513V278.52L736.953 278.28V267.36L731.985 279H731.697L726.681 267.36V277.8L728.505 278.52V279H724.257ZM742.328 279V278.52L744.008 278.28V267.288L742.328 267.048V266.568H747.848V267.048L746.408 267.288V276.624L752.48 267.768V267.288L751.04 267.048V266.568H756.56V267.048L754.88 267.288V278.28L756.56 278.52V279H751.04V278.52L752.48 278.28V268.776L746.408 277.656V278.28L747.848 278.52V279H742.328ZM763.609 279V278.52L765.289 278.28V267.288L763.609 267.048V266.568H769.129V267.048L767.689 267.288V276.624L773.761 267.768V267.288L772.321 267.048V266.568H777.841V267.048L776.161 267.288V278.28L777.841 278.52V279H772.321V278.52L773.761 278.28V268.776L767.689 277.656V278.28L769.129 278.52V279H763.609ZM784.89 279V278.52L786.57 278.28V267.288L784.89 267.048V266.568H790.41V267.048L788.97 267.288V276.624L795.042 267.768V267.288L793.602 267.048V266.568H799.122V267.048L797.442 267.288V278.28L799.122 278.52V279H793.602V278.52L795.042 278.28V268.776L788.97 277.656V278.28L790.41 278.52V279H784.89ZM805.757 279.24C803.981 279.24 802.685 278.992 801.869 278.496C801.069 277.984 800.669 277.344 800.669 276.576C800.669 276.096 800.805 275.712 801.077 275.424C801.365 275.12 801.741 274.968 802.205 274.968C802.509 274.968 802.781 275.048 803.021 275.208C803.261 275.368 803.429 275.592 803.525 275.88C803.253 276.2 803.117 276.536 803.117 276.888C803.117 277.432 803.357 277.888 803.837 278.256C804.333 278.608 804.973 278.784 805.757 278.784C806.717 278.784 807.485 278.536 808.061 278.04C808.653 277.528 808.949 276.784 808.949 275.808V275.496C808.949 274.616 808.621 273.944 807.965 273.48C807.325 273 806.525 272.76 805.565 272.76H804.221V272.184H805.565C806.477 272.184 807.173 271.968 807.653 271.536C808.133 271.088 808.373 270.44 808.373 269.592V269.496C808.373 267.704 807.525 266.808 805.829 266.808C804.917 266.808 804.077 267.032 803.309 267.48L801.869 270.912H801.365L801.629 266.352L803.069 267.048C803.965 266.584 804.901 266.352 805.877 266.352C807.669 266.352 808.965 266.616 809.765 267.144C810.565 267.656 810.965 268.432 810.965 269.472C810.965 270.224 810.685 270.848 810.125 271.344C809.581 271.84 808.757 272.176 807.653 272.352V272.376C808.949 272.504 809.917 272.848 810.557 273.408C811.213 273.968 811.541 274.712 811.541 275.64C811.541 276.776 811.061 277.664 810.101 278.304C809.141 278.928 807.693 279.24 805.757 279.24ZM813.203 279V278.52L814.883 278.28V267.288L813.203 267.048V266.568H823.691L824.051 271.128H823.379L821.267 267.168H817.283V278.28L819.443 278.52V279H813.203ZM825.203 279V278.52L826.883 278.28V267.288L825.203 267.048V266.568H830.723V267.048L829.283 267.288V276.624L835.355 267.768V267.288L833.915 267.048V266.568H839.435V267.048L837.755 267.288V278.28L839.435 278.52V279H833.915V278.52L835.355 278.28V268.776L829.283 277.656V278.28L830.723 278.52V279H825.203ZM847.726 279.24C845.822 279.24 844.27 278.568 843.07 277.224C841.886 275.88 841.294 273.808 841.294 271.008C841.294 267.92 841.894 265.56 843.094 263.928C844.294 262.296 845.974 261.48 848.134 261.48H850.054C850.854 261.48 851.446 261.344 851.83 261.072C852.214 260.784 852.406 260.36 852.406 259.8H852.982C852.982 260.808 852.87 261.608 852.646 262.2C852.438 262.792 852.094 263.224 851.614 263.496C851.15 263.752 850.51 263.88 849.694 263.88H847.726C843.918 263.88 842.014 266.256 842.014 271.008H842.158C842.51 269.648 843.19 268.568 844.198 267.768C845.206 266.968 846.382 266.568 847.726 266.568C848.798 266.568 849.79 266.832 850.702 267.36C851.614 267.888 852.342 268.632 852.886 269.592C853.43 270.552 853.702 271.656 853.702 272.904C853.702 274.152 853.43 275.256 852.886 276.216C852.342 277.176 851.614 277.92 850.702 278.448C849.79 278.976 848.798 279.24 847.726 279.24ZM847.726 278.664C848.846 278.664 849.678 278.256 850.222 277.44C850.782 276.624 851.062 275.512 851.062 274.104V271.704C851.062 270.296 850.782 269.184 850.222 268.368C849.678 267.552 848.846 267.144 847.726 267.144C846.606 267.144 845.766 267.552 845.206 268.368C844.662 269.184 844.39 270.296 844.39 271.704V274.104C844.39 275.512 844.662 276.624 845.206 277.44C845.766 278.256 846.606 278.664 847.726 278.664ZM859.35 279.24C858.326 279.24 857.486 278.976 856.83 278.448C856.174 277.904 855.846 277.104 855.846 276.048C855.846 274.544 856.478 273.48 857.742 272.856C859.006 272.216 860.47 271.896 862.134 271.896H863.742V270.048C863.742 269.216 863.646 268.576 863.454 268.128C863.278 267.664 862.998 267.344 862.614 267.168C862.23 266.976 861.71 266.88 861.054 266.88C860.302 266.88 859.742 267.032 859.374 267.336C859.006 267.624 858.822 268.016 858.822 268.512C858.822 268.976 859.046 269.28 859.494 269.424C859.494 269.824 859.342 270.176 859.038 270.48C858.734 270.784 858.374 270.936 857.958 270.936C857.51 270.936 857.15 270.816 856.878 270.576C856.606 270.32 856.47 269.936 856.47 269.424C856.47 268.496 856.934 267.752 857.862 267.192C858.79 266.632 859.95 266.352 861.342 266.352C864.542 266.352 866.142 267.744 866.142 270.528V277.392C866.142 277.744 866.214 278.016 866.358 278.208C866.518 278.384 866.742 278.472 867.03 278.472C867.302 278.472 867.518 278.384 867.678 278.208C867.838 278.016 867.918 277.76 867.918 277.44H868.422C868.422 278 868.238 278.44 867.87 278.76C867.518 279.08 867.022 279.24 866.382 279.24C865.646 279.24 865.022 279.032 864.51 278.616C864.014 278.184 863.758 277.52 863.742 276.624C863.358 277.44 862.766 278.08 861.966 278.544C861.182 279.008 860.31 279.24 859.35 279.24ZM860.67 278.184C861.102 278.184 861.542 278.056 861.99 277.8C862.454 277.544 862.846 277.176 863.166 276.696C863.486 276.2 863.678 275.608 863.742 274.92V272.424H862.134C860.822 272.424 859.838 272.72 859.182 273.312C858.542 273.888 858.222 274.704 858.222 275.76C858.222 276.64 858.43 277.264 858.846 277.632C859.262 278 859.87 278.184 860.67 278.184ZM869.007 279V278.52L870.831 277.8V267.264L869.151 267.048V266.568H873.807L877.599 275.544L881.367 266.568H885.783V267.048L884.103 267.288V278.28L885.783 278.52V279H880.263V278.52L881.703 278.28V267.36L876.735 279H876.447L871.431 267.36V277.8L873.255 278.52V279H869.007ZM887.078 279V278.52L888.758 278.28V267.288L887.078 267.048V266.568H892.598V267.048L891.158 267.288V276.624L897.23 267.768V267.288L895.79 267.048V266.568H901.31V267.048L899.63 267.288V278.28L901.31 278.52V279H895.79V278.52L897.23 278.28V268.776L891.158 277.656V278.28L892.598 278.52V279H887.078Z" fill="white"/>
<path d="M64.232 499V495.976L77.48 493.816V387.4H53.72L42.776 415.912H38.6V383.8H132.344V415.912H128.024L117.224 387.4H93.32V493.816L106.568 495.976V499H64.232Z" fill="white"/>
<path d="M266.232 493.88L225.624 380.984L215.976 378.968V375.8H256.008V378.968L242.904 380.984L273.864 466.232L294.888 411.224L284.088 380.984L270.84 378.968V375.8H313.608V378.968L301.224 380.696L332.472 466.088L363.432 385.448L347.16 378.968V375.8H378.12V378.968L367.176 385.304L325.992 493.88H324.84L296.76 416.264L267.384 493.88H266.232Z" fill="white"/>
<path d="M419.76 486.976L433.008 484.816V379.984L419.76 377.968V374.8H464.976C479.184 374.8 489.744 377.824 496.656 383.872C503.568 389.92 507.024 398.656 507.024 410.08C507.024 421.504 503.568 430.24 496.656 436.288C489.744 442.336 479.184 445.36 464.976 445.36H448.848V484.816L462.096 486.976V490H419.76V486.976ZM462.96 441.904C480.72 441.904 489.6 432.256 489.6 412.96V407.2C489.6 388 480.72 378.4 462.96 378.4H448.848V441.904H462.96Z" fill="white"/>
<path d="M570.76 489V485.976L584.008 483.816V378.984L570.76 376.968V373.8H613.096V376.968L599.848 378.984V426.216H654.568V378.984L641.176 376.968V373.8H683.8V376.968L670.408 378.984V483.816L683.8 485.976V489H641.176V485.976L654.568 483.816V429.816H599.848V483.816L613.096 485.976V489H570.76Z" fill="white"/>
<path d="M798.024 492.88C792.264 492.88 787.464 491.632 783.624 489.136C779.88 486.64 778.008 482.992 778.008 478.192C778.008 475.024 778.872 472.48 780.6 470.56C782.424 468.544 784.776 467.536 787.656 467.536C789.96 467.536 791.784 468.16 793.128 469.408C794.472 470.656 795.384 472 795.864 473.44C796.44 474.784 796.728 475.648 796.728 476.032C793.944 478.048 792.552 480.4 792.552 483.088C792.552 484.912 793.128 486.448 794.28 487.696C795.432 488.944 797.016 489.568 799.032 489.568C802.104 489.568 804.504 487.504 806.232 483.376C808.056 479.152 808.968 471.904 808.968 461.632V379.984L795.72 377.968V374.8H837.48V377.968L824.232 379.984V461.632C824.232 468.352 823.56 473.968 822.216 478.48C820.968 482.896 818.424 486.4 814.584 488.992C810.744 491.584 805.224 492.88 798.024 492.88Z" fill="white"/>
<path d="M1040.9 492.88C1030.44 492.88 1021.27 490.336 1013.4 485.248C1005.53 480.16 999.432 473.056 995.112 463.936C990.888 454.816 988.776 444.304 988.776 432.4C988.776 420.496 990.936 409.984 995.256 400.864C999.672 391.648 1005.86 384.544 1013.83 379.552C1021.9 374.464 1031.16 371.92 1041.62 371.92C1045.75 371.92 1049.93 372.64 1054.15 374.08C1058.47 375.52 1062.36 377.536 1065.82 380.128L1075.46 371.92H1078.49V407.632H1075.46L1066.54 385.312C1063.18 382.24 1059.24 379.792 1054.73 377.968C1050.31 376.144 1045.94 375.232 1041.62 375.232C1034.9 375.232 1028.95 376.96 1023.77 380.416C1018.68 383.872 1014.7 388.912 1011.82 395.536C1008.94 402.16 1007.5 410.032 1007.5 419.152V445.504C1007.5 454.624 1008.89 462.496 1011.67 469.12C1014.46 475.744 1018.34 480.832 1023.34 484.384C1028.33 487.84 1034.18 489.568 1040.9 489.568C1045.8 489.568 1050.7 488.512 1055.59 486.4C1060.49 484.192 1064.57 481.264 1067.83 477.616L1076.18 454.432H1079.21V491.44H1076.18L1065.82 484.096C1062.36 486.88 1058.42 489.04 1054.01 490.576C1049.59 492.112 1045.22 492.88 1040.9 492.88Z" fill="white"/>
</svg>
