<svg width="645" height="609" viewBox="0 0 645 609" fill="none" xmlns="http://www.w3.org/2000/svg">
<path d="M387 249.8L405.4 246.8V101.2L387 98.4V94H448C462.4 94 473.867 95.3333 482.4 98C490.933 100.667 497.133 104.733 501 110.2C504.867 115.533 506.8 122.6 506.8 131.4C506.8 150.6 494.667 162.867 470.4 168.2V169.2C485.2 171.2 496.667 175.6 504.8 182.4C513.067 189.2 517.2 198.667 517.2 210.8C517.2 225.467 511.8 236.333 501 243.4C490.333 250.467 475.867 254 457.6 254H387V249.8ZM449.6 167.6C460.267 167.6 468.467 164.6 474.2 158.6C479.933 152.6 482.8 144.067 482.8 133V131.8C482.8 109.933 471.2 99 448 99H427.4V167.6H449.6ZM457.6 249.2C468.933 249.2 477.733 245.933 484 239.4C490.267 232.733 493.4 223.267 493.4 211V208.8C493.4 196.667 490.267 187.6 484 181.6C477.867 175.6 469.067 172.6 457.6 172.6H427.4V249.2H457.6Z" fill="white"/>
<path opacity="0.4" d="M448 421.8L466.4 418.8V273.2L448 270.4V266H509C523.4 266 534.867 267.333 543.4 270C551.933 272.667 558.133 276.733 562 282.2C565.867 287.533 567.8 294.6 567.8 303.4C567.8 322.6 555.667 334.867 531.4 340.2V341.2C546.2 343.2 557.667 347.6 565.8 354.4C574.067 361.2 578.2 370.667 578.2 382.8C578.2 397.467 572.8 408.333 562 415.4C551.333 422.467 536.867 426 518.6 426H448V421.8ZM510.6 339.6C521.267 339.6 529.467 336.6 535.2 330.6C540.933 324.6 543.8 316.067 543.8 305V303.8C543.8 281.933 532.2 271 509 271H488.4V339.6H510.6ZM518.6 421.2C529.933 421.2 538.733 417.933 545 411.4C551.267 404.733 554.4 395.267 554.4 383V380.8C554.4 368.667 551.267 359.6 545 353.6C538.867 347.6 530.067 344.6 518.6 344.6H488.4V421.2H518.6Z" fill="white"/>
<path opacity="0.04" d="M263 321.8L281.4 318.8V173.2L263 170.4V166H324C338.4 166 349.867 167.333 358.4 170C366.933 172.667 373.133 176.733 377 182.2C380.867 187.533 382.8 194.6 382.8 203.4C382.8 222.6 370.667 234.867 346.4 240.2V241.2C361.2 243.2 372.667 247.6 380.8 254.4C389.067 261.2 393.2 270.667 393.2 282.8C393.2 297.467 387.8 308.333 377 315.4C366.333 322.467 351.867 326 333.6 326H263V321.8ZM325.6 239.6C336.267 239.6 344.467 236.6 350.2 230.6C355.933 224.6 358.8 216.067 358.8 205V203.8C358.8 181.933 347.2 171 324 171H303.4V239.6H325.6ZM333.6 321.2C344.933 321.2 353.733 317.933 360 311.4C366.267 304.733 369.4 295.267 369.4 283V280.8C369.4 268.667 366.267 259.6 360 253.6C353.867 247.6 345.067 244.6 333.6 244.6H303.4V321.2H333.6Z" fill="white"/>
<path d="M387 249.8L405.4 246.8V101.2L387 98.4V94H448C462.4 94 473.867 95.3333 482.4 98C490.933 100.667 497.133 104.733 501 110.2C504.867 115.533 506.8 122.6 506.8 131.4C506.8 150.6 494.667 162.867 470.4 168.2V169.2C485.2 171.2 496.667 175.6 504.8 182.4C513.067 189.2 517.2 198.667 517.2 210.8C517.2 225.467 511.8 236.333 501 243.4C490.333 250.467 475.867 254 457.6 254H387V249.8ZM449.6 167.6C460.267 167.6 468.467 164.6 474.2 158.6C479.933 152.6 482.8 144.067 482.8 133V131.8C482.8 109.933 471.2 99 448 99H427.4V167.6H449.6ZM457.6 249.2C468.933 249.2 477.733 245.933 484 239.4C490.267 232.733 493.4 223.267 493.4 211V208.8C493.4 196.667 490.267 187.6 484 181.6C477.867 175.6 469.067 172.6 457.6 172.6H427.4V249.2H457.6Z" fill="white"/>
<path opacity="0.4" d="M448 421.8L466.4 418.8V273.2L448 270.4V266H509C523.4 266 534.867 267.333 543.4 270C551.933 272.667 558.133 276.733 562 282.2C565.867 287.533 567.8 294.6 567.8 303.4C567.8 322.6 555.667 334.867 531.4 340.2V341.2C546.2 343.2 557.667 347.6 565.8 354.4C574.067 361.2 578.2 370.667 578.2 382.8C578.2 397.467 572.8 408.333 562 415.4C551.333 422.467 536.867 426 518.6 426H448V421.8ZM510.6 339.6C521.267 339.6 529.467 336.6 535.2 330.6C540.933 324.6 543.8 316.067 543.8 305V303.8C543.8 281.933 532.2 271 509 271H488.4V339.6H510.6ZM518.6 421.2C529.933 421.2 538.733 417.933 545 411.4C551.267 404.733 554.4 395.267 554.4 383V380.8C554.4 368.667 551.267 359.6 545 353.6C538.867 347.6 530.067 344.6 518.6 344.6H488.4V421.2H518.6Z" fill="white"/>
<path opacity="0.04" d="M263 321.8L281.4 318.8V173.2L263 170.4V166H324C338.4 166 349.867 167.333 358.4 170C366.933 172.667 373.133 176.733 377 182.2C380.867 187.533 382.8 194.6 382.8 203.4C382.8 222.6 370.667 234.867 346.4 240.2V241.2C361.2 243.2 372.667 247.6 380.8 254.4C389.067 261.2 393.2 270.667 393.2 282.8C393.2 297.467 387.8 308.333 377 315.4C366.333 322.467 351.867 326 333.6 326H263V321.8ZM325.6 239.6C336.267 239.6 344.467 236.6 350.2 230.6C355.933 224.6 358.8 216.067 358.8 205V203.8C358.8 181.933 347.2 171 324 171H303.4V239.6H325.6ZM333.6 321.2C344.933 321.2 353.733 317.933 360 311.4C366.267 304.733 369.4 295.267 369.4 283V280.8C369.4 268.667 366.267 259.6 360 253.6C353.867 247.6 345.067 244.6 333.6 244.6H303.4V321.2H333.6Z" fill="white"/>
<path d="M369 249.8L387.4 246.8V101.2L369 98.4V94H430C444.4 94 455.867 95.3333 464.4 98C472.933 100.667 479.133 104.733 483 110.2C486.867 115.533 488.8 122.6 488.8 131.4C488.8 150.6 476.667 162.867 452.4 168.2V169.2C467.2 171.2 478.667 175.6 486.8 182.4C495.067 189.2 499.2 198.667 499.2 210.8C499.2 225.467 493.8 236.333 483 243.4C472.333 250.467 457.867 254 439.6 254H369V249.8ZM431.6 167.6C442.267 167.6 450.467 164.6 456.2 158.6C461.933 152.6 464.8 144.067 464.8 133V131.8C464.8 109.933 453.2 99 430 99H409.4V167.6H431.6ZM439.6 249.2C450.933 249.2 459.733 245.933 466 239.4C472.267 232.733 475.4 223.267 475.4 211V208.8C475.4 196.667 472.267 187.6 466 181.6C459.867 175.6 451.067 172.6 439.6 172.6H409.4V249.2H439.6Z" fill="white"/>
<path opacity="0.4" d="M430 421.8L448.4 418.8V273.2L430 270.4V266H491C505.4 266 516.867 267.333 525.4 270C533.933 272.667 540.133 276.733 544 282.2C547.867 287.533 549.8 294.6 549.8 303.4C549.8 322.6 537.667 334.867 513.4 340.2V341.2C528.2 343.2 539.667 347.6 547.8 354.4C556.067 361.2 560.2 370.667 560.2 382.8C560.2 397.467 554.8 408.333 544 415.4C533.333 422.467 518.867 426 500.6 426H430V421.8ZM492.6 339.6C503.267 339.6 511.467 336.6 517.2 330.6C522.933 324.6 525.8 316.067 525.8 305V303.8C525.8 281.933 514.2 271 491 271H470.4V339.6H492.6ZM500.6 421.2C511.933 421.2 520.733 417.933 527 411.4C533.267 404.733 536.4 395.267 536.4 383V380.8C536.4 368.667 533.267 359.6 527 353.6C520.867 347.6 512.067 344.6 500.6 344.6H470.4V421.2H500.6Z" fill="white"/>
<path opacity="0.04" d="M245 321.8L263.4 318.8V173.2L245 170.4V166H306C320.4 166 331.867 167.333 340.4 170C348.933 172.667 355.133 176.733 359 182.2C362.867 187.533 364.8 194.6 364.8 203.4C364.8 222.6 352.667 234.867 328.4 240.2V241.2C343.2 243.2 354.667 247.6 362.8 254.4C371.067 261.2 375.2 270.667 375.2 282.8C375.2 297.467 369.8 308.333 359 315.4C348.333 322.467 333.867 326 315.6 326H245V321.8ZM307.6 239.6C318.267 239.6 326.467 236.6 332.2 230.6C337.933 224.6 340.8 216.067 340.8 205V203.8C340.8 181.933 329.2 171 306 171H285.4V239.6H307.6ZM315.6 321.2C326.933 321.2 335.733 317.933 342 311.4C348.267 304.733 351.4 295.267 351.4 283V280.8C351.4 268.667 348.267 259.6 342 253.6C335.867 247.6 327.067 244.6 315.6 244.6H285.4V321.2H315.6Z" fill="white"/>
<path d="M369 249.8L387.4 246.8V101.2L369 98.4V94H430C444.4 94 455.867 95.3333 464.4 98C472.933 100.667 479.133 104.733 483 110.2C486.867 115.533 488.8 122.6 488.8 131.4C488.8 150.6 476.667 162.867 452.4 168.2V169.2C467.2 171.2 478.667 175.6 486.8 182.4C495.067 189.2 499.2 198.667 499.2 210.8C499.2 225.467 493.8 236.333 483 243.4C472.333 250.467 457.867 254 439.6 254H369V249.8ZM431.6 167.6C442.267 167.6 450.467 164.6 456.2 158.6C461.933 152.6 464.8 144.067 464.8 133V131.8C464.8 109.933 453.2 99 430 99H409.4V167.6H431.6ZM439.6 249.2C450.933 249.2 459.733 245.933 466 239.4C472.267 232.733 475.4 223.267 475.4 211V208.8C475.4 196.667 472.267 187.6 466 181.6C459.867 175.6 451.067 172.6 439.6 172.6H409.4V249.2H439.6Z" fill="white"/>
<path opacity="0.4" d="M430 421.8L448.4 418.8V273.2L430 270.4V266H491C505.4 266 516.867 267.333 525.4 270C533.933 272.667 540.133 276.733 544 282.2C547.867 287.533 549.8 294.6 549.8 303.4C549.8 322.6 537.667 334.867 513.4 340.2V341.2C528.2 343.2 539.667 347.6 547.8 354.4C556.067 361.2 560.2 370.667 560.2 382.8C560.2 397.467 554.8 408.333 544 415.4C533.333 422.467 518.867 426 500.6 426H430V421.8ZM492.6 339.6C503.267 339.6 511.467 336.6 517.2 330.6C522.933 324.6 525.8 316.067 525.8 305V303.8C525.8 281.933 514.2 271 491 271H470.4V339.6H492.6ZM500.6 421.2C511.933 421.2 520.733 417.933 527 411.4C533.267 404.733 536.4 395.267 536.4 383V380.8C536.4 368.667 533.267 359.6 527 353.6C520.867 347.6 512.067 344.6 500.6 344.6H470.4V421.2H500.6Z" fill="white"/>
<path opacity="0.04" d="M245 321.8L263.4 318.8V173.2L245 170.4V166H306C320.4 166 331.867 167.333 340.4 170C348.933 172.667 355.133 176.733 359 182.2C362.867 187.533 364.8 194.6 364.8 203.4C364.8 222.6 352.667 234.867 328.4 240.2V241.2C343.2 243.2 354.667 247.6 362.8 254.4C371.067 261.2 375.2 270.667 375.2 282.8C375.2 297.467 369.8 308.333 359 315.4C348.333 322.467 333.867 326 315.6 326H245V321.8ZM307.6 239.6C318.267 239.6 326.467 236.6 332.2 230.6C337.933 224.6 340.8 216.067 340.8 205V203.8C340.8 181.933 329.2 171 306 171H285.4V239.6H307.6ZM315.6 321.2C326.933 321.2 335.733 317.933 342 311.4C348.267 304.733 351.4 295.267 351.4 283V280.8C351.4 268.667 348.267 259.6 342 253.6C335.867 247.6 327.067 244.6 315.6 244.6H285.4V321.2H315.6Z" fill="white"/>
<path d="M369 249.8L387.4 246.8V101.2L369 98.4V94H430C444.4 94 455.867 95.3333 464.4 98C472.933 100.667 479.133 104.733 483 110.2C486.867 115.533 488.8 122.6 488.8 131.4C488.8 150.6 476.667 162.867 452.4 168.2V169.2C467.2 171.2 478.667 175.6 486.8 182.4C495.067 189.2 499.2 198.667 499.2 210.8C499.2 225.467 493.8 236.333 483 243.4C472.333 250.467 457.867 254 439.6 254H369V249.8ZM431.6 167.6C442.267 167.6 450.467 164.6 456.2 158.6C461.933 152.6 464.8 144.067 464.8 133V131.8C464.8 109.933 453.2 99 430 99H409.4V167.6H431.6ZM439.6 249.2C450.933 249.2 459.733 245.933 466 239.4C472.267 232.733 475.4 223.267 475.4 211V208.8C475.4 196.667 472.267 187.6 466 181.6C459.867 175.6 451.067 172.6 439.6 172.6H409.4V249.2H439.6Z" fill="white"/>
<path opacity="0.4" d="M430 421.8L448.4 418.8V273.2L430 270.4V266H491C505.4 266 516.867 267.333 525.4 270C533.933 272.667 540.133 276.733 544 282.2C547.867 287.533 549.8 294.6 549.8 303.4C549.8 322.6 537.667 334.867 513.4 340.2V341.2C528.2 343.2 539.667 347.6 547.8 354.4C556.067 361.2 560.2 370.667 560.2 382.8C560.2 397.467 554.8 408.333 544 415.4C533.333 422.467 518.867 426 500.6 426H430V421.8ZM492.6 339.6C503.267 339.6 511.467 336.6 517.2 330.6C522.933 324.6 525.8 316.067 525.8 305V303.8C525.8 281.933 514.2 271 491 271H470.4V339.6H492.6ZM500.6 421.2C511.933 421.2 520.733 417.933 527 411.4C533.267 404.733 536.4 395.267 536.4 383V380.8C536.4 368.667 533.267 359.6 527 353.6C520.867 347.6 512.067 344.6 500.6 344.6H470.4V421.2H500.6Z" fill="white"/>
<path opacity="0.04" d="M245 321.8L263.4 318.8V173.2L245 170.4V166H306C320.4 166 331.867 167.333 340.4 170C348.933 172.667 355.133 176.733 359 182.2C362.867 187.533 364.8 194.6 364.8 203.4C364.8 222.6 352.667 234.867 328.4 240.2V241.2C343.2 243.2 354.667 247.6 362.8 254.4C371.067 261.2 375.2 270.667 375.2 282.8C375.2 297.467 369.8 308.333 359 315.4C348.333 322.467 333.867 326 315.6 326H245V321.8ZM307.6 239.6C318.267 239.6 326.467 236.6 332.2 230.6C337.933 224.6 340.8 216.067 340.8 205V203.8C340.8 181.933 329.2 171 306 171H285.4V239.6H307.6ZM315.6 321.2C326.933 321.2 335.733 317.933 342 311.4C348.267 304.733 351.4 295.267 351.4 283V280.8C351.4 268.667 348.267 259.6 342 253.6C335.867 247.6 327.067 244.6 315.6 244.6H285.4V321.2H315.6Z" fill="white"/>
<path d="M369 249.8L387.4 246.8V101.2L369 98.4V94H430C444.4 94 455.867 95.3333 464.4 98C472.933 100.667 479.133 104.733 483 110.2C486.867 115.533 488.8 122.6 488.8 131.4C488.8 150.6 476.667 162.867 452.4 168.2V169.2C467.2 171.2 478.667 175.6 486.8 182.4C495.067 189.2 499.2 198.667 499.2 210.8C499.2 225.467 493.8 236.333 483 243.4C472.333 250.467 457.867 254 439.6 254H369V249.8ZM431.6 167.6C442.267 167.6 450.467 164.6 456.2 158.6C461.933 152.6 464.8 144.067 464.8 133V131.8C464.8 109.933 453.2 99 430 99H409.4V167.6H431.6ZM439.6 249.2C450.933 249.2 459.733 245.933 466 239.4C472.267 232.733 475.4 223.267 475.4 211V208.8C475.4 196.667 472.267 187.6 466 181.6C459.867 175.6 451.067 172.6 439.6 172.6H409.4V249.2H439.6Z" fill="white"/>
<path opacity="0.4" d="M430 421.8L448.4 418.8V273.2L430 270.4V266H491C505.4 266 516.867 267.333 525.4 270C533.933 272.667 540.133 276.733 544 282.2C547.867 287.533 549.8 294.6 549.8 303.4C549.8 322.6 537.667 334.867 513.4 340.2V341.2C528.2 343.2 539.667 347.6 547.8 354.4C556.067 361.2 560.2 370.667 560.2 382.8C560.2 397.467 554.8 408.333 544 415.4C533.333 422.467 518.867 426 500.6 426H430V421.8ZM492.6 339.6C503.267 339.6 511.467 336.6 517.2 330.6C522.933 324.6 525.8 316.067 525.8 305V303.8C525.8 281.933 514.2 271 491 271H470.4V339.6H492.6ZM500.6 421.2C511.933 421.2 520.733 417.933 527 411.4C533.267 404.733 536.4 395.267 536.4 383V380.8C536.4 368.667 533.267 359.6 527 353.6C520.867 347.6 512.067 344.6 500.6 344.6H470.4V421.2H500.6Z" fill="white"/>
<path opacity="0.04" d="M245 321.8L263.4 318.8V173.2L245 170.4V166H306C320.4 166 331.867 167.333 340.4 170C348.933 172.667 355.133 176.733 359 182.2C362.867 187.533 364.8 194.6 364.8 203.4C364.8 222.6 352.667 234.867 328.4 240.2V241.2C343.2 243.2 354.667 247.6 362.8 254.4C371.067 261.2 375.2 270.667 375.2 282.8C375.2 297.467 369.8 308.333 359 315.4C348.333 322.467 333.867 326 315.6 326H245V321.8ZM307.6 239.6C318.267 239.6 326.467 236.6 332.2 230.6C337.933 224.6 340.8 216.067 340.8 205V203.8C340.8 181.933 329.2 171 306 171H285.4V239.6H307.6ZM315.6 321.2C326.933 321.2 335.733 317.933 342 311.4C348.267 304.733 351.4 295.267 351.4 283V280.8C351.4 268.667 348.267 259.6 342 253.6C335.867 247.6 327.067 244.6 315.6 244.6H285.4V321.2H315.6Z" fill="white"/>
<path d="M351 249.8L369.4 246.8V101.2L351 98.4V94H412C426.4 94 437.867 95.3333 446.4 98C454.933 100.667 461.133 104.733 465 110.2C468.867 115.533 470.8 122.6 470.8 131.4C470.8 150.6 458.667 162.867 434.4 168.2V169.2C449.2 171.2 460.667 175.6 468.8 182.4C477.067 189.2 481.2 198.667 481.2 210.8C481.2 225.467 475.8 236.333 465 243.4C454.333 250.467 439.867 254 421.6 254H351V249.8ZM413.6 167.6C424.267 167.6 432.467 164.6 438.2 158.6C443.933 152.6 446.8 144.067 446.8 133V131.8C446.8 109.933 435.2 99 412 99H391.4V167.6H413.6ZM421.6 249.2C432.933 249.2 441.733 245.933 448 239.4C454.267 232.733 457.4 223.267 457.4 211V208.8C457.4 196.667 454.267 187.6 448 181.6C441.867 175.6 433.067 172.6 421.6 172.6H391.4V249.2H421.6Z" fill="white"/>
<path opacity="0.4" d="M412 421.8L430.4 418.8V273.2L412 270.4V266H473C487.4 266 498.867 267.333 507.4 270C515.933 272.667 522.133 276.733 526 282.2C529.867 287.533 531.8 294.6 531.8 303.4C531.8 322.6 519.667 334.867 495.4 340.2V341.2C510.2 343.2 521.667 347.6 529.8 354.4C538.067 361.2 542.2 370.667 542.2 382.8C542.2 397.467 536.8 408.333 526 415.4C515.333 422.467 500.867 426 482.6 426H412V421.8ZM474.6 339.6C485.267 339.6 493.467 336.6 499.2 330.6C504.933 324.6 507.8 316.067 507.8 305V303.8C507.8 281.933 496.2 271 473 271H452.4V339.6H474.6ZM482.6 421.2C493.933 421.2 502.733 417.933 509 411.4C515.267 404.733 518.4 395.267 518.4 383V380.8C518.4 368.667 515.267 359.6 509 353.6C502.867 347.6 494.067 344.6 482.6 344.6H452.4V421.2H482.6Z" fill="white"/>
<path opacity="0.04" d="M227 321.8L245.4 318.8V173.2L227 170.4V166H288C302.4 166 313.867 167.333 322.4 170C330.933 172.667 337.133 176.733 341 182.2C344.867 187.533 346.8 194.6 346.8 203.4C346.8 222.6 334.667 234.867 310.4 240.2V241.2C325.2 243.2 336.667 247.6 344.8 254.4C353.067 261.2 357.2 270.667 357.2 282.8C357.2 297.467 351.8 308.333 341 315.4C330.333 322.467 315.867 326 297.6 326H227V321.8ZM289.6 239.6C300.267 239.6 308.467 236.6 314.2 230.6C319.933 224.6 322.8 216.067 322.8 205V203.8C322.8 181.933 311.2 171 288 171H267.4V239.6H289.6ZM297.6 321.2C308.933 321.2 317.733 317.933 324 311.4C330.267 304.733 333.4 295.267 333.4 283V280.8C333.4 268.667 330.267 259.6 324 253.6C317.867 247.6 309.067 244.6 297.6 244.6H267.4V321.2H297.6Z" fill="white"/>
<path opacity="0.04" d="M169 357.8L187.4 354.8V209.2L169 206.4V202H230C244.4 202 255.867 203.333 264.4 206C272.933 208.667 279.133 212.733 283 218.2C286.867 223.533 288.8 230.6 288.8 239.4C288.8 258.6 276.667 270.867 252.4 276.2V277.2C267.2 279.2 278.667 283.6 286.8 290.4C295.067 297.2 299.2 306.667 299.2 318.8C299.2 333.467 293.8 344.333 283 351.4C272.333 358.467 257.867 362 239.6 362H169V357.8ZM231.6 275.6C242.267 275.6 250.467 272.6 256.2 266.6C261.933 260.6 264.8 252.067 264.8 241V239.8C264.8 217.933 253.2 207 230 207H209.4V275.6H231.6ZM239.6 357.2C250.933 357.2 259.733 353.933 266 347.4C272.267 340.733 275.4 331.267 275.4 319V316.8C275.4 304.667 272.267 295.6 266 289.6C259.867 283.6 251.067 280.6 239.6 280.6H209.4V357.2H239.6Z" fill="white"/>
<path opacity="0.04" d="M95 194.8L113.4 191.8V46.2L95 43.4V39H156C170.4 39 181.867 40.3333 190.4 43C198.933 45.6667 205.133 49.7333 209 55.2C212.867 60.5333 214.8 67.6 214.8 76.4C214.8 95.6 202.667 107.867 178.4 113.2V114.2C193.2 116.2 204.667 120.6 212.8 127.4C221.067 134.2 225.2 143.667 225.2 155.8C225.2 170.467 219.8 181.333 209 188.4C198.333 195.467 183.867 199 165.6 199H95V194.8ZM157.6 112.6C168.267 112.6 176.467 109.6 182.2 103.6C187.933 97.6 190.8 89.0667 190.8 78V76.8C190.8 54.9333 179.2 44 156 44H135.4V112.6H157.6ZM165.6 194.2C176.933 194.2 185.733 190.933 192 184.4C198.267 177.733 201.4 168.267 201.4 156V153.8C201.4 141.667 198.267 132.6 192 126.6C185.867 120.6 177.067 117.6 165.6 117.6H135.4V194.2H165.6Z" fill="white"/>
<path d="M351 249.8L369.4 246.8V101.2L351 98.4V94H412C426.4 94 437.867 95.3333 446.4 98C454.933 100.667 461.133 104.733 465 110.2C468.867 115.533 470.8 122.6 470.8 131.4C470.8 150.6 458.667 162.867 434.4 168.2V169.2C449.2 171.2 460.667 175.6 468.8 182.4C477.067 189.2 481.2 198.667 481.2 210.8C481.2 225.467 475.8 236.333 465 243.4C454.333 250.467 439.867 254 421.6 254H351V249.8ZM413.6 167.6C424.267 167.6 432.467 164.6 438.2 158.6C443.933 152.6 446.8 144.067 446.8 133V131.8C446.8 109.933 435.2 99 412 99H391.4V167.6H413.6ZM421.6 249.2C432.933 249.2 441.733 245.933 448 239.4C454.267 232.733 457.4 223.267 457.4 211V208.8C457.4 196.667 454.267 187.6 448 181.6C441.867 175.6 433.067 172.6 421.6 172.6H391.4V249.2H421.6Z" fill="white"/>
<path opacity="0.4" d="M412 421.8L430.4 418.8V273.2L412 270.4V266H473C487.4 266 498.867 267.333 507.4 270C515.933 272.667 522.133 276.733 526 282.2C529.867 287.533 531.8 294.6 531.8 303.4C531.8 322.6 519.667 334.867 495.4 340.2V341.2C510.2 343.2 521.667 347.6 529.8 354.4C538.067 361.2 542.2 370.667 542.2 382.8C542.2 397.467 536.8 408.333 526 415.4C515.333 422.467 500.867 426 482.6 426H412V421.8ZM474.6 339.6C485.267 339.6 493.467 336.6 499.2 330.6C504.933 324.6 507.8 316.067 507.8 305V303.8C507.8 281.933 496.2 271 473 271H452.4V339.6H474.6ZM482.6 421.2C493.933 421.2 502.733 417.933 509 411.4C515.267 404.733 518.4 395.267 518.4 383V380.8C518.4 368.667 515.267 359.6 509 353.6C502.867 347.6 494.067 344.6 482.6 344.6H452.4V421.2H482.6Z" fill="white"/>
<path opacity="0.04" d="M227 321.8L245.4 318.8V173.2L227 170.4V166H288C302.4 166 313.867 167.333 322.4 170C330.933 172.667 337.133 176.733 341 182.2C344.867 187.533 346.8 194.6 346.8 203.4C346.8 222.6 334.667 234.867 310.4 240.2V241.2C325.2 243.2 336.667 247.6 344.8 254.4C353.067 261.2 357.2 270.667 357.2 282.8C357.2 297.467 351.8 308.333 341 315.4C330.333 322.467 315.867 326 297.6 326H227V321.8ZM289.6 239.6C300.267 239.6 308.467 236.6 314.2 230.6C319.933 224.6 322.8 216.067 322.8 205V203.8C322.8 181.933 311.2 171 288 171H267.4V239.6H289.6ZM297.6 321.2C308.933 321.2 317.733 317.933 324 311.4C330.267 304.733 333.4 295.267 333.4 283V280.8C333.4 268.667 330.267 259.6 324 253.6C317.867 247.6 309.067 244.6 297.6 244.6H267.4V321.2H297.6Z" fill="white"/>
<path opacity="0.04" d="M169 357.8L187.4 354.8V209.2L169 206.4V202H230C244.4 202 255.867 203.333 264.4 206C272.933 208.667 279.133 212.733 283 218.2C286.867 223.533 288.8 230.6 288.8 239.4C288.8 258.6 276.667 270.867 252.4 276.2V277.2C267.2 279.2 278.667 283.6 286.8 290.4C295.067 297.2 299.2 306.667 299.2 318.8C299.2 333.467 293.8 344.333 283 351.4C272.333 358.467 257.867 362 239.6 362H169V357.8ZM231.6 275.6C242.267 275.6 250.467 272.6 256.2 266.6C261.933 260.6 264.8 252.067 264.8 241V239.8C264.8 217.933 253.2 207 230 207H209.4V275.6H231.6ZM239.6 357.2C250.933 357.2 259.733 353.933 266 347.4C272.267 340.733 275.4 331.267 275.4 319V316.8C275.4 304.667 272.267 295.6 266 289.6C259.867 283.6 251.067 280.6 239.6 280.6H209.4V357.2H239.6Z" fill="white"/>
<path opacity="0.04" d="M95 194.8L113.4 191.8V46.2L95 43.4V39H156C170.4 39 181.867 40.3333 190.4 43C198.933 45.6667 205.133 49.7333 209 55.2C212.867 60.5333 214.8 67.6 214.8 76.4C214.8 95.6 202.667 107.867 178.4 113.2V114.2C193.2 116.2 204.667 120.6 212.8 127.4C221.067 134.2 225.2 143.667 225.2 155.8C225.2 170.467 219.8 181.333 209 188.4C198.333 195.467 183.867 199 165.6 199H95V194.8ZM157.6 112.6C168.267 112.6 176.467 109.6 182.2 103.6C187.933 97.6 190.8 89.0667 190.8 78V76.8C190.8 54.9333 179.2 44 156 44H135.4V112.6H157.6ZM165.6 194.2C176.933 194.2 185.733 190.933 192 184.4C198.267 177.733 201.4 168.267 201.4 156V153.8C201.4 141.667 198.267 132.6 192 126.6C185.867 120.6 177.067 117.6 165.6 117.6H135.4V194.2H165.6Z" fill="white"/>
<path d="M492.444 242.01L473.995 244.612L471.402 390.189L489.748 393.386L489.67 397.785L413.088 396.134C398.424 395.817 385.487 392.204 374.275 385.295C362.927 378.515 354.162 368.991 347.98 356.721C341.795 344.585 338.845 330.518 339.13 314.521C339.415 298.523 342.864 284.528 349.479 272.535C356.091 260.674 365.189 251.535 376.771 245.117C388.352 238.832 401.407 235.846 415.937 236.159L492.519 237.81L492.444 242.01ZM415.851 240.958C406.12 240.748 397.482 242.829 389.936 247.201C382.257 251.57 376.205 258.174 371.781 267.014C367.354 275.987 365.026 286.873 364.798 299.671L364.25 330.466C364.022 343.264 365.961 354.175 370.068 363.199C374.174 372.223 379.986 379.083 387.504 383.779C394.888 388.473 403.446 390.925 413.177 391.134L449.368 391.915L452.043 241.739L415.851 240.958Z" fill="white"/>
<path opacity="0.4" d="M553.873 414.058L535.424 416.661L532.831 562.238L551.177 565.434L551.099 569.834L474.516 568.182C459.853 567.866 446.916 564.253 435.704 557.343C424.356 550.564 415.591 541.039 409.408 528.77C403.224 516.634 400.274 502.567 400.559 486.57C400.843 470.572 404.293 456.577 410.908 444.583C417.52 432.723 426.617 423.584 438.2 417.166C449.78 410.88 462.836 407.895 477.366 408.208L553.948 409.859L553.873 414.058ZM477.28 413.007C467.549 412.797 458.911 414.878 451.365 419.25C443.686 423.619 437.634 430.223 433.209 439.063C428.782 448.036 426.455 458.922 426.227 471.72L425.678 502.515C425.45 515.313 427.39 526.224 431.496 535.248C435.603 544.272 441.415 551.132 448.933 555.828C456.317 560.522 464.874 562.973 474.606 563.183L510.797 563.964L513.472 413.787L477.28 413.007Z" fill="white"/>
<path opacity="0.04" d="M368.47 313.287L350.021 315.89L347.428 461.467L365.774 464.663L365.696 469.062L289.114 467.411C274.45 467.095 261.513 463.482 250.301 456.572C238.953 449.792 230.188 440.268 224.006 427.999C217.821 415.862 214.871 401.796 215.156 385.798C215.441 369.801 218.89 355.805 225.505 343.812C232.117 331.952 241.215 322.812 252.797 316.394C264.378 310.109 277.433 307.123 291.963 307.436L368.545 309.088L368.47 313.287ZM291.877 312.236C282.146 312.026 273.508 314.107 265.962 318.478C258.283 322.847 252.231 329.451 247.807 338.291C243.379 347.265 241.052 358.15 240.824 370.948L240.276 401.743C240.048 414.541 241.987 425.452 246.094 434.476C250.2 443.5 256.012 450.36 263.53 455.057C270.914 459.75 279.472 462.202 289.203 462.412L325.394 463.192L328.069 313.016L291.877 312.236Z" fill="white"/>
<path opacity="0.04" d="M294.756 149.841L276.307 152.444L273.714 298.02L292.06 301.217L291.981 305.616L215.399 303.965C200.736 303.649 187.798 300.035 176.586 293.126C165.239 286.346 156.474 276.822 150.291 264.552C144.106 252.416 141.156 238.349 141.441 222.352C141.726 206.355 145.176 192.359 151.791 180.366C158.403 168.505 167.5 159.366 179.083 152.948C190.663 146.663 203.718 143.677 218.248 143.99L294.831 145.641L294.756 149.841ZM218.163 148.789C208.432 148.579 199.793 150.66 192.248 155.032C184.569 159.401 178.517 166.005 174.092 174.845C169.665 183.818 167.338 194.704 167.11 207.502L166.561 238.297C166.333 251.095 168.273 262.006 172.379 271.03C176.486 280.054 182.298 286.914 189.815 291.61C197.2 296.304 205.757 298.756 215.488 298.965L251.68 299.746L254.355 149.57L218.163 148.789Z" fill="white"/>
<path opacity="0.04" d="M310.393 350.155L291.943 352.758L289.351 498.335L307.697 501.531L307.618 505.93L231.036 504.279C216.373 503.963 203.435 500.35 192.223 493.44C180.875 486.661 172.11 477.136 165.928 464.867C159.743 452.731 156.793 438.664 157.078 422.666C157.363 406.669 160.813 392.674 167.427 380.68C174.039 368.82 183.137 359.681 194.72 353.262C206.3 346.977 219.355 343.991 233.885 344.305L310.467 345.956L310.393 350.155ZM233.8 349.104C224.069 348.894 215.43 350.975 207.885 355.346C200.206 359.715 194.154 366.32 189.729 375.16C185.302 384.133 182.974 395.018 182.746 407.816L182.198 438.612C181.97 451.41 183.909 462.32 188.016 471.344C192.123 480.368 197.935 487.228 205.452 491.925C212.836 496.618 221.394 499.07 231.125 499.28L267.317 500.06L269.991 349.884L233.8 349.104Z" fill="white"/>
<path opacity="0.04" d="M236.678 186.709L218.229 189.312L215.636 334.889L233.982 338.085L233.904 342.484L157.322 340.833C142.658 340.517 129.721 336.904 118.509 329.994C107.161 323.214 98.3961 313.69 92.2136 301.42C86.0288 289.284 83.0788 275.218 83.3637 259.22C83.6486 243.223 87.0984 229.227 93.713 217.234C100.325 205.374 109.423 196.234 121.005 189.816C132.586 183.531 145.641 180.545 160.171 180.858L236.753 182.509L236.678 186.709ZM160.085 185.657C150.354 185.448 141.716 187.529 134.17 191.9C126.491 196.269 120.439 202.873 116.015 211.713C111.588 220.687 109.26 231.572 109.032 244.37L108.484 275.165C108.256 287.963 110.195 298.874 114.302 307.898C118.408 316.922 124.22 323.782 131.738 328.479C139.122 333.172 147.68 335.624 157.411 335.834L193.602 336.614L196.277 186.438L160.085 185.657Z" fill="white"/>
<path d="M492.444 242.01L473.995 244.612L471.402 390.189L489.748 393.386L489.67 397.785L413.088 396.134C398.424 395.817 385.487 392.204 374.275 385.295C362.927 378.515 354.162 368.991 347.98 356.721C341.795 344.585 338.845 330.518 339.13 314.521C339.415 298.523 342.864 284.528 349.479 272.535C356.091 260.674 365.189 251.535 376.771 245.117C388.352 238.832 401.407 235.846 415.937 236.159L492.519 237.81L492.444 242.01ZM415.851 240.958C406.12 240.748 397.482 242.829 389.936 247.201C382.257 251.57 376.205 258.174 371.781 267.014C367.354 275.987 365.026 286.873 364.798 299.671L364.25 330.466C364.022 343.264 365.961 354.175 370.068 363.199C374.174 372.223 379.986 379.083 387.504 383.779C394.888 388.473 403.446 390.925 413.177 391.134L449.368 391.915L452.043 241.739L415.851 240.958Z" fill="white"/>
<path opacity="0.4" d="M553.873 414.058L535.424 416.661L532.831 562.238L551.177 565.434L551.099 569.834L474.516 568.182C459.853 567.866 446.916 564.253 435.704 557.343C424.356 550.564 415.591 541.039 409.408 528.77C403.224 516.634 400.274 502.567 400.559 486.57C400.843 470.572 404.293 456.577 410.908 444.583C417.52 432.723 426.617 423.584 438.2 417.166C449.78 410.88 462.836 407.895 477.366 408.208L553.948 409.859L553.873 414.058ZM477.28 413.007C467.549 412.797 458.911 414.878 451.365 419.25C443.686 423.619 437.634 430.223 433.209 439.063C428.782 448.036 426.455 458.922 426.227 471.72L425.678 502.515C425.45 515.313 427.39 526.224 431.496 535.248C435.603 544.272 441.415 551.132 448.933 555.828C456.317 560.522 464.874 562.973 474.606 563.183L510.797 563.964L513.472 413.787L477.28 413.007Z" fill="white"/>
<path opacity="0.04" d="M368.47 313.287L350.021 315.89L347.428 461.467L365.774 464.663L365.696 469.062L289.114 467.411C274.45 467.095 261.513 463.482 250.301 456.572C238.953 449.792 230.188 440.268 224.006 427.999C217.821 415.862 214.871 401.796 215.156 385.798C215.441 369.801 218.89 355.805 225.505 343.812C232.117 331.952 241.215 322.812 252.797 316.394C264.378 310.109 277.433 307.123 291.963 307.436L368.545 309.088L368.47 313.287ZM291.877 312.236C282.146 312.026 273.508 314.107 265.962 318.478C258.283 322.847 252.231 329.451 247.807 338.291C243.379 347.265 241.052 358.15 240.824 370.948L240.276 401.743C240.048 414.541 241.987 425.452 246.094 434.476C250.2 443.5 256.012 450.36 263.53 455.057C270.914 459.75 279.472 462.202 289.203 462.412L325.394 463.192L328.069 313.016L291.877 312.236Z" fill="white"/>
<path opacity="0.04" d="M294.756 149.841L276.307 152.444L273.714 298.02L292.06 301.217L291.981 305.616L215.399 303.965C200.736 303.649 187.798 300.035 176.586 293.126C165.239 286.346 156.474 276.822 150.291 264.552C144.106 252.416 141.156 238.349 141.441 222.352C141.726 206.355 145.176 192.359 151.791 180.366C158.403 168.505 167.5 159.366 179.083 152.948C190.663 146.663 203.718 143.677 218.248 143.99L294.831 145.641L294.756 149.841ZM218.163 148.789C208.432 148.579 199.793 150.66 192.248 155.032C184.569 159.401 178.517 166.005 174.092 174.845C169.665 183.818 167.338 194.704 167.11 207.502L166.561 238.297C166.333 251.095 168.273 262.006 172.379 271.03C176.486 280.054 182.298 286.914 189.815 291.61C197.2 296.304 205.757 298.756 215.488 298.965L251.68 299.746L254.355 149.57L218.163 148.789Z" fill="white"/>
<path opacity="0.04" d="M310.393 350.155L291.943 352.758L289.351 498.335L307.697 501.531L307.618 505.93L231.036 504.279C216.373 503.963 203.435 500.35 192.223 493.44C180.875 486.661 172.11 477.136 165.928 464.867C159.743 452.731 156.793 438.664 157.078 422.666C157.363 406.669 160.813 392.674 167.427 380.68C174.039 368.82 183.137 359.681 194.72 353.262C206.3 346.977 219.355 343.991 233.885 344.305L310.467 345.956L310.393 350.155ZM233.8 349.104C224.069 348.894 215.43 350.975 207.885 355.346C200.206 359.715 194.154 366.32 189.729 375.16C185.302 384.133 182.974 395.018 182.746 407.816L182.198 438.612C181.97 451.41 183.909 462.32 188.016 471.344C192.123 480.368 197.935 487.228 205.452 491.925C212.836 496.618 221.394 499.07 231.125 499.28L267.317 500.06L269.991 349.884L233.8 349.104Z" fill="white"/>
<path opacity="0.04" d="M236.678 186.709L218.229 189.312L215.636 334.889L233.982 338.085L233.904 342.484L157.322 340.833C142.658 340.517 129.721 336.904 118.509 329.994C107.161 323.214 98.3961 313.69 92.2136 301.42C86.0288 289.284 83.0788 275.218 83.3637 259.22C83.6486 243.223 87.0984 229.227 93.713 217.234C100.325 205.374 109.423 196.234 121.005 189.816C132.586 183.531 145.641 180.545 160.171 180.858L236.753 182.509L236.678 186.709ZM160.085 185.657C150.354 185.448 141.716 187.529 134.17 191.9C126.491 196.269 120.439 202.873 116.015 211.713C111.588 220.687 109.26 231.572 109.032 244.37L108.484 275.165C108.256 287.963 110.195 298.874 114.302 307.898C118.408 316.922 124.22 323.782 131.738 328.479C139.122 333.172 147.68 335.624 157.411 335.834L193.602 336.614L196.277 186.438L160.085 185.657Z" fill="white"/>
<path d="M474.574 242.01L456.125 244.612L453.532 390.189L471.878 393.386L471.8 397.785L395.218 396.134C380.554 395.817 367.617 392.204 356.405 385.295C345.057 378.515 336.292 368.991 330.11 356.721C323.925 344.585 320.975 330.518 321.26 314.521C321.545 298.523 324.994 284.528 331.609 272.535C338.221 260.674 347.319 251.535 358.901 245.117C370.482 238.832 383.537 235.846 398.067 236.159L474.649 237.81L474.574 242.01ZM397.981 240.958C388.25 240.748 379.612 242.829 372.066 247.201C364.387 251.57 358.335 258.174 353.911 267.014C349.483 275.987 347.156 286.873 346.928 299.671L346.38 330.466C346.152 343.264 348.091 354.175 352.198 363.199C356.304 372.223 362.116 379.083 369.634 383.779C377.018 388.473 385.576 390.925 395.307 391.134L431.498 391.915L434.173 241.739L397.981 240.958Z" fill="white"/>
<path opacity="0.4" d="M536.003 414.058L517.554 416.661L514.961 562.238L533.307 565.434L533.229 569.834L456.646 568.182C441.983 567.866 429.045 564.253 417.833 557.343C406.486 550.564 397.721 541.039 391.538 528.77C385.353 516.634 382.404 502.567 382.688 486.57C382.973 470.572 386.423 456.577 393.038 444.583C399.65 432.723 408.747 423.584 420.33 417.166C431.91 410.88 444.966 407.895 459.495 408.208L536.078 409.859L536.003 414.058ZM459.41 413.007C449.679 412.797 441.041 414.878 433.495 419.25C425.816 423.619 419.764 430.223 415.339 439.063C410.912 448.036 408.585 458.922 408.357 471.72L407.808 502.515C407.58 515.313 409.52 526.224 413.626 535.248C417.733 544.272 423.545 551.132 431.062 555.828C438.447 560.522 447.004 562.973 456.735 563.183L492.927 563.964L495.602 413.787L459.41 413.007Z" fill="white"/>
<path opacity="0.04" d="M350.6 313.287L332.151 315.89L329.558 461.467L347.904 464.663L347.826 469.062L271.244 467.411C256.58 467.095 243.643 463.482 232.431 456.572C221.083 449.792 212.318 440.268 206.135 427.999C199.951 415.862 197.001 401.796 197.286 385.798C197.571 369.801 201.02 355.805 207.635 343.812C214.247 331.952 223.344 322.812 234.927 316.394C246.508 310.109 259.563 307.123 274.093 307.436L350.675 309.088L350.6 313.287ZM274.007 312.236C264.276 312.026 255.638 314.107 248.092 318.478C240.413 322.847 234.361 329.451 229.936 338.291C225.509 347.265 223.182 358.15 222.954 370.948L222.405 401.743C222.178 414.541 224.117 425.452 228.223 434.476C232.33 443.5 238.142 450.36 245.66 455.057C253.044 459.75 261.601 462.202 271.333 462.412L307.524 463.192L310.199 313.016L274.007 312.236Z" fill="white"/>
<path opacity="0.04" d="M276.886 149.841L258.437 152.444L255.844 298.02L274.19 301.217L274.111 305.616L197.529 303.965C182.866 303.649 169.928 300.035 158.716 293.126C147.369 286.346 138.604 276.822 132.421 264.552C126.236 252.416 123.286 238.349 123.571 222.352C123.856 206.355 127.306 192.359 133.92 180.366C140.533 168.505 149.63 159.366 161.213 152.948C172.793 146.663 185.848 143.677 200.378 143.99L276.96 145.641L276.886 149.841ZM200.293 148.789C190.562 148.579 181.923 150.66 174.378 155.032C166.699 159.401 160.647 166.005 156.222 174.845C151.795 183.818 149.467 194.704 149.24 207.502L148.691 238.297C148.463 251.095 150.403 262.006 154.509 271.03C158.616 280.054 164.428 286.914 171.945 291.61C179.329 296.304 187.887 298.756 197.618 298.965L233.81 299.746L236.484 149.57L200.293 148.789Z" fill="white"/>
<path opacity="0.04" d="M292.522 350.155L274.073 352.758L271.481 498.335L289.826 501.531L289.748 505.93L213.166 504.279C198.503 503.963 185.565 500.35 174.353 493.44C163.005 486.661 154.24 477.136 148.058 464.867C141.873 452.731 138.923 438.664 139.208 422.666C139.493 406.669 142.943 392.674 149.557 380.68C156.169 368.82 165.267 359.681 176.85 353.262C188.43 346.977 201.485 343.991 216.015 344.305L292.597 345.956L292.522 350.155ZM215.93 349.104C206.198 348.894 197.56 350.975 190.014 355.346C182.335 359.715 176.284 366.32 171.859 375.16C167.432 384.133 165.104 395.018 164.876 407.816L164.328 438.612C164.1 451.41 166.039 462.32 170.146 471.344C174.252 480.368 180.064 487.228 187.582 491.925C194.966 496.618 203.524 499.07 213.255 499.28L249.447 500.06L252.121 349.884L215.93 349.104Z" fill="white"/>
<path opacity="0.04" d="M218.808 186.709L200.359 189.312L197.766 334.889L216.112 338.085L216.034 342.484L139.452 340.833C124.788 340.517 111.851 336.904 100.639 329.994C89.291 323.214 80.5259 313.69 74.3435 301.42C68.1587 289.284 65.2087 275.218 65.4936 259.22C65.7785 243.223 69.2283 229.227 75.8428 217.234C82.455 205.374 91.5525 196.234 103.135 189.816C114.716 183.531 127.771 180.545 142.301 180.858L218.883 182.509L218.808 186.709ZM142.215 185.657C132.484 185.448 123.846 187.529 116.3 191.9C108.621 196.269 102.569 202.873 98.1445 211.713C93.7174 220.687 91.3899 231.572 91.1619 244.37L90.6135 275.165C90.3856 287.963 92.3249 298.874 96.4315 307.898C100.538 316.922 106.35 323.782 113.868 328.479C121.252 333.172 129.81 335.624 139.541 335.834L175.732 336.614L178.407 186.438L142.215 185.657Z" fill="white"/>
<path d="M474.574 242.01L456.125 244.612L453.532 390.189L471.878 393.386L471.8 397.785L395.218 396.134C380.554 395.817 367.617 392.204 356.405 385.295C345.057 378.515 336.292 368.991 330.11 356.721C323.925 344.585 320.975 330.518 321.26 314.521C321.545 298.523 324.994 284.528 331.609 272.535C338.221 260.674 347.319 251.535 358.901 245.117C370.482 238.832 383.537 235.846 398.067 236.159L474.649 237.81L474.574 242.01ZM397.981 240.958C388.25 240.748 379.612 242.829 372.066 247.201C364.387 251.57 358.335 258.174 353.911 267.014C349.483 275.987 347.156 286.873 346.928 299.671L346.38 330.466C346.152 343.264 348.091 354.175 352.198 363.199C356.304 372.223 362.116 379.083 369.634 383.779C377.018 388.473 385.576 390.925 395.307 391.134L431.498 391.915L434.173 241.739L397.981 240.958Z" fill="white"/>
<path opacity="0.4" d="M536.003 414.058L517.554 416.661L514.961 562.238L533.307 565.434L533.229 569.834L456.646 568.182C441.983 567.866 429.045 564.253 417.833 557.343C406.486 550.564 397.721 541.039 391.538 528.77C385.353 516.634 382.404 502.567 382.688 486.57C382.973 470.572 386.423 456.577 393.038 444.583C399.65 432.723 408.747 423.584 420.33 417.166C431.91 410.88 444.966 407.895 459.495 408.208L536.078 409.859L536.003 414.058ZM459.41 413.007C449.679 412.797 441.041 414.878 433.495 419.25C425.816 423.619 419.764 430.223 415.339 439.063C410.912 448.036 408.585 458.922 408.357 471.72L407.808 502.515C407.58 515.313 409.52 526.224 413.626 535.248C417.733 544.272 423.545 551.132 431.062 555.828C438.447 560.522 447.004 562.973 456.735 563.183L492.927 563.964L495.602 413.787L459.41 413.007Z" fill="white"/>
<path opacity="0.04" d="M350.6 313.287L332.151 315.89L329.558 461.467L347.904 464.663L347.826 469.062L271.244 467.411C256.58 467.095 243.643 463.482 232.431 456.572C221.083 449.792 212.318 440.268 206.135 427.999C199.951 415.862 197.001 401.796 197.286 385.798C197.571 369.801 201.02 355.805 207.635 343.812C214.247 331.952 223.344 322.812 234.927 316.394C246.508 310.109 259.563 307.123 274.093 307.436L350.675 309.088L350.6 313.287ZM274.007 312.236C264.276 312.026 255.638 314.107 248.092 318.478C240.413 322.847 234.361 329.451 229.936 338.291C225.509 347.265 223.182 358.15 222.954 370.948L222.405 401.743C222.178 414.541 224.117 425.452 228.223 434.476C232.33 443.5 238.142 450.36 245.66 455.057C253.044 459.75 261.601 462.202 271.333 462.412L307.524 463.192L310.199 313.016L274.007 312.236Z" fill="white"/>
<path opacity="0.04" d="M276.886 149.841L258.437 152.444L255.844 298.02L274.19 301.217L274.111 305.616L197.529 303.965C182.866 303.649 169.928 300.035 158.716 293.126C147.369 286.346 138.604 276.822 132.421 264.552C126.236 252.416 123.286 238.349 123.571 222.352C123.856 206.355 127.306 192.359 133.92 180.366C140.533 168.505 149.63 159.366 161.213 152.948C172.793 146.663 185.848 143.677 200.378 143.99L276.96 145.641L276.886 149.841ZM200.293 148.789C190.562 148.579 181.923 150.66 174.378 155.032C166.699 159.401 160.647 166.005 156.222 174.845C151.795 183.818 149.467 194.704 149.24 207.502L148.691 238.297C148.463 251.095 150.403 262.006 154.509 271.03C158.616 280.054 164.428 286.914 171.945 291.61C179.329 296.304 187.887 298.756 197.618 298.965L233.81 299.746L236.484 149.57L200.293 148.789Z" fill="white"/>
<path opacity="0.04" d="M292.522 350.155L274.073 352.758L271.481 498.335L289.826 501.531L289.748 505.93L213.166 504.279C198.503 503.963 185.565 500.35 174.353 493.44C163.005 486.661 154.24 477.136 148.058 464.867C141.873 452.731 138.923 438.664 139.208 422.666C139.493 406.669 142.943 392.674 149.557 380.68C156.169 368.82 165.267 359.681 176.85 353.262C188.43 346.977 201.485 343.991 216.015 344.305L292.597 345.956L292.522 350.155ZM215.93 349.104C206.198 348.894 197.56 350.975 190.014 355.346C182.335 359.715 176.284 366.32 171.859 375.16C167.432 384.133 165.104 395.018 164.876 407.816L164.328 438.612C164.1 451.41 166.039 462.32 170.146 471.344C174.252 480.368 180.064 487.228 187.582 491.925C194.966 496.618 203.524 499.07 213.255 499.28L249.447 500.06L252.121 349.884L215.93 349.104Z" fill="white"/>
<path opacity="0.04" d="M218.808 186.709L200.359 189.312L197.766 334.889L216.112 338.085L216.034 342.484L139.452 340.833C124.788 340.517 111.851 336.904 100.639 329.994C89.291 323.214 80.5259 313.69 74.3435 301.42C68.1587 289.284 65.2087 275.218 65.4936 259.22C65.7785 243.223 69.2283 229.227 75.8428 217.234C82.455 205.374 91.5525 196.234 103.135 189.816C114.716 183.531 127.771 180.545 142.301 180.858L218.883 182.509L218.808 186.709ZM142.215 185.657C132.484 185.448 123.846 187.529 116.3 191.9C108.621 196.269 102.569 202.873 98.1445 211.713C93.7174 220.687 91.3899 231.572 91.1619 244.37L90.6135 275.165C90.3856 287.963 92.3249 298.874 96.4315 307.898C100.538 316.922 106.35 323.782 113.868 328.479C121.252 333.172 129.81 335.624 139.541 335.834L175.732 336.614L178.407 186.438L142.215 185.657Z" fill="white"/>
<path d="M474.574 242.01L456.125 244.612L453.532 390.189L471.878 393.386L471.8 397.785L395.218 396.134C380.554 395.817 367.617 392.204 356.405 385.295C345.057 378.515 336.292 368.991 330.11 356.721C323.925 344.585 320.975 330.518 321.26 314.521C321.545 298.523 324.994 284.528 331.609 272.535C338.221 260.674 347.319 251.535 358.901 245.117C370.482 238.832 383.537 235.846 398.067 236.159L474.649 237.81L474.574 242.01ZM397.981 240.958C388.25 240.748 379.612 242.829 372.066 247.201C364.387 251.57 358.335 258.174 353.911 267.014C349.483 275.987 347.156 286.873 346.928 299.671L346.38 330.466C346.152 343.264 348.091 354.175 352.198 363.199C356.304 372.223 362.116 379.083 369.634 383.779C377.018 388.473 385.576 390.925 395.307 391.134L431.498 391.915L434.173 241.739L397.981 240.958Z" fill="white"/>
<path opacity="0.4" d="M536.003 414.058L517.554 416.661L514.961 562.238L533.307 565.434L533.229 569.834L456.646 568.182C441.983 567.866 429.045 564.253 417.833 557.343C406.486 550.564 397.721 541.039 391.538 528.77C385.353 516.634 382.404 502.567 382.688 486.57C382.973 470.572 386.423 456.577 393.038 444.583C399.65 432.723 408.747 423.584 420.33 417.166C431.91 410.88 444.966 407.895 459.495 408.208L536.078 409.859L536.003 414.058ZM459.41 413.007C449.679 412.797 441.041 414.878 433.495 419.25C425.816 423.619 419.764 430.223 415.339 439.063C410.912 448.036 408.585 458.922 408.357 471.72L407.808 502.515C407.58 515.313 409.52 526.224 413.626 535.248C417.733 544.272 423.545 551.132 431.062 555.828C438.447 560.522 447.004 562.973 456.735 563.183L492.927 563.964L495.602 413.787L459.41 413.007Z" fill="white"/>
<path opacity="0.04" d="M350.6 313.287L332.151 315.89L329.558 461.467L347.904 464.663L347.826 469.062L271.244 467.411C256.58 467.095 243.643 463.482 232.431 456.572C221.083 449.792 212.318 440.268 206.135 427.999C199.951 415.862 197.001 401.796 197.286 385.798C197.571 369.801 201.02 355.805 207.635 343.812C214.247 331.952 223.344 322.812 234.927 316.394C246.508 310.109 259.563 307.123 274.093 307.436L350.675 309.088L350.6 313.287ZM274.007 312.236C264.276 312.026 255.638 314.107 248.092 318.478C240.413 322.847 234.361 329.451 229.936 338.291C225.509 347.265 223.182 358.15 222.954 370.948L222.405 401.743C222.178 414.541 224.117 425.452 228.223 434.476C232.33 443.5 238.142 450.36 245.66 455.057C253.044 459.75 261.601 462.202 271.333 462.412L307.524 463.192L310.199 313.016L274.007 312.236Z" fill="white"/>
<path opacity="0.04" d="M276.886 149.841L258.437 152.444L255.844 298.02L274.19 301.217L274.111 305.616L197.529 303.965C182.866 303.649 169.928 300.035 158.716 293.126C147.369 286.346 138.604 276.822 132.421 264.552C126.236 252.416 123.286 238.349 123.571 222.352C123.856 206.355 127.306 192.359 133.92 180.366C140.533 168.505 149.63 159.366 161.213 152.948C172.793 146.663 185.848 143.677 200.378 143.99L276.96 145.641L276.886 149.841ZM200.293 148.789C190.562 148.579 181.923 150.66 174.378 155.032C166.699 159.401 160.647 166.005 156.222 174.845C151.795 183.818 149.467 194.704 149.24 207.502L148.691 238.297C148.463 251.095 150.403 262.006 154.509 271.03C158.616 280.054 164.428 286.914 171.945 291.61C179.329 296.304 187.887 298.756 197.618 298.965L233.81 299.746L236.484 149.57L200.293 148.789Z" fill="white"/>
<path opacity="0.04" d="M292.522 350.155L274.073 352.758L271.481 498.335L289.826 501.531L289.748 505.93L213.166 504.279C198.503 503.963 185.565 500.35 174.353 493.44C163.005 486.661 154.24 477.136 148.058 464.867C141.873 452.731 138.923 438.664 139.208 422.666C139.493 406.669 142.943 392.674 149.557 380.68C156.169 368.82 165.267 359.681 176.85 353.262C188.43 346.977 201.485 343.991 216.015 344.305L292.597 345.956L292.522 350.155ZM215.93 349.104C206.198 348.894 197.56 350.975 190.014 355.346C182.335 359.715 176.284 366.32 171.859 375.16C167.432 384.133 165.104 395.018 164.876 407.816L164.328 438.612C164.1 451.41 166.039 462.32 170.146 471.344C174.252 480.368 180.064 487.228 187.582 491.925C194.966 496.618 203.524 499.07 213.255 499.28L249.447 500.06L252.121 349.884L215.93 349.104Z" fill="white"/>
<path opacity="0.04" d="M218.808 186.709L200.359 189.312L197.766 334.889L216.112 338.085L216.034 342.484L139.452 340.833C124.788 340.517 111.851 336.904 100.639 329.994C89.291 323.214 80.5259 313.69 74.3435 301.42C68.1587 289.284 65.2087 275.218 65.4936 259.22C65.7785 243.223 69.2283 229.227 75.8428 217.234C82.455 205.374 91.5525 196.234 103.135 189.816C114.716 183.531 127.771 180.545 142.301 180.858L218.883 182.509L218.808 186.709ZM142.215 185.657C132.484 185.448 123.846 187.529 116.3 191.9C108.621 196.269 102.569 202.873 98.1445 211.713C93.7174 220.687 91.3899 231.572 91.1619 244.37L90.6135 275.165C90.3856 287.963 92.3249 298.874 96.4315 307.898C100.538 316.922 106.35 323.782 113.868 328.479C121.252 333.172 129.81 335.624 139.541 335.834L175.732 336.614L178.407 186.438L142.215 185.657Z" fill="white"/>
<path d="M474.574 242.01L456.125 244.612L453.532 390.189L471.878 393.386L471.8 397.785L395.218 396.134C380.554 395.817 367.617 392.204 356.405 385.295C345.057 378.515 336.292 368.991 330.11 356.721C323.925 344.585 320.975 330.518 321.26 314.521C321.545 298.523 324.994 284.528 331.609 272.535C338.221 260.674 347.319 251.535 358.901 245.117C370.482 238.832 383.537 235.846 398.067 236.159L474.649 237.81L474.574 242.01ZM397.981 240.958C388.25 240.748 379.612 242.829 372.066 247.201C364.387 251.57 358.335 258.174 353.911 267.014C349.483 275.987 347.156 286.873 346.928 299.671L346.38 330.466C346.152 343.264 348.091 354.175 352.198 363.199C356.304 372.223 362.116 379.083 369.634 383.779C377.018 388.473 385.576 390.925 395.307 391.134L431.498 391.915L434.173 241.739L397.981 240.958Z" fill="white"/>
<path opacity="0.4" d="M536.003 414.058L517.554 416.661L514.961 562.238L533.307 565.434L533.229 569.834L456.646 568.182C441.983 567.866 429.045 564.253 417.833 557.343C406.486 550.564 397.721 541.039 391.538 528.77C385.353 516.634 382.404 502.567 382.688 486.57C382.973 470.572 386.423 456.577 393.038 444.583C399.65 432.723 408.747 423.584 420.33 417.166C431.91 410.88 444.966 407.895 459.495 408.208L536.078 409.859L536.003 414.058ZM459.41 413.007C449.679 412.797 441.041 414.878 433.495 419.25C425.816 423.619 419.764 430.223 415.339 439.063C410.912 448.036 408.585 458.922 408.357 471.72L407.808 502.515C407.58 515.313 409.52 526.224 413.626 535.248C417.733 544.272 423.545 551.132 431.062 555.828C438.447 560.522 447.004 562.973 456.735 563.183L492.927 563.964L495.602 413.787L459.41 413.007Z" fill="white"/>
<path opacity="0.04" d="M350.6 313.287L332.151 315.89L329.558 461.467L347.904 464.663L347.826 469.062L271.244 467.411C256.58 467.095 243.643 463.482 232.431 456.572C221.083 449.792 212.318 440.268 206.135 427.999C199.951 415.862 197.001 401.796 197.286 385.798C197.571 369.801 201.02 355.805 207.635 343.812C214.247 331.952 223.344 322.812 234.927 316.394C246.508 310.109 259.563 307.123 274.093 307.436L350.675 309.088L350.6 313.287ZM274.007 312.236C264.276 312.026 255.638 314.107 248.092 318.478C240.413 322.847 234.361 329.451 229.936 338.291C225.509 347.265 223.182 358.15 222.954 370.948L222.405 401.743C222.178 414.541 224.117 425.452 228.223 434.476C232.33 443.5 238.142 450.36 245.66 455.057C253.044 459.75 261.601 462.202 271.333 462.412L307.524 463.192L310.199 313.016L274.007 312.236Z" fill="white"/>
<path opacity="0.04" d="M276.886 149.841L258.437 152.444L255.844 298.02L274.19 301.217L274.111 305.616L197.529 303.965C182.866 303.649 169.928 300.035 158.716 293.126C147.369 286.346 138.604 276.822 132.421 264.552C126.236 252.416 123.286 238.349 123.571 222.352C123.856 206.355 127.306 192.359 133.92 180.366C140.533 168.505 149.63 159.366 161.213 152.948C172.793 146.663 185.848 143.677 200.378 143.99L276.96 145.641L276.886 149.841ZM200.293 148.789C190.562 148.579 181.923 150.66 174.378 155.032C166.699 159.401 160.647 166.005 156.222 174.845C151.795 183.818 149.467 194.704 149.24 207.502L148.691 238.297C148.463 251.095 150.403 262.006 154.509 271.03C158.616 280.054 164.428 286.914 171.945 291.61C179.329 296.304 187.887 298.756 197.618 298.965L233.81 299.746L236.484 149.57L200.293 148.789Z" fill="white"/>
<path opacity="0.04" d="M292.522 350.155L274.073 352.758L271.481 498.335L289.826 501.531L289.748 505.93L213.166 504.279C198.503 503.963 185.565 500.35 174.353 493.44C163.005 486.661 154.24 477.136 148.058 464.867C141.873 452.731 138.923 438.664 139.208 422.666C139.493 406.669 142.943 392.674 149.557 380.68C156.169 368.82 165.267 359.681 176.85 353.262C188.43 346.977 201.485 343.991 216.015 344.305L292.597 345.956L292.522 350.155ZM215.93 349.104C206.198 348.894 197.56 350.975 190.014 355.346C182.335 359.715 176.284 366.32 171.859 375.16C167.432 384.133 165.104 395.018 164.876 407.816L164.328 438.612C164.1 451.41 166.039 462.32 170.146 471.344C174.252 480.368 180.064 487.228 187.582 491.925C194.966 496.618 203.524 499.07 213.255 499.28L249.447 500.06L252.121 349.884L215.93 349.104Z" fill="white"/>
<path opacity="0.04" d="M218.808 186.709L200.359 189.312L197.766 334.889L216.112 338.085L216.034 342.484L139.452 340.833C124.788 340.517 111.851 336.904 100.639 329.994C89.291 323.214 80.5259 313.69 74.3435 301.42C68.1587 289.284 65.2087 275.218 65.4936 259.22C65.7785 243.223 69.2283 229.227 75.8428 217.234C82.455 205.374 91.5525 196.234 103.135 189.816C114.716 183.531 127.771 180.545 142.301 180.858L218.883 182.509L218.808 186.709ZM142.215 185.657C132.484 185.448 123.846 187.529 116.3 191.9C108.621 196.269 102.569 202.873 98.1445 211.713C93.7174 220.687 91.3899 231.572 91.1619 244.37L90.6135 275.165C90.3856 287.963 92.3249 298.874 96.4315 307.898C100.538 316.922 106.35 323.782 113.868 328.479C121.252 333.172 129.81 335.624 139.541 335.834L175.732 336.614L178.407 186.438L142.215 185.657Z" fill="white"/>
<path d="M456.704 242.01L438.255 244.612L435.662 390.189L454.008 393.386L453.93 397.785L377.348 396.134C362.684 395.817 349.747 392.204 338.535 385.295C327.187 378.515 318.422 368.991 312.239 356.721C306.055 344.585 303.105 330.518 303.39 314.521C303.675 298.523 307.124 284.528 313.739 272.535C320.351 260.674 329.448 251.535 341.031 245.117C352.612 238.832 365.667 235.846 380.197 236.159L456.779 237.81L456.704 242.01ZM380.111 240.958C370.38 240.748 361.742 242.829 354.196 247.201C346.517 251.57 340.465 258.174 336.041 267.014C331.613 275.987 329.286 286.873 329.058 299.671L328.509 330.466C328.282 343.264 330.221 354.175 334.327 363.199C338.434 372.223 344.246 379.083 351.764 383.779C359.148 388.473 367.705 390.925 377.437 391.134L413.628 391.915L416.303 241.739L380.111 240.958Z" fill="white"/>
<path opacity="0.4" d="M518.133 414.058L499.684 416.661L497.091 562.238L515.437 565.434L515.358 569.834L438.776 568.182C424.113 567.866 411.175 564.253 399.963 557.343C388.616 550.564 379.851 541.039 373.668 528.77C367.483 516.634 364.533 502.567 364.818 486.57C365.103 470.572 368.553 456.577 375.168 444.583C381.78 432.723 390.877 423.584 402.46 417.166C414.04 410.88 427.095 407.895 441.625 408.208L518.208 409.859L518.133 414.058ZM441.54 413.007C431.809 412.797 423.17 414.878 415.625 419.25C407.946 423.619 401.894 430.223 397.469 439.063C393.042 448.036 390.715 458.922 390.487 471.72L389.938 502.515C389.71 515.313 391.65 526.224 395.756 535.248C399.863 544.272 405.675 551.132 413.192 555.828C420.577 560.522 429.134 562.973 438.865 563.183L475.057 563.964L477.731 413.787L441.54 413.007Z" fill="white"/>
<path opacity="0.04" d="M332.73 313.287L314.281 315.89L311.688 461.467L330.034 464.663L329.956 469.062L253.373 467.411C238.71 467.095 225.773 463.482 214.561 456.572C203.213 449.792 194.448 440.268 188.265 427.999C182.081 415.862 179.131 401.796 179.415 385.798C179.7 369.801 183.15 355.805 189.765 343.812C196.377 331.952 205.474 322.812 217.057 316.394C228.637 310.109 241.693 307.123 256.223 307.436L332.805 309.088L332.73 313.287ZM256.137 312.236C246.406 312.026 237.768 314.107 230.222 318.478C222.543 322.847 216.491 329.451 212.066 338.291C207.639 347.265 205.312 358.15 205.084 370.948L204.535 401.743C204.307 414.541 206.247 425.452 210.353 434.476C214.46 443.5 220.272 450.36 227.79 455.057C235.174 459.75 243.731 462.202 253.462 462.412L289.654 463.192L292.329 313.016L256.137 312.236Z" fill="white"/>
<path opacity="0.04" d="M259.016 149.841L240.566 152.444L237.974 298.02L256.32 301.217L256.241 305.616L179.659 303.965C164.996 303.649 152.058 300.035 140.846 293.126C129.499 286.346 120.733 276.822 114.551 264.552C108.366 252.416 105.416 238.349 105.701 222.352C105.986 206.355 109.436 192.359 116.05 180.366C122.663 168.505 131.76 159.366 143.343 152.948C154.923 146.663 167.978 143.677 182.508 143.99L259.09 145.641L259.016 149.841ZM182.423 148.789C172.692 148.579 164.053 150.66 156.508 155.032C148.829 159.401 142.777 166.005 138.352 174.845C133.925 183.818 131.597 194.704 131.369 207.502L130.821 238.297C130.593 251.095 132.532 262.006 136.639 271.03C140.746 280.054 146.558 286.914 154.075 291.61C161.459 296.304 170.017 298.756 179.748 298.965L215.94 299.746L218.614 149.57L182.423 148.789Z" fill="white"/>
<path opacity="0.04" d="M274.652 350.155L256.203 352.758L253.61 498.335L271.956 501.531L271.878 505.93L195.296 504.279C180.633 503.963 167.695 500.35 156.483 493.44C145.135 486.661 136.37 477.136 130.188 464.867C124.003 452.731 121.053 438.664 121.338 422.666C121.623 406.669 125.072 392.674 131.687 380.68C138.299 368.82 147.397 359.681 158.979 353.262C170.56 346.977 183.615 343.991 198.145 344.305L274.727 345.956L274.652 350.155ZM198.059 349.104C188.328 348.894 179.69 350.975 172.144 355.346C164.465 359.715 158.413 366.32 153.989 375.16C149.562 384.133 147.234 395.018 147.006 407.816L146.458 438.612C146.23 451.41 148.169 462.32 152.276 471.344C156.382 480.368 162.194 487.228 169.712 491.925C177.096 496.618 185.654 499.07 195.385 499.28L231.576 500.06L234.251 349.884L198.059 349.104Z" fill="white"/>
<path opacity="0.04" d="M200.938 186.709L182.489 189.312L179.896 334.889L198.242 338.085L198.164 342.484L121.581 340.833C106.918 340.517 93.9805 336.904 82.7686 329.994C71.4209 323.214 62.6558 313.69 56.4734 301.42C50.2885 289.284 47.3386 275.218 47.6235 259.22C47.9084 243.223 51.3582 229.227 57.9727 217.234C64.5849 205.374 73.6824 196.234 85.2651 189.816C96.8454 183.531 109.901 180.545 124.431 180.858L201.013 182.509L200.938 186.709ZM124.345 185.657C114.614 185.448 105.976 187.529 98.43 191.9C90.751 196.269 84.6992 202.873 80.2744 211.713C75.8473 220.687 73.5198 231.572 73.2918 244.37L72.7434 275.165C72.5154 287.963 74.4548 298.874 78.5614 307.898C82.668 316.922 88.48 323.782 95.9975 328.479C103.382 333.172 111.939 335.624 121.67 335.834L157.862 336.614L160.537 186.438L124.345 185.657Z" fill="white"/>
<path d="M456.704 242.01L438.255 244.612L435.662 390.189L454.008 393.386L453.93 397.785L377.348 396.134C362.684 395.817 349.747 392.204 338.535 385.295C327.187 378.515 318.422 368.991 312.239 356.721C306.055 344.585 303.105 330.518 303.39 314.521C303.675 298.523 307.124 284.528 313.739 272.535C320.351 260.674 329.448 251.535 341.031 245.117C352.612 238.832 365.667 235.846 380.197 236.159L456.779 237.81L456.704 242.01ZM380.111 240.958C370.38 240.748 361.742 242.829 354.196 247.201C346.517 251.57 340.465 258.174 336.041 267.014C331.613 275.987 329.286 286.873 329.058 299.671L328.509 330.466C328.282 343.264 330.221 354.175 334.327 363.199C338.434 372.223 344.246 379.083 351.764 383.779C359.148 388.473 367.705 390.925 377.437 391.134L413.628 391.915L416.303 241.739L380.111 240.958Z" fill="white"/>
<path opacity="0.4" d="M518.133 414.058L499.684 416.661L497.091 562.238L515.437 565.434L515.358 569.834L438.776 568.182C424.113 567.866 411.175 564.253 399.963 557.343C388.616 550.564 379.851 541.039 373.668 528.77C367.483 516.634 364.533 502.567 364.818 486.57C365.103 470.572 368.553 456.577 375.168 444.583C381.78 432.723 390.877 423.584 402.46 417.166C414.04 410.88 427.095 407.895 441.625 408.208L518.208 409.859L518.133 414.058ZM441.54 413.007C431.809 412.797 423.17 414.878 415.625 419.25C407.946 423.619 401.894 430.223 397.469 439.063C393.042 448.036 390.715 458.922 390.487 471.72L389.938 502.515C389.71 515.313 391.65 526.224 395.756 535.248C399.863 544.272 405.675 551.132 413.192 555.828C420.577 560.522 429.134 562.973 438.865 563.183L475.057 563.964L477.731 413.787L441.54 413.007Z" fill="white"/>
<path opacity="0.04" d="M332.73 313.287L314.281 315.89L311.688 461.467L330.034 464.663L329.956 469.062L253.373 467.411C238.71 467.095 225.773 463.482 214.561 456.572C203.213 449.792 194.448 440.268 188.265 427.999C182.081 415.862 179.131 401.796 179.415 385.798C179.7 369.801 183.15 355.805 189.765 343.812C196.377 331.952 205.474 322.812 217.057 316.394C228.637 310.109 241.693 307.123 256.223 307.436L332.805 309.088L332.73 313.287ZM256.137 312.236C246.406 312.026 237.768 314.107 230.222 318.478C222.543 322.847 216.491 329.451 212.066 338.291C207.639 347.265 205.312 358.15 205.084 370.948L204.535 401.743C204.307 414.541 206.247 425.452 210.353 434.476C214.46 443.5 220.272 450.36 227.79 455.057C235.174 459.75 243.731 462.202 253.462 462.412L289.654 463.192L292.329 313.016L256.137 312.236Z" fill="white"/>
<path opacity="0.04" d="M259.016 149.841L240.566 152.444L237.974 298.02L256.32 301.217L256.241 305.616L179.659 303.965C164.996 303.649 152.058 300.035 140.846 293.126C129.499 286.346 120.733 276.822 114.551 264.552C108.366 252.416 105.416 238.349 105.701 222.352C105.986 206.355 109.436 192.359 116.05 180.366C122.663 168.505 131.76 159.366 143.343 152.948C154.923 146.663 167.978 143.677 182.508 143.99L259.09 145.641L259.016 149.841ZM182.423 148.789C172.692 148.579 164.053 150.66 156.508 155.032C148.829 159.401 142.777 166.005 138.352 174.845C133.925 183.818 131.597 194.704 131.369 207.502L130.821 238.297C130.593 251.095 132.532 262.006 136.639 271.03C140.746 280.054 146.558 286.914 154.075 291.61C161.459 296.304 170.017 298.756 179.748 298.965L215.94 299.746L218.614 149.57L182.423 148.789Z" fill="white"/>
<path opacity="0.04" d="M274.652 367.359L256.203 369.962L253.61 515.539L271.956 518.735L271.878 523.135L195.296 521.483C180.633 521.167 167.695 517.554 156.483 510.644C145.135 503.865 136.37 494.34 130.188 482.071C124.003 469.935 121.053 455.868 121.338 439.871C121.623 423.873 125.072 409.878 131.687 397.884C138.299 386.024 147.397 376.885 158.979 370.466C170.56 364.181 183.615 361.195 198.145 361.509L274.727 363.16L274.652 367.359ZM198.059 366.308C188.328 366.098 179.69 368.179 172.144 372.551C164.465 376.919 158.413 383.524 153.989 392.364C149.562 401.337 147.234 412.223 147.006 425.021L146.458 455.816C146.23 468.614 148.169 479.525 152.276 488.548C156.382 497.572 162.194 504.432 169.712 509.129C177.096 513.823 185.654 516.274 195.385 516.484L231.576 517.264L234.251 367.088L198.059 366.308Z" fill="white"/>
<path opacity="0.04" d="M200.938 203.913L182.489 206.516L179.896 352.093L198.242 355.289L198.164 359.688L121.581 358.037C106.918 357.721 93.9805 354.108 82.7686 347.198C71.4209 340.418 62.6558 330.894 56.4734 318.625C50.2885 306.488 47.3386 292.422 47.6235 276.424C47.9084 260.427 51.3582 246.431 57.9727 234.438C64.5849 222.578 73.6824 213.438 85.2651 207.02C96.8454 200.735 109.901 197.749 124.431 198.062L201.013 199.714L200.938 203.913ZM124.345 202.862C114.614 202.652 105.976 204.733 98.43 209.104C90.751 213.473 84.6992 220.077 80.2744 228.917C75.8473 237.891 73.5198 248.776 73.2918 261.574L72.7434 292.369C72.5154 305.167 74.4548 316.078 78.5614 325.102C82.668 334.126 88.48 340.986 95.9975 345.683C103.382 350.376 111.939 352.828 121.67 353.038L157.862 353.818L160.537 203.642L124.345 202.862Z" fill="white"/>
<path opacity="0.3" d="M274.652 350.155L256.203 352.758L253.61 498.335L271.956 501.531L271.878 505.93L195.296 504.279C180.633 503.963 167.695 500.35 156.483 493.44C145.135 486.661 136.37 477.136 130.188 464.867C124.003 452.731 121.053 438.664 121.338 422.666C121.623 406.669 125.072 392.674 131.687 380.68C138.299 368.82 147.397 359.681 158.979 353.262C170.56 346.977 183.615 343.991 198.145 344.305L274.727 345.956L274.652 350.155ZM198.059 349.104C188.328 348.894 179.69 350.975 172.144 355.346C164.465 359.715 158.413 366.32 153.989 375.16C149.562 384.133 147.234 395.018 147.006 407.816L146.458 438.612C146.23 451.41 148.169 462.32 152.276 471.344C156.382 480.368 162.194 487.228 169.712 491.925C177.096 496.618 185.654 499.07 195.385 499.28L231.576 500.06L234.251 349.884L198.059 349.104Z" fill="white"/>
<path opacity="0.3" d="M200.938 186.709L182.489 189.312L179.896 334.889L198.242 338.085L198.164 342.484L121.581 340.833C106.918 340.517 93.9805 336.904 82.7686 329.994C71.4209 323.214 62.6558 313.69 56.4734 301.42C50.2885 289.284 47.3386 275.218 47.6235 259.22C47.9084 243.223 51.3582 229.227 57.9727 217.234C64.5849 205.374 73.6824 196.234 85.2651 189.816C96.8454 183.531 109.901 180.545 124.431 180.858L201.013 182.509L200.938 186.709ZM124.345 185.657C114.614 185.448 105.976 187.529 98.43 191.9C90.751 196.269 84.6992 202.873 80.2744 211.713C75.8473 220.687 73.5198 231.572 73.2918 244.37L72.7434 275.165C72.5154 287.963 74.4548 298.874 78.5614 307.898C82.668 316.922 88.48 323.782 95.9975 328.479C103.382 333.172 111.939 335.624 121.67 335.834L157.862 336.614L160.537 186.438L124.345 185.657Z" fill="white"/>
</svg>
