<svg width="1409" height="797" viewBox="0 0 1409 797" fill="none" xmlns="http://www.w3.org/2000/svg">
<path opacity="0.2" d="M98 484.8L116.4 481.8V336.2L98 333.4V329H159C173.4 329 184.867 330.333 193.4 333C201.933 335.667 208.133 339.733 212 345.2C215.867 350.533 217.8 357.6 217.8 366.4C217.8 385.6 205.667 397.867 181.4 403.2V404.2C196.2 406.2 207.667 410.6 215.8 417.4C224.067 424.2 228.2 433.667 228.2 445.8C228.2 460.467 222.8 471.333 212 478.4C201.333 485.467 186.867 489 168.6 489H98V484.8ZM160.6 402.6C171.267 402.6 179.467 399.6 185.2 393.6C190.933 387.6 193.8 379.067 193.8 368V366.8C193.8 344.933 182.2 334 159 334H138.4V402.6H160.6ZM168.6 484.2C179.933 484.2 188.733 480.933 195 474.4C201.267 467.733 204.4 458.267 204.4 446V443.8C204.4 431.667 201.267 422.6 195 416.6C188.867 410.6 180.067 407.6 168.6 407.6H138.4V484.2H168.6Z" fill="white"/>
<path opacity="0.2" d="M8 543.8L26.4 540.8V395.2L8 392.4V388H69C83.4 388 94.8667 389.333 103.4 392C111.933 394.667 118.133 398.733 122 404.2C125.867 409.533 127.8 416.6 127.8 425.4C127.8 444.6 115.667 456.867 91.4 462.2V463.2C106.2 465.2 117.667 469.6 125.8 476.4C134.067 483.2 138.2 492.667 138.2 504.8C138.2 519.467 132.8 530.333 122 537.4C111.333 544.467 96.8667 548 78.6 548H8V543.8ZM70.6 461.6C81.2667 461.6 89.4667 458.6 95.2 452.6C100.933 446.6 103.8 438.067 103.8 427V425.8C103.8 403.933 92.2 393 69 393H48.4V461.6H70.6ZM78.6 543.2C89.9333 543.2 98.7333 539.933 105 533.4C111.267 526.733 114.4 517.267 114.4 505V502.8C114.4 490.667 111.267 481.6 105 475.6C98.8667 469.6 90.0667 466.6 78.6 466.6H48.4V543.2H78.6Z" fill="white"/>
<path opacity="0.2" d="M784 194.8L802.4 191.8V46.2L784 43.4V39H845C859.4 39 870.867 40.3333 879.4 43C887.933 45.6667 894.133 49.7333 898 55.2C901.867 60.5333 903.8 67.6 903.8 76.4C903.8 95.6 891.667 107.867 867.4 113.2V114.2C882.2 116.2 893.667 120.6 901.8 127.4C910.067 134.2 914.2 143.667 914.2 155.8C914.2 170.467 908.8 181.333 898 188.4C887.333 195.467 872.867 199 854.6 199H784V194.8ZM846.6 112.6C857.267 112.6 865.467 109.6 871.2 103.6C876.933 97.6 879.8 89.0667 879.8 78V76.8C879.8 54.9333 868.2 44 845 44H824.4V112.6H846.6ZM854.6 194.2C865.933 194.2 874.733 190.933 881 184.4C887.267 177.733 890.4 168.267 890.4 156V153.8C890.4 141.667 887.267 132.6 881 126.6C874.867 120.6 866.067 117.6 854.6 117.6H824.4V194.2H854.6Z" fill="white"/>
<path d="M461 371.8L479.4 368.8V223.2L461 220.4V216H522C536.4 216 547.867 217.333 556.4 220C564.933 222.667 571.133 226.733 575 232.2C578.867 237.533 580.8 244.6 580.8 253.4C580.8 272.6 568.667 284.867 544.4 290.2V291.2C559.2 293.2 570.667 297.6 578.8 304.4C587.067 311.2 591.2 320.667 591.2 332.8C591.2 347.467 585.8 358.333 575 365.4C564.333 372.467 549.867 376 531.6 376H461V371.8ZM523.6 289.6C534.267 289.6 542.467 286.6 548.2 280.6C553.933 274.6 556.8 266.067 556.8 255V253.8C556.8 231.933 545.2 221 522 221H501.4V289.6H523.6ZM531.6 371.2C542.933 371.2 551.733 367.933 558 361.4C564.267 354.733 567.4 345.267 567.4 333V330.8C567.4 318.667 564.267 309.6 558 303.6C551.867 297.6 543.067 294.6 531.6 294.6H501.4V371.2H531.6Z" fill="white"/>
<path d="M170 566.8L188.4 563.8V418.2L170 415.4V411H231C245.4 411 256.867 412.333 265.4 415C273.933 417.667 280.133 421.733 284 427.2C287.867 432.533 289.8 439.6 289.8 448.4C289.8 467.6 277.667 479.867 253.4 485.2V486.2C268.2 488.2 279.667 492.6 287.8 499.4C296.067 506.2 300.2 515.667 300.2 527.8C300.2 542.467 294.8 553.333 284 560.4C273.333 567.467 258.867 571 240.6 571H170V566.8ZM232.6 484.6C243.267 484.6 251.467 481.6 257.2 475.6C262.933 469.6 265.8 461.067 265.8 450V448.8C265.8 426.933 254.2 416 231 416H210.4V484.6H232.6ZM240.6 566.2C251.933 566.2 260.733 562.933 267 556.4C273.267 549.733 276.4 540.267 276.4 528V525.8C276.4 513.667 273.267 504.6 267 498.6C260.867 492.6 252.067 489.6 240.6 489.6H210.4V566.2H240.6Z" fill="white"/>
<path opacity="0.5" d="M1149 507.8L1167.4 504.8V359.2L1149 356.4V352H1210C1224.4 352 1235.87 353.333 1244.4 356C1252.93 358.667 1259.13 362.733 1263 368.2C1266.87 373.533 1268.8 380.6 1268.8 389.4C1268.8 408.6 1256.67 420.867 1232.4 426.2V427.2C1247.2 429.2 1258.67 433.6 1266.8 440.4C1275.07 447.2 1279.2 456.667 1279.2 468.8C1279.2 483.467 1273.8 494.333 1263 501.4C1252.33 508.467 1237.87 512 1219.6 512H1149V507.8ZM1211.6 425.6C1222.27 425.6 1230.47 422.6 1236.2 416.6C1241.93 410.6 1244.8 402.067 1244.8 391V389.8C1244.8 367.933 1233.2 357 1210 357H1189.4V425.6H1211.6ZM1219.6 507.2C1230.93 507.2 1239.73 503.933 1246 497.4C1252.27 490.733 1255.4 481.267 1255.4 469V466.8C1255.4 454.667 1252.27 445.6 1246 439.6C1239.87 433.6 1231.07 430.6 1219.6 430.6H1189.4V507.2H1219.6Z" fill="white"/>
<path d="M399 384.8L417.4 381.8V236.2L399 233.4V229H460C474.4 229 485.867 230.333 494.4 233C502.933 235.667 509.133 239.733 513 245.2C516.867 250.533 518.8 257.6 518.8 266.4C518.8 285.6 506.667 297.867 482.4 303.2V304.2C497.2 306.2 508.667 310.6 516.8 317.4C525.067 324.2 529.2 333.667 529.2 345.8C529.2 360.467 523.8 371.333 513 378.4C502.333 385.467 487.867 389 469.6 389H399V384.8ZM461.6 302.6C472.267 302.6 480.467 299.6 486.2 293.6C491.933 287.6 494.8 279.067 494.8 268V266.8C494.8 244.933 483.2 234 460 234H439.4V302.6H461.6ZM469.6 384.2C480.933 384.2 489.733 380.933 496 374.4C502.267 367.733 505.4 358.267 505.4 346V343.8C505.4 331.667 502.267 322.6 496 316.6C489.867 310.6 481.067 307.6 469.6 307.6H439.4V384.2H469.6Z" fill="white"/>
<path opacity="0.5" d="M1059 568.8L1077.4 565.8V420.2L1059 417.4V413H1120C1134.4 413 1145.87 414.333 1154.4 417C1162.93 419.667 1169.13 423.733 1173 429.2C1176.87 434.533 1178.8 441.6 1178.8 450.4C1178.8 469.6 1166.67 481.867 1142.4 487.2V488.2C1157.2 490.2 1168.67 494.6 1176.8 501.4C1185.07 508.2 1189.2 517.667 1189.2 529.8C1189.2 544.467 1183.8 555.333 1173 562.4C1162.33 569.467 1147.87 573 1129.6 573H1059V568.8ZM1121.6 486.6C1132.27 486.6 1140.47 483.6 1146.2 477.6C1151.93 471.6 1154.8 463.067 1154.8 452V450.8C1154.8 428.933 1143.2 418 1120 418H1099.4V486.6H1121.6ZM1129.6 568.2C1140.93 568.2 1149.73 564.933 1156 558.4C1162.27 551.733 1165.4 542.267 1165.4 530V527.8C1165.4 515.667 1162.27 506.6 1156 500.6C1149.87 494.6 1141.07 491.6 1129.6 491.6H1099.4V568.2H1129.6Z" fill="white"/>
<path opacity="0.2" d="M253 220.8L271.4 217.8V72.2L253 69.4V65H314C328.4 65 339.867 66.3333 348.4 69C356.933 71.6667 363.133 75.7333 367 81.2C370.867 86.5333 372.8 93.6 372.8 102.4C372.8 121.6 360.667 133.867 336.4 139.2V140.2C351.2 142.2 362.667 146.6 370.8 153.4C379.067 160.2 383.2 169.667 383.2 181.8C383.2 196.467 377.8 207.333 367 214.4C356.333 221.467 341.867 225 323.6 225H253V220.8ZM315.6 138.6C326.267 138.6 334.467 135.6 340.2 129.6C345.933 123.6 348.8 115.067 348.8 104V102.8C348.8 80.9333 337.2 70 314 70H293.4V138.6H315.6ZM323.6 220.2C334.933 220.2 343.733 216.933 350 210.4C356.267 203.733 359.4 194.267 359.4 182V179.8C359.4 167.667 356.267 158.6 350 152.6C343.867 146.6 335.067 143.6 323.6 143.6H293.4V220.2H323.6Z" fill="white"/>
<path opacity="0.5" d="M916 406.8L934.4 403.8V258.2L916 255.4V251H977C991.4 251 1002.87 252.333 1011.4 255C1019.93 257.667 1026.13 261.733 1030 267.2C1033.87 272.533 1035.8 279.6 1035.8 288.4C1035.8 307.6 1023.67 319.867 999.4 325.2V326.2C1014.2 328.2 1025.67 332.6 1033.8 339.4C1042.07 346.2 1046.2 355.667 1046.2 367.8C1046.2 382.467 1040.8 393.333 1030 400.4C1019.33 407.467 1004.87 411 986.6 411H916V406.8ZM978.6 324.6C989.267 324.6 997.467 321.6 1003.2 315.6C1008.93 309.6 1011.8 301.067 1011.8 290V288.8C1011.8 266.933 1000.2 256 977 256H956.4V324.6H978.6ZM986.6 406.2C997.933 406.2 1006.73 402.933 1013 396.4C1019.27 389.733 1022.4 380.267 1022.4 368V365.8C1022.4 353.667 1019.27 344.6 1013 338.6C1006.87 332.6 998.067 329.6 986.6 329.6H956.4V406.2H986.6Z" fill="white"/>
<path opacity="0.2" d="M166 282.8L184.4 279.8V134.2L166 131.4V127H227C241.4 127 252.867 128.333 261.4 131C269.933 133.667 276.133 137.733 280 143.2C283.867 148.533 285.8 155.6 285.8 164.4C285.8 183.6 273.667 195.867 249.4 201.2V202.2C264.2 204.2 275.667 208.6 283.8 215.4C292.067 222.2 296.2 231.667 296.2 243.8C296.2 258.467 290.8 269.333 280 276.4C269.333 283.467 254.867 287 236.6 287H166V282.8ZM228.6 200.6C239.267 200.6 247.467 197.6 253.2 191.6C258.933 185.6 261.8 177.067 261.8 166V164.8C261.8 142.933 250.2 132 227 132H206.4V200.6H228.6ZM236.6 282.2C247.933 282.2 256.733 278.933 263 272.4C269.267 265.733 272.4 256.267 272.4 244V241.8C272.4 229.667 269.267 220.6 263 214.6C256.867 208.6 248.067 205.6 236.6 205.6H206.4V282.2H236.6Z" fill="white"/>
<path opacity="0.5" d="M826 466.8L844.4 463.8V318.2L826 315.4V311H887C901.4 311 912.867 312.333 921.4 315C929.933 317.667 936.133 321.733 940 327.2C943.867 332.533 945.8 339.6 945.8 348.4C945.8 367.6 933.667 379.867 909.4 385.2V386.2C924.2 388.2 935.667 392.6 943.8 399.4C952.067 406.2 956.2 415.667 956.2 427.8C956.2 442.467 950.8 453.333 940 460.4C929.333 467.467 914.867 471 896.6 471H826V466.8ZM888.6 384.6C899.267 384.6 907.467 381.6 913.2 375.6C918.933 369.6 921.8 361.067 921.8 350V348.8C921.8 326.933 910.2 316 887 316H866.4V384.6H888.6ZM896.6 466.2C907.933 466.2 916.733 462.933 923 456.4C929.267 449.733 932.4 440.267 932.4 428V425.8C932.4 413.667 929.267 404.6 923 398.6C916.867 392.6 908.067 389.6 896.6 389.6H866.4V466.2H896.6Z" fill="white"/>
<path d="M753 247.8L771.4 244.8V99.2L753 96.4V92H814C828.4 92 839.867 93.3333 848.4 96C856.933 98.6667 863.133 102.733 867 108.2C870.867 113.533 872.8 120.6 872.8 129.4C872.8 148.6 860.667 160.867 836.4 166.2V167.2C851.2 169.2 862.667 173.6 870.8 180.4C879.067 187.2 883.2 196.667 883.2 208.8C883.2 223.467 877.8 234.333 867 241.4C856.333 248.467 841.867 252 823.6 252H753V247.8ZM815.6 165.6C826.267 165.6 834.467 162.6 840.2 156.6C845.933 150.6 848.8 142.067 848.8 131V129.8C848.8 107.933 837.2 97 814 97H793.4V165.6H815.6ZM823.6 247.2C834.933 247.2 843.733 243.933 850 237.4C856.267 230.733 859.4 221.267 859.4 209V206.8C859.4 194.667 856.267 185.6 850 179.6C843.867 173.6 835.067 170.6 823.6 170.6H793.4V247.2H823.6Z" fill="white"/>
<path d="M658 306.8L676.4 303.8V158.2L658 155.4V151H719C733.4 151 744.867 152.333 753.4 155C761.933 157.667 768.133 161.733 772 167.2C775.867 172.533 777.8 179.6 777.8 188.4C777.8 207.6 765.667 219.867 741.4 225.2V226.2C756.2 228.2 767.667 232.6 775.8 239.4C784.067 246.2 788.2 255.667 788.2 267.8C788.2 282.467 782.8 293.333 772 300.4C761.333 307.467 746.867 311 728.6 311H658V306.8ZM720.6 224.6C731.267 224.6 739.467 221.6 745.2 215.6C750.933 209.6 753.8 201.067 753.8 190V188.8C753.8 166.933 742.2 156 719 156H698.4V224.6H720.6ZM728.6 306.2C739.933 306.2 748.733 302.933 755 296.4C761.267 289.733 764.4 280.267 764.4 268V265.8C764.4 253.667 761.267 244.6 755 238.6C748.867 232.6 740.067 229.6 728.6 229.6H698.4V306.2H728.6Z" fill="white"/>
<path d="M1090 568.8L1108.4 565.8V420.2L1090 417.4V413H1151C1165.4 413 1176.87 414.333 1185.4 417C1193.93 419.667 1200.13 423.733 1204 429.2C1207.87 434.533 1209.8 441.6 1209.8 450.4C1209.8 469.6 1197.67 481.867 1173.4 487.2V488.2C1188.2 490.2 1199.67 494.6 1207.8 501.4C1216.07 508.2 1220.2 517.667 1220.2 529.8C1220.2 544.467 1214.8 555.333 1204 562.4C1193.33 569.467 1178.87 573 1160.6 573H1090V568.8ZM1152.6 486.6C1163.27 486.6 1171.47 483.6 1177.2 477.6C1182.93 471.6 1185.8 463.067 1185.8 452V450.8C1185.8 428.933 1174.2 418 1151 418H1130.4V486.6H1152.6ZM1160.6 568.2C1171.93 568.2 1180.73 564.933 1187 558.4C1193.27 551.733 1196.4 542.267 1196.4 530V527.8C1196.4 515.667 1193.27 506.6 1187 500.6C1180.87 494.6 1172.07 491.6 1160.6 491.6H1130.4V568.2H1160.6Z" fill="white"/>
<path opacity="0.2" d="M1202 285.8L1220.4 282.8V137.2L1202 134.4V130H1263C1277.4 130 1288.87 131.333 1297.4 134C1305.93 136.667 1312.13 140.733 1316 146.2C1319.87 151.533 1321.8 158.6 1321.8 167.4C1321.8 186.6 1309.67 198.867 1285.4 204.2V205.2C1300.2 207.2 1311.67 211.6 1319.8 218.4C1328.07 225.2 1332.2 234.667 1332.2 246.8C1332.2 261.467 1326.8 272.333 1316 279.4C1305.33 286.467 1290.87 290 1272.6 290H1202V285.8ZM1264.6 203.6C1275.27 203.6 1283.47 200.6 1289.2 194.6C1294.93 188.6 1297.8 180.067 1297.8 169V167.8C1297.8 145.933 1286.2 135 1263 135H1242.4V203.6H1264.6ZM1272.6 285.2C1283.93 285.2 1292.73 281.933 1299 275.4C1305.27 268.733 1308.4 259.267 1308.4 247V244.8C1308.4 232.667 1305.27 223.6 1299 217.6C1292.87 211.6 1284.07 208.6 1272.6 208.6H1242.4V285.2H1272.6Z" fill="white"/>
<path opacity="0.2" d="M399 220.8L417.4 217.8V72.2L399 69.4V65H460C474.4 65 485.867 66.3333 494.4 69C502.933 71.6667 509.133 75.7333 513 81.2C516.867 86.5333 518.8 93.6 518.8 102.4C518.8 121.6 506.667 133.867 482.4 139.2V140.2C497.2 142.2 508.667 146.6 516.8 153.4C525.067 160.2 529.2 169.667 529.2 181.8C529.2 196.467 523.8 207.333 513 214.4C502.333 221.467 487.867 225 469.6 225H399V220.8ZM461.6 138.6C472.267 138.6 480.467 135.6 486.2 129.6C491.933 123.6 494.8 115.067 494.8 104V102.8C494.8 80.9333 483.2 70 460 70H439.4V138.6H461.6ZM469.6 220.2C480.933 220.2 489.733 216.933 496 210.4C502.267 203.733 505.4 194.267 505.4 182V179.8C505.4 167.667 502.267 158.6 496 152.6C489.867 146.6 481.067 143.6 469.6 143.6H439.4V220.2H469.6Z" fill="white"/>
<path opacity="0.2" d="M622 302.8L640.4 299.8V154.2L622 151.4V147H683C697.4 147 708.867 148.333 717.4 151C725.933 153.667 732.133 157.733 736 163.2C739.867 168.533 741.8 175.6 741.8 184.4C741.8 203.6 729.667 215.867 705.4 221.2V222.2C720.2 224.2 731.667 228.6 739.8 235.4C748.067 242.2 752.2 251.667 752.2 263.8C752.2 278.467 746.8 289.333 736 296.4C725.333 303.467 710.867 307 692.6 307H622V302.8ZM684.6 220.6C695.267 220.6 703.467 217.6 709.2 211.6C714.933 205.6 717.8 197.067 717.8 186V184.8C717.8 162.933 706.2 152 683 152H662.4V220.6H684.6ZM692.6 302.2C703.933 302.2 712.733 298.933 719 292.4C725.267 285.733 728.4 276.267 728.4 264V261.8C728.4 249.667 725.267 240.6 719 234.6C712.867 228.6 704.067 225.6 692.6 225.6H662.4V302.2H692.6Z" fill="white"/>
<path opacity="0.5" d="M1059 406.8L1077.4 403.8V258.2L1059 255.4V251H1120C1134.4 251 1145.87 252.333 1154.4 255C1162.93 257.667 1169.13 261.733 1173 267.2C1176.87 272.533 1178.8 279.6 1178.8 288.4C1178.8 307.6 1166.67 319.867 1142.4 325.2V326.2C1157.2 328.2 1168.67 332.6 1176.8 339.4C1185.07 346.2 1189.2 355.667 1189.2 367.8C1189.2 382.467 1183.8 393.333 1173 400.4C1162.33 407.467 1147.87 411 1129.6 411H1059V406.8ZM1121.6 324.6C1132.27 324.6 1140.47 321.6 1146.2 315.6C1151.93 309.6 1154.8 301.067 1154.8 290V288.8C1154.8 266.933 1143.2 256 1120 256H1099.4V324.6H1121.6ZM1129.6 406.2C1140.93 406.2 1149.73 402.933 1156 396.4C1162.27 389.733 1165.4 380.267 1165.4 368V365.8C1165.4 353.667 1162.27 344.6 1156 338.6C1149.87 332.6 1141.07 329.6 1129.6 329.6H1099.4V406.2H1129.6Z" fill="white"/>
</svg>
