<?xml version="1.0" encoding="utf-8"?>
<!-- Generator: Adobe Illustrator 25.0.0, SVG Export Plug-In . SVG Version: 6.00 Build 0)  -->
<svg version="1.1" id="Слой_1" xmlns="http://www.w3.org/2000/svg" xmlns:xlink="http://www.w3.org/1999/xlink" x="0px" y="0px"
	 viewBox="0 0 1772 3007" style="enable-background:new 0 0 1772 3007;" xml:space="preserve">
<style type="text/css">
	.st0{fill:none;stroke:#FFFFFF;stroke-width:3;}
</style>
<path class="st0" d="M337,3005c0,0,944-72,648-344s384-584,384-584c413.5-206.8,427.7-340.3,384-584"/>
<path class="st0" d="M1606,2c0,0-733.7,336.1-724.5,787C890.6,1239.8,1,1289,1,1289"/>
<path class="st0" d="M223,1365c24.5,5,900-194.5,963.5,0S389,1418.5,306,1652s-102,632.5,87.5,754S739,2552.5,778,2649.5
	s24,238-97.5,257.5c-97.2,15.6-390.8,42.2-525.5,53.5"/>
</svg>
