<svg width="1440" height="524" viewBox="0 0 1440 524" fill="none" xmlns="http://www.w3.org/2000/svg">
<rect x="-19" y="38" width="1459" height="475" fill="white"/>
<path d="M78.6 212C74.6 212 71.2667 211.133 68.6 209.4C66 207.667 64.7 205.133 64.7 201.8C64.7 199.6 65.3 197.833 66.5 196.5C67.7667 195.1 69.4 194.4 71.4 194.4C73 194.4 74.2667 194.833 75.2 195.7C76.1333 196.567 76.7667 197.5 77.1 198.5C77.5 199.433 77.7 200.033 77.7 200.3C75.7667 201.7 74.8 203.333 74.8 205.2C74.8 206.467 75.2 207.533 76 208.4C76.8 209.267 77.9 209.7 79.3 209.7C81.4333 209.7 83.1 208.267 84.3 205.4C85.5667 202.467 86.2 197.433 86.2 190.3V133.6L77 132.2V130H106V132.2L96.8 133.6V190.3C96.8 194.967 96.3333 198.867 95.4 202C94.5333 205.067 92.7667 207.5 90.1 209.3C87.4333 211.1 83.6 212 78.6 212ZM68 346V343.9L77.2 342.4V269.6L68 268.2V266H97.4V268.2L88.2 269.6V343.6H118.1L126.3 321.6H129V346H68ZM107.1 484C99.8333 484 93.3333 482.233 87.6 478.7C81.8667 475.167 77.4 470.233 74.2 463.9C71 457.5 69.4 450.2 69.4 442C69.4 433.8 71 426.533 74.2 420.2C77.4 413.8 81.8667 408.833 87.6 405.3C93.3333 401.767 99.8333 400 107.1 400C114.367 400 120.867 401.767 126.6 405.3C132.333 408.833 136.8 413.8 140 420.2C143.2 426.533 144.8 433.8 144.8 442C144.8 450.2 143.2 457.5 140 463.9C136.8 470.233 132.333 475.167 126.6 478.7C120.867 482.233 114.367 484 107.1 484ZM107.1 481.7C111.9 481.7 116.2 480.433 120 477.9C123.867 475.367 126.9 471.7 129.1 466.9C131.3 462.033 132.4 456.3 132.4 449.7V434.3C132.4 427.7 131.3 422 129.1 417.2C126.9 412.333 123.867 408.633 120 406.1C116.2 403.567 111.9 402.3 107.1 402.3C102.233 402.3 97.9 403.567 94.1 406.1C90.3 408.633 87.3 412.333 85.1 417.2C82.9 422 81.8 427.7 81.8 434.3V449.7C81.8 456.3 82.9 462.033 85.1 466.9C87.3 471.7 90.3 475.367 94.1 477.9C97.9 480.433 102.233 481.7 107.1 481.7Z" fill="black"/>
<path d="M267.6 243C263.6 243 260.267 242.133 257.6 240.4C255 238.667 253.7 236.133 253.7 232.8C253.7 230.6 254.3 228.833 255.5 227.5C256.767 226.1 258.4 225.4 260.4 225.4C262 225.4 263.267 225.833 264.2 226.7C265.133 227.567 265.767 228.5 266.1 229.5C266.5 230.433 266.7 231.033 266.7 231.3C264.767 232.7 263.8 234.333 263.8 236.2C263.8 237.467 264.2 238.533 265 239.4C265.8 240.267 266.9 240.7 268.3 240.7C270.433 240.7 272.1 239.267 273.3 236.4C274.567 233.467 275.2 228.433 275.2 221.3V164.6L266 163.2V161H295V163.2L285.8 164.6V221.3C285.8 225.967 285.333 229.867 284.4 233C283.533 236.067 281.767 238.5 279.1 240.3C276.433 242.1 272.6 243 267.6 243ZM257 377V374.9L266.2 373.4V300.6L257 299.2V297H286.4V299.2L277.2 300.6V374.6H307.1L315.3 352.6H318V377H257ZM296.1 515C288.833 515 282.333 513.233 276.6 509.7C270.867 506.167 266.4 501.233 263.2 494.9C260 488.5 258.4 481.2 258.4 473C258.4 464.8 260 457.533 263.2 451.2C266.4 444.8 270.867 439.833 276.6 436.3C282.333 432.767 288.833 431 296.1 431C303.367 431 309.867 432.767 315.6 436.3C321.333 439.833 325.8 444.8 329 451.2C332.2 457.533 333.8 464.8 333.8 473C333.8 481.2 332.2 488.5 329 494.9C325.8 501.233 321.333 506.167 315.6 509.7C309.867 513.233 303.367 515 296.1 515ZM296.1 512.7C300.9 512.7 305.2 511.433 309 508.9C312.867 506.367 315.9 502.7 318.1 497.9C320.3 493.033 321.4 487.3 321.4 480.7V465.3C321.4 458.7 320.3 453 318.1 448.2C315.9 443.333 312.867 439.633 309 437.1C305.2 434.567 300.9 433.3 296.1 433.3C291.233 433.3 286.9 434.567 283.1 437.1C279.3 439.633 276.3 443.333 274.1 448.2C271.9 453 270.8 458.7 270.8 465.3V480.7C270.8 487.3 271.9 493.033 274.1 497.9C276.3 502.7 279.3 506.367 283.1 508.9C286.9 511.433 291.233 512.7 296.1 512.7Z" fill="black"/>
<path d="M374.123 189.612C370.134 189.32 367.34 188.39 365.742 186.825C364.21 185.264 364.464 183.166 366.505 180.53C367.852 178.791 369.532 177.438 371.545 176.471C373.665 175.457 375.723 175.023 377.718 175.169C379.313 175.287 380.311 175.722 380.711 176.476C381.112 177.229 381.172 178.013 380.892 178.828C380.72 179.596 380.552 180.085 380.388 180.296C377.603 181.261 375.639 182.482 374.496 183.958C373.721 184.959 373.467 185.832 373.734 186.576C374.001 187.319 374.833 187.743 376.229 187.845C378.357 188.001 380.897 186.99 383.848 184.811C386.908 182.585 390.621 178.651 394.988 173.011L429.702 128.18L421.383 126.399L422.73 124.66L451.652 126.783L450.306 128.522L440.273 128.956L405.56 173.787C402.702 177.477 399.849 180.526 397 182.935C394.258 185.297 391.007 187.091 387.245 188.319C383.484 189.547 379.11 189.978 374.123 189.612ZM281.512 294.787L282.798 293.127L292.892 292.614L337.462 235.053L329.144 233.273L330.491 231.533L359.812 233.685L358.465 235.425L348.433 235.858L303.127 294.368L332.947 296.557L354.594 279.763L357.287 279.96L342.349 299.253L281.512 294.787ZM236.019 406.763C228.772 406.231 223.371 404.359 219.816 401.145C216.262 397.932 214.827 393.704 215.513 388.462C216.24 383.168 219.114 377.278 224.134 370.795C229.155 364.311 235.199 358.683 242.268 353.91C249.378 349.083 256.873 345.483 264.754 343.109C272.635 340.735 280.2 339.814 287.447 340.346C294.694 340.878 300.095 342.751 303.65 345.964C307.204 349.178 308.618 353.432 307.891 358.726C307.205 363.968 304.352 369.831 299.332 376.314C294.312 382.798 288.247 388.453 281.137 393.279C274.068 398.052 266.593 401.626 258.712 404C250.831 406.374 243.266 407.295 236.019 406.763ZM237.427 404.945C242.215 405.296 247.279 404.609 252.619 402.884C258.027 401.164 263.297 398.487 268.429 394.853C273.603 391.166 278.21 386.713 282.251 381.495L291.679 369.318C295.72 364.1 298.113 359.513 298.857 355.556C299.643 351.547 298.883 348.4 296.578 346.114C294.339 343.832 290.826 342.516 286.039 342.165C281.185 341.808 276.088 342.493 270.747 344.218C265.406 345.943 260.149 348.648 254.975 352.335C249.843 355.97 245.256 360.396 241.215 365.614L231.787 377.791C227.746 383.009 225.333 387.623 224.548 391.632C223.803 395.588 224.55 398.707 226.789 400.988C229.028 403.27 232.574 404.588 237.427 404.945Z" fill="black"/>
<path d="M455.076 229.058C451.094 228.671 448.214 227.601 446.435 225.847C444.723 224.1 444.709 221.788 446.392 218.911C447.503 217.012 448.993 215.545 450.86 214.511C452.828 213.425 454.807 212.978 456.798 213.172C458.391 213.326 459.432 213.823 459.924 214.661C460.415 215.499 460.574 216.366 460.401 217.261C460.327 218.106 460.223 218.643 460.089 218.873C457.457 219.894 455.67 221.211 454.728 222.822C454.088 223.915 453.947 224.874 454.306 225.7C454.664 226.525 455.54 227.005 456.934 227.141C459.057 227.347 461.44 226.271 464.082 223.913C466.824 221.503 469.997 217.22 473.599 211.064L502.236 162.126L493.786 160.029L494.897 158.13L523.761 160.933L522.65 162.832L512.786 163.151L484.15 212.088C481.793 216.116 479.359 219.437 476.847 222.051C474.436 224.614 471.449 226.544 467.885 227.84C464.322 229.135 460.052 229.542 455.076 229.058ZM376.849 343.688L377.91 341.875L387.824 341.47L424.591 278.637L416.142 276.539L417.253 274.64L446.515 277.483L445.404 279.381L435.54 279.7L398.167 343.569L427.927 346.46L447.199 328.264L449.886 328.525L437.563 349.585L376.849 343.688ZM346.07 466.574C338.837 465.872 333.26 463.719 329.338 460.115C325.416 456.511 323.462 451.821 323.475 446.046C323.522 440.213 325.617 433.757 329.758 426.68C333.899 419.603 339.162 413.486 345.546 408.329C351.963 403.114 358.917 399.259 366.408 396.764C373.899 394.269 381.261 393.372 388.493 394.075C395.726 394.777 401.303 396.93 405.225 400.534C409.147 404.138 411.085 408.857 411.037 414.69C411.024 420.465 408.946 426.892 404.805 433.969C400.664 441.046 395.384 447.192 388.967 452.407C382.583 457.564 375.646 461.39 368.155 463.885C360.664 466.381 353.302 467.277 346.07 466.574ZM347.231 464.589C352.009 465.053 356.928 464.376 361.99 462.557C367.118 460.744 371.989 457.873 376.603 453.942C381.25 449.955 385.241 445.113 388.574 439.416L396.352 426.125C399.685 420.428 401.469 415.402 401.704 411.047C401.972 406.634 400.821 403.147 398.252 400.587C395.75 398.033 392.109 396.524 387.332 396.06C382.488 395.589 377.535 396.264 372.474 398.083C367.412 399.902 362.557 402.805 357.91 406.793C353.296 410.723 349.322 415.537 345.989 421.233L338.211 434.525C334.878 440.221 333.077 445.276 332.809 449.689C332.574 454.044 333.709 457.499 336.211 460.053C338.714 462.607 342.387 464.119 347.231 464.589Z" fill="black"/>
<path d="M960.435 231.648C956.446 231.355 953.652 230.426 952.054 228.86C950.522 227.299 950.776 225.201 952.817 222.565C954.164 220.826 955.844 219.473 957.857 218.506C959.977 217.492 962.035 217.058 964.03 217.205C965.625 217.322 966.623 217.757 967.023 218.511C967.424 219.264 967.484 220.049 967.204 220.864C967.032 221.631 966.864 222.12 966.7 222.331C963.915 223.296 961.951 224.517 960.808 225.993C960.033 226.994 959.779 227.867 960.046 228.611C960.313 229.355 961.145 229.778 962.541 229.88C964.669 230.036 967.209 229.025 970.16 226.846C973.22 224.62 976.933 220.686 981.3 215.046L1016.01 170.215L1007.7 168.434L1009.04 166.695L1037.96 168.818L1036.62 170.557L1026.59 170.991L991.872 215.822C989.014 219.512 986.161 222.561 983.312 224.971C980.57 227.332 977.319 229.127 973.557 230.355C969.796 231.583 965.422 232.014 960.435 231.648ZM867.824 336.823L869.11 335.162L879.204 334.65L923.774 277.088L915.456 275.308L916.803 273.568L946.124 275.72L944.777 277.46L934.745 277.893L889.439 336.404L919.259 338.592L940.906 321.798L943.599 321.995L928.661 341.288L867.824 336.823ZM822.331 448.798C815.084 448.266 809.683 446.394 806.128 443.18C802.574 439.967 801.139 435.739 801.825 430.497C802.552 425.203 805.426 419.314 810.446 412.83C815.467 406.347 821.511 400.718 828.58 395.945C835.69 391.119 843.185 387.519 851.066 385.144C858.947 382.77 866.512 381.849 873.759 382.381C881.006 382.913 886.407 384.786 889.962 387.999C893.516 391.213 894.93 395.467 894.203 400.761C893.517 406.003 890.664 411.866 885.644 418.35C880.624 424.833 874.559 430.488 867.449 435.314C860.38 440.087 852.905 443.661 845.024 446.035C837.143 448.409 829.578 449.33 822.331 448.798ZM823.739 446.98C828.527 447.331 833.591 446.644 838.931 444.919C844.339 443.199 849.609 440.522 854.741 436.888C859.915 433.201 864.522 428.749 868.563 423.53L877.991 411.354C882.032 406.135 884.425 401.548 885.169 397.591C885.955 393.582 885.195 390.435 882.89 388.149C880.651 385.868 877.138 384.551 872.351 384.2C867.497 383.844 862.4 384.528 857.059 386.253C851.718 387.978 846.461 390.684 841.287 394.371C836.155 398.005 831.568 402.431 827.527 407.65L818.099 419.826C814.058 425.044 811.645 429.658 810.86 433.667C810.115 437.624 810.862 440.742 813.101 443.024C815.34 445.305 818.886 446.623 823.739 446.98Z" fill="black"/>
<path d="M844.396 265.992C840.415 265.605 837.535 264.535 835.756 262.781C834.044 261.034 834.029 258.721 835.713 255.844C836.824 253.946 838.313 252.479 840.181 251.444C842.149 250.358 844.128 249.912 846.119 250.105C847.711 250.26 848.753 250.756 849.245 251.595C849.736 252.433 849.895 253.3 849.721 254.195C849.648 255.039 849.544 255.576 849.41 255.807C846.778 256.828 844.991 258.144 844.048 259.755C843.409 260.849 843.268 261.808 843.627 262.633C843.985 263.459 844.861 263.939 846.255 264.074C848.378 264.281 850.761 263.205 853.403 260.846C856.145 258.437 859.318 254.154 862.92 247.997L891.556 199.06L883.106 196.962L884.218 195.064L913.082 197.867L911.971 199.766L902.107 200.085L873.471 249.022C871.114 253.05 868.68 256.371 866.168 258.985C863.757 261.548 860.769 263.477 857.206 264.773C853.643 266.069 849.373 266.475 844.396 265.992ZM766.17 380.621L767.23 378.809L777.145 378.404L813.912 315.571L805.462 313.473L806.574 311.574L835.836 314.416L834.725 316.315L824.861 316.634L787.487 380.503L817.247 383.393L836.52 365.198L839.207 365.459L826.884 386.518L766.17 380.621ZM735.39 503.508C728.158 502.806 722.58 500.652 718.658 497.049C714.736 493.445 712.782 488.755 712.796 482.979C712.843 477.146 714.938 470.691 719.079 463.614C723.22 456.536 728.483 450.419 734.866 445.262C741.284 440.048 748.238 436.193 755.729 433.698C763.22 431.202 770.582 430.306 777.814 431.008C785.047 431.711 790.624 433.864 794.546 437.468C798.468 441.072 800.406 445.79 800.358 451.623C800.345 457.399 798.267 463.825 794.126 470.903C789.984 477.98 784.705 484.126 778.288 489.34C771.904 494.497 764.967 498.323 757.476 500.819C749.985 503.314 742.623 504.211 735.39 503.508ZM736.552 501.523C741.33 501.987 746.249 501.309 751.311 499.49C756.439 497.678 761.31 494.806 765.924 490.876C770.571 486.888 774.562 482.046 777.895 476.35L785.673 463.058C789.006 457.362 790.79 452.336 791.024 447.98C791.293 443.567 790.142 440.081 787.573 437.52C785.07 434.966 781.43 433.457 776.653 432.993C771.809 432.523 766.856 433.197 761.794 435.016C756.733 436.836 751.878 439.739 747.231 443.727C742.617 447.657 738.643 452.47 735.31 458.167L727.532 471.458C724.199 477.155 722.398 482.209 722.13 486.622C721.895 490.978 723.029 494.433 725.532 496.986C728.035 499.54 731.708 501.052 736.552 501.523Z" fill="black"/>
<path d="M592.6 212C588.6 212 585.267 211.133 582.6 209.4C580 207.667 578.7 205.133 578.7 201.8C578.7 199.6 579.3 197.833 580.5 196.5C581.767 195.1 583.4 194.4 585.4 194.4C587 194.4 588.267 194.833 589.2 195.7C590.133 196.567 590.767 197.5 591.1 198.5C591.5 199.433 591.7 200.033 591.7 200.3C589.767 201.7 588.8 203.333 588.8 205.2C588.8 206.467 589.2 207.533 590 208.4C590.8 209.267 591.9 209.7 593.3 209.7C595.433 209.7 597.1 208.267 598.3 205.4C599.567 202.467 600.2 197.433 600.2 190.3V133.6L591 132.2V130H620V132.2L610.8 133.6V190.3C610.8 194.967 610.333 198.867 609.4 202C608.533 205.067 606.767 207.5 604.1 209.3C601.433 211.1 597.6 212 592.6 212ZM582 346V343.9L591.2 342.4V269.6L582 268.2V266H611.4V268.2L602.2 269.6V343.6H632.1L640.3 321.6H643V346H582ZM621.1 484C613.833 484 607.333 482.233 601.6 478.7C595.867 475.167 591.4 470.233 588.2 463.9C585 457.5 583.4 450.2 583.4 442C583.4 433.8 585 426.533 588.2 420.2C591.4 413.8 595.867 408.833 601.6 405.3C607.333 401.767 613.833 400 621.1 400C628.367 400 634.867 401.767 640.6 405.3C646.333 408.833 650.8 413.8 654 420.2C657.2 426.533 658.8 433.8 658.8 442C658.8 450.2 657.2 457.5 654 463.9C650.8 470.233 646.333 475.167 640.6 478.7C634.867 482.233 628.367 484 621.1 484ZM621.1 481.7C625.9 481.7 630.2 480.433 634 477.9C637.867 475.367 640.9 471.7 643.1 466.9C645.3 462.033 646.4 456.3 646.4 449.7V434.3C646.4 427.7 645.3 422 643.1 417.2C640.9 412.333 637.867 408.633 634 406.1C630.2 403.567 625.9 402.3 621.1 402.3C616.233 402.3 611.9 403.567 608.1 406.1C604.3 408.633 601.3 412.333 599.1 417.2C596.9 422 595.8 427.7 595.8 434.3V449.7C595.8 456.3 596.9 462.033 599.1 466.9C601.3 471.7 604.3 475.367 608.1 477.9C611.9 480.433 616.233 481.7 621.1 481.7Z" fill="black"/>
<path d="M608.6 243C604.6 243 601.267 242.133 598.6 240.4C596 238.667 594.7 236.133 594.7 232.8C594.7 230.6 595.3 228.833 596.5 227.5C597.767 226.1 599.4 225.4 601.4 225.4C603 225.4 604.267 225.833 605.2 226.7C606.133 227.567 606.767 228.5 607.1 229.5C607.5 230.433 607.7 231.033 607.7 231.3C605.767 232.7 604.8 234.333 604.8 236.2C604.8 237.467 605.2 238.533 606 239.4C606.8 240.267 607.9 240.7 609.3 240.7C611.433 240.7 613.1 239.267 614.3 236.4C615.567 233.467 616.2 228.433 616.2 221.3V164.6L607 163.2V161H636V163.2L626.8 164.6V221.3C626.8 225.967 626.333 229.867 625.4 233C624.533 236.067 622.767 238.5 620.1 240.3C617.433 242.1 613.6 243 608.6 243ZM598 377V374.9L607.2 373.4V300.6L598 299.2V297H627.4V299.2L618.2 300.6V374.6H648.1L656.3 352.6H659V377H598ZM637.1 515C629.833 515 623.333 513.233 617.6 509.7C611.867 506.167 607.4 501.233 604.2 494.9C601 488.5 599.4 481.2 599.4 473C599.4 464.8 601 457.533 604.2 451.2C607.4 444.8 611.867 439.833 617.6 436.3C623.333 432.767 629.833 431 637.1 431C644.367 431 650.867 432.767 656.6 436.3C662.333 439.833 666.8 444.8 670 451.2C673.2 457.533 674.8 464.8 674.8 473C674.8 481.2 673.2 488.5 670 494.9C666.8 501.233 662.333 506.167 656.6 509.7C650.867 513.233 644.367 515 637.1 515ZM637.1 512.7C641.9 512.7 646.2 511.433 650 508.9C653.867 506.367 656.9 502.7 659.1 497.9C661.3 493.033 662.4 487.3 662.4 480.7V465.3C662.4 458.7 661.3 453 659.1 448.2C656.9 443.333 653.867 439.633 650 437.1C646.2 434.567 641.9 433.3 637.1 433.3C632.233 433.3 627.9 434.567 624.1 437.1C620.3 439.633 617.3 443.333 615.1 448.2C612.9 453 611.8 458.7 611.8 465.3V480.7C611.8 487.3 612.9 493.033 615.1 497.9C617.3 502.7 620.3 506.367 624.1 508.9C627.9 511.433 632.233 512.7 637.1 512.7Z" fill="black"/>
<path d="M45.8 150L17.6 71.6L10.9 70.2V68H38.7V70.2L29.6 71.6L51.1 130.8L65.7 92.6L58.2 71.6L49 70.2V68H78.7V70.2L70.1 71.4L91.8 130.7L113.3 74.7L102 70.2V68H123.5V70.2L115.9 74.6L87.3 150H86.5L67 96.1L46.6 150H45.8ZM17 284V281.9L26.2 280.4V207.6L17 206.2V204H77.2V226.9H74.5L66.8 206.5H37.2V242.5H50.2L56.1 228H58.7V259.6H56.1L50.1 244.9H37.2V281.6H68.6L76.8 259.6H79.4V284H17ZM17 417.9L26.2 416.4V343.6L17 342.2V340H48.4C58.2667 340 65.6 342.1 70.4 346.3C75.2 350.5 77.6 356.567 77.6 364.5C77.6 372.433 75.2 378.5 70.4 382.7C65.6 386.9 58.2667 389 48.4 389H37.2V416.4L46.4 417.9V420H17V417.9ZM47 386.6C59.3333 386.6 65.5 379.9 65.5 366.5V362.5C65.5 349.167 59.3333 342.5 47 342.5H37.2V386.6H47Z" fill="black"/>
<path d="M252.8 189L224.6 110.6L217.9 109.2V107H245.7V109.2L236.6 110.6L258.1 169.8L272.7 131.6L265.2 110.6L256 109.2V107H285.7V109.2L277.1 110.4L298.8 169.7L320.3 113.7L309 109.2V107H330.5V109.2L322.9 113.6L294.3 189H293.5L274 135.1L253.6 189H252.8ZM224 323V320.9L233.2 319.4V246.6L224 245.2V243H284.2V265.9H281.5L273.8 245.5H244.2V281.5H257.2L263.1 267H265.7V298.6H263.1L257.1 283.9H244.2V320.6H275.6L283.8 298.6H286.4V323H224ZM224 456.9L233.2 455.4V382.6L224 381.2V379H255.4C265.267 379 272.6 381.1 277.4 385.3C282.2 389.5 284.6 395.567 284.6 403.5C284.6 411.433 282.2 417.5 277.4 421.7C272.6 425.9 265.267 428 255.4 428H244.2V455.4L253.4 456.9V459H224V456.9ZM254 425.6C266.333 425.6 272.5 418.9 272.5 405.5V401.5C272.5 388.167 266.333 381.5 254 381.5H244.2V425.6H254Z" fill="black"/>
<path d="M388.553 127.545L408.428 63.4918L402.603 61.8944L403.95 60.155L431.675 62.19L430.329 63.9295L420.396 64.3703L405.594 112.752L443.542 83.6171L448.919 66.4639L440.601 64.6835L441.948 62.944L471.568 65.1181L470.221 66.8576L460.91 67.1769L446.246 115.653L501.973 72.9485L493.459 68.5632L494.806 66.8237L516.248 68.3976L514.901 70.1371L504.628 73.0597L429.942 130.583L429.144 130.525L442.696 86.4797L389.351 127.604L388.553 127.545ZM277.792 231.388L279.077 229.728L289.171 229.215L333.741 171.654L325.423 169.873L326.77 168.134L386.809 172.541L372.788 190.647L370.096 190.449L374.906 173.756L345.385 171.589L323.345 200.053L336.31 201.005L351.072 189.972L353.665 190.163L334.318 215.148L331.725 214.958L334.741 202.895L321.876 201.951L299.407 230.969L330.722 233.268L352.37 216.473L354.963 216.663L340.024 235.956L277.792 231.388ZM195.814 337.26L205.907 336.747L250.478 279.186L242.16 277.405L243.507 275.666L274.822 277.964C284.662 278.687 290.69 280.884 292.906 284.556C295.122 288.228 293.801 293.201 288.944 299.474C284.087 305.746 277.979 310.367 270.621 313.337C263.262 316.306 254.663 317.43 244.823 316.708L233.653 315.888L216.878 337.552L225.135 339.412L223.849 341.072L194.528 338.92L195.814 337.26ZM244.896 314.708C257.196 315.61 267.448 310.764 275.652 300.169L278.101 297.006C286.264 286.464 284.196 280.742 271.895 279.839L262.122 279.121L235.122 313.99L244.896 314.708Z" fill="black"/>
<path d="M470.72 175.109L482.247 104.716L476.286 102.86L477.397 100.961L505.067 103.649L503.956 105.547L494.191 105.876L485.692 159.05L519.516 127.491L522.657 108.641L514.207 106.543L515.318 104.644L544.879 107.516L543.768 109.414L534.602 109.619L526.252 162.898L575.933 116.643L566.959 111.667L568.07 109.768L589.469 111.846L588.358 113.745L578.572 116.808L512.025 179.12L511.229 179.043L519.042 130.637L471.516 175.186L470.72 175.109ZM374.378 287.979L375.439 286.166L385.353 285.761L422.121 222.928L413.671 220.83L414.782 218.931L474.7 224.751L463.135 244.516L460.447 244.255L463.086 225.903L433.625 223.042L415.443 254.113L428.382 255.37L441.578 243.426L444.166 243.677L428.206 270.951L425.618 270.699L427.071 257.432L414.231 256.185L395.696 287.86L426.949 290.896L446.221 272.7L448.809 272.952L436.486 294.011L374.378 287.979ZM306.753 403.547L316.667 403.142L353.435 340.309L344.985 338.211L346.096 336.312L377.349 339.348C387.169 340.301 393.408 342.823 396.064 346.912C398.72 351.001 398.045 356.469 394.038 363.316C390.032 370.163 384.579 375.167 377.68 378.328C370.782 381.489 362.422 382.593 352.601 381.639L341.454 380.556L327.616 404.205L336.015 406.389L334.954 408.202L305.692 405.359L306.753 403.547ZM352.42 379.432C364.696 380.625 374.217 375.438 380.985 363.873L383.005 360.42C389.739 348.912 386.968 342.562 374.693 341.37L364.939 340.423L342.666 378.485L352.42 379.432Z" fill="black"/>
<path d="M974.868 169.58L994.742 105.526L988.918 103.929L990.265 102.189L1017.99 104.224L1016.64 105.964L1006.71 106.404L991.908 154.786L1029.86 125.651L1035.23 108.498L1026.92 106.718L1028.26 104.978L1057.88 107.152L1056.54 108.892L1047.22 109.211L1032.56 157.687L1088.29 114.983L1079.77 110.597L1081.12 108.858L1102.56 110.432L1101.22 112.171L1090.94 115.094L1016.26 172.617L1015.46 172.559L1029.01 128.514L975.666 169.638L974.868 169.58ZM864.106 273.422L865.392 271.762L875.485 271.249L920.056 213.688L911.738 211.907L913.085 210.168L973.123 214.575L959.103 232.681L956.41 232.484L961.22 215.79L931.7 213.623L909.659 242.088L922.625 243.039L937.386 232.006L939.979 232.197L920.633 257.182L918.04 256.992L921.055 244.93L908.19 243.985L885.721 273.003L917.037 275.302L938.684 258.507L941.277 258.697L926.339 277.99L864.106 273.422ZM782.128 379.294L792.222 378.781L836.792 321.22L828.474 319.44L829.821 317.7L861.137 319.999C870.977 320.721 877.005 322.918 879.221 326.59C881.436 330.263 880.116 335.235 875.259 341.508C870.402 347.781 864.294 352.402 856.935 355.371C849.577 358.341 840.978 359.464 831.137 358.742L819.967 357.922L803.192 379.587L811.449 381.446L810.164 383.106L780.842 380.954L782.128 379.294ZM831.21 356.742C843.511 357.645 853.763 352.798 861.967 342.203L864.416 339.041C872.579 328.498 870.51 322.776 858.21 321.873L848.436 321.155L821.437 356.024L831.21 356.742Z" fill="black"/>
<path d="M860.041 212.042L871.569 141.65L865.607 139.794L866.719 137.895L894.388 140.582L893.277 142.481L883.513 142.81L875.013 195.983L908.838 164.424L911.979 145.574L903.529 143.477L904.64 141.578L934.201 144.449L933.09 146.348L923.924 146.552L915.573 199.831L965.255 153.577L956.281 148.6L957.392 146.702L978.791 148.78L977.68 150.679L967.894 153.742L901.347 216.054L900.551 215.977L908.364 167.571L860.838 212.12L860.041 212.042ZM763.7 324.912L764.761 323.1L774.675 322.695L811.443 259.862L802.993 257.764L804.104 255.865L864.022 261.685L852.456 281.449L849.769 281.188L852.408 262.837L822.947 259.976L804.765 291.047L817.704 292.304L830.9 280.359L833.487 280.61L817.528 307.884L814.94 307.633L816.392 294.365L803.553 293.118L785.018 324.794L816.271 327.829L835.543 309.634L838.131 309.885L825.808 330.945L763.7 324.912ZM696.075 440.481L705.989 440.075L742.756 377.242L734.306 375.144L735.418 373.246L766.67 376.281C776.491 377.235 782.729 379.756 785.386 383.845C788.042 387.934 787.367 393.403 783.36 400.25C779.353 407.097 773.901 412.101 767.002 415.262C760.103 418.423 751.744 419.526 741.923 418.573L730.776 417.49L716.937 441.139L725.337 443.323L724.276 445.135L695.014 442.293L696.075 440.481ZM741.742 416.366C754.017 417.558 763.539 412.372 770.307 400.806L772.327 397.354C779.061 385.846 776.29 379.496 764.014 378.304L754.26 377.356L731.988 415.419L741.742 416.366Z" fill="black"/>
<path d="M128.463 206.484L98.3898 128.17L91.6564 126.785L91.6039 124.586L119.404 124.523L119.456 126.722L110.39 128.143L133.304 187.277L146.991 149.055L138.99 128.078L129.756 126.699L129.704 124.5L159.404 124.432L159.456 126.632L150.885 127.851L174.002 187.085L194.164 131.052L182.756 126.579L182.704 124.38L204.204 124.331L204.256 126.53L196.761 130.946L169.963 206.39L169.163 206.391L148.375 152.551L129.263 206.482L128.463 206.484ZM102.864 340.511L102.814 338.411L111.978 336.891L110.239 264.111L101.005 262.733L100.953 260.533L161.153 260.397L161.7 283.29L159 283.297L150.812 262.92L121.212 262.987L122.072 298.977L135.072 298.947L140.626 284.438L143.226 284.432L143.981 316.023L141.381 316.029L135.03 301.347L122.13 301.376L123.007 338.065L154.406 337.994L162.081 315.982L164.681 315.976L165.264 340.369L102.864 340.511ZM106.063 474.372L115.227 472.852L113.488 400.073L104.254 398.694L104.202 396.495L135.602 396.423C145.468 396.401 152.852 398.484 157.752 402.672C162.652 406.86 165.197 412.919 165.387 420.85C165.576 428.781 163.321 434.852 158.622 439.061C153.922 443.271 146.639 445.387 136.772 445.409L125.572 445.435L126.227 472.827L135.463 474.306L135.513 476.405L106.113 476.472L106.063 474.372ZM135.315 443.013C147.648 442.985 153.655 436.273 153.335 422.877L153.239 418.878C152.921 405.549 146.595 398.898 134.261 398.926L124.461 398.948L125.515 443.035L135.315 443.013Z" fill="black"/>
<path d="M308.382 238.589L278.767 160.286L272.042 158.907L272.002 156.707L299.802 156.624L299.841 158.823L290.767 160.25L313.336 219.376L327.246 181.139L319.367 160.165L310.141 158.793L310.102 156.593L339.802 156.504L339.841 158.704L331.263 159.929L354.034 219.154L374.522 163.099L363.141 158.634L363.101 156.434L384.601 156.37L384.641 158.569L377.121 162.991L349.882 238.465L349.082 238.467L328.609 184.634L309.182 238.587L308.382 238.589ZM282.002 372.654L281.964 370.554L291.137 369.027L289.822 296.239L280.597 294.866L280.557 292.667L340.757 292.486L341.171 315.382L338.471 315.391L330.402 295.017L300.802 295.106L301.452 331.1L314.452 331.061L320.091 316.546L322.691 316.538L323.261 348.133L320.661 348.14L314.396 333.461L301.496 333.499L302.158 370.193L333.558 370.099L341.361 348.078L343.961 348.071L344.402 372.467L282.002 372.654ZM284.419 506.532L293.592 505.004L292.278 432.216L283.053 430.844L283.013 428.644L314.413 428.55C324.279 428.521 331.651 430.598 336.526 434.783C341.402 438.968 343.912 445.027 344.055 452.959C344.198 460.891 341.908 466.964 337.184 471.177C332.459 475.391 325.164 477.513 315.297 477.542L304.098 477.576L304.592 504.971L313.819 506.444L313.857 508.543L284.457 508.631L284.419 506.532ZM313.854 475.147C326.187 475.11 332.233 468.393 331.991 454.995L331.919 450.995C331.678 437.664 325.391 431.017 313.058 431.054L303.258 431.084L304.054 475.176L313.854 475.147Z" fill="black"/>
<path d="M750.983 223.231L720.91 144.917L714.176 143.532L714.124 141.333L741.924 141.27L741.976 143.469L732.91 144.89L755.824 204.024L769.511 165.802L761.51 144.825L752.276 143.446L752.224 141.247L781.924 141.179L781.976 143.379L773.405 144.598L796.522 203.832L816.684 147.799L805.276 143.326L805.224 141.127L826.724 141.078L826.776 143.277L819.281 147.693L792.483 223.137L791.683 223.138L770.895 169.298L751.783 223.229L750.983 223.231ZM725.384 357.258L725.334 355.158L734.498 353.638L732.759 280.859L723.525 279.48L723.473 277.28L783.673 277.144L784.22 300.038L781.52 300.044L773.332 279.667L743.732 279.734L744.592 315.724L757.592 315.694L763.146 301.185L765.746 301.179L766.501 332.77L763.901 332.776L757.55 318.094L744.65 318.123L745.527 354.813L776.926 354.741L784.601 332.729L787.201 332.723L787.784 357.116L725.384 357.258ZM728.583 491.119L737.747 489.599L736.008 416.82L726.774 415.441L726.722 413.242L758.122 413.17C767.988 413.148 775.372 415.231 780.272 419.419C785.172 423.607 787.717 429.666 787.907 437.597C788.096 445.528 785.841 451.599 781.142 455.808C776.442 460.018 769.159 462.134 759.292 462.156L748.092 462.182L748.747 489.574L757.983 491.053L758.033 493.152L728.633 493.219L728.583 491.119ZM757.835 459.76C770.168 459.732 776.175 453.02 775.855 439.624L775.759 435.625C775.441 422.296 769.115 415.645 756.781 415.673L746.981 415.695L748.035 459.783L757.835 459.76Z" fill="black"/>
<path d="M721.745 253.304L692.13 175.001L685.404 173.622L685.365 171.422L713.165 171.339L713.204 173.538L704.13 174.965L726.698 234.091L740.609 195.854L732.729 174.88L723.504 173.507L723.464 171.308L753.164 171.219L753.204 173.418L744.626 174.644L767.396 233.869L787.885 177.814L776.504 173.349L776.464 171.149L797.964 171.084L798.004 173.284L790.483 177.706L763.245 253.18L762.445 253.182L741.972 199.349L722.545 253.302L721.745 253.304ZM695.365 387.368L695.327 385.269L704.5 383.741L703.185 310.953L693.96 309.581L693.92 307.382L754.12 307.201L754.533 330.097L751.833 330.105L743.765 309.732L714.165 309.821L714.815 345.815L727.815 345.776L733.453 331.26L736.053 331.253L736.624 362.847L734.024 362.855L727.758 348.176L714.859 348.214L715.521 384.908L746.921 384.814L754.724 362.793L757.324 362.785L757.764 387.181L695.365 387.368ZM697.782 521.247L706.955 519.719L705.641 446.931L696.415 445.559L696.376 443.359L727.776 443.265C737.642 443.236 745.013 445.313 749.889 449.498C754.765 453.683 757.275 459.742 757.418 467.674C757.561 475.606 755.271 481.679 750.546 485.892C745.822 490.106 738.527 492.228 728.66 492.257L717.46 492.291L717.955 519.686L727.182 521.159L727.22 523.258L697.82 523.346L697.782 521.247ZM727.217 489.862C739.55 489.825 745.596 483.107 745.354 469.71L745.282 465.71C745.041 452.379 738.754 445.732 726.421 445.769L716.621 445.798L717.417 489.891L727.217 489.862Z" fill="black"/>
<path d="M558.8 150L530.6 71.6L523.9 70.2V68H551.7V70.2L542.6 71.6L564.1 130.8L578.7 92.6L571.2 71.6L562 70.2V68H591.7V70.2L583.1 71.4L604.8 130.7L626.3 74.7L615 70.2V68H636.5V70.2L628.9 74.6L600.3 150H599.5L580 96.1L559.6 150H558.8ZM530 284V281.9L539.2 280.4V207.6L530 206.2V204H590.2V226.9H587.5L579.8 206.5H550.2V242.5H563.2L569.1 228H571.7V259.6H569.1L563.1 244.9H550.2V281.6H581.6L589.8 259.6H592.4V284H530ZM530 417.9L539.2 416.4V343.6L530 342.2V340H561.4C571.267 340 578.6 342.1 583.4 346.3C588.2 350.5 590.6 356.567 590.6 364.5C590.6 372.433 588.2 378.5 583.4 382.7C578.6 386.9 571.267 389 561.4 389H550.2V416.4L559.4 417.9V420H530V417.9ZM560 386.6C572.333 386.6 578.5 379.9 578.5 366.5V362.5C578.5 349.167 572.333 342.5 560 342.5H550.2V386.6H560Z" fill="black"/>
<path d="M593.8 189L565.6 110.6L558.9 109.2V107H586.7V109.2L577.6 110.6L599.1 169.8L613.7 131.6L606.2 110.6L597 109.2V107H626.7V109.2L618.1 110.4L639.8 169.7L661.3 113.7L650 109.2V107H671.5V109.2L663.9 113.6L635.3 189H634.5L615 135.1L594.6 189H593.8ZM565 323V320.9L574.2 319.4V246.6L565 245.2V243H625.2V265.9H622.5L614.8 245.5H585.2V281.5H598.2L604.1 267H606.7V298.6H604.1L598.1 283.9H585.2V320.6H616.6L624.8 298.6H627.4V323H565ZM565 456.9L574.2 455.4V382.6L565 381.2V379H596.4C606.267 379 613.6 381.1 618.4 385.3C623.2 389.5 625.6 395.567 625.6 403.5C625.6 411.433 623.2 417.5 618.4 421.7C613.6 425.9 606.267 428 596.4 428H585.2V455.4L594.4 456.9V459H565V456.9ZM595 425.6C607.333 425.6 613.5 418.9 613.5 405.5V401.5C613.5 388.167 607.333 381.5 595 381.5H585.2V425.6H595Z" fill="black"/>
<path d="M1305.79 343.428L1338.94 420.633L1335.9 350.399L1326.12 346.442L1326.03 344.344L1347.43 344.256L1347.52 346.355L1338.3 350.389L1341.34 420.624L1350.6 421.984L1350.69 424.182L1328.59 424.273L1300.72 360.236L1277.89 424.481L1257.69 424.564L1257.6 422.366L1266.74 420.93L1263.59 348.198L1254.32 346.737L1254.23 344.639L1283.63 344.518L1283.72 346.616L1274.59 348.153L1277.61 417.887L1303.99 343.436L1305.79 343.428ZM1341.55 208.384L1341.64 210.482L1332.51 212.018L1335.65 284.75L1344.91 286.111L1345.01 288.309L1315.61 288.43L1315.51 286.232L1324.65 284.795L1323.1 248.829L1292.03 282.131L1303.11 286.282L1303.21 288.48L1280.11 288.575L1280.02 286.377L1288.03 282.148L1309.75 259.276L1275.71 212.251L1268.84 210.781L1268.75 208.682L1298.25 208.561L1298.34 210.659L1289.3 212.095L1317.21 251.451L1322.95 245.332L1321.51 212.063L1312.24 210.602L1312.15 208.504L1341.55 208.384ZM1297.98 70.6672C1305.25 70.6373 1311.69 72.3762 1317.31 75.8838C1322.93 79.3914 1327.38 84.3028 1330.65 90.6179C1333.86 96.9332 1335.64 104.22 1336 112.479C1336.36 120.738 1335.1 128.038 1332.24 134.378C1329.39 140.718 1325.23 145.665 1319.79 149.218C1314.27 152.771 1307.88 154.563 1300.61 154.593C1293.75 154.621 1287.87 152.913 1282.99 149.469L1277.11 154.689L1275.01 154.698L1273.94 129.921L1276.04 129.912L1283.36 146.37C1288.33 150.346 1294.05 152.321 1300.51 152.295C1305.18 152.276 1309.33 151.06 1312.96 148.646C1316.52 146.234 1319.27 142.725 1321.2 138.121C1323.07 133.516 1323.87 128.051 1323.6 121.723L1322.8 103.44C1322.53 97.1129 1321.33 91.6554 1319.19 87.0676C1317 82.4801 1314.11 78.9613 1310.54 76.5112C1306.9 74.1279 1302.75 72.9459 1298.08 72.965C1292.35 72.9885 1287.99 74.7717 1285.01 78.3146C1281.96 81.8578 1280.57 86.5933 1280.82 92.521L1281.23 101.812L1290.59 103.173L1290.68 105.371L1260.78 105.494L1260.69 103.296L1269.93 101.859L1269.52 92.5674C1269.36 88.771 1270.24 85.2034 1272.16 81.8647C1274.09 78.5926 1277.2 75.9152 1281.52 73.8324C1285.83 71.7496 1291.31 70.6945 1297.98 70.6672Z" fill="black"/>
<path d="M1063.18 334.362L1095.51 411.559L1093.21 341.297L1083.48 337.351L1083.41 335.252L1104.81 335.136L1104.88 337.235L1095.61 341.284L1097.91 411.546L1107.16 412.895L1107.23 415.094L1085.13 415.214L1057.93 351.185L1034.43 415.489L1014.23 415.599L1014.16 413.4L1023.31 411.951L1020.93 339.19L1011.68 337.741L1011.61 335.642L1041.01 335.482L1041.08 337.581L1031.93 339.13L1034.21 408.893L1061.38 334.372L1063.18 334.362ZM1100.36 199.208L1100.43 201.307L1091.28 202.856L1093.66 275.618L1102.91 276.967L1102.98 279.166L1073.58 279.325L1073.51 277.127L1082.66 275.677L1081.49 239.697L1050.07 273.055L1061.11 277.194L1061.18 279.393L1038.08 279.518L1038.01 277.319L1046.07 273.077L1068.03 250.166L1034.48 203.165L1027.63 201.703L1027.57 199.604L1057.06 199.444L1057.13 201.542L1048.08 202.991L1075.57 242.328L1081.37 236.198L1080.28 202.916L1071.03 201.467L1070.96 199.368L1100.36 199.208ZM1058.25 61.4864C1065.52 61.447 1071.94 63.1781 1077.53 66.6799C1083.11 70.1816 1087.5 75.0893 1090.71 81.403C1093.85 87.717 1095.55 95.0052 1095.83 103.267C1096.1 111.53 1094.77 118.834 1091.84 125.181C1088.92 131.528 1084.71 136.483 1079.23 140.044C1073.67 143.607 1067.27 145.407 1060 145.447C1053.13 145.484 1047.28 143.783 1042.43 140.344L1036.5 145.575L1034.4 145.586L1033.59 120.799L1035.69 120.788L1042.83 137.243C1047.76 141.215 1053.46 143.183 1059.92 143.148C1064.59 143.123 1068.75 141.901 1072.41 139.482C1075.99 137.063 1078.78 133.549 1080.76 128.94C1082.68 124.331 1083.53 118.862 1083.33 112.532L1082.73 94.2418C1082.52 87.9118 1081.38 82.4533 1079.29 77.8663C1077.14 73.2796 1074.29 69.763 1070.75 67.3165C1067.13 64.9369 1062.99 63.7599 1058.33 63.7852C1052.59 63.8163 1048.22 65.6061 1045.2 69.1546C1042.12 72.7034 1040.67 77.4429 1040.87 83.3731L1041.17 92.6681L1050.52 94.0168L1050.59 96.2157L1020.69 96.378L1020.62 94.1792L1029.87 92.7294L1029.57 83.4344C1029.44 79.6364 1030.36 76.0661 1032.32 72.7233C1034.28 69.4472 1037.42 66.7644 1041.75 64.6749C1046.09 62.5855 1051.59 61.5226 1058.25 61.4864Z" fill="black"/>
<path d="M601.189 352.515L680.874 409.234L635.479 355.555L623.327 353.268L621.97 351.664L643.302 349.954L644.658 351.558L637.871 355.363L683.266 409.042L693.341 409.376L694.761 411.056L672.732 412.821L606.256 365.806L622.194 416.873L602.059 418.487L600.638 416.807L608.904 415.003L561.895 359.415L551.756 359.005L550.4 357.402L579.706 355.052L581.062 356.656L572.86 358.536L617.932 411.833L599.395 352.659L601.189 352.515ZM555.483 246.109L556.839 247.713L548.637 249.593L595.646 305.181L605.721 305.515L607.141 307.195L577.835 309.544L576.415 307.864L584.681 306.06L561.435 278.572L550.477 306.519L564.054 308.855L565.475 310.535L542.449 312.381L541.028 310.701L546.49 306.839L554.395 287.615L492.018 254.132L484.272 253.53L482.916 251.927L512.321 249.569L513.677 251.173L505.51 252.969L557.133 281.036L559.175 275.899L537.672 250.472L527.533 250.062L526.177 248.459L555.483 246.109ZM428.892 143.742C436.136 143.161 443.623 144.001 451.353 146.263C459.084 148.524 466.49 151.952 473.57 156.548C480.583 161.15 486.759 166.607 492.097 172.919C497.435 179.231 500.587 184.93 501.554 190.017C502.52 195.103 501.353 199.219 498.052 202.364C494.685 205.515 489.38 207.381 482.137 207.961C475.292 208.51 468.391 207.65 461.435 205.381L458.712 209.839L456.619 210.007L440.604 191.071L442.698 190.903L459.931 202.974C467.299 205.645 474.206 206.722 480.652 206.205C485.303 205.832 488.715 204.58 490.887 202.449C492.992 200.324 493.622 197.42 492.779 193.737C491.868 190.059 489.368 185.802 485.279 180.967L473.462 166.993C469.372 162.157 464.879 158.06 459.981 154.703C455.017 151.35 450.011 148.87 444.963 147.264C439.891 145.714 435.029 145.125 430.377 145.498C424.662 145.956 421.384 147.659 420.542 150.608C419.634 153.561 421.096 157.303 424.927 161.834L430.932 168.935L441.107 169.261L442.527 170.941L412.723 173.33L411.302 171.65L419.668 169.838L413.663 162.737C411.209 159.835 409.936 157.029 409.844 154.319C409.795 151.66 411.296 149.365 414.347 147.435C417.398 145.506 422.247 144.275 428.892 143.742Z" fill="black"/>
<path d="M584.79 338.816L656.104 400.891L618.247 341.655L606.547 339.297L605.416 337.528L626.696 335.27L627.827 337.04L620.634 341.402L658.491 400.638L668.393 400.847L669.578 402.701L647.601 405.032L588.069 353.584L597.184 410.38L577.097 412.511L575.912 410.657L584.307 408.507L545.104 347.165L535.147 346.871L534.016 345.102L563.252 342L564.383 343.77L556.042 346.004L593.63 404.819L583 339.006L584.79 338.816ZM553.459 220.674L554.59 222.444L546.249 224.678L585.452 286.021L595.355 286.23L596.54 288.084L567.304 291.185L566.119 289.331L574.514 287.181L555.127 256.847L540.687 288.25L553.788 290.639L554.973 292.493L532.002 294.93L530.817 293.076L536.71 288.672L547.005 267.066L489.766 230.67L482.196 230.123L481.065 228.353L510.401 225.242L511.531 227.011L503.236 229.151L550.561 259.67L553.243 253.898L535.31 225.838L525.354 225.545L524.223 223.775L553.459 220.674ZM441.754 108.359C448.981 107.592 456.263 108.409 463.602 110.81C470.941 113.211 477.807 116.921 484.201 121.941C490.529 126.968 495.918 132.965 500.37 139.93C504.822 146.896 507.195 153.212 507.489 158.879C507.784 164.547 506.099 169.164 502.433 172.732C498.7 176.307 493.221 178.478 485.995 179.244C479.166 179.969 472.465 179.12 465.892 176.698L462.626 181.723L460.538 181.945L447.183 161.048L449.271 160.826L464.72 174.033C471.647 176.898 478.326 177.989 484.756 177.306C489.397 176.814 492.927 175.36 495.347 172.944C497.701 170.535 498.7 167.28 498.344 163.179C497.922 159.085 496.006 154.369 492.596 149.033L482.741 133.613C479.33 128.276 475.425 123.772 471.026 120.1C466.56 116.435 461.939 113.746 457.163 112.033C452.357 110.383 447.634 109.805 442.993 110.297C437.292 110.902 433.834 112.858 432.621 116.166C431.342 119.481 432.3 123.638 435.495 128.637L440.503 136.474L450.505 136.672L451.69 138.526L421.957 141.68L420.772 139.826L429.266 137.666L424.258 129.829C422.212 126.627 421.319 123.513 421.579 120.486C421.875 117.516 423.654 114.928 426.916 112.722C430.179 110.517 435.125 109.062 441.754 108.359Z" fill="black"/>
<path d="M1223.71 369.262L1303.39 425.981L1258 372.302L1245.85 370.015L1244.49 368.411L1265.82 366.701L1267.18 368.305L1260.39 372.11L1305.78 425.789L1315.86 426.123L1317.28 427.803L1295.25 429.569L1228.77 382.553L1244.71 433.62L1224.58 435.234L1223.16 433.554L1231.42 431.75L1184.41 376.162L1174.27 375.752L1172.92 374.149L1202.22 371.8L1203.58 373.403L1195.38 375.283L1240.45 428.58L1221.91 369.406L1223.71 369.262ZM1178 262.856L1179.36 264.46L1171.16 266.34L1218.16 321.928L1228.24 322.262L1229.66 323.942L1200.35 326.291L1198.93 324.611L1207.2 322.807L1183.95 295.319L1173 323.266L1186.57 325.602L1187.99 327.282L1164.97 329.128L1163.55 327.448L1169.01 323.586L1176.91 304.362L1114.54 270.879L1106.79 270.277L1105.43 268.674L1134.84 266.316L1136.2 267.92L1128.03 269.716L1179.65 297.783L1181.69 292.646L1160.19 267.219L1150.05 266.809L1148.7 265.206L1178 262.856ZM1051.41 160.489C1058.65 159.908 1066.14 160.748 1073.87 163.01C1081.6 165.271 1089.01 168.699 1096.09 173.296C1103.1 177.897 1109.28 183.354 1114.62 189.666C1119.95 195.978 1123.11 201.677 1124.07 206.764C1125.04 211.85 1123.87 215.966 1120.57 219.111C1117.2 222.262 1111.9 224.128 1104.66 224.708C1097.81 225.257 1090.91 224.397 1083.95 222.128L1081.23 226.586L1079.14 226.754L1063.12 207.818L1065.22 207.65L1082.45 219.721C1089.82 222.392 1096.72 223.469 1103.17 222.952C1107.82 222.579 1111.23 221.327 1113.41 219.196C1115.51 217.071 1116.14 214.167 1115.3 210.484C1114.39 206.806 1111.89 202.55 1107.8 197.714L1095.98 183.74C1091.89 178.904 1087.4 174.808 1082.5 171.45C1077.54 168.097 1072.53 165.618 1067.48 164.011C1062.41 162.461 1057.55 161.872 1052.9 162.245C1047.18 162.703 1043.9 164.406 1043.06 167.355C1042.15 170.308 1043.61 174.051 1047.45 178.581L1053.45 185.682L1063.63 186.008L1065.05 187.688L1035.24 190.077L1033.82 188.397L1042.19 186.585L1036.18 179.484C1033.73 176.582 1032.45 173.776 1032.36 171.066C1032.31 168.407 1033.81 166.112 1036.87 164.182C1039.92 162.253 1044.77 161.022 1051.41 160.489Z" fill="black"/>
<path d="M998.153 353.532L1069.47 415.607L1031.61 356.371L1019.91 354.013L1018.78 352.244L1040.06 349.986L1041.19 351.756L1034 356.118L1071.85 415.354L1081.76 415.563L1082.94 417.417L1060.96 419.748L1001.43 368.3L1010.55 425.096L990.46 427.227L989.276 425.373L997.67 423.223L958.467 361.88L948.51 361.587L947.38 359.817L976.616 356.716L977.746 358.486L969.405 360.72L1006.99 419.535L996.363 353.722L998.153 353.532ZM966.822 235.39L967.953 237.159L959.612 239.394L998.816 300.737L1008.72 300.946L1009.9 302.799L980.667 305.901L979.482 304.047L987.877 301.897L968.491 271.563L954.051 302.966L967.152 305.355L968.336 307.209L945.365 309.646L944.18 307.792L950.073 303.388L960.368 281.782L903.129 245.385L895.559 244.839L894.428 243.069L923.764 239.957L924.895 241.727L916.599 243.867L963.924 274.386L966.606 268.613L948.674 240.554L938.717 240.261L937.586 238.491L966.822 235.39ZM855.118 123.075C862.344 122.308 869.626 123.125 876.965 125.526C884.304 127.926 891.171 131.637 897.564 136.657C903.892 141.684 909.282 147.68 913.733 154.646C918.185 161.612 920.558 167.928 920.853 173.595C921.147 179.262 919.462 183.88 915.796 187.448C912.063 191.023 906.584 193.194 899.358 193.96C892.53 194.685 885.829 193.836 879.255 191.414L875.989 196.439L873.901 196.661L860.546 175.764L862.634 175.542L878.083 188.749C885.01 191.613 891.689 192.704 898.12 192.022C902.76 191.53 906.291 190.076 908.711 187.66C911.064 185.251 912.063 181.995 911.708 177.894C911.286 173.8 909.369 169.085 905.959 163.748L896.104 148.328C892.694 142.992 888.788 138.488 884.389 134.815C879.923 131.15 875.302 128.461 870.526 126.749C865.72 125.099 860.997 124.52 856.356 125.013C850.655 125.618 847.198 127.574 845.985 130.882C844.705 134.196 845.663 138.354 848.858 143.353L853.866 151.189L863.868 151.388L865.053 153.242L835.32 156.396L834.135 154.542L842.629 152.381L837.621 144.545C835.575 141.343 834.682 138.229 834.942 135.202C835.238 132.231 837.017 129.643 840.28 127.438C843.542 125.232 848.488 123.778 855.118 123.075Z" fill="black"/>
<path d="M840.128 343.428L873.275 420.633L870.235 350.399L860.462 346.442L860.371 344.344L881.771 344.256L881.861 346.355L872.635 350.389L875.675 420.624L884.936 421.984L885.031 424.182L862.931 424.273L835.054 360.236L812.231 424.481L792.032 424.564L791.936 422.366L801.076 420.93L797.927 348.198L788.662 346.737L788.571 344.639L817.971 344.518L818.062 346.616L808.927 348.153L811.946 417.887L838.328 343.436L840.128 343.428ZM875.889 208.384L875.979 210.482L866.844 212.018L869.993 284.75L879.253 286.111L879.349 288.309L849.949 288.43L849.854 286.232L858.993 284.795L857.436 248.829L826.372 282.131L837.454 286.282L837.549 288.48L814.449 288.575L814.354 286.377L822.372 282.148L844.086 259.276L810.045 212.251L803.18 210.781L803.089 208.682L832.589 208.561L832.68 210.659L823.64 212.095L851.549 251.451L857.285 245.332L855.844 212.063L846.58 210.602L846.489 208.504L875.889 208.384ZM832.32 70.6672C839.587 70.6373 846.03 72.3762 851.649 75.8838C857.269 79.3914 861.715 84.3028 864.989 90.6179C868.197 96.9332 869.979 104.22 870.336 112.479C870.694 120.738 869.443 128.038 866.584 134.378C863.724 140.718 859.571 145.665 854.124 149.218C848.61 152.771 842.22 154.563 834.953 154.593C828.087 154.621 822.212 152.913 817.329 149.469L811.454 154.689L809.354 154.698L808.281 129.921L810.381 129.912L817.694 146.37C822.667 150.346 828.387 152.321 834.854 152.295C839.52 152.276 843.669 151.06 847.298 148.646C850.861 146.234 853.609 142.725 855.544 138.121C857.412 133.516 858.208 128.051 857.934 121.723L857.143 103.44C856.869 97.1129 855.666 91.6554 853.534 87.0676C851.335 82.4801 848.449 78.9613 844.875 76.5112C841.238 74.1279 837.086 72.9459 832.42 72.965C826.686 72.9885 822.33 74.7717 819.349 78.3146C816.302 81.8578 814.907 86.5933 815.163 92.521L815.565 101.812L824.926 103.173L825.021 105.371L795.121 105.494L795.026 103.296L804.266 101.859L803.863 92.5674C803.699 88.771 804.578 85.2034 806.501 81.8647C808.426 78.5926 811.544 75.9152 815.854 73.8324C820.165 71.7496 825.654 70.6945 832.32 70.6672Z" fill="black"/>
<path d="M753.973 334.362L786.304 411.559L784.005 341.297L774.274 337.351L774.206 335.252L795.605 335.136L795.674 337.235L786.405 341.284L788.704 411.546L797.949 412.895L798.021 415.094L775.921 415.214L748.723 351.185L725.222 415.489L705.022 415.599L704.951 413.4L714.105 411.951L711.724 339.19L702.475 337.741L702.407 335.642L731.806 335.482L731.875 337.581L722.724 339.13L725.006 408.893L752.173 334.372L753.973 334.362ZM791.158 199.208L791.227 201.307L782.076 202.856L784.457 275.618L793.702 276.967L793.774 279.166L764.375 279.325L764.303 277.127L773.457 275.677L772.28 239.697L740.866 273.055L751.903 277.194L751.975 279.393L728.875 279.518L728.803 277.319L736.866 273.077L758.82 250.166L725.277 203.165L718.428 201.703L718.359 199.604L747.859 199.444L747.928 201.542L738.873 202.991L766.365 242.328L772.165 236.198L771.076 202.916L761.827 201.467L761.759 199.368L791.158 199.208ZM749.046 61.4864C756.313 61.447 762.737 63.1781 768.319 66.6799C773.902 70.1816 778.296 75.0893 781.503 81.403C784.644 87.717 786.349 95.0052 786.619 103.267C786.89 111.53 785.562 118.834 782.635 125.181C779.709 131.528 775.504 136.483 770.02 140.044C764.468 143.607 758.06 145.407 750.793 145.447C743.927 145.484 738.07 143.783 733.223 140.344L727.293 145.575L725.193 145.586L724.383 120.799L726.483 120.788L733.622 137.243C738.553 141.215 744.251 143.183 750.718 143.148C755.384 143.123 759.545 141.901 763.2 139.482C766.788 137.063 769.574 133.549 771.557 128.94C773.473 124.331 774.327 118.862 774.12 112.532L773.522 94.2418C773.315 87.9118 772.169 82.4533 770.086 77.8663C767.935 73.2796 765.086 69.763 761.539 67.3165C757.927 64.9369 753.788 63.7599 749.122 63.7852C743.388 63.8163 739.013 65.6061 735.995 69.1546C732.911 72.7034 731.466 77.4429 731.66 83.3731L731.964 92.6681L741.309 94.0168L741.381 96.2157L711.482 96.378L711.41 94.1792L720.664 92.7294L720.36 83.4344C720.235 79.6364 721.152 76.0661 723.11 72.7233C725.07 69.4472 728.216 66.7644 732.548 64.6749C736.88 62.5855 742.38 61.5226 749.046 61.4864Z" fill="black"/>
<path d="M1150.6 118C1146.6 118 1143.27 117.133 1140.6 115.4C1138 113.667 1136.7 111.133 1136.7 107.8C1136.7 105.6 1137.3 103.833 1138.5 102.5C1139.77 101.1 1141.4 100.4 1143.4 100.4C1145 100.4 1146.27 100.833 1147.2 101.7C1148.13 102.567 1148.77 103.5 1149.1 104.5C1149.5 105.433 1149.7 106.033 1149.7 106.3C1147.77 107.7 1146.8 109.333 1146.8 111.2C1146.8 112.467 1147.2 113.533 1148 114.4C1148.8 115.267 1149.9 115.7 1151.3 115.7C1153.43 115.7 1155.1 114.267 1156.3 111.4C1157.57 108.467 1158.2 103.433 1158.2 96.3V39.6L1149 38.2V36H1178V38.2L1168.8 39.6V96.3C1168.8 100.967 1168.33 104.867 1167.4 108C1166.53 111.067 1164.77 113.5 1162.1 115.3C1159.43 117.1 1155.6 118 1150.6 118ZM1140 252V249.9L1149.2 248.4V175.6L1140 174.2V172H1169.4V174.2L1160.2 175.6V208.4H1198.2V175.6L1188.9 174.2V172H1218.5V174.2L1209.2 175.6V248.4L1218.5 249.9V252H1188.9V249.9L1198.2 248.4V210.9H1160.2V248.4L1169.4 249.9V252H1140ZM1140 388V385.9L1149.2 384.4V311.6L1140 310.2V308H1200.2V330.9H1197.5L1189.8 310.5H1160.2V348H1177.1L1183 333.5H1185.7V365.1H1183L1177.1 350.4H1160.2V384.4L1169.4 385.9V388H1140Z" fill="black"/>
<path d="M981.6 161C977.6 161 974.267 160.133 971.6 158.4C969 156.667 967.7 154.133 967.7 150.8C967.7 148.6 968.3 146.833 969.5 145.5C970.767 144.1 972.4 143.4 974.4 143.4C976 143.4 977.267 143.833 978.2 144.7C979.133 145.567 979.767 146.5 980.1 147.5C980.5 148.433 980.7 149.033 980.7 149.3C978.767 150.7 977.8 152.333 977.8 154.2C977.8 155.467 978.2 156.533 979 157.4C979.8 158.267 980.9 158.7 982.3 158.7C984.433 158.7 986.1 157.267 987.3 154.4C988.567 151.467 989.2 146.433 989.2 139.3V82.6L980 81.2V79H1009V81.2L999.8 82.6V139.3C999.8 143.967 999.333 147.867 998.4 151C997.533 154.067 995.767 156.5 993.1 158.3C990.433 160.1 986.6 161 981.6 161ZM971 295V292.9L980.2 291.4V218.6L971 217.2V215H1000.4V217.2L991.2 218.6V251.4H1029.2V218.6L1019.9 217.2V215H1049.5V217.2L1040.2 218.6V291.4L1049.5 292.9V295H1019.9V292.9L1029.2 291.4V253.9H991.2V291.4L1000.4 292.9V295H971ZM971 431V428.9L980.2 427.4V354.6L971 353.2V351H1031.2V373.9H1028.5L1020.8 353.5H991.2V391H1008.1L1014 376.5H1016.7V408.1H1014L1008.1 393.4H991.2V427.4L1000.4 428.9V431H971Z" fill="black"/>
<path d="M245.207 105.695C241.218 105.997 237.353 105.572 233.612 104.42C229.937 103.263 227.058 101.383 224.977 98.7792C223.603 97.061 223.098 95.6358 223.462 94.5038C223.85 93.3146 225.042 92.6445 227.036 92.4933C228.632 92.3724 230.165 92.6151 231.637 93.2214C233.109 93.8277 234.323 94.5088 235.28 95.2646C236.262 95.9634 236.836 96.4169 237.003 96.6251C235.949 97.8647 236.005 99.2134 237.171 100.671C237.962 101.661 239.027 102.463 240.366 103.08C241.705 103.696 243.073 103.952 244.469 103.846C246.596 103.685 247.363 102.439 246.769 100.109C246.2 97.7228 243.688 93.7438 239.233 88.1725L203.824 43.8889L193.776 43.4908L192.402 41.7725L221.319 39.5807L222.693 41.2989L214.393 43.0877L249.803 87.3714C252.717 91.0161 254.688 94.0973 255.714 96.6151C256.765 99.0757 256.523 101.11 254.988 102.717C253.453 104.324 250.193 105.317 245.207 105.695ZM318.322 211.152L317.01 209.512L325.247 207.645L279.783 150.787L269.735 150.389L268.361 148.671L297.677 146.449L299.051 148.167L290.751 149.956L311.235 175.573L349.127 172.701L328.643 147.084L318.495 146.693L317.121 144.975L346.636 142.738L348.01 144.456L339.611 146.253L385.075 203.111L395.286 203.579L396.597 205.219L367.082 207.457L365.77 205.816L374.107 203.942L350.688 174.654L312.796 177.526L336.216 206.814L346.326 207.29L347.638 208.93L318.322 211.152ZM403.255 317.371L401.943 315.731L410.18 313.864L364.716 257.006L354.668 256.608L353.294 254.889L413.322 250.339L427.623 268.225L424.931 268.429L404.513 253.078L374.998 255.315L398.417 284.603L415.268 283.326L412.096 271.555L414.788 271.351L434.523 296.031L431.831 296.235L416.767 285.2L399.916 286.478L421.149 313.032L431.259 313.509L432.571 315.149L403.255 317.371Z" fill="black"/>
<path d="M389.973 154.492C385.993 154.892 382.228 154.483 378.679 153.265C375.195 152.041 372.591 150.003 370.867 147.15C369.73 145.267 369.413 143.695 369.917 142.434C370.454 141.109 371.717 140.347 373.707 140.148C375.299 139.988 376.783 140.232 378.16 140.881C379.537 141.53 380.65 142.265 381.499 143.088C382.38 143.847 382.889 144.34 383.027 144.569C381.827 145.96 381.71 147.454 382.675 149.052C383.331 150.136 384.28 151.009 385.524 151.671C386.769 152.333 388.087 152.594 389.48 152.454C391.603 152.241 392.52 150.848 392.231 148.275C391.975 145.638 390.002 141.267 386.312 135.162L356.988 86.6335L347.11 86.3534L345.972 84.4705L374.827 81.5763L375.965 83.4592L367.535 85.5756L396.86 134.104C399.273 138.098 400.826 141.482 401.518 144.257C402.241 146.968 401.742 149.227 400.019 151.034C398.297 152.841 394.948 153.993 389.973 154.492ZM448.729 270.237L447.643 268.44L456.021 266.238L418.37 203.931L408.492 203.65L407.354 201.768L436.607 198.833L437.745 200.716L429.315 202.833L446.279 230.905L484.089 227.113L467.125 199.04L457.148 198.77L456.01 196.887L485.462 193.933L486.6 195.816L478.071 197.943L515.722 260.25L525.751 260.606L526.837 262.403L497.385 265.357L496.299 263.56L504.777 261.348L485.382 229.253L447.572 233.045L466.966 265.14L476.896 265.506L477.982 267.303L448.729 270.237ZM519.066 386.636L517.98 384.839L526.358 382.637L488.707 320.329L478.829 320.049L477.691 318.166L537.591 312.158L549.434 331.758L546.748 332.027L528.536 315.336L499.083 318.29L518.478 350.385L535.293 348.699L533.665 335.7L536.351 335.43L552.694 362.476L550.008 362.745L536.535 350.753L519.719 352.439L537.303 381.539L547.233 381.905L548.319 383.702L519.066 386.636Z" fill="black"/>
<path d="M867.727 122.442C863.738 122.744 859.873 122.319 856.131 121.167C852.456 120.01 849.578 118.13 847.496 115.526C846.122 113.808 845.617 112.383 845.981 111.251C846.37 110.062 847.561 109.392 849.556 109.24C851.151 109.119 852.685 109.362 854.157 109.968C855.629 110.575 856.843 111.256 857.8 112.012C858.782 112.71 859.356 113.164 859.522 113.372C858.469 114.612 858.525 115.96 859.691 117.418C860.482 118.408 861.547 119.211 862.886 119.827C864.225 120.443 865.592 120.699 866.988 120.593C869.115 120.432 869.882 119.186 869.288 116.857C868.72 114.47 866.208 110.491 861.753 104.92L826.343 60.6359L816.295 60.2379L814.921 58.5196L843.838 56.3278L845.212 58.046L836.913 59.8348L872.323 104.118C875.237 107.763 877.207 110.844 878.233 113.362C879.284 115.823 879.042 117.857 877.507 119.464C875.973 121.072 872.712 122.064 867.727 122.442ZM940.841 227.899L939.53 226.259L947.767 224.392L902.302 167.534L892.254 167.136L890.88 165.418L920.196 163.196L921.57 164.914L913.271 166.703L933.755 192.32L971.646 189.448L951.162 163.831L941.014 163.44L939.64 161.722L969.156 159.485L970.53 161.203L962.131 163L1007.59 219.858L1017.81 220.326L1019.12 221.966L989.601 224.204L988.29 222.563L996.626 220.689L973.207 191.401L935.316 194.273L958.735 223.561L968.846 224.037L970.157 225.677L940.841 227.899ZM1025.77 334.118L1024.46 332.478L1032.7 330.611L987.236 273.753L977.188 273.355L975.814 271.636L1035.84 267.086L1050.14 284.972L1047.45 285.176L1027.03 269.825L997.517 272.062L1020.94 301.35L1037.79 300.073L1034.62 288.302L1037.31 288.098L1057.04 312.778L1054.35 312.983L1039.29 301.948L1022.44 303.225L1043.67 329.779L1053.78 330.256L1055.09 331.896L1025.77 334.118Z" fill="black"/>
<path d="M803.337 169.208C799.357 169.607 795.592 169.198 792.042 167.981C788.558 166.757 785.955 164.718 784.231 161.866C783.093 159.983 782.776 158.411 783.281 157.15C783.817 155.825 785.08 155.063 787.07 154.863C788.662 154.704 790.147 154.948 791.523 155.597C792.9 156.245 794.013 156.981 794.862 157.804C795.743 158.563 796.252 159.056 796.39 159.284C795.19 160.676 795.073 162.17 796.039 163.768C796.694 164.852 797.643 165.725 798.888 166.387C800.132 167.049 801.451 167.31 802.844 167.17C804.966 166.957 805.883 165.564 805.595 162.991C805.338 160.354 803.365 155.983 799.676 149.877L770.351 101.349L760.473 101.069L759.335 99.1863L788.191 96.2921L789.328 98.175L780.898 100.291L810.223 148.819C812.636 152.814 814.189 156.198 814.881 158.973C815.605 161.684 815.105 163.943 813.383 165.75C811.66 167.556 808.312 168.709 803.337 169.208ZM862.092 284.953L861.006 283.156L869.384 280.954L831.733 218.646L821.855 218.366L820.717 216.483L849.971 213.549L851.108 215.432L842.678 217.549L859.642 245.621L897.452 241.829L880.489 213.756L870.511 213.486L869.373 211.603L898.826 208.649L899.963 210.532L891.434 212.658L929.085 274.966L939.114 275.322L940.2 277.119L910.748 280.073L909.662 278.276L918.14 276.064L898.745 243.969L860.935 247.761L880.33 279.856L890.259 280.222L891.345 282.019L862.092 284.953ZM932.429 401.352L931.343 399.555L939.722 397.353L902.071 335.045L892.192 334.765L891.055 332.882L950.954 326.874L962.798 346.474L960.111 346.743L941.899 330.052L912.447 333.006L931.841 365.101L948.657 363.415L947.028 350.416L949.715 350.146L966.058 377.192L963.371 377.461L949.898 365.469L933.082 367.155L950.667 396.255L960.596 396.621L961.683 398.418L932.429 401.352Z" fill="black"/>
<path d="M685.6 118C681.6 118 678.267 117.133 675.6 115.4C673 113.667 671.7 111.133 671.7 107.8C671.7 105.6 672.3 103.833 673.5 102.5C674.767 101.1 676.4 100.4 678.4 100.4C680 100.4 681.267 100.833 682.2 101.7C683.133 102.567 683.767 103.5 684.1 104.5C684.5 105.433 684.7 106.033 684.7 106.3C682.767 107.7 681.8 109.333 681.8 111.2C681.8 112.467 682.2 113.533 683 114.4C683.8 115.267 684.9 115.7 686.3 115.7C688.433 115.7 690.1 114.267 691.3 111.4C692.567 108.467 693.2 103.433 693.2 96.3V39.6L684 38.2V36H713V38.2L703.8 39.6V96.3C703.8 100.967 703.333 104.867 702.4 108C701.533 111.067 699.767 113.5 697.1 115.3C694.433 117.1 690.6 118 685.6 118ZM675 252V249.9L684.2 248.4V175.6L675 174.2V172H704.4V174.2L695.2 175.6V208.4H733.2V175.6L723.9 174.2V172H753.5V174.2L744.2 175.6V248.4L753.5 249.9V252H723.9V249.9L733.2 248.4V210.9H695.2V248.4L704.4 249.9V252H675ZM675 388V385.9L684.2 384.4V311.6L675 310.2V308H735.2V330.9H732.5L724.8 310.5H695.2V348H712.1L718 333.5H720.7V365.1H718L712.1 350.4H695.2V384.4L704.4 385.9V388H675Z" fill="black"/>
<path d="M671.6 161C667.6 161 664.267 160.133 661.6 158.4C659 156.667 657.7 154.133 657.7 150.8C657.7 148.6 658.3 146.833 659.5 145.5C660.767 144.1 662.4 143.4 664.4 143.4C666 143.4 667.267 143.833 668.2 144.7C669.133 145.567 669.767 146.5 670.1 147.5C670.5 148.433 670.7 149.033 670.7 149.3C668.767 150.7 667.8 152.333 667.8 154.2C667.8 155.467 668.2 156.533 669 157.4C669.8 158.267 670.9 158.7 672.3 158.7C674.433 158.7 676.1 157.267 677.3 154.4C678.567 151.467 679.2 146.433 679.2 139.3V82.6L670 81.2V79H699V81.2L689.8 82.6V139.3C689.8 143.967 689.333 147.867 688.4 151C687.533 154.067 685.767 156.5 683.1 158.3C680.433 160.1 676.6 161 671.6 161ZM661 295V292.9L670.2 291.4V218.6L661 217.2V215H690.4V217.2L681.2 218.6V251.4H719.2V218.6L709.9 217.2V215H739.5V217.2L730.2 218.6V291.4L739.5 292.9V295H709.9V292.9L719.2 291.4V253.9H681.2V291.4L690.4 292.9V295H661ZM661 431V428.9L670.2 427.4V354.6L661 353.2V351H721.2V373.9H718.5L710.8 353.5H681.2V391H698.1L704 376.5H706.7V408.1H704L698.1 393.4H681.2V427.4L690.4 428.9V431H661Z" fill="black"/>
</svg>
