<svg width="632" height="694" viewBox="0 0 632 694" fill="none" xmlns="http://www.w3.org/2000/svg">
<path d="M5.76 208.976L19.008 206.816V101.984L5.76 99.968V96.8H50.976C65.184 96.8 75.744 99.824 82.656 105.872C89.568 111.92 93.024 120.656 93.024 132.08C93.024 143.504 89.568 152.24 82.656 158.288C75.744 164.336 65.184 167.36 50.976 167.36H34.848V206.816L48.096 208.976V212H5.76V208.976ZM48.96 163.904C66.72 163.904 75.6 154.256 75.6 134.96V129.2C75.6 110 66.72 100.4 48.96 100.4H34.848V163.904H48.96ZM187.862 213.44C182.486 213.44 178.453 212.144 175.766 209.552C173.078 206.96 171.254 202.544 170.294 196.304L167.558 177.008C166.598 170.48 164.342 165.392 160.79 161.744C157.334 158 151.91 156.128 144.518 156.128H133.286V206.816L146.534 208.976V212H104.198V208.976L117.445 206.816V101.984L104.198 99.968V96.8H144.518C160.166 96.8 171.494 99.248 178.502 104.144C185.51 109.04 189.014 116.48 189.014 126.464C189.014 142.976 179.03 152.528 159.062 155.12V155.984C166.454 157.04 172.358 159.68 176.774 163.904C181.286 168.128 184.118 173.744 185.27 180.752L187.142 193.136C187.91 198.512 188.774 202.16 189.734 204.08C190.79 206 192.374 206.96 194.486 206.96C195.926 206.96 197.462 206.528 199.094 205.664C200.726 204.704 202.262 203.504 203.702 202.064L206.15 204.656C203.366 207.824 200.486 210.08 197.51 211.424C194.534 212.768 191.318 213.44 187.862 213.44ZM149.414 152.672C156.422 152.672 161.846 150.56 165.686 146.336C169.622 142.016 171.59 135.68 171.59 127.328V124.304C171.59 108.368 162.566 100.4 144.518 100.4H133.286V152.672H149.414ZM199.03 212V208.976L213.143 203.216L254.759 93.92H257.063L296.375 206.816L309.623 208.976V212H267.287V208.976L279.094 207.104L266.855 172.976H228.551L216.887 203.216L229.847 208.976V212H199.03ZM229.703 169.952H265.847L248.567 119.264L229.703 169.952ZM325.67 212V208.976L338.918 206.816V100.4H315.158L304.214 128.912H300.038V96.8H393.782V128.912H389.462L378.662 100.4H354.758V206.816L368.006 208.976V212H325.67ZM383.109 212V208.976L397.221 203.216L438.837 93.92H441.141L480.453 206.816L493.701 208.976V212H451.365V208.976L463.173 207.104L450.933 172.976H412.629L400.965 203.216L413.925 208.976V212H383.109ZM413.781 169.952H449.925L432.645 119.264L413.781 169.952ZM3.84 346.984L12.672 345.544V275.656L3.84 274.312V272.2H33.984C43.456 272.2 50.496 274.216 55.104 278.248C59.712 282.28 62.016 288.104 62.016 295.72C62.016 303.336 59.712 309.16 55.104 313.192C50.496 317.224 43.456 319.24 33.984 319.24H23.232V345.544L32.064 346.984V349H3.84V346.984ZM32.64 316.936C44.48 316.936 50.4 310.504 50.4 297.64V293.8C50.4 281 44.48 274.6 32.64 274.6H23.232V316.936H32.64ZM125.241 349.96C121.657 349.96 118.969 349.096 117.177 347.368C115.385 345.64 114.169 342.696 113.529 338.536L111.705 325.672C111.065 321.32 109.561 317.928 107.193 315.496C104.889 313 101.273 311.752 96.345 311.752H88.857V345.544L97.689 346.984V349H69.465V346.984L78.297 345.544V275.656L69.465 274.312V272.2H96.345C106.777 272.2 114.329 273.832 119.001 277.096C123.673 280.36 126.009 285.32 126.009 291.976C126.009 302.984 119.353 309.352 106.041 311.08V311.656C110.969 312.36 114.905 314.12 117.849 316.936C120.857 319.752 122.745 323.496 123.513 328.168L124.761 336.424C125.273 340.008 125.849 342.44 126.489 343.72C127.193 345 128.249 345.64 129.657 345.64C130.617 345.64 131.641 345.352 132.729 344.776C133.817 344.136 134.841 343.336 135.801 342.376L137.433 344.104C135.577 346.216 133.657 347.72 131.673 348.616C129.689 349.512 127.545 349.96 125.241 349.96ZM99.609 309.448C104.281 309.448 107.897 308.04 110.457 305.224C113.081 302.344 114.393 298.12 114.393 292.552V290.536C114.393 279.912 108.377 274.6 96.345 274.6H88.857V309.448H99.609ZM132.687 349V346.984L142.095 343.144L169.839 270.28H171.375L197.583 345.544L206.415 346.984V349H178.191V346.984L186.063 345.736L177.903 322.984H152.367L144.591 343.144L153.231 346.984V349H132.687ZM153.135 320.968H177.231L165.711 287.176L153.135 320.968ZM217.113 349V346.984L225.945 345.544V274.6H210.105L202.809 293.608H200.025V272.2H262.521V293.608H259.641L252.441 274.6H236.505V345.544L245.337 346.984V349H217.113ZM255.406 349V346.984L264.814 343.144L292.558 270.28H294.094L320.302 345.544L329.134 346.984V349H300.91V346.984L308.782 345.736L300.622 322.984H275.086L267.31 343.144L275.95 346.984V349H255.406ZM275.854 320.968H299.95L288.43 287.176L275.854 320.968ZM2.88 452.488L9.504 451.408V398.992L2.88 397.984V396.4H25.488C32.592 396.4 37.872 397.912 41.328 400.936C44.784 403.96 46.512 408.328 46.512 414.04C46.512 419.752 44.784 424.12 41.328 427.144C37.872 430.168 32.592 431.68 25.488 431.68H17.424V451.408L24.048 452.488V454H2.88V452.488ZM24.48 429.952C33.36 429.952 37.8 425.128 37.8 415.48V412.6C37.8 403 33.36 398.2 24.48 398.2H17.424V429.952H24.48ZM93.9308 454.72C91.2428 454.72 89.2267 454.072 87.8828 452.776C86.5388 451.48 85.6268 449.272 85.1468 446.152L83.7788 436.504C83.2988 433.24 82.1708 430.696 80.3948 428.872C78.6668 427 75.9548 426.064 72.2588 426.064H66.6428V451.408L73.2668 452.488V454H52.0988V452.488L58.7227 451.408V398.992L52.0988 397.984V396.4H72.2588C80.0828 396.4 85.7468 397.624 89.2508 400.072C92.7548 402.52 94.5068 406.24 94.5068 411.232C94.5068 419.488 89.5148 424.264 79.5308 425.56V425.992C83.2268 426.52 86.1788 427.84 88.3868 429.952C90.6428 432.064 92.0588 434.872 92.6348 438.376L93.5708 444.568C93.9548 447.256 94.3868 449.08 94.8668 450.04C95.3948 451 96.1868 451.48 97.2428 451.48C97.9628 451.48 98.7308 451.264 99.5468 450.832C100.363 450.352 101.131 449.752 101.851 449.032L103.075 450.328C101.683 451.912 100.243 453.04 98.7548 453.712C97.2668 454.384 95.6588 454.72 93.9308 454.72ZM74.7068 424.336C78.2108 424.336 80.9228 423.28 82.8428 421.168C84.8108 419.008 85.7948 415.84 85.7948 411.664V410.152C85.7948 402.184 81.2828 398.2 72.2588 398.2H66.6428V424.336H74.7068ZM99.5152 454V452.488L106.571 449.608L127.379 394.96H128.531L148.187 451.408L154.811 452.488V454H133.643V452.488L139.547 451.552L133.427 434.488H114.275L108.443 449.608L114.923 452.488V454H99.5152ZM114.851 432.976H132.923L124.283 407.632L114.851 432.976ZM162.835 454V452.488L169.459 451.408V398.2H157.579L152.107 412.456H150.019V396.4H196.891V412.456H194.731L189.331 398.2H177.379V451.408L184.003 452.488V454H162.835ZM191.554 454V452.488L198.61 449.608L219.418 394.96H220.57L240.226 451.408L246.85 452.488V454H225.682V452.488L231.586 451.552L225.466 434.488H206.314L200.482 449.608L206.962 452.488V454H191.554ZM206.89 432.976H224.962L216.322 407.632L206.89 432.976ZM2.56 546.656L8.448 545.696V499.104L2.56 498.208V496.8H22.656C28.9707 496.8 33.664 498.144 36.736 500.832C39.808 503.52 41.344 507.403 41.344 512.48C41.344 517.557 39.808 521.44 36.736 524.128C33.664 526.816 28.9707 528.16 22.656 528.16H15.488V545.696L21.376 546.656V548H2.56V546.656ZM21.76 526.624C29.6533 526.624 33.6 522.336 33.6 513.76V511.2C33.6 502.667 29.6533 498.4 21.76 498.4H15.488V526.624H21.76ZM83.494 548.64C81.1047 548.64 79.3127 548.064 78.118 546.912C76.9233 545.76 76.1127 543.797 75.686 541.024L74.47 532.448C74.0433 529.547 73.0407 527.285 71.462 525.664C69.926 524 67.5153 523.168 64.23 523.168H59.238V545.696L65.126 546.656V548H46.31V546.656L52.198 545.696V499.104L46.31 498.208V496.8H64.23C71.1847 496.8 76.2193 497.888 79.334 500.064C82.4487 502.24 84.006 505.547 84.006 509.984C84.006 517.323 79.5687 521.568 70.694 522.72V523.104C73.9793 523.573 76.6033 524.747 78.566 526.624C80.5713 528.501 81.83 530.997 82.342 534.112L83.174 539.616C83.5153 542.005 83.8993 543.627 84.326 544.48C84.7953 545.333 85.4993 545.76 86.438 545.76C87.078 545.76 87.7607 545.568 88.486 545.184C89.2113 544.757 89.894 544.224 90.534 543.584L91.622 544.736C90.3847 546.144 89.1047 547.147 87.782 547.744C86.4593 548.341 85.03 548.64 83.494 548.64ZM66.406 521.632C69.5207 521.632 71.9313 520.693 73.638 518.816C75.3873 516.896 76.262 514.08 76.262 510.368V509.024C76.262 501.941 72.2513 498.4 64.23 498.4H59.238V521.632H66.406ZM88.458 548V546.656L94.73 544.096L113.226 495.52H114.25L131.722 545.696L137.61 546.656V548H118.794V546.656L124.042 545.824L118.602 530.656H101.578L96.394 544.096L102.154 546.656V548H88.458ZM102.09 529.312H118.154L110.474 506.784L102.09 529.312ZM144.742 548V546.656L150.63 545.696V498.4H140.07L135.206 511.072H133.35V496.8H175.014V511.072H173.094L168.294 498.4H157.67V545.696L163.558 546.656V548H144.742ZM170.27 548V546.656L176.543 544.096L195.039 495.52H196.063L213.535 545.696L219.423 546.656V548H200.607V546.656L205.854 545.824L200.415 530.656H183.391L178.207 544.096L183.967 546.656V548H170.27ZM183.903 529.312H199.967L192.287 506.784L183.903 529.312ZM1.92 618.992L6.336 618.272V583.328L1.92 582.656V581.6H16.992C21.728 581.6 25.248 582.608 27.552 584.624C29.856 586.64 31.008 589.552 31.008 593.36C31.008 597.168 29.856 600.08 27.552 602.096C25.248 604.112 21.728 605.12 16.992 605.12H11.616V618.272L16.032 618.992V620H1.92V618.992ZM16.32 603.968C22.24 603.968 25.2 600.752 25.2 594.32V592.4C25.2 586 22.24 582.8 16.32 582.8H11.616V603.968H16.32ZM62.6205 620.48C60.8285 620.48 59.4845 620.048 58.5885 619.184C57.6925 618.32 57.0845 616.848 56.7645 614.768L55.8525 608.336C55.5325 606.16 54.7805 604.464 53.5965 603.248C52.4445 602 50.6365 601.376 48.1725 601.376H44.4285V618.272L48.8445 618.992V620H34.7325V618.992L39.1485 618.272V583.328L34.7325 582.656V581.6H48.1725C53.3885 581.6 57.1645 582.416 59.5005 584.048C61.8365 585.68 63.0045 588.16 63.0045 591.488C63.0045 596.992 59.6765 600.176 53.0205 601.04V601.328C55.4845 601.68 57.4525 602.56 58.9245 603.968C60.4285 605.376 61.3725 607.248 61.7565 609.584L62.3805 613.712C62.6365 615.504 62.9245 616.72 63.2445 617.36C63.5965 618 64.1245 618.32 64.8285 618.32C65.3085 618.32 65.8205 618.176 66.3645 617.888C66.9085 617.568 67.4205 617.168 67.9005 616.688L68.7165 617.552C67.7885 618.608 66.8285 619.36 65.8365 619.808C64.8445 620.256 63.7725 620.48 62.6205 620.48ZM49.8045 600.224C52.1405 600.224 53.9485 599.52 55.2285 598.112C56.5405 596.672 57.1965 594.56 57.1965 591.776V590.768C57.1965 585.456 54.1885 582.8 48.1725 582.8H44.4285V600.224H49.8045ZM66.3435 620V618.992L71.0475 617.072L84.9195 580.64H85.6875L98.7915 618.272L103.208 618.992V620H89.0955V618.992L93.0315 618.368L88.9515 606.992H76.1835L72.2955 617.072L76.6155 618.992V620H66.3435ZM76.5675 605.984H88.6155L82.8555 589.088L76.5675 605.984ZM108.557 620V618.992L112.973 618.272V582.8H105.053L101.405 592.304H100.013V581.6H131.261V592.304H129.821L126.221 582.8H118.253V618.272L122.669 618.992V620H108.557ZM127.703 620V618.992L132.407 617.072L146.279 580.64H147.047L160.151 618.272L164.567 618.992V620H150.455V618.992L154.391 618.368L150.311 606.992H137.543L133.655 617.072L137.975 618.992V620H127.703ZM137.927 605.984H149.975L144.215 589.088L137.927 605.984ZM1.44 675.244L4.752 674.704V648.496L1.44 647.992V647.2H12.744C16.296 647.2 18.936 647.956 20.664 649.468C22.392 650.98 23.256 653.164 23.256 656.02C23.256 658.876 22.392 661.06 20.664 662.572C18.936 664.084 16.296 664.84 12.744 664.84H8.712V674.704L12.024 675.244V676H1.44V675.244ZM12.24 663.976C16.68 663.976 18.9 661.564 18.9 656.74V655.3C18.9 650.5 16.68 648.1 12.24 648.1H8.712V663.976H12.24ZM46.9654 676.36C45.6214 676.36 44.6134 676.036 43.9414 675.388C43.2694 674.74 42.8134 673.636 42.5734 672.076L41.8894 667.252C41.6494 665.62 41.0854 664.348 40.1974 663.436C39.3334 662.5 37.9774 662.032 36.1294 662.032H33.3214V674.704L36.6334 675.244V676H26.0494V675.244L29.3614 674.704V648.496L26.0494 647.992V647.2H36.1294C40.0414 647.2 42.8734 647.812 44.6254 649.036C46.3774 650.26 47.2534 652.12 47.2534 654.616C47.2534 658.744 44.7574 661.132 39.7654 661.78V661.996C41.6134 662.26 43.0894 662.92 44.1934 663.976C45.3214 665.032 46.0294 666.436 46.3174 668.188L46.7854 671.284C46.9774 672.628 47.1934 673.54 47.4334 674.02C47.6974 674.5 48.0934 674.74 48.6214 674.74C48.9814 674.74 49.3654 674.632 49.7734 674.416C50.1814 674.176 50.5654 673.876 50.9254 673.516L51.5374 674.164C50.8414 674.956 50.1214 675.52 49.3774 675.856C48.6334 676.192 47.8294 676.36 46.9654 676.36ZM37.3534 661.168C39.1054 661.168 40.4614 660.64 41.4214 659.584C42.4054 658.504 42.8974 656.92 42.8974 654.832V654.076C42.8974 650.092 40.6414 648.1 36.1294 648.1H33.3214V661.168H37.3534ZM49.7576 676V675.244L53.2856 673.804L63.6896 646.48H64.2656L74.0936 674.704L77.4056 675.244V676H66.8216V675.244L69.7736 674.776L66.7136 666.244H57.1376L54.2216 673.804L57.4616 675.244V676H49.7576ZM57.4256 665.488H66.4616L62.1416 652.816L57.4256 665.488ZM81.4174 676V675.244L84.7294 674.704V648.1H78.7894L76.0534 655.228H75.0094V647.2H98.4454V655.228H97.3654L94.6654 648.1H88.6894V674.704L92.0014 675.244V676H81.4174ZM95.7772 676V675.244L99.3052 673.804L109.709 646.48H110.285L120.113 674.704L123.425 675.244V676H112.841V675.244L115.793 674.776L112.733 666.244H103.157L100.241 673.804L103.481 675.244V676H95.7772ZM103.445 665.488H112.481L108.161 652.816L103.445 665.488Z" fill="white" fill-opacity="0.3"/>
<path d="M102.76 139.976L116.008 137.816V32.984L102.76 30.968V27.8H147.976C162.184 27.8 172.744 30.824 179.656 36.872C186.568 42.92 190.024 51.656 190.024 63.08C190.024 74.504 186.568 83.24 179.656 89.288C172.744 95.336 162.184 98.36 147.976 98.36H131.848V137.816L145.096 139.976V143H102.76V139.976ZM145.96 94.904C163.72 94.904 172.6 85.256 172.6 65.96V60.2C172.6 41 163.72 31.4 145.96 31.4H131.848V94.904H145.96ZM284.862 144.44C279.486 144.44 275.453 143.144 272.766 140.552C270.078 137.96 268.254 133.544 267.294 127.304L264.558 108.008C263.598 101.48 261.342 96.392 257.79 92.744C254.334 89 248.91 87.128 241.518 87.128H230.286V137.816L243.534 139.976V143H201.198V139.976L214.445 137.816V32.984L201.198 30.968V27.8H241.518C257.166 27.8 268.494 30.248 275.502 35.144C282.51 40.04 286.014 47.48 286.014 57.464C286.014 73.976 276.03 83.528 256.062 86.12V86.984C263.454 88.04 269.358 90.68 273.774 94.904C278.286 99.128 281.118 104.744 282.27 111.752L284.142 124.136C284.91 129.512 285.774 133.16 286.734 135.08C287.79 137 289.374 137.96 291.486 137.96C292.926 137.96 294.462 137.528 296.094 136.664C297.726 135.704 299.262 134.504 300.702 133.064L303.15 135.656C300.366 138.824 297.486 141.08 294.51 142.424C291.534 143.768 288.318 144.44 284.862 144.44ZM246.414 83.672C253.422 83.672 258.846 81.56 262.686 77.336C266.622 73.016 268.59 66.68 268.59 58.328V55.304C268.59 39.368 259.566 31.4 241.518 31.4H230.286V83.672H246.414ZM296.03 143V139.976L310.143 134.216L351.759 24.92H354.063L393.375 137.816L406.623 139.976V143H364.287V139.976L376.094 138.104L363.855 103.976H325.551L313.887 134.216L326.847 139.976V143H296.03ZM326.703 100.952H362.847L345.567 50.264L326.703 100.952ZM422.67 143V139.976L435.918 137.816V31.4H412.158L401.214 59.912H397.038V27.8H490.782V59.912H486.462L475.662 31.4H451.758V137.816L465.006 139.976V143H422.67ZM480.109 143V139.976L494.221 134.216L535.837 24.92H538.141L577.453 137.816L590.701 139.976V143H548.365V139.976L560.173 138.104L547.933 103.976H509.629L497.965 134.216L510.925 139.976V143H480.109ZM510.781 100.952H546.925L529.645 50.264L510.781 100.952ZM100.84 277.984L109.672 276.544V206.656L100.84 205.312V203.2H130.984C140.456 203.2 147.496 205.216 152.104 209.248C156.712 213.28 159.016 219.104 159.016 226.72C159.016 234.336 156.712 240.16 152.104 244.192C147.496 248.224 140.456 250.24 130.984 250.24H120.232V276.544L129.064 277.984V280H100.84V277.984ZM129.64 247.936C141.48 247.936 147.4 241.504 147.4 228.64V224.8C147.4 212 141.48 205.6 129.64 205.6H120.232V247.936H129.64ZM222.241 280.96C218.657 280.96 215.969 280.096 214.177 278.368C212.385 276.64 211.169 273.696 210.529 269.536L208.705 256.672C208.065 252.32 206.561 248.928 204.193 246.496C201.889 244 198.273 242.752 193.345 242.752H185.857V276.544L194.689 277.984V280H166.465V277.984L175.297 276.544V206.656L166.465 205.312V203.2H193.345C203.777 203.2 211.329 204.832 216.001 208.096C220.673 211.36 223.009 216.32 223.009 222.976C223.009 233.984 216.353 240.352 203.041 242.08V242.656C207.969 243.36 211.905 245.12 214.849 247.936C217.857 250.752 219.745 254.496 220.513 259.168L221.761 267.424C222.273 271.008 222.849 273.44 223.489 274.72C224.193 276 225.249 276.64 226.657 276.64C227.617 276.64 228.641 276.352 229.729 275.776C230.817 275.136 231.841 274.336 232.801 273.376L234.433 275.104C232.577 277.216 230.657 278.72 228.673 279.616C226.689 280.512 224.545 280.96 222.241 280.96ZM196.609 240.448C201.281 240.448 204.897 239.04 207.457 236.224C210.081 233.344 211.393 229.12 211.393 223.552V221.536C211.393 210.912 205.377 205.6 193.345 205.6H185.857V240.448H196.609ZM229.687 280V277.984L239.095 274.144L266.839 201.28H268.375L294.583 276.544L303.415 277.984V280H275.191V277.984L283.063 276.736L274.903 253.984H249.367L241.591 274.144L250.231 277.984V280H229.687ZM250.135 251.968H274.231L262.711 218.176L250.135 251.968ZM314.113 280V277.984L322.945 276.544V205.6H307.105L299.809 224.608H297.025V203.2H359.521V224.608H356.641L349.441 205.6H333.505V276.544L342.337 277.984V280H314.113ZM352.406 280V277.984L361.814 274.144L389.558 201.28H391.094L417.302 276.544L426.134 277.984V280H397.91V277.984L405.782 276.736L397.622 253.984H372.086L364.31 274.144L372.95 277.984V280H352.406ZM372.854 251.968H396.95L385.43 218.176L372.854 251.968ZM99.88 383.488L106.504 382.408V329.992L99.88 328.984V327.4H122.488C129.592 327.4 134.872 328.912 138.328 331.936C141.784 334.96 143.512 339.328 143.512 345.04C143.512 350.752 141.784 355.12 138.328 358.144C134.872 361.168 129.592 362.68 122.488 362.68H114.424V382.408L121.048 383.488V385H99.88V383.488ZM121.48 360.952C130.36 360.952 134.8 356.128 134.8 346.48V343.6C134.8 334 130.36 329.2 121.48 329.2H114.424V360.952H121.48ZM190.931 385.72C188.243 385.72 186.227 385.072 184.883 383.776C183.539 382.48 182.627 380.272 182.147 377.152L180.779 367.504C180.299 364.24 179.171 361.696 177.395 359.872C175.667 358 172.955 357.064 169.259 357.064H163.643V382.408L170.267 383.488V385H149.099V383.488L155.723 382.408V329.992L149.099 328.984V327.4H169.259C177.083 327.4 182.747 328.624 186.251 331.072C189.755 333.52 191.507 337.24 191.507 342.232C191.507 350.488 186.515 355.264 176.531 356.56V356.992C180.227 357.52 183.179 358.84 185.387 360.952C187.643 363.064 189.059 365.872 189.635 369.376L190.571 375.568C190.955 378.256 191.387 380.08 191.867 381.04C192.395 382 193.187 382.48 194.243 382.48C194.963 382.48 195.731 382.264 196.547 381.832C197.363 381.352 198.131 380.752 198.851 380.032L200.075 381.328C198.683 382.912 197.243 384.04 195.755 384.712C194.267 385.384 192.659 385.72 190.931 385.72ZM171.707 355.336C175.211 355.336 177.923 354.28 179.843 352.168C181.811 350.008 182.795 346.84 182.795 342.664V341.152C182.795 333.184 178.283 329.2 169.259 329.2H163.643V355.336H171.707ZM196.515 385V383.488L203.571 380.608L224.379 325.96H225.531L245.187 382.408L251.811 383.488V385H230.643V383.488L236.547 382.552L230.427 365.488H211.275L205.443 380.608L211.923 383.488V385H196.515ZM211.851 363.976H229.923L221.283 338.632L211.851 363.976ZM259.835 385V383.488L266.459 382.408V329.2H254.579L249.107 343.456H247.019V327.4H293.891V343.456H291.731L286.331 329.2H274.379V382.408L281.003 383.488V385H259.835ZM288.554 385V383.488L295.61 380.608L316.418 325.96H317.57L337.226 382.408L343.85 383.488V385H322.682V383.488L328.586 382.552L322.466 365.488H303.314L297.482 380.608L303.962 383.488V385H288.554ZM303.89 363.976H321.962L313.322 338.632L303.89 363.976ZM99.56 477.656L105.448 476.696V430.104L99.56 429.208V427.8H119.656C125.971 427.8 130.664 429.144 133.736 431.832C136.808 434.52 138.344 438.403 138.344 443.48C138.344 448.557 136.808 452.44 133.736 455.128C130.664 457.816 125.971 459.16 119.656 459.16H112.488V476.696L118.376 477.656V479H99.56V477.656ZM118.76 457.624C126.653 457.624 130.6 453.336 130.6 444.76V442.2C130.6 433.667 126.653 429.4 118.76 429.4H112.488V457.624H118.76ZM180.494 479.64C178.105 479.64 176.313 479.064 175.118 477.912C173.923 476.76 173.113 474.797 172.686 472.024L171.47 463.448C171.043 460.547 170.041 458.285 168.462 456.664C166.926 455 164.515 454.168 161.23 454.168H156.238V476.696L162.126 477.656V479H143.31V477.656L149.198 476.696V430.104L143.31 429.208V427.8H161.23C168.185 427.8 173.219 428.888 176.334 431.064C179.449 433.24 181.006 436.547 181.006 440.984C181.006 448.323 176.569 452.568 167.694 453.72V454.104C170.979 454.573 173.603 455.747 175.566 457.624C177.571 459.501 178.83 461.997 179.342 465.112L180.174 470.616C180.515 473.005 180.899 474.627 181.326 475.48C181.795 476.333 182.499 476.76 183.438 476.76C184.078 476.76 184.761 476.568 185.486 476.184C186.211 475.757 186.894 475.224 187.534 474.584L188.622 475.736C187.385 477.144 186.105 478.147 184.782 478.744C183.459 479.341 182.03 479.64 180.494 479.64ZM163.406 452.632C166.521 452.632 168.931 451.693 170.638 449.816C172.387 447.896 173.262 445.08 173.262 441.368V440.024C173.262 432.941 169.251 429.4 161.23 429.4H156.238V452.632H163.406ZM185.458 479V477.656L191.73 475.096L210.226 426.52H211.25L228.722 476.696L234.61 477.656V479H215.794V477.656L221.042 476.824L215.602 461.656H198.578L193.394 475.096L199.154 477.656V479H185.458ZM199.09 460.312H215.154L207.474 437.784L199.09 460.312ZM241.742 479V477.656L247.63 476.696V429.4H237.07L232.206 442.072H230.35V427.8H272.014V442.072H270.094L265.294 429.4H254.67V476.696L260.558 477.656V479H241.742ZM267.27 479V477.656L273.543 475.096L292.039 426.52H293.063L310.535 476.696L316.423 477.656V479H297.607V477.656L302.854 476.824L297.415 461.656H280.391L275.207 475.096L280.967 477.656V479H267.27ZM280.903 460.312H296.967L289.287 437.784L280.903 460.312ZM98.92 549.992L103.336 549.272V514.328L98.92 513.656V512.6H113.992C118.728 512.6 122.248 513.608 124.552 515.624C126.856 517.64 128.008 520.552 128.008 524.36C128.008 528.168 126.856 531.08 124.552 533.096C122.248 535.112 118.728 536.12 113.992 536.12H108.616V549.272L113.032 549.992V551H98.92V549.992ZM113.32 534.968C119.24 534.968 122.2 531.752 122.2 525.32V523.4C122.2 517 119.24 513.8 113.32 513.8H108.616V534.968H113.32ZM159.621 551.48C157.829 551.48 156.484 551.048 155.589 550.184C154.693 549.32 154.085 547.848 153.765 545.768L152.853 539.336C152.533 537.16 151.781 535.464 150.597 534.248C149.445 533 147.637 532.376 145.173 532.376H141.429V549.272L145.845 549.992V551H131.733V549.992L136.148 549.272V514.328L131.733 513.656V512.6H145.173C150.389 512.6 154.165 513.416 156.501 515.048C158.837 516.68 160.005 519.16 160.005 522.488C160.005 527.992 156.677 531.176 150.021 532.04V532.328C152.485 532.68 154.453 533.56 155.925 534.968C157.429 536.376 158.373 538.248 158.757 540.584L159.381 544.712C159.637 546.504 159.925 547.72 160.245 548.36C160.597 549 161.125 549.32 161.829 549.32C162.309 549.32 162.821 549.176 163.365 548.888C163.909 548.568 164.421 548.168 164.901 547.688L165.717 548.552C164.789 549.608 163.829 550.36 162.837 550.808C161.845 551.256 160.773 551.48 159.621 551.48ZM146.805 531.224C149.141 531.224 150.949 530.52 152.229 529.112C153.541 527.672 154.197 525.56 154.197 522.776V521.768C154.197 516.456 151.189 513.8 145.173 513.8H141.429V531.224H146.805ZM163.343 551V549.992L168.048 548.072L181.92 511.64H182.688L195.792 549.272L200.208 549.992V551H186.096V549.992L190.031 549.368L185.952 537.992H173.184L169.296 548.072L173.616 549.992V551H163.343ZM173.568 536.984H185.616L179.856 520.088L173.568 536.984ZM205.557 551V549.992L209.973 549.272V513.8H202.053L198.405 523.304H197.013V512.6H228.261V523.304H226.821L223.221 513.8H215.253V549.272L219.669 549.992V551H205.557ZM224.703 551V549.992L229.407 548.072L243.279 511.64H244.047L257.151 549.272L261.567 549.992V551H247.455V549.992L251.391 549.368L247.311 537.992H234.543L230.655 548.072L234.975 549.992V551H224.703ZM234.927 536.984H246.975L241.215 520.088L234.927 536.984ZM98.44 606.244L101.752 605.704V579.496L98.44 578.992V578.2H109.744C113.296 578.2 115.936 578.956 117.664 580.468C119.392 581.98 120.256 584.164 120.256 587.02C120.256 589.876 119.392 592.06 117.664 593.572C115.936 595.084 113.296 595.84 109.744 595.84H105.712V605.704L109.024 606.244V607H98.44V606.244ZM109.24 594.976C113.68 594.976 115.9 592.564 115.9 587.74V586.3C115.9 581.5 113.68 579.1 109.24 579.1H105.712V594.976H109.24ZM143.965 607.36C142.621 607.36 141.613 607.036 140.941 606.388C140.269 605.74 139.813 604.636 139.573 603.076L138.889 598.252C138.649 596.62 138.085 595.348 137.197 594.436C136.333 593.5 134.977 593.032 133.129 593.032H130.321V605.704L133.633 606.244V607H123.049V606.244L126.361 605.704V579.496L123.049 578.992V578.2H133.129C137.041 578.2 139.873 578.812 141.625 580.036C143.377 581.26 144.253 583.12 144.253 585.616C144.253 589.744 141.757 592.132 136.765 592.78V592.996C138.613 593.26 140.089 593.92 141.193 594.976C142.321 596.032 143.029 597.436 143.317 599.188L143.785 602.284C143.977 603.628 144.193 604.54 144.433 605.02C144.697 605.5 145.093 605.74 145.621 605.74C145.981 605.74 146.365 605.632 146.773 605.416C147.181 605.176 147.565 604.876 147.925 604.516L148.537 605.164C147.841 605.956 147.121 606.52 146.377 606.856C145.633 607.192 144.829 607.36 143.965 607.36ZM134.353 592.168C136.105 592.168 137.461 591.64 138.421 590.584C139.405 589.504 139.897 587.92 139.897 585.832V585.076C139.897 581.092 137.641 579.1 133.129 579.1H130.321V592.168H134.353ZM146.758 607V606.244L150.286 604.804L160.69 577.48H161.266L171.094 605.704L174.406 606.244V607H163.822V606.244L166.774 605.776L163.714 597.244H154.138L151.222 604.804L154.462 606.244V607H146.758ZM154.426 596.488H163.462L159.142 583.816L154.426 596.488ZM178.417 607V606.244L181.729 605.704V579.1H175.789L173.053 586.228H172.009V578.2H195.445V586.228H194.365L191.665 579.1H185.689V605.704L189.001 606.244V607H178.417ZM192.777 607V606.244L196.305 604.804L206.709 577.48H207.285L217.113 605.704L220.425 606.244V607H209.841V606.244L212.793 605.776L209.733 597.244H200.157L197.241 604.804L200.481 606.244V607H192.777ZM200.445 596.488H209.481L205.161 583.816L200.445 596.488Z" fill="white"/>
</svg>
