<svg width="720" height="1098" viewBox="0 0 720 1098" fill="none" xmlns="http://www.w3.org/2000/svg">
<path d="M515.48 595.3C473.08 595.3 451.88 578 451.88 543.4V530.5C433.08 527.9 416.48 521 402.08 509.8C387.68 498.6 376.48 484.1 368.48 466.3C360.68 448.5 356.78 428.4 356.78 406C356.78 381.4 361.58 359.6 371.18 340.6C380.78 321.4 394.18 306.5 411.38 295.9C428.58 285.3 448.08 280 469.88 280C491.68 280 511.18 285.3 528.38 295.9C545.58 306.5 558.98 321.4 568.58 340.6C578.18 359.6 582.98 381.4 582.98 406C582.98 428.2 578.98 448.2 570.98 466C563.18 483.8 552.18 498.3 537.98 509.5C523.78 520.7 507.38 527.7 488.78 530.5V550.6C488.78 575.8 500.98 588.4 525.38 588.4V595.3H515.48ZM469.88 525.1C484.28 525.1 497.18 521.3 508.58 513.7C519.98 506.1 528.88 495.1 535.28 480.7C541.88 466.3 545.18 449.1 545.18 429.1V382.9C545.18 362.9 541.88 345.7 535.28 331.3C528.88 316.9 519.98 305.9 508.58 298.3C497.18 290.7 484.28 286.9 469.88 286.9C455.28 286.9 442.28 290.7 430.88 298.3C419.68 305.9 410.78 316.9 404.18 331.3C397.78 345.7 394.58 362.9 394.58 382.9V429.1C394.58 449.1 397.78 466.3 404.18 480.7C410.78 495.1 419.68 506.1 430.88 513.7C442.28 521.3 455.28 525.1 469.88 525.1Z" fill="white"/>
<path d="M446.48 475.3C404.08 475.3 382.88 458 382.88 423.4V410.5C364.08 407.9 347.48 401 333.08 389.8C318.68 378.6 307.48 364.1 299.48 346.3C291.68 328.5 287.78 308.4 287.78 286C287.78 261.4 292.58 239.6 302.18 220.6C311.78 201.4 325.18 186.5 342.38 175.9C359.58 165.3 379.08 160 400.88 160C422.68 160 442.18 165.3 459.38 175.9C476.58 186.5 489.98 201.4 499.58 220.6C509.18 239.6 513.98 261.4 513.98 286C513.98 308.2 509.98 328.2 501.98 346C494.18 363.8 483.18 378.3 468.98 389.5C454.78 400.7 438.38 407.7 419.78 410.5V430.6C419.78 455.8 431.98 468.4 456.38 468.4V475.3H446.48ZM400.88 405.1C415.28 405.1 428.18 401.3 439.58 393.7C450.98 386.1 459.88 375.1 466.28 360.7C472.88 346.3 476.18 329.1 476.18 309.1V262.9C476.18 242.9 472.88 225.7 466.28 211.3C459.88 196.9 450.98 185.9 439.58 178.3C428.18 170.7 415.28 166.9 400.88 166.9C386.28 166.9 373.28 170.7 361.88 178.3C350.68 185.9 341.78 196.9 335.18 211.3C328.78 225.7 325.58 242.9 325.58 262.9V309.1C325.58 329.1 328.78 346.3 335.18 360.7C341.78 375.1 350.68 386.1 361.88 393.7C373.28 401.3 386.28 405.1 400.88 405.1Z" fill="white" fill-opacity="0.5"/>
<path d="M494.48 661.3C452.08 661.3 430.88 644 430.88 609.4V596.5C412.08 593.9 395.48 587 381.08 575.8C366.68 564.6 355.48 550.1 347.48 532.3C339.68 514.5 335.78 494.4 335.78 472C335.78 447.4 340.58 425.6 350.18 406.6C359.78 387.4 373.18 372.5 390.38 361.9C407.58 351.3 427.08 346 448.88 346C470.68 346 490.18 351.3 507.38 361.9C524.58 372.5 537.98 387.4 547.58 406.6C557.18 425.6 561.98 447.4 561.98 472C561.98 494.2 557.98 514.2 549.98 532C542.18 549.8 531.18 564.3 516.98 575.5C502.78 586.7 486.38 593.7 467.78 596.5V616.6C467.78 641.8 479.98 654.4 504.38 654.4V661.3H494.48ZM448.88 591.1C463.28 591.1 476.18 587.3 487.58 579.7C498.98 572.1 507.88 561.1 514.28 546.7C520.88 532.3 524.18 515.1 524.18 495.1V448.9C524.18 428.9 520.88 411.7 514.28 397.3C507.88 382.9 498.98 371.9 487.58 364.3C476.18 356.7 463.28 352.9 448.88 352.9C434.28 352.9 421.28 356.7 409.88 364.3C398.68 371.9 389.78 382.9 383.18 397.3C376.78 411.7 373.58 428.9 373.58 448.9V495.1C373.58 515.1 376.78 532.3 383.18 546.7C389.78 561.1 398.68 572.1 409.88 579.7C421.28 587.3 434.28 591.1 448.88 591.1Z" fill="white"/>
<path d="M397.48 367.3C355.08 367.3 333.88 350 333.88 315.4V302.5C315.08 299.9 298.48 293 284.08 281.8C269.68 270.6 258.48 256.1 250.48 238.3C242.68 220.5 238.78 200.4 238.78 178C238.78 153.4 243.58 131.6 253.18 112.6C262.78 93.4 276.18 78.5 293.38 67.9C310.58 57.3 330.08 52 351.88 52C373.68 52 393.18 57.3 410.38 67.9C427.58 78.5 440.98 93.4 450.58 112.6C460.18 131.6 464.98 153.4 464.98 178C464.98 200.2 460.98 220.2 452.98 238C445.18 255.8 434.18 270.3 419.98 281.5C405.78 292.7 389.38 299.7 370.78 302.5V322.6C370.78 347.8 382.98 360.4 407.38 360.4V367.3H397.48ZM351.88 297.1C366.28 297.1 379.18 293.3 390.58 285.7C401.98 278.1 410.88 267.1 417.28 252.7C423.88 238.3 427.18 221.1 427.18 201.1V154.9C427.18 134.9 423.88 117.7 417.28 103.3C410.88 88.9 401.98 77.9 390.58 70.3C379.18 62.7 366.28 58.9 351.88 58.9C337.28 58.9 324.28 62.7 312.88 70.3C301.68 77.9 292.78 88.9 286.18 103.3C279.78 117.7 276.58 134.9 276.58 154.9V201.1C276.58 221.1 279.78 238.3 286.18 252.7C292.78 267.1 301.68 278.1 312.88 285.7C324.28 293.3 337.28 297.1 351.88 297.1Z" fill="white" fill-opacity="0.5"/>
<path d="M487.48 952.3C445.08 952.3 423.88 935 423.88 900.4V887.5C405.08 884.9 388.48 878 374.08 866.8C359.68 855.6 348.48 841.1 340.48 823.3C332.68 805.5 328.78 785.4 328.78 763C328.78 738.4 333.58 716.6 343.18 697.6C352.78 678.4 366.18 663.5 383.38 652.9C400.58 642.3 420.08 637 441.88 637C463.68 637 483.18 642.3 500.38 652.9C517.58 663.5 530.98 678.4 540.58 697.6C550.18 716.6 554.98 738.4 554.98 763C554.98 785.2 550.98 805.2 542.98 823C535.18 840.8 524.18 855.3 509.98 866.5C495.78 877.7 479.38 884.7 460.78 887.5V907.6C460.78 932.8 472.98 945.4 497.38 945.4V952.3H487.48ZM441.88 882.1C456.28 882.1 469.18 878.3 480.58 870.7C491.98 863.1 500.88 852.1 507.28 837.7C513.88 823.3 517.18 806.1 517.18 786.1V739.9C517.18 719.9 513.88 702.7 507.28 688.3C500.88 673.9 491.98 662.9 480.58 655.3C469.18 647.7 456.28 643.9 441.88 643.9C427.28 643.9 414.28 647.7 402.88 655.3C391.68 662.9 382.78 673.9 376.18 688.3C369.78 702.7 366.58 719.9 366.58 739.9V786.1C366.58 806.1 369.78 823.3 376.18 837.7C382.78 852.1 391.68 863.1 402.88 870.7C414.28 878.3 427.28 882.1 441.88 882.1Z" fill="white" fill-opacity="0.5"/>
<path d="M447.48 1029.3C405.08 1029.3 383.88 1012 383.88 977.4V964.5C365.08 961.9 348.48 955 334.08 943.8C319.68 932.6 308.48 918.1 300.48 900.3C292.68 882.5 288.78 862.4 288.78 840C288.78 815.4 293.58 793.6 303.18 774.6C312.78 755.4 326.18 740.5 343.38 729.9C360.58 719.3 380.08 714 401.88 714C423.68 714 443.18 719.3 460.38 729.9C477.58 740.5 490.98 755.4 500.58 774.6C510.18 793.6 514.98 815.4 514.98 840C514.98 862.2 510.98 882.2 502.98 900C495.18 917.8 484.18 932.3 469.98 943.5C455.78 954.7 439.38 961.7 420.78 964.5V984.6C420.78 1009.8 432.98 1022.4 457.38 1022.4V1029.3H447.48ZM401.88 959.1C416.28 959.1 429.18 955.3 440.58 947.7C451.98 940.1 460.88 929.1 467.28 914.7C473.88 900.3 477.18 883.1 477.18 863.1V816.9C477.18 796.9 473.88 779.7 467.28 765.3C460.88 750.9 451.98 739.9 440.58 732.3C429.18 724.7 416.28 720.9 401.88 720.9C387.28 720.9 374.28 724.7 362.88 732.3C351.68 739.9 342.78 750.9 336.18 765.3C329.78 779.7 326.58 796.9 326.58 816.9V863.1C326.58 883.1 329.78 900.3 336.18 914.7C342.78 929.1 351.68 940.1 362.88 947.7C374.28 955.3 387.28 959.1 401.88 959.1Z" fill="white" fill-opacity="0.5"/>
<path d="M419.95 781.231C393.885 814.674 369.439 818.394 346.611 792.393L338.1 782.699C324.828 795.574 310.071 803.482 293.83 806.423C277.588 809.364 261.137 807.302 244.475 800.235C227.936 793.011 212.278 780.983 197.499 764.15C181.269 745.664 169.837 725.496 163.203 703.646C156.437 681.645 154.844 659.879 158.423 638.347C162.003 616.815 170.494 597.452 183.895 580.258C197.296 563.063 212.78 551.666 230.347 546.065C247.913 540.464 265.981 541.092 284.55 547.949C302.987 554.655 320.321 567.251 336.551 585.737C351.197 602.42 361.934 620.604 368.76 640.29C375.709 659.819 378.513 679.391 377.173 699.008C375.834 718.625 370.37 736.82 360.784 753.595L374.045 768.7C390.671 787.637 406.484 787.483 421.483 768.237L426.035 773.423L419.95 781.231ZM345.603 764.444C354.455 753.086 359.878 740.056 361.871 725.353C363.865 710.65 362.079 695.364 356.512 679.495C351.069 663.468 341.75 647.94 328.554 632.911L298.073 598.192C284.878 583.163 271.502 572.84 257.944 567.225C244.509 561.452 231.781 560.205 219.758 563.486C207.736 566.766 197.299 574.085 188.447 585.443C179.472 596.959 173.988 610.068 171.994 624.771C170.123 639.316 171.91 654.602 177.353 670.629C182.919 686.498 192.3 701.947 205.495 716.976L235.976 751.695C249.172 766.724 262.487 777.125 275.921 782.899C289.479 788.514 302.208 789.761 314.107 786.638C326.129 783.358 336.628 775.96 345.603 764.444Z" fill="white"/>
<path d="M349.847 661.173C323.782 694.616 299.336 698.337 276.508 672.336L267.997 662.642C254.725 675.516 239.968 683.424 223.727 686.365C207.485 689.307 191.034 687.244 174.372 680.178C157.834 672.954 142.175 660.925 127.396 644.092C111.166 625.606 99.7341 605.438 93.1 583.588C86.3339 561.588 84.7408 539.822 88.3207 518.29C91.9005 496.758 100.391 477.395 113.792 460.2C127.193 443.006 142.677 431.608 160.244 426.007C177.811 420.407 195.879 421.035 214.447 427.891C232.884 434.597 250.218 447.193 266.448 465.68C281.095 482.362 291.831 500.547 298.657 520.233C305.606 539.761 308.41 559.334 307.071 578.95C305.731 598.567 300.268 616.763 290.681 633.537L303.942 648.642C320.568 667.579 336.381 667.425 351.38 648.18L355.933 653.365L349.847 661.173ZM275.5 644.386C284.352 633.029 289.775 619.998 291.769 605.295C293.762 590.593 291.976 575.307 286.41 559.437C280.966 543.411 271.647 527.882 258.452 512.853L227.971 478.135C214.775 463.105 201.399 452.783 187.841 447.167C174.406 441.394 161.678 440.148 149.656 443.428C137.634 446.708 127.197 454.027 118.344 465.385C109.369 476.901 103.885 490.01 101.891 504.713C100.021 519.258 101.807 534.544 107.25 550.571C112.817 566.44 122.197 581.889 135.393 596.919L165.874 631.637C179.069 646.666 192.384 657.068 205.819 662.841C219.377 668.457 232.105 669.703 244.004 666.58C256.026 663.3 266.525 655.902 275.5 644.386Z" fill="white" fill-opacity="0.5"/>
<path d="M394.427 826.603C368.362 860.046 343.916 863.766 321.088 837.765L312.577 828.071C299.305 840.946 284.548 848.854 268.307 851.795C252.065 854.736 235.614 852.674 218.952 845.608C202.413 838.383 186.755 826.355 171.976 809.522C155.746 791.036 144.314 770.868 137.68 749.018C130.914 727.017 129.32 705.251 132.9 683.719C136.48 662.188 144.971 642.824 158.372 625.63C171.773 608.435 187.257 597.038 204.824 591.437C222.39 585.836 240.458 586.464 259.027 593.321C277.464 600.027 294.797 612.623 311.028 631.109C325.674 647.792 336.411 665.976 343.237 685.663C350.186 705.191 352.99 724.763 351.65 744.38C350.31 763.997 344.847 782.192 335.261 798.967L348.522 814.072C365.148 833.009 380.961 832.855 395.96 813.609L400.512 818.795L394.427 826.603ZM320.08 809.816C328.932 798.458 334.355 785.428 336.348 770.725C338.342 756.022 336.556 740.736 330.989 724.867C325.546 708.84 316.227 693.312 303.031 678.283L272.55 643.564C259.355 628.535 245.979 618.212 232.421 612.597C218.986 606.824 206.257 605.577 194.235 608.858C182.213 612.138 171.776 619.457 162.924 630.815C153.949 642.331 148.465 655.44 146.471 670.143C144.6 684.688 146.386 699.974 151.83 716.001C157.396 731.87 166.777 747.319 179.972 762.349L210.453 797.067C223.649 812.096 236.964 822.498 250.398 828.271C263.956 833.886 276.685 835.133 288.584 832.01C300.606 828.73 311.105 821.332 320.08 809.816Z" fill="white"/>
<path d="M438.269 528.548C437.03 526.755 436.327 524.817 436.161 522.735C435.995 520.654 436.344 518.587 437.206 516.534C438.079 514.497 439.413 512.622 441.206 510.909C442.999 509.195 444.849 508.069 446.757 507.53C448.665 506.991 450.48 507.046 452.201 507.696C453.934 508.362 455.42 509.592 456.659 511.386C457.83 513.081 458.443 514.871 458.498 516.758L460.666 517.186L461.024 517.704L455.645 522.844L455.287 522.326L457.741 517.277C457.79 515.264 457.263 513.459 456.16 511.862C455.364 510.711 454.388 509.923 453.231 509.499C452.085 509.091 450.831 509.101 449.47 509.527C448.119 509.971 446.758 510.849 445.384 512.161L441.415 515.954C440.041 517.267 439.02 518.638 438.352 520.069C437.695 521.516 437.395 522.923 437.451 524.29C437.533 525.659 437.972 526.92 438.768 528.072C439.745 529.487 440.885 530.215 442.185 530.256C443.497 530.313 444.797 529.727 446.084 528.498L448.101 526.57L446.819 523.985L447.296 523.529L452.395 530.909L451.917 531.364L450.028 529.359L448.011 531.287C447.186 532.074 446.237 532.558 445.161 532.739C444.1 532.906 442.97 532.661 441.772 532.003C440.573 531.345 439.406 530.194 438.269 528.548Z" fill="white"/>
<path d="M368.166 408.493C366.927 406.699 366.224 404.761 366.059 402.68C365.893 400.598 366.241 398.531 367.103 396.478C367.976 394.441 369.31 392.566 371.103 390.853C372.896 389.14 374.746 388.013 376.654 387.474C378.562 386.935 380.377 386.99 382.098 387.64C383.831 388.307 385.317 389.537 386.556 391.33C387.727 393.025 388.34 394.816 388.395 396.703L390.564 397.13L390.922 397.649L385.543 402.789L385.184 402.27L387.638 397.222C387.687 395.208 387.16 393.403 386.057 391.807C385.262 390.655 384.285 389.867 383.128 389.443C381.982 389.035 380.728 389.045 379.367 389.472C378.017 389.915 376.655 390.793 375.281 392.106L371.312 395.898C369.938 397.211 368.917 398.582 368.249 400.013C367.592 401.46 367.292 402.867 367.348 404.234C367.43 405.603 367.869 406.864 368.665 408.016C369.643 409.431 370.782 410.159 372.082 410.2C373.395 410.258 374.694 409.672 375.981 408.442L377.998 406.514L376.716 403.929L377.193 403.473L382.292 410.853L381.815 411.309L379.925 409.304L377.908 411.231C377.084 412.019 376.134 412.503 375.058 412.683C373.997 412.85 372.868 412.605 371.669 411.947C370.471 411.29 369.303 410.138 368.166 408.493Z" fill="white" fill-opacity="0.5"/>
<path d="M340.577 655.067C338.402 654.91 336.535 654.244 334.976 653.068C333.416 651.892 332.256 650.324 331.494 648.364C330.753 646.406 330.471 644.19 330.649 641.716C330.827 639.242 331.453 637.092 332.527 635.265C333.601 633.438 335.014 632.056 336.766 631.12C338.537 630.185 340.51 629.797 342.685 629.954C344.739 630.103 346.438 630.747 347.779 631.887L349.716 630.463L350.345 630.508L349.811 637.929L349.182 637.884L347.563 632.804C346.213 631.503 344.57 630.782 342.635 630.642C341.239 630.541 339.956 630.809 338.788 631.447C337.639 632.085 336.696 633.07 335.958 634.4C335.241 635.732 334.814 637.345 334.678 639.24L334.284 644.716C334.147 646.611 334.319 648.268 334.798 649.686C335.297 651.106 336.039 652.222 337.023 653.036C338.029 653.83 339.23 654.278 340.626 654.379C342.342 654.503 343.706 654.071 344.72 653.081C345.754 652.093 346.334 650.712 346.462 648.936L346.662 646.153L343.91 645.533L343.957 644.875L352.904 645.522L352.856 646.181L350.043 646.398L349.843 649.181C349.761 650.318 349.375 651.363 348.685 652.316C347.996 653.248 346.972 653.976 345.611 654.499C344.249 655.022 342.572 655.212 340.577 655.067Z" fill="white"/>
<path d="M270.474 535.01C268.3 534.852 266.433 534.186 264.873 533.01C263.313 531.835 262.153 530.267 261.392 528.307C260.65 526.348 260.369 524.132 260.547 521.658C260.725 519.185 261.351 517.034 262.425 515.207C263.499 513.38 264.911 511.998 266.663 511.062C268.435 510.128 270.408 509.739 272.582 509.896C274.637 510.045 276.335 510.689 277.676 511.829L279.614 510.405L280.242 510.451L279.708 517.872L279.08 517.826L277.46 512.746C276.11 511.445 274.467 510.725 272.532 510.585C271.136 510.484 269.854 510.752 268.685 511.389C267.536 512.028 266.593 513.012 265.855 514.343C265.138 515.674 264.711 517.288 264.575 519.183L264.181 524.659C264.044 526.554 264.216 528.21 264.695 529.629C265.195 531.048 265.936 532.165 266.921 532.978C267.926 533.773 269.127 534.221 270.523 534.322C272.239 534.446 273.604 534.013 274.617 533.024C275.651 532.036 276.231 530.654 276.359 528.879L276.559 526.096L273.807 525.476L273.854 524.817L282.801 525.465L282.754 526.123L279.941 526.341L279.74 529.123C279.659 530.26 279.273 531.305 278.582 532.258C277.894 533.191 276.869 533.919 275.508 534.442C274.147 534.965 272.469 535.154 270.474 535.01Z" fill="white" fill-opacity="0.5"/>
<path d="M438.78 563V562.37L441.54 561.92V540.08L438.78 539.66V539H447.6V539.66L444.84 540.08V549.92H456.24V540.08L453.45 539.66V539H462.33V539.66L459.54 540.08V561.92L462.33 562.37V563H453.45V562.37L456.24 561.92V550.67H444.84V561.92L447.6 562.37V563H438.78Z" fill="white"/>
<path d="M367.78 440V439.37L370.54 438.92V417.08L367.78 416.66V416H376.6V416.66L373.84 417.08V426.92H385.24V417.08L382.45 416.66V416H391.33V416.66L388.54 417.08V438.92L391.33 439.37V440H382.45V439.37L385.24 438.92V427.67H373.84V438.92L376.6 439.37V440H367.78Z" fill="white" fill-opacity="0.5"/>
<path d="M360.622 683.157L360.207 682.684L361.606 680.169L347.197 663.757L345.223 665.618L344.788 665.122L350.21 658.165L350.645 658.661L349.226 661.154L355.718 668.548L362.726 659.557L356.234 652.162L354.242 654.047L353.806 653.551L359.265 646.547L359.7 647.043L358.262 649.559L372.672 665.971L374.684 664.109L375.099 664.583L369.64 671.587L369.225 671.113L370.643 668.574L363.221 660.12L356.213 669.112L363.635 677.566L365.629 675.727L366.044 676.201L360.622 683.157Z" fill="white"/>
<path d="M290.52 563.099L290.104 562.625L291.504 560.11L277.095 543.698L275.121 545.559L274.685 545.063L280.107 538.107L280.543 538.603L279.123 541.095L285.615 548.49L292.623 539.498L286.131 532.104L284.139 533.989L283.703 533.493L289.162 526.489L289.598 526.985L288.16 529.501L302.569 545.913L304.581 544.05L304.997 544.524L299.538 551.528L299.122 551.054L300.54 548.516L293.118 540.062L286.11 549.053L293.532 557.507L295.526 555.669L295.942 556.142L290.52 563.099Z" fill="white" fill-opacity="0.5"/>
<path d="M473.334 508.238C476.073 507.657 478.448 507.773 480.458 508.585C482.422 509.407 483.581 510.971 483.935 513.277C484.168 514.799 483.945 516.109 483.264 517.206C482.545 518.358 481.501 519.08 480.132 519.37C479.036 519.602 478.123 519.486 477.392 519.022C476.66 518.558 476.128 518.004 475.793 517.361C475.421 516.773 475.22 516.387 475.192 516.202C476.367 514.953 476.856 513.682 476.658 512.391C476.523 511.514 476.136 510.834 475.497 510.351C474.857 509.867 474.058 509.727 473.099 509.931C471.638 510.24 470.649 511.474 470.131 513.632C469.575 515.845 469.675 519.42 470.432 524.356L476.446 563.587L482.894 563.22L483.128 564.742L463.269 568.953L463.036 567.431L469.187 565.126L463.173 525.895C462.678 522.666 462.584 519.899 462.891 517.596C463.159 515.348 464.111 513.408 465.746 511.775C467.381 510.143 469.91 508.963 473.334 508.238Z" fill="white"/>
<path d="M403.232 388.18C405.971 387.599 408.345 387.715 410.355 388.527C412.319 389.349 413.478 390.913 413.832 393.219C414.065 394.742 413.842 396.051 413.161 397.148C412.443 398.3 411.398 399.022 410.029 399.312C408.933 399.545 408.02 399.429 407.289 398.965C406.558 398.5 406.025 397.947 405.691 397.303C405.318 396.715 405.117 396.329 405.089 396.145C406.264 394.895 406.753 393.625 406.555 392.333C406.421 391.457 406.034 390.777 405.394 390.293C404.754 389.81 403.955 389.67 402.996 389.873C401.535 390.183 400.546 391.416 400.028 393.574C399.472 395.788 399.572 399.362 400.329 404.298L406.343 443.53L412.792 443.163L413.025 444.685L393.166 448.895L392.933 447.373L399.085 445.069L393.07 405.837C392.575 402.608 392.481 399.842 392.788 397.538C393.056 395.291 394.008 393.35 395.643 391.718C397.278 390.085 399.808 388.906 403.232 388.18Z" fill="white" fill-opacity="0.5"/>
<path d="M345.023 607.352C346.362 604.893 347.956 603.217 349.806 602.323C351.633 601.47 353.467 601.76 355.308 603.194C356.523 604.141 357.298 605.269 357.632 606.581C357.982 607.962 357.822 609.267 357.152 610.497C356.617 611.48 355.953 612.073 355.162 612.274C354.372 612.475 353.644 612.463 352.98 612.237C352.331 612.082 351.933 611.947 351.786 611.832C351.659 610.041 351.081 608.744 350.05 607.941C349.351 607.396 348.628 607.184 347.881 607.303C347.135 607.422 346.528 607.912 346.059 608.772C345.345 610.084 345.579 611.725 346.76 613.696C347.956 615.737 350.524 618.291 354.463 621.36L385.775 645.75L389.627 640.696L390.842 641.642L381.136 659.472L379.921 658.525L382.227 652.267L350.916 627.877C348.338 625.869 346.341 623.905 344.923 621.983C343.52 620.131 342.767 617.998 342.665 615.584C342.564 613.17 343.35 610.427 345.023 607.352Z" fill="white"/>
<path d="M274.92 487.295C276.259 484.836 277.853 483.159 279.703 482.265C281.53 481.412 283.364 481.703 285.205 483.137C286.42 484.083 287.195 485.212 287.53 486.523C287.879 487.904 287.719 489.209 287.049 490.439C286.514 491.423 285.851 492.015 285.06 492.216C284.269 492.417 283.541 492.405 282.878 492.18C282.228 492.024 281.83 491.889 281.683 491.774C281.557 489.984 280.978 488.687 279.947 487.884C279.248 487.339 278.525 487.126 277.779 487.245C277.032 487.364 276.425 487.854 275.956 488.715C275.242 490.026 275.476 491.667 276.658 493.638C277.853 495.679 280.421 498.233 284.36 501.302L315.672 525.692L319.524 520.638L320.739 521.585L311.033 539.414L309.818 538.468L312.124 532.209L280.813 507.819C278.236 505.812 276.238 503.847 274.82 501.925C273.417 500.073 272.664 497.94 272.563 495.527C272.461 493.113 273.247 490.369 274.92 487.295Z" fill="white" fill-opacity="0.5"/>
<path d="M514.905 486.5C509.455 486.5 504.58 485.175 500.28 482.525C495.98 479.875 492.63 476.175 490.23 471.425C487.83 466.625 486.63 461.15 486.63 455C486.63 448.85 487.83 443.4 490.23 438.65C492.63 433.85 495.98 430.125 500.28 427.475C504.58 424.825 509.455 423.5 514.905 423.5C520.355 423.5 525.23 424.825 529.53 427.475C533.83 430.125 537.18 433.85 539.58 438.65C541.98 443.4 543.18 448.85 543.18 455C543.18 461.15 541.98 466.625 539.58 471.425C537.18 476.175 533.83 479.875 529.53 482.525C525.23 485.175 520.355 486.5 514.905 486.5ZM514.905 484.775C518.505 484.775 521.73 483.825 524.58 481.925C527.48 480.025 529.755 477.275 531.405 473.675C533.055 470.025 533.88 465.725 533.88 460.775V449.225C533.88 444.275 533.055 440 531.405 436.4C529.755 432.75 527.48 429.975 524.58 428.075C521.73 426.175 518.505 425.225 514.905 425.225C511.255 425.225 508.005 426.175 505.155 428.075C502.305 429.975 500.055 432.75 498.405 436.4C496.755 440 495.93 444.275 495.93 449.225V460.775C495.93 465.725 496.755 470.025 498.405 473.675C500.055 477.275 502.305 480.025 505.155 481.925C508.005 483.825 511.255 484.775 514.905 484.775Z" fill="white"/>
<path d="M444.905 368.5C439.455 368.5 434.58 367.175 430.28 364.525C425.98 361.875 422.63 358.175 420.23 353.425C417.83 348.625 416.63 343.15 416.63 337C416.63 330.85 417.83 325.4 420.23 320.65C422.63 315.85 425.98 312.125 430.28 309.475C434.58 306.825 439.455 305.5 444.905 305.5C450.355 305.5 455.23 306.825 459.53 309.475C463.83 312.125 467.18 315.85 469.58 320.65C471.98 325.4 473.18 330.85 473.18 337C473.18 343.15 471.98 348.625 469.58 353.425C467.18 358.175 463.83 361.875 459.53 364.525C455.23 367.175 450.355 368.5 444.905 368.5ZM444.905 366.775C448.505 366.775 451.73 365.825 454.58 363.925C457.48 362.025 459.755 359.275 461.405 355.675C463.055 352.025 463.88 347.725 463.88 342.775V331.225C463.88 326.275 463.055 322 461.405 318.4C459.755 314.75 457.48 311.975 454.58 310.075C451.73 308.175 448.505 307.225 444.905 307.225C441.255 307.225 438.005 308.175 435.155 310.075C432.305 311.975 430.055 314.75 428.405 318.4C426.755 322 425.93 326.275 425.93 331.225V342.775C425.93 347.725 426.755 352.025 428.405 355.675C430.055 359.275 432.305 362.025 435.155 363.925C438.005 365.825 441.255 366.775 444.905 366.775Z" fill="white" fill-opacity="0.5"/>
<path d="M368.865 571.813C365.515 576.112 361.644 578.961 357.252 580.361C352.861 581.761 348.36 581.623 343.751 579.947C339.109 578.233 334.759 575.065 330.701 570.443C326.644 565.822 323.786 560.78 322.127 555.317C320.436 549.817 320.037 544.376 320.932 538.993C321.827 533.61 323.95 528.769 327.3 524.47C330.651 520.172 334.522 517.322 338.913 515.922C343.305 514.522 347.822 514.679 352.464 516.393C357.073 518.069 361.407 521.218 365.464 525.84C369.522 530.462 372.396 535.522 374.088 541.022C375.746 546.485 376.128 551.908 375.233 557.291C374.338 562.674 372.216 567.514 368.865 571.813ZM367.727 570.517C369.94 567.677 371.296 564.42 371.794 560.744C372.324 557.029 371.908 553.168 370.547 549.161C369.153 545.117 366.823 541.235 363.557 537.515L355.937 528.836C352.671 525.116 349.344 522.554 345.954 521.15C342.532 519.709 339.302 519.418 336.266 520.277C333.261 521.097 330.651 522.927 328.438 525.767C326.195 528.645 324.824 531.923 324.325 535.598C323.827 539.274 324.274 543.134 325.668 547.178C327.029 551.185 329.342 555.048 332.608 558.768L340.228 567.448C343.494 571.168 346.838 573.748 350.261 575.19C353.65 576.593 356.848 576.885 359.853 576.065C362.859 575.245 365.483 573.396 367.727 570.517Z" fill="white"/>
<path d="M298.763 451.754C295.412 456.052 291.541 458.902 287.15 460.302C282.758 461.702 278.257 461.564 273.648 459.887C269.006 458.173 264.656 455.005 260.599 450.384C256.541 445.762 253.683 440.72 252.025 435.258C250.333 429.758 249.935 424.316 250.83 418.933C251.725 413.55 253.847 408.709 257.198 404.411C260.548 400.112 264.419 397.263 268.811 395.862C273.202 394.462 277.719 394.619 282.361 396.333C286.971 398.01 291.304 401.159 295.362 405.78C299.419 410.402 302.294 415.463 303.985 420.963C305.644 426.425 306.025 431.848 305.13 437.231C304.236 442.614 302.113 447.455 298.763 451.754ZM297.625 450.457C299.838 447.618 301.193 444.36 301.692 440.684C302.221 436.969 301.805 433.108 300.444 429.102C299.05 425.057 296.721 421.175 293.455 417.456L285.834 408.776C282.569 405.056 279.241 402.494 275.852 401.09C272.429 399.649 269.2 399.358 266.163 400.218C263.158 401.038 260.549 402.867 258.336 405.707C256.092 408.586 254.721 411.863 254.222 415.539C253.724 419.215 254.172 423.075 255.565 427.119C256.926 431.126 259.24 434.989 262.505 438.709L270.126 447.388C273.392 451.108 276.736 453.689 280.158 455.13C283.548 456.534 286.745 456.826 289.751 456.006C292.756 455.186 295.381 453.336 297.625 450.457Z" fill="white" fill-opacity="0.5"/>
<path d="M347.445 637.727C344.095 642.026 340.224 644.875 335.832 646.275C331.44 647.676 326.94 647.537 322.331 645.861C317.688 644.147 313.339 640.979 309.281 636.357C305.223 631.736 302.365 626.694 300.707 621.231C299.015 615.731 298.617 610.29 299.512 604.907C300.407 599.524 302.53 594.683 305.88 590.384C309.23 586.086 313.101 583.236 317.493 581.836C321.885 580.436 326.402 580.593 331.044 582.307C335.653 583.984 339.986 587.133 344.044 591.754C348.101 596.376 350.976 601.436 352.668 606.937C354.326 612.399 354.708 617.822 353.813 623.205C352.918 628.588 350.795 633.429 347.445 637.727ZM346.307 636.431C348.52 633.591 349.876 630.334 350.374 626.658C350.903 622.943 350.487 619.082 349.127 615.075C347.733 611.031 345.403 607.149 342.137 603.429L334.517 594.75C331.251 591.03 327.923 588.468 324.534 587.064C321.111 585.623 317.882 585.332 314.846 586.191C311.84 587.011 309.231 588.841 307.018 591.681C304.774 594.559 303.403 597.837 302.905 601.512C302.406 605.188 302.854 609.048 304.248 613.092C305.609 617.099 307.922 620.962 311.188 624.682L318.808 633.362C322.074 637.082 325.418 639.662 328.841 641.104C332.23 642.508 335.427 642.799 338.433 641.979C341.439 641.159 344.063 639.31 346.307 636.431Z" fill="white"/>
<path d="M277.342 517.67C273.992 521.968 270.121 524.818 265.729 526.218C261.338 527.618 256.837 527.48 252.228 525.803C247.586 524.089 243.236 520.921 239.178 516.3C235.121 511.678 232.263 506.636 230.604 501.174C228.913 495.674 228.514 490.232 229.409 484.849C230.304 479.466 232.427 474.625 235.777 470.327C239.127 466.028 242.998 463.179 247.39 461.778C251.782 460.378 256.299 460.535 260.941 462.249C265.55 463.926 269.884 467.075 273.941 471.697C277.999 476.318 280.873 481.379 282.565 486.879C284.223 492.341 284.605 497.764 283.71 503.147C282.815 508.53 280.693 513.371 277.342 517.67ZM276.204 516.373C278.417 513.534 279.773 510.276 280.271 506.6C280.801 502.885 280.385 499.024 279.024 495.018C277.63 490.973 275.3 487.091 272.034 483.372L264.414 474.692C261.148 470.972 257.821 468.41 254.431 467.006C251.009 465.565 247.779 465.274 244.743 466.134C241.738 466.954 239.128 468.783 236.915 471.623C234.672 474.502 233.3 477.779 232.802 481.455C232.304 485.131 232.751 488.991 234.145 493.035C235.506 497.042 237.819 500.905 241.085 504.625L248.705 513.304C251.971 517.024 255.315 519.605 258.738 521.046C262.127 522.45 265.325 522.742 268.33 521.922C271.336 521.102 273.96 519.252 276.204 516.373Z" fill="white" fill-opacity="0.5"/>
<path d="M461.04 501.92L496.373 489.438L497.016 486.427L498.006 486.433L497.953 498.943L496.963 498.937L496.35 494.838L469.67 504.356L486.831 511.027L496.296 507.708L496.943 503.572L497.933 503.578L497.876 516.942L496.886 516.937L496.363 513.063L469.637 522.671L494.795 532.494L496.842 527.421L497.832 527.427L497.79 537.102L496.8 537.096L494.835 533.665L460.96 520.595L460.962 520.235L485.254 511.603L461.038 502.28L461.04 501.92Z" fill="white"/>
<path d="M404.262 397.728L439.596 385.246L440.239 382.234L441.229 382.24L441.175 394.75L440.185 394.744L439.573 390.646L412.892 400.164L430.054 406.835L439.518 403.516L440.166 399.379L441.156 399.385L441.099 412.75L440.109 412.744L439.585 408.871L412.859 418.479L438.017 428.302L440.064 423.229L441.054 423.235L441.013 432.91L440.023 432.904L438.057 429.472L404.183 416.403L404.184 416.043L428.476 407.411L404.261 398.088L404.262 397.728Z" fill="white" fill-opacity="0.5"/>
<path d="M361.291 616.1L374.787 578.798L373.199 576.027L373.811 575.249L382.017 584.692L381.404 585.47L378.329 582.874L368.199 611.111L383.14 602.562L386.77 592.588L384.444 588.968L385.057 588.19L393.823 598.279L393.211 599.057L390.338 596.56L380.24 624.9L402.171 612.401L400.088 606.971L400.7 606.193L407.046 613.496L406.434 614.274L402.966 613.249L373.54 630.197L373.304 629.925L382.549 604.241L361.527 616.372L361.291 616.1Z" fill="white"/>
<path d="M291.188 496.042L304.684 458.74L303.096 455.969L303.708 455.191L311.914 464.634L311.302 465.412L308.226 462.816L298.096 491.053L313.037 482.504L316.668 472.531L314.342 468.911L314.954 468.133L323.72 478.221L323.108 478.999L320.236 476.502L310.137 504.843L332.068 492.343L329.985 486.913L330.598 486.136L336.944 493.439L336.331 494.217L332.863 493.191L303.438 510.139L303.201 509.867L312.446 484.184L291.424 496.314L291.188 496.042Z" fill="white" fill-opacity="0.5"/>
<path d="M408.38 537V536.055L412.52 535.38V502.62L408.38 501.99V501H421.61V501.99L417.47 502.62V518.82L432.095 503.88L427.19 501.99V501H437.585V501.99L433.895 503.88L423.68 514.14L438.08 535.38L441.14 536.055V537H427.865V536.055L431.96 535.425L420.17 517.65L417.47 520.395V535.38L421.61 536.055V537H408.38Z" fill="white"/>
<path d="M337.38 416V415.055L341.52 414.38V381.62L337.38 380.99V380H350.61V380.99L346.47 381.62V397.82L361.095 382.88L356.19 380.99V380H366.585V380.99L362.895 382.88L352.68 393.14L367.08 414.38L370.14 415.055V416H356.865V415.055L360.96 414.425L349.17 396.65L346.47 399.395V414.38L350.61 415.055V416H337.38Z" fill="white" fill-opacity="0.5"/>
<path d="M322.375 786.508L321.752 785.798L323.852 782.025L302.238 757.407L299.277 760.199L298.624 759.455L306.757 749.02L307.41 749.764L305.281 753.503L315.969 765.676L315.102 742.914L310.84 745.363L310.187 744.619L316.577 736.42L317.23 737.164L316.209 741.494L316.699 757.262L339.564 761.865L341.891 759.959L342.514 760.669L334.353 771.139L333.73 770.429L335.832 766.726L316.857 762.668L317.008 766.86L326.895 778.121L329.885 775.363L330.508 776.073L322.375 786.508Z" fill="white"/>
<path d="M255.325 573.866L254.701 573.156L256.801 569.384L235.187 544.765L232.226 547.557L231.573 546.813L239.706 536.378L240.359 537.122L238.23 540.861L248.918 553.035L248.052 530.273L243.789 532.721L243.136 531.977L249.526 523.778L250.179 524.522L249.158 528.853L249.648 544.62L272.513 549.223L274.84 547.317L275.463 548.027L267.303 558.498L266.679 557.788L268.781 554.084L249.806 550.026L249.957 554.218L259.844 565.479L262.834 562.721L263.457 563.431L255.325 573.866Z" fill="white" fill-opacity="0.5"/>
<path d="M455.219 390.07C451.404 394.142 446.679 396.89 441.044 398.313L438.178 406.959L436.824 408.404L422.692 390.093L424.046 388.648L439.566 396.252C445.133 395.42 450.112 392.662 454.501 387.977C458.111 384.124 460.242 379.857 460.894 375.176C461.551 370.404 460.339 366.023 457.26 362.033C455.024 359.136 452.506 357.666 449.705 357.623C446.867 357.533 443.361 358.807 439.186 361.443L426.607 369.282C422.195 371.999 418.079 373.014 414.257 372.329C410.4 371.595 407.078 369.423 404.292 365.813C401.762 362.536 400.08 359.047 399.245 355.348C398.414 351.557 398.554 347.812 399.665 344.114C400.74 340.368 402.774 336.897 405.769 333.701C409.502 329.717 413.414 326.884 417.504 325.204L420.291 318.201L421.645 316.756L432.862 331.291L431.508 332.736L419.05 327.062C414.653 328.636 410.65 331.35 407.04 335.203C403.471 339.012 401.486 343.08 401.084 347.407C400.646 351.686 401.765 355.56 404.441 359.027C406.421 361.592 408.696 362.845 411.269 362.785C413.882 362.681 416.934 361.546 420.424 359.38L434.023 350.972C438.398 348.208 442.437 347.189 446.14 347.915C449.847 348.549 453.698 351.456 457.694 356.633C461.763 361.906 463.536 367.549 463.015 373.562C462.535 379.532 459.936 385.035 455.219 390.07Z" fill="white"/>
<path d="M276.568 551.875C276.419 557.453 274.682 562.932 271.358 568.311L275.023 575.982L274.97 577.961L251.84 577.823L251.893 575.844L268.84 568.206C272.513 563.249 274.436 557.562 274.608 551.144C274.749 545.866 273.485 541.509 270.817 538.074C268.09 534.579 264.207 532.816 259.167 532.786C255.507 532.764 252.597 533.857 250.438 536.063C248.219 538.27 246.412 541.858 245.019 546.829L240.749 561.741C239.23 566.95 236.784 570.865 233.414 573.485C229.983 576.104 225.988 577.4 221.428 577.372C217.288 577.348 213.65 576.516 210.513 574.878C207.318 573.179 204.893 570.735 203.239 567.546C201.524 564.357 200.725 560.573 200.842 556.194C200.988 550.736 202.049 545.854 204.025 541.546L201.41 534.962L201.463 532.983L219.823 533.092L219.77 535.071L206.457 541.471C204.177 545.956 202.966 550.838 202.824 556.116C202.685 561.334 203.925 565.451 206.544 568.466C209.104 571.48 212.574 573.001 216.954 573.027C220.194 573.046 222.772 572.012 224.688 569.923C226.606 567.775 228.16 564.635 229.351 560.503L234.012 544.424C235.471 539.214 237.855 535.359 241.162 532.859C244.411 530.299 249.306 529.038 255.846 529.077C262.506 529.116 267.67 531.217 271.339 535.378C275.01 539.479 276.753 544.978 276.568 551.875Z" fill="white"/>
<path d="M206.466 431.82C206.316 437.398 204.579 442.876 201.255 448.256L204.92 455.926L204.867 457.905L181.738 457.768L181.79 455.788L198.737 448.151C202.411 443.193 204.333 437.506 204.505 431.088C204.646 425.81 203.383 421.454 200.714 418.018C197.987 414.523 194.104 412.76 189.064 412.73C185.404 412.708 182.495 413.801 180.335 416.008C178.116 418.214 176.309 421.802 174.916 426.773L170.646 441.685C169.127 446.895 166.682 450.809 163.311 453.429C159.88 456.048 155.885 457.344 151.325 457.317C147.185 457.292 143.547 456.461 140.41 454.822C137.216 453.124 134.791 450.68 133.136 447.491C131.421 444.301 130.622 440.517 130.739 436.139C130.885 430.681 131.946 425.798 133.922 421.49L131.308 414.906L131.361 412.927L149.72 413.036L149.667 415.015L136.354 421.415C134.074 425.9 132.863 430.782 132.722 436.06C132.582 441.279 133.822 445.395 136.442 448.41C139.001 451.425 142.471 452.945 146.851 452.971C150.091 452.99 152.669 451.956 154.585 449.868C156.503 447.72 158.057 444.579 159.248 440.447L163.909 424.368C165.369 419.158 167.752 415.303 171.06 412.803C174.309 410.243 179.203 408.982 185.743 409.021C192.403 409.061 197.567 411.161 201.236 415.322C204.907 419.423 206.65 424.922 206.466 431.82Z" fill="white" fill-opacity="0.5"/>
<path d="M255.148 617.792C254.999 623.37 253.262 628.848 249.938 634.227L253.603 641.898L253.55 643.877L230.42 643.739L230.473 641.76L247.42 634.122C251.093 629.165 253.016 623.478 253.188 617.06C253.329 611.782 252.065 607.425 249.397 603.99C246.67 600.495 242.787 598.732 237.747 598.702C234.087 598.68 231.177 599.773 229.018 601.979C226.798 604.186 224.992 607.774 223.599 612.745L219.329 627.657C217.809 632.866 215.364 636.781 211.994 639.401C208.563 642.02 204.568 643.316 200.008 643.289C195.868 643.264 192.23 642.432 189.093 640.794C185.898 639.095 183.473 636.651 181.818 633.462C180.104 630.273 179.305 626.489 179.422 622.11C179.568 616.652 180.629 611.77 182.604 607.462L179.99 600.878L180.043 598.899L198.403 599.008L198.35 600.987L185.037 607.387C182.756 611.872 181.546 616.754 181.404 622.032C181.265 627.25 182.505 631.367 185.124 634.382C187.684 637.396 191.154 638.917 195.534 638.943C198.774 638.962 201.352 637.928 203.268 635.839C205.186 633.691 206.74 630.551 207.931 626.419L212.592 610.34C214.051 605.13 216.435 601.275 219.742 598.775C222.991 596.215 227.886 594.954 234.426 594.993C241.085 595.032 246.25 597.133 249.919 601.294C253.59 605.395 255.333 610.894 255.148 617.792Z" fill="white"/>
<path d="M185.045 497.733C184.896 503.311 183.159 508.789 179.834 514.169L183.5 521.839L183.447 523.818L160.317 523.681L160.37 521.701L177.317 514.064C180.99 509.107 182.913 503.419 183.084 497.001C183.226 491.723 181.962 487.367 179.294 483.931C176.567 480.436 172.684 478.673 167.644 478.643C163.984 478.621 161.074 479.714 158.915 481.921C156.695 484.127 154.889 487.716 153.496 492.686L149.226 507.598C147.706 512.808 145.261 516.723 141.891 519.342C138.46 521.961 134.465 523.257 129.905 523.23C125.765 523.205 122.127 522.374 118.99 520.735C115.795 519.037 113.37 516.593 111.715 513.404C110 510.214 109.202 506.43 109.319 502.052C109.465 496.594 110.526 491.711 112.501 487.404L109.887 480.819L109.94 478.84L128.3 478.949L128.247 480.928L114.934 487.328C112.653 491.814 111.443 496.695 111.301 501.974C111.162 507.192 112.402 511.308 115.021 514.323C117.581 517.338 121.051 518.858 125.431 518.884C128.67 518.903 131.249 517.869 133.165 515.781C135.082 513.633 136.637 510.492 137.828 506.36L142.489 490.281C143.948 485.071 146.332 481.216 149.639 478.716C152.888 476.156 157.783 474.895 164.323 474.934C170.982 474.974 176.147 477.074 179.816 481.235C183.487 485.336 185.23 490.835 185.045 497.733Z" fill="white" fill-opacity="0.5"/>
<path d="M439.73 337V335.95L444.38 333.95V300.05L439.73 298.1V297H449.03L470.58 327.2V300.05L465.93 298.1V297H476.58V298.1L471.83 300.05V337H470.58L445.63 301.95V333.95L450.43 335.95V337H439.73Z" fill="white"/>
<path d="M227.001 529.549L226.309 528.76L227.848 523.589L205.482 498.114L201.337 500.316L200.611 499.49L206.328 492.155L239.5 497.852L221.588 477.449L217.443 479.652L216.717 478.825L223.264 470.425L223.989 471.251L222.356 476.463L246.734 504.23L245.966 505.216L207.504 498.556L228.616 522.603L232.886 520.32L233.579 521.109L227.001 529.549Z" fill="white"/>
<path d="M156.899 409.491L156.206 408.702L157.745 403.532L135.379 378.057L131.234 380.259L130.508 379.432L136.225 372.097L169.397 377.794L151.485 357.392L147.34 359.594L146.614 358.767L153.161 350.367L153.887 351.194L152.253 356.406L176.631 384.173L175.863 385.159L137.401 378.498L158.513 402.546L162.784 400.263L163.476 401.052L156.899 409.491Z" fill="white" fill-opacity="0.5"/>
<path d="M205.581 595.462L204.889 594.673L206.428 589.502L184.062 564.027L179.917 566.23L179.191 565.403L184.908 558.068L218.08 563.765L200.168 543.362L196.023 545.565L195.297 544.738L201.844 536.338L202.569 537.165L200.936 542.376L225.314 570.143L224.546 571.129L186.084 564.469L207.196 588.516L211.466 586.233L212.159 587.022L205.581 595.462Z" fill="white"/>
<path d="M135.479 475.404L134.786 474.615L136.325 469.445L113.959 443.97L109.814 446.172L109.088 445.345L114.805 438.01L147.977 443.707L130.065 423.305L125.92 425.507L125.194 424.68L131.741 416.28L132.467 417.107L130.833 422.319L155.211 450.086L154.443 451.072L115.981 444.412L137.093 468.459L141.363 466.176L142.056 466.965L135.479 475.404Z" fill="white" fill-opacity="0.5"/>
<path d="M467.18 338V337.16L470.86 336.56V307.44L467.18 306.88V306H491.26V315.16H490.18L487.1 307H475.26V321.4H480.46L482.82 315.6H483.86V328.24H482.82L480.42 322.36H475.26V337.04H487.82L491.1 328.24H492.14V338H467.18Z" fill="white"/>
<path d="M246.474 504.031L245.92 503.4L247.786 500.047L228.574 478.164L225.942 480.645L225.362 479.984L240.164 460.991L246.208 467.875L245.544 468.727L238.267 465.024L230.988 474.363L240.489 485.184L243.686 481.082L241.31 474.862L241.949 474.042L250.288 483.541L249.649 484.361L244.294 481.835L241.122 485.905L250.808 496.937L258.529 487.03L254.739 477.83L255.378 477.01L261.818 484.344L246.474 504.031Z" fill="white"/>
<path d="M176.371 383.973L175.817 383.342L177.684 379.988L158.471 358.105L155.84 360.587L155.259 359.926L170.062 340.933L176.105 347.816L175.441 348.668L168.164 344.965L160.886 354.304L170.386 365.125L173.583 361.024L171.207 354.804L171.846 353.984L180.186 363.482L179.546 364.303L174.192 361.777L171.02 365.847L180.705 376.878L188.426 366.972L184.636 357.772L185.276 356.951L191.715 364.286L176.371 383.973Z" fill="white" fill-opacity="0.5"/>
<path d="M225.054 569.944L224.5 569.313L226.366 565.96L207.154 544.077L204.522 546.559L203.941 545.897L218.744 526.904L224.788 533.788L224.124 534.64L216.847 530.937L209.568 540.276L219.069 551.097L222.265 546.996L219.889 540.776L220.529 539.955L228.868 549.454L228.229 550.274L222.874 547.748L219.702 551.818L229.387 562.85L237.108 552.943L233.319 543.743L233.958 542.923L240.397 550.258L225.054 569.944Z" fill="white"/>
<path d="M154.951 449.887L154.397 449.256L156.263 445.902L137.051 424.019L134.419 426.501L133.839 425.84L148.641 406.847L154.685 413.73L154.021 414.582L146.744 410.879L139.465 420.218L148.966 431.039L152.163 426.938L149.787 420.718L150.426 419.898L158.765 429.396L158.126 430.217L152.771 427.691L149.599 431.761L159.285 442.792L167.006 432.886L163.216 423.686L163.855 422.866L170.295 430.2L154.951 449.887Z" fill="white" fill-opacity="0.5"/>
<path d="M436.78 391V390.37L439.54 389.92V368.08L436.78 367.66V367H454.84V373.87H454.03L451.72 367.75H442.84V379H447.91L449.68 374.65H450.49V384.13H449.68L447.91 379.72H442.84V389.92L445.6 390.37V391H436.78Z" fill="white"/>
<path d="M255.865 568.688L255.449 568.214L256.849 565.699L242.44 549.287L240.466 551.148L240.03 550.652L251.132 536.408L255.665 541.57L255.167 542.209L249.709 539.432L244.25 546.436L251.673 554.89L254.789 550.891L253.008 546.226L253.506 545.587L259.76 552.711L259.262 553.35L255.265 551.432L252.148 555.431L258.877 563.096L260.871 561.257L261.287 561.731L255.865 568.688Z" fill="white"/>
<path d="M185.762 448.632L185.346 448.158L186.746 445.643L172.337 429.231L170.363 431.093L169.928 430.597L181.03 416.352L185.562 421.515L185.064 422.153L179.607 419.376L174.148 426.38L181.57 434.834L184.687 430.836L182.905 426.171L183.403 425.532L189.657 432.656L189.159 433.295L185.162 431.377L182.045 435.376L188.775 443.041L190.768 441.202L191.184 441.675L185.762 448.632Z" fill="white" fill-opacity="0.5"/>
<path d="M234.444 634.604L234.029 634.13L235.428 631.615L221.019 615.203L219.045 617.064L218.61 616.568L229.712 602.324L234.245 607.486L233.747 608.125L228.289 605.348L222.83 612.352L230.252 620.806L233.369 616.807L231.587 612.142L232.085 611.503L238.34 618.627L237.842 619.266L233.844 617.348L230.727 621.347L237.457 629.012L239.451 627.173L239.866 627.647L234.444 634.604Z" fill="white"/>
<path d="M164.342 514.545L163.926 514.072L165.326 511.556L150.916 495.144L148.943 497.006L148.507 496.51L159.609 482.265L164.142 487.428L163.644 488.067L158.186 485.289L152.727 492.293L160.15 500.748L163.266 496.749L161.484 492.084L161.982 491.445L168.237 498.569L167.739 499.208L163.741 497.29L160.625 501.289L167.354 508.954L169.348 507.115L169.763 507.588L164.342 514.545Z" fill="white" fill-opacity="0.5"/>
<path d="M391.58 478L423.404 433.955L461.593 447.864L489.174 413.091H523.12L548.58 376" stroke="white" stroke-width="5"/>
<path d="M321.58 358L353.404 313.955L391.593 327.864L419.174 293.091H453.12L478.58 256" stroke="white" stroke-width="5"/>
<path d="M276.112 664.694L271.415 606.238L306.133 582.056L304.117 533.736L327.504 503.729L322.625 455.688" stroke="white" stroke-width="5"/>
<path d="M206.01 544.637L201.312 486.182L236.03 462L234.014 413.679L257.401 383.672L252.522 335.631" stroke="white" stroke-width="5"/>
<path d="M254.692 730.607L249.995 672.151L284.712 647.969L282.696 599.649L306.083 569.642L301.204 521.601" stroke="white" stroke-width="5"/>
<path d="M184.589 610.55L179.892 552.095L214.61 527.913L212.594 479.592L235.981 449.585L231.102 401.544" stroke="white" stroke-width="5"/>
<path d="M398.899 468.369L402.777 471.517L428.091 440.494L425.222 436.111L425.987 435.173L439.957 450.939C442.632 453.958 444.423 457.344 445.331 461.097C446.287 464.849 446.293 468.676 445.351 472.579C444.432 476.453 442.581 480.094 439.8 483.503C437.018 486.913 433.989 489.251 430.712 490.519C427.458 491.759 424.206 491.909 420.956 490.969C417.729 490.001 414.79 488.021 412.139 485.03L398.169 469.264L398.899 468.369ZM412.974 484.007C414.749 486.01 416.712 487.298 418.862 487.869C421.036 488.467 423.289 488.253 425.62 487.228C427.974 486.175 430.264 484.284 432.49 481.557L437.845 474.994C440.07 472.267 441.57 469.513 442.345 466.731C443.12 463.95 443.209 461.294 442.611 458.764C442.037 456.261 440.863 454.008 439.088 452.004L432.486 444.554L406.372 476.556L412.974 484.007Z" fill="white"/>
<path d="M328.797 348.311L332.674 351.459L357.988 320.437L355.119 316.053L355.884 315.116L369.854 330.882C372.529 333.9 374.321 337.286 375.229 341.039C376.184 344.791 376.19 348.619 375.248 352.521C374.329 356.395 372.479 360.037 369.697 363.446C366.915 366.855 363.886 369.193 360.609 370.461C357.356 371.701 354.104 371.851 350.853 370.911C347.626 369.943 344.687 367.964 342.037 364.972L328.066 349.206L328.797 348.311ZM342.871 363.95C344.646 365.953 346.609 367.24 348.759 367.811C350.933 368.409 353.186 368.196 355.517 367.171C357.872 366.117 360.162 364.226 362.387 361.499L367.742 354.937C369.967 352.209 371.468 349.455 372.243 346.673C373.018 343.892 373.106 341.236 372.508 338.706C371.935 336.203 370.76 333.95 368.985 331.947L362.383 324.496L336.269 356.499L342.871 363.95Z" fill="white" fill-opacity="0.5"/>
<path d="M275.757 647.021L280.777 645.805L279.565 605.783L274.497 605.405L274.46 604.196L295.462 602.566C299.483 602.253 303.075 602.893 306.238 604.484C309.436 606.036 311.963 608.411 313.819 611.61C315.674 614.773 316.667 618.553 316.801 622.951C316.934 627.349 316.173 631.283 314.52 634.755C312.865 638.189 310.493 640.945 307.405 643.022C304.315 645.062 300.778 646.236 296.793 646.545L275.792 648.176L275.757 647.021ZM296.754 645.226C299.422 645.019 301.761 644.213 303.771 642.808C305.817 641.4 307.387 639.423 308.483 636.877C309.577 634.294 310.071 631.243 309.965 627.724L309.708 619.258C309.602 615.74 308.926 612.798 307.682 610.434C306.438 608.069 304.755 606.344 302.634 605.26C300.549 604.173 298.172 603.733 295.504 603.94L285.578 604.71L286.828 645.996L296.754 645.226Z" fill="white"/>
<path d="M205.654 526.963L210.674 525.746L209.462 485.725L204.394 485.347L204.357 484.137L225.359 482.507C229.38 482.195 232.972 482.834 236.135 484.426C239.334 485.978 241.86 488.353 243.716 491.552C245.571 494.714 246.565 498.494 246.698 502.892C246.831 507.29 246.071 511.225 244.417 514.696C242.762 518.131 240.39 520.887 237.302 522.963C234.212 525.003 230.675 526.178 226.691 526.487L205.689 528.117L205.654 526.963ZM226.651 525.167C229.319 524.96 231.658 524.154 233.668 522.749C235.714 521.341 237.285 519.364 238.38 516.818C239.474 514.235 239.968 511.184 239.862 507.666L239.606 499.2C239.499 495.681 238.824 492.74 237.58 490.375C236.335 488.01 234.653 486.286 232.531 485.201C230.446 484.114 228.069 483.674 225.401 483.881L215.476 484.652L216.726 525.938L226.651 525.167Z" fill="white" fill-opacity="0.5"/>
<path d="M454.67 484V483.055L459.125 480.535L469.43 466.765L458.045 449.62L454.22 448.99V448H467.855V448.99L464.3 449.53L473.03 462.76L481.715 451.15L476.36 448.99V448H487.115V448.99L482.84 451.375L473.66 463.66L486.125 482.425L489.995 483.055V484H476.315V483.055L479.87 482.47L470.06 467.71L460.115 480.94L465.425 483.055V484H454.67Z" fill="white"/>
<path d="M383.67 364V363.055L388.125 360.535L398.43 346.765L387.045 329.62L383.22 328.99V328H396.855V328.99L393.3 329.53L402.03 342.76L410.715 331.15L405.36 328.99V328H416.115V328.99L411.84 331.375L402.66 343.66L415.125 362.425L418.995 363.055V364H405.315V363.055L408.87 362.47L399.06 347.71L389.115 360.94L394.425 363.055V364H383.67Z" fill="white" fill-opacity="0.5"/>
<path d="M325.203 616.976L324.58 616.266L325.656 610.858L322.906 592.382L304.595 588.478L301.828 591.022L301.175 590.278L309.557 579.523L310.21 580.267L308.381 583.477L322.476 586.533L320.156 570.958L315.439 573.559L314.785 572.815L321.397 564.332L322.05 565.076L320.996 570.24L323.458 586.713L343.501 590.982L346.295 588.403L346.919 589.114L338.509 599.904L337.886 599.193L339.685 595.95L323.917 592.596L326.532 610.382L331.191 607.783L331.815 608.493L325.203 616.976Z" fill="white"/>
<path d="M255.101 496.917L254.477 496.207L255.553 490.8L252.803 472.324L234.493 468.42L231.726 470.963L231.073 470.219L239.454 459.465L240.108 460.209L238.278 463.418L252.374 466.475L250.053 450.9L245.336 453.5L244.683 452.756L251.294 444.274L251.947 445.017L250.893 450.182L253.355 466.654L273.398 470.924L276.192 468.345L276.816 469.055L268.406 479.845L267.783 479.135L269.582 475.891L253.814 472.537L256.429 490.323L261.089 487.724L261.712 488.434L255.101 496.917Z" fill="white" fill-opacity="0.5"/>
<path d="M233.681 562.83L233.057 562.12L234.133 556.713L231.383 538.237L213.073 534.333L210.306 536.876L209.652 536.132L218.034 525.378L218.687 526.122L216.858 529.331L230.954 532.388L228.633 516.813L223.916 519.413L223.263 518.669L229.874 510.187L230.527 510.931L229.473 516.095L231.935 532.567L251.978 536.837L254.772 534.258L255.396 534.968L246.986 545.758L246.363 545.048L248.162 541.804L232.394 538.45L235.009 556.236L239.668 553.637L240.292 554.347L233.681 562.83Z" fill="white" fill-opacity="0.5"/>
<path d="M498.476 374.853L498.985 373.817L503.535 375.917L521.174 339.972L517.326 336.439L517.859 335.353L531.239 344.433L530.706 345.519L526.18 343.369L508.251 379.907L521.858 389.142L530.92 380.812L532.149 381.646L526.237 393.693L498.476 374.853Z" fill="white"/>
<path d="M287.35 498.342L287.083 497.218L291.624 494.623L282.366 455.668L277.456 456.711L277.177 455.534L292.298 449.807L292.578 450.984L288.024 453.525L297.434 493.123L312.813 487.298L314.233 473.928L315.622 473.402L318.725 486.459L287.35 498.342Z" fill="white"/>
<path d="M217.247 378.284L216.98 377.161L221.521 374.566L212.264 335.611L207.354 336.654L207.074 335.476L222.196 329.749L222.475 330.926L217.922 333.468L227.331 373.065L242.71 367.24L244.13 353.871L245.519 353.345L248.622 366.401L217.247 378.284Z" fill="white" fill-opacity="0.5"/>
<path d="M265.93 564.256L265.662 563.132L270.204 560.537L260.946 521.582L256.036 522.625L255.757 521.448L270.878 515.721L271.158 516.898L266.604 519.439L276.014 559.037L291.393 553.212L292.813 539.842L294.202 539.316L297.305 552.373L265.93 564.256Z" fill="white"/>
<path d="M195.827 444.197L195.56 443.074L200.101 440.479L190.844 401.524L185.934 402.567L185.654 401.39L200.776 395.662L201.055 396.839L196.501 399.381L205.911 438.978L221.29 433.153L222.71 419.784L224.099 419.258L227.202 432.314L195.827 444.197Z" fill="white" fill-opacity="0.5"/>
<path d="M436.17 418.784L437.234 418.333L439.475 422.85L476.345 407.237L475.573 402.098L476.687 401.626L481.421 417.088L480.307 417.56L478.116 413.022L441.246 428.635L441.968 433.795L440.904 434.245L436.17 418.784Z" fill="white"/>
<path d="M366.067 298.726L367.131 298.276L369.372 302.792L406.242 287.179L405.47 282.041L406.584 281.569L411.318 297.03L410.204 297.502L408.014 292.964L371.143 308.577L371.865 313.737L370.801 314.188L366.067 298.726Z" fill="white" fill-opacity="0.5"/>
<path d="M274.471 577.454L274.87 576.37L279.657 577.904L293.489 540.329L289.253 537.298L289.671 536.162L304.06 543.54L303.642 544.676L298.873 543.09L285.041 580.664L289.258 583.747L288.859 584.831L274.471 577.454Z" fill="white"/>
<path d="M204.368 457.396L204.767 456.312L209.555 457.846L223.387 420.272L219.15 417.24L219.568 416.105L233.957 423.482L233.539 424.618L228.77 423.032L214.938 460.607L219.156 463.69L218.757 464.773L204.368 457.396Z" fill="white" fill-opacity="0.5"/>
<path d="M253.051 643.369L253.45 642.285L258.237 643.819L272.069 606.244L267.833 603.213L268.251 602.077L282.64 609.455L282.222 610.591L277.453 609.005L263.621 646.579L267.838 649.662L267.439 650.746L253.051 643.369Z" fill="white"/>
<path d="M182.947 523.31L183.346 522.226L188.134 523.76L201.966 486.186L197.73 483.154L198.148 482.019L212.537 489.396L212.119 490.532L207.35 488.946L193.518 526.521L197.735 529.604L197.336 530.688L182.947 523.31Z" fill="white" fill-opacity="0.5"/>
<path d="M487.728 335.464L488.023 334.908L490.835 335.501L500.38 317.54L498.681 314.854L498.991 314.271L503.487 317.576L505.402 341.234L513.046 326.849L511.347 324.164L511.657 323.581L516.806 327.366L516.496 327.948L513.651 327.294L503.247 346.871L502.642 346.427L500.449 318.99L491.439 335.945L493.196 338.71L492.901 339.267L487.728 335.464Z" fill="white"/>
<path d="M256.406 481.294L256.279 480.676L258.684 478.619L254.58 458.698L251.696 458.434L251.563 457.787L256.857 456.024L272.781 469.685L269.494 453.73L266.611 453.466L266.478 452.819L272.54 450.8L272.673 451.446L270.205 453.493L274.679 475.207L273.968 475.444L255.521 459.577L259.396 478.382L262.37 478.648L262.497 479.265L256.406 481.294Z" fill="white"/>
<path d="M186.304 361.235L186.176 360.618L188.581 358.561L184.477 338.639L181.594 338.375L181.461 337.729L186.755 335.965L202.678 349.626L199.391 333.671L196.508 333.407L196.375 332.761L202.437 330.741L202.57 331.387L200.103 333.434L204.576 355.148L203.865 355.385L185.418 339.519L189.293 358.324L192.267 358.589L192.394 359.206L186.304 361.235Z" fill="white" fill-opacity="0.5"/>
<path d="M164.883 427.15L164.756 426.533L167.161 424.476L163.056 404.554L160.173 404.29L160.04 403.644L165.334 401.88L181.258 415.541L177.971 399.586L175.088 399.322L174.954 398.676L181.017 396.656L181.15 397.302L178.682 399.349L183.156 421.063L182.444 421.3L163.998 405.434L167.872 424.239L170.847 424.504L170.974 425.121L164.883 427.15Z" fill="white" fill-opacity="0.5"/>
<path d="M214.355 664.605L214.112 663.307L231.145 615.189L214.839 620.167L211.44 632.634L210.073 633.052L209.063 620.502L237.994 611.669L238.247 613.02L221.161 661.155L239.572 655.534L242.819 642.256L244.186 641.838L245.338 655.145L214.355 664.605Z" fill="white"/>
<path d="M144.252 544.546L144.009 543.249L161.043 495.13L144.736 500.109L141.338 512.576L139.97 512.993L138.96 500.443L167.892 491.61L168.144 492.962L151.058 541.097L169.469 535.476L172.716 522.197L174.084 521.78L175.235 535.087L144.252 544.546Z" fill="white" fill-opacity="0.5"/>
</svg>
