<svg width="363" height="223" viewBox="0 0 363 223" fill="none" xmlns="http://www.w3.org/2000/svg">
<path d="M3.08799 162.04C3.08799 170.824 6.97599 175.36 14.14 175.36C18.604 175.36 21.268 174.136 21.268 174.136V160.6H12.592C12.592 160.6 12.304 161.14 12.304 162.112C12.304 163.048 12.592 163.588 12.592 163.588H17.812V171.904C17.488 171.976 16.192 172.192 14.536 172.192C10.144 172.192 6.90399 170.104 6.90399 162.076C6.90399 154.048 10.144 151.816 14.536 151.816C17.38 151.816 19.792 152.644 19.792 152.644C20.476 151.996 20.872 150.952 20.872 149.944C20.872 149.944 18.424 148.72 14.14 148.72C6.97599 148.72 3.08799 153.328 3.08799 162.04Z" fill="white"/>
<path d="M33.5766 148.252C33.5766 148.252 32.9646 148 31.7766 148C30.5166 148 29.9766 148.252 29.9766 148.252V174.748C29.9766 174.748 30.5166 175 31.7766 175C32.9646 175 33.5766 174.748 33.5766 174.748V148.252Z" fill="white"/>
<path d="M41.7109 165.532C41.7109 172.66 44.7709 175.36 49.7029 175.36C54.6349 175.36 57.6949 172.66 57.6949 165.532C57.6949 158.404 54.6709 155.704 49.7029 155.704C44.7709 155.704 41.7109 158.404 41.7109 165.532ZM53.9869 165.532C53.9869 171.076 52.3309 172.588 49.7029 172.588C47.0749 172.588 45.3829 171.076 45.3829 165.532C45.3829 159.988 47.0749 158.476 49.7029 158.476C52.3309 158.476 53.9869 159.988 53.9869 165.532Z" fill="white"/>
<path d="M69.321 148.252C69.321 148.252 68.709 148 67.485 148C66.297 148 65.721 148.252 65.721 148.252V174.748C65.721 174.748 66.297 175 67.485 175C68.709 175 69.321 174.748 69.321 174.748V173.02C70.329 174.496 71.949 175.36 74.505 175.36C78.609 175.36 81.273 172.876 81.273 165.532C81.273 158.188 78.609 155.704 74.505 155.704C71.949 155.704 70.329 156.568 69.321 158.044V148.252ZM77.565 165.532C77.565 170.896 76.125 172.408 73.245 172.408C70.725 172.408 69.321 170.284 69.321 167.8V163.192C69.321 160.744 70.725 158.656 73.245 158.656C76.125 158.656 77.565 160.168 77.565 165.532Z" fill="white"/>
<path d="M103.221 166.648C103.221 166.648 103.617 165.208 103.617 162.94C103.617 158.152 100.917 155.704 96.4889 155.704C91.7009 155.704 88.4969 158.62 88.4969 165.424C88.4969 171.94 91.0889 175.36 96.6329 175.36C100.557 175.36 102.609 173.848 102.609 173.848C102.573 172.804 102.105 171.832 101.457 171.256C101.457 171.256 99.7649 172.3 97.2089 172.3C94.2209 172.3 92.4929 170.932 92.2049 166.648H103.221ZM100.017 162.472C100.017 163.228 99.9449 163.804 99.9089 164.092H92.2049C92.4929 160.096 94.1489 158.548 96.4889 158.548C99.1529 158.548 100.017 160.348 100.017 162.472Z" fill="white"/>
<path d="M115.017 158.8V156.316C115.017 156.316 114.405 156.064 113.217 156.064C111.957 156.064 111.417 156.316 111.417 156.316V174.748C111.417 174.748 111.957 175 113.217 175C114.405 175 115.017 174.748 115.017 174.748V161.644C115.953 159.988 117.321 158.908 118.725 158.908C119.553 158.908 120.273 159.16 120.957 159.664C121.929 158.872 122.433 157.936 122.541 156.64C121.749 156.136 120.741 155.74 119.409 155.74C117.969 155.74 116.385 156.532 115.017 158.8Z" fill="white"/>
<path d="M10.18 120.584C10.432 120.08 10.54 119.504 10.54 118.82C10.54 118.388 10.504 118.028 10.396 117.74C10.288 117.452 10.18 117.128 9.99999 116.804C9.92799 116.624 9.89199 116.48 9.85599 116.372C9.81999 116.264 9.81999 116.156 9.89199 116.084C9.96399 116.012 10.072 116.012 10.216 116.048C10.36 116.084 10.576 116.192 10.9 116.372C12.052 117.056 13.168 117.416 14.212 117.416C14.788 117.416 15.292 117.344 15.76 117.164C16.192 116.984 16.732 116.732 17.344 116.408C17.596 116.264 17.812 116.156 17.992 116.048C18.172 115.976 18.316 115.976 18.388 116.048C18.46 116.12 18.496 116.228 18.496 116.408C18.496 116.552 18.496 116.696 18.46 116.84C18.424 116.984 18.424 117.128 18.388 117.236C18.28 117.704 18.244 118.064 18.244 118.316C18.244 118.928 18.496 119.216 19.036 119.216C19.504 119.216 20.008 119.036 20.584 118.676C21.16 118.316 21.664 117.812 22.096 117.2C22.492 116.588 22.708 115.94 22.708 115.22C22.708 114.5 22.492 113.816 22.096 113.204C21.664 112.592 21.16 112.124 20.584 111.764C20.008 111.404 19.504 111.224 19.036 111.224C18.784 111.224 18.64 111.26 18.532 111.368C18.352 111.512 18.28 111.764 18.28 112.16C18.28 112.196 18.316 112.556 18.388 113.204C18.46 113.528 18.496 113.78 18.496 114.032C18.496 114.284 18.424 114.428 18.244 114.428C18.136 114.428 17.956 114.356 17.74 114.248C17.524 114.14 17.38 114.068 17.344 114.032C16.804 113.708 16.264 113.456 15.796 113.276C15.328 113.096 14.788 113.024 14.212 113.024C13.168 113.024 12.052 113.384 10.9 114.068C10.576 114.248 10.36 114.356 10.216 114.392C10.072 114.428 9.96399 114.428 9.89199 114.356C9.81999 114.284 9.81999 114.176 9.85599 114.068C9.89199 113.96 9.92799 113.816 9.99999 113.636C10.18 113.24 10.324 112.88 10.432 112.556C10.54 112.232 10.576 111.8 10.576 111.296C10.576 110.576 10.432 109.856 10.144 109.136C9.81999 108.452 9.42399 107.624 8.88399 106.724C8.55999 106.112 8.30799 105.68 8.19999 105.356C8.09199 105.068 8.09199 104.888 8.19999 104.78C8.30799 104.672 8.48799 104.708 8.73999 104.816C8.95599 104.924 9.27999 105.14 9.67599 105.428C10.504 105.968 11.224 106.364 11.872 106.652C12.484 106.976 13.204 107.12 13.96 107.12C14.752 107.12 15.472 106.94 16.12 106.616C16.732 106.292 17.38 105.824 18.028 105.284C18.64 104.78 19.072 104.528 19.324 104.528C19.468 104.528 19.576 104.564 19.612 104.672C19.648 104.78 19.684 104.924 19.684 105.14C19.684 105.392 19.576 106.004 19.396 106.904C19.216 107.768 19.108 108.38 19.108 108.704C19.108 109.064 19.18 109.28 19.324 109.316C19.396 109.352 19.54 109.388 19.756 109.388C20.224 109.388 20.836 109.208 21.52 108.884C22.204 108.56 22.78 108.128 23.284 107.588C23.788 107.048 24.04 106.544 24.04 106.004C24.04 104.816 23.14 103.88 21.34 103.268C19.54 102.656 17.2 102.368 14.284 102.368C11.764 102.368 9.63999 102.584 7.91199 103.052C6.18399 103.52 4.88799 104.096 4.05999 104.744C3.23199 105.428 2.79999 106.04 2.79999 106.616C2.79999 107.012 2.97999 107.264 3.30399 107.372C3.62799 107.48 4.34799 107.552 5.42799 107.552C5.75199 107.552 5.96799 107.588 6.11199 107.624C6.21999 107.696 6.29199 107.804 6.29199 107.948C6.29199 108.056 6.21999 108.272 6.07599 108.524C5.60799 109.352 5.28399 110.036 5.10399 110.576C4.88799 111.116 4.77999 111.692 4.77999 112.232C4.77999 112.988 5.03199 113.636 5.53599 114.176C6.00399 114.716 6.68799 115.04 7.58799 115.22C6.68799 115.4 6.00399 115.76 5.53599 116.3C5.03199 116.876 4.77999 117.56 4.77999 118.388C4.77999 119.072 4.88799 119.72 5.10399 120.296C5.28399 120.872 5.53599 121.484 5.85999 122.096C5.89599 122.204 5.96799 122.312 6.03999 122.456C6.11199 122.636 6.18399 122.816 6.25599 122.996C6.29199 123.212 6.29199 123.356 6.25599 123.464C6.18399 123.572 6.03999 123.608 5.85999 123.608C5.71599 123.608 5.42799 123.572 4.99599 123.464C4.52799 123.356 4.13199 123.32 3.84399 123.32C3.44799 123.32 3.19599 123.428 3.01599 123.608C2.90799 123.716 2.83599 123.932 2.83599 124.184C2.83599 124.652 3.05199 125.192 3.51999 125.804C3.95199 126.416 4.52799 126.956 5.28399 127.388C6.00399 127.856 6.79599 128.072 7.62399 128.072C8.48799 128.072 9.27999 127.856 10.036 127.388C10.756 126.956 11.332 126.416 11.764 125.804C12.196 125.192 12.412 124.652 12.412 124.184C12.412 123.932 12.34 123.716 12.232 123.608C12.052 123.428 11.764 123.32 11.368 123.32C11.08 123.32 10.648 123.356 10.072 123.464C9.53199 123.572 9.20799 123.608 9.06399 123.608C8.73999 123.608 8.55999 123.5 8.55999 123.32C8.55999 123.212 8.63199 123.032 8.73999 122.852C8.84799 122.672 8.99199 122.492 9.13599 122.312C9.56799 121.7 9.92799 121.124 10.18 120.584Z" fill="white"/>
<path d="M50.9016 103.016C50.1456 102.584 49.3536 102.368 48.5256 102.368C47.6976 102.368 46.9056 102.584 46.1856 103.016C45.4296 103.484 44.8536 103.988 44.4216 104.6C43.9536 105.212 43.7376 105.788 43.7376 106.256C43.7376 106.436 43.8096 106.616 43.9176 106.796C44.0976 106.976 44.3856 107.084 44.8536 107.084C45.1416 107.084 45.6096 107.048 46.2216 106.94C46.7616 106.832 47.1216 106.796 47.3016 106.796C47.6256 106.796 47.7696 106.904 47.7696 107.084C47.7696 107.264 47.6976 107.516 47.5536 107.84C47.3736 108.2 47.2656 108.416 47.2296 108.524C46.8336 109.388 46.5456 110.108 46.3296 110.72C46.1136 111.332 46.0056 111.98 46.0056 112.628C46.0056 113.348 46.2216 113.924 46.6176 114.392C47.0136 114.86 47.5896 115.112 48.3456 115.22C47.6256 115.328 47.0856 115.688 46.6896 116.228C46.2936 116.768 46.1136 117.488 46.1136 118.316C46.1136 119.072 46.2216 119.828 46.4016 120.512C46.5816 121.196 46.8336 121.952 47.1576 122.78C47.3016 123.104 47.4096 123.428 47.5176 123.716C47.5896 124.004 47.5896 124.184 47.5176 124.292C47.4456 124.364 47.3376 124.4 47.1936 124.4C46.9776 124.4 46.5456 124.328 45.8616 124.148C44.2776 123.752 42.9456 123.572 41.8296 123.572C40.7136 123.572 39.3816 123.752 37.7976 124.148C37.1136 124.328 36.6816 124.4 36.4656 124.4C36.3216 124.4 36.2136 124.364 36.1416 124.292C36.0696 124.184 36.0696 124.004 36.1776 123.716C36.2496 123.428 36.3576 123.104 36.5016 122.78C36.8256 121.952 37.0776 121.196 37.2576 120.512C37.4376 119.828 37.5456 119.072 37.5456 118.316C37.5456 117.488 37.3656 116.768 36.9696 116.228C36.5736 115.688 36.0336 115.328 35.3136 115.22C36.0696 115.112 36.6456 114.86 37.0416 114.392C37.4376 113.924 37.6536 113.348 37.6536 112.628C37.6536 111.98 37.5456 111.332 37.3296 110.72C37.1136 110.108 36.8256 109.388 36.4296 108.524C36.2496 108.164 36.1056 107.84 35.9976 107.516C35.8896 107.228 35.8536 107.048 35.9256 106.94C35.9976 106.832 36.1416 106.796 36.3216 106.796C36.4296 106.796 36.7896 106.832 37.3656 106.94C38.1216 107.048 38.6256 107.12 38.8056 107.12C39.5616 107.12 39.9216 106.832 39.9216 106.256C39.9216 105.788 39.7056 105.212 39.2736 104.6C38.8056 103.988 38.2296 103.484 37.5096 103.016C36.7536 102.584 35.9616 102.368 35.1336 102.368C34.3056 102.368 33.5136 102.584 32.7936 103.016C32.0376 103.484 31.4616 103.988 31.0296 104.6C30.5616 105.212 30.3456 105.788 30.3456 106.256C30.3456 106.436 30.4176 106.616 30.5256 106.796C30.7056 106.976 30.9576 107.084 31.3536 107.084C31.6056 107.084 32.0016 107.048 32.4696 106.94C32.9016 106.832 33.1896 106.796 33.2976 106.796C33.5496 106.796 33.6576 106.904 33.6576 107.084C33.6576 107.264 33.5856 107.516 33.4416 107.84C33.2616 108.2 33.1536 108.416 33.1176 108.524C32.7216 109.388 32.4336 110.108 32.2176 110.72C32.0016 111.332 31.8936 111.98 31.8936 112.628C31.8936 113.348 32.1096 113.924 32.5056 114.392C32.9016 114.86 33.4776 115.112 34.2336 115.22C33.4776 115.328 32.9016 115.652 32.4696 116.192C32.0376 116.768 31.8216 117.488 31.8216 118.316C31.8216 120.152 32.2536 121.844 33.0816 123.356C33.9096 124.868 35.0616 126.056 36.5736 126.92C38.0856 127.784 39.8496 128.216 41.8296 128.216C43.8096 128.216 45.5736 127.784 47.0856 126.92C48.5976 126.056 49.7856 124.868 50.6136 123.356C51.4416 121.844 51.8376 120.152 51.8376 118.316C51.8376 117.488 51.6216 116.768 51.1896 116.192C50.7576 115.652 50.1816 115.328 49.4256 115.22C50.1816 115.112 50.7576 114.86 51.1536 114.392C51.5496 113.924 51.7656 113.348 51.7656 112.628C51.7656 111.98 51.6576 111.332 51.4416 110.72C51.2256 110.108 50.9376 109.388 50.5416 108.524C50.3616 108.164 50.2176 107.84 50.1096 107.516C50.0016 107.228 49.9656 107.048 50.0376 106.94C50.1096 106.832 50.2176 106.796 50.3976 106.796C50.5776 106.796 50.8296 106.832 51.2256 106.94C51.6936 107.048 52.0536 107.084 52.3056 107.084C52.7016 107.084 52.9536 106.976 53.1336 106.796C53.2416 106.616 53.3136 106.436 53.3136 106.256C53.3136 105.788 53.0976 105.212 52.6656 104.6C52.1976 103.988 51.6216 103.484 50.9016 103.016Z" fill="white"/>
<path d="M82.5833 103.052C81.8273 102.62 81.0353 102.404 80.1713 102.404C79.3433 102.404 78.5873 102.62 77.8673 103.052C77.1113 103.52 76.5353 104.06 76.0673 104.672C75.5993 105.284 75.3833 105.824 75.3833 106.292C75.3833 106.472 75.4553 106.652 75.5633 106.832C75.7433 107.012 76.0313 107.12 76.4993 107.12C76.7873 107.12 77.2553 107.084 77.8673 106.976C78.4073 106.868 78.7313 106.832 78.9113 106.832C79.2353 106.832 79.4153 106.94 79.4153 107.156C79.4153 107.336 79.3433 107.588 79.1993 107.912C79.0193 108.272 78.9113 108.488 78.8753 108.596C78.5153 109.352 78.2273 110.036 78.0113 110.684C77.7593 111.368 77.6513 112.016 77.6513 112.664C77.6513 113.312 77.8313 113.852 78.1913 114.284C78.5153 114.752 79.0193 115.04 79.6313 115.184C78.9473 115.508 78.5873 116.336 78.5873 117.668C78.5873 118.676 78.6953 119.72 78.8753 120.836C79.0553 121.952 79.1633 122.636 79.1993 122.852C79.4513 124.004 79.5593 124.832 79.5593 125.336C79.5593 125.84 79.4153 126.092 79.1633 126.092C78.8393 126.092 78.4793 125.624 78.1553 124.652C77.7953 123.716 77.3633 122.276 76.8233 120.332C76.7873 120.224 76.7513 119.972 76.6433 119.612L76.2473 118.028C75.9233 116.732 75.6353 115.724 75.3473 115.004C75.0593 114.32 74.6273 113.636 74.0873 112.988C73.6913 112.52 73.0073 111.98 72.0353 111.44C71.4953 111.116 71.0993 110.828 70.8473 110.612C70.5953 110.432 70.4873 110.18 70.4873 109.856C70.4873 109.676 70.5233 109.424 70.6313 109.136C70.7393 108.884 70.8473 108.596 70.9553 108.308C71.2073 107.768 71.3873 107.3 71.5313 106.868C71.6393 106.472 71.7113 106.04 71.7113 105.572C71.7113 104.672 71.2793 103.952 70.4513 103.34C69.5873 102.728 68.3633 102.44 66.7793 102.44C65.5553 102.44 64.4753 102.656 63.5753 103.088C62.6753 103.556 61.9553 104.06 61.4873 104.672C60.9833 105.284 60.7313 105.86 60.7313 106.328C60.7313 106.58 60.8033 106.796 60.9113 106.904C61.0913 107.084 61.4153 107.192 61.8113 107.192C62.1353 107.192 62.4953 107.156 62.8193 107.084C63.2153 107.048 63.4673 107.012 63.6113 107.012C63.8993 107.012 64.0793 107.084 64.1153 107.192C64.1873 107.3 64.1873 107.48 64.0793 107.66C63.9713 107.876 63.7913 108.2 63.5393 108.632C63.1073 109.316 62.7473 109.964 62.4953 110.576C62.2433 111.188 62.0993 111.836 62.0993 112.52C62.0993 113.168 62.2793 113.744 62.6753 114.284C63.0713 114.824 63.5393 115.148 64.1153 115.328C63.5033 115.508 63.0713 115.796 62.7473 116.228C62.4233 116.66 62.2433 117.2 62.2433 117.812C62.2433 118.46 62.3513 119.072 62.5673 119.684C62.7833 120.296 63.0713 121.052 63.4673 121.916C63.6473 122.276 63.7913 122.6 63.8993 122.888C64.0073 123.212 64.0433 123.392 63.9713 123.5C63.8993 123.608 63.7913 123.644 63.6113 123.644C63.4313 123.644 63.1793 123.608 62.7833 123.5C62.3153 123.392 61.9553 123.356 61.7033 123.356C61.3073 123.356 61.0553 123.464 60.8753 123.644C60.7673 123.752 60.6953 123.968 60.6953 124.22C60.6953 124.688 60.9113 125.228 61.3433 125.84C61.7393 126.452 62.3153 126.992 63.0713 127.424C63.8273 127.856 64.6193 128.072 65.4833 128.072C66.3113 128.072 67.0673 127.856 67.8233 127.388C68.5433 126.956 69.1193 126.416 69.5873 125.804C70.0553 125.192 70.2713 124.652 70.2713 124.184C70.2713 124.004 70.1993 123.824 70.0913 123.644C69.9113 123.464 69.6233 123.356 69.1553 123.356C68.8673 123.356 68.3993 123.392 67.7873 123.5C67.2473 123.608 66.9233 123.644 66.7433 123.644C66.4193 123.644 66.2393 123.536 66.2393 123.32C66.2393 123.14 66.3113 122.888 66.4913 122.528C66.6353 122.204 66.7433 121.988 66.7793 121.88C67.1393 121.124 67.4273 120.44 67.6793 119.756C67.8953 119.108 68.0033 118.46 68.0033 117.812C68.0033 117.092 67.7873 116.516 67.3913 116.048C66.9593 115.58 66.3833 115.328 65.6273 115.22C66.3113 114.896 66.6353 114.068 66.6353 112.772C66.6353 111.764 66.5273 110.684 66.3473 109.568C66.1673 108.452 66.0593 107.804 66.0233 107.588C65.7713 106.436 65.6633 105.608 65.6633 105.104C65.6633 104.6 65.8073 104.348 66.0593 104.348C66.3833 104.348 66.7433 104.816 67.1033 105.752C67.4273 106.724 67.8593 108.164 68.3993 110.108C68.4353 110.216 68.4713 110.468 68.5793 110.828L68.9753 112.412C69.2993 113.708 69.5873 114.716 69.8753 115.4C70.1633 116.12 70.5953 116.804 71.1353 117.452C71.5313 117.92 72.2153 118.46 73.1873 119C73.7273 119.324 74.1233 119.612 74.3753 119.792C74.6273 120.008 74.7353 120.26 74.7353 120.584C74.7353 120.764 74.6993 121.016 74.5913 121.268C74.4833 121.556 74.3753 121.844 74.2673 122.132C74.0153 122.672 73.8353 123.14 73.7273 123.536C73.5833 123.968 73.5113 124.4 73.5113 124.868C73.5113 125.768 73.9433 126.488 74.8073 127.1C75.6353 127.712 76.8593 128 78.4433 128C79.6673 128 80.7473 127.784 81.6473 127.316C82.5473 126.884 83.2673 126.344 83.7713 125.732C84.2393 125.12 84.4913 124.58 84.4913 124.112C84.4913 123.86 84.4193 123.644 84.3113 123.536C84.1313 123.356 83.8073 123.248 83.4113 123.248C83.0873 123.248 82.7273 123.284 82.4033 123.356C82.0073 123.392 81.7553 123.428 81.6113 123.428C81.3593 123.428 81.1793 123.356 81.1073 123.248C81.0353 123.14 81.0353 122.96 81.1433 122.744C81.2513 122.564 81.4313 122.24 81.6833 121.808C82.1153 121.124 82.4753 120.476 82.7273 119.864C82.9793 119.252 83.1233 118.604 83.1233 117.92C83.1233 117.308 82.9433 116.768 82.6193 116.264C82.2953 115.76 81.8633 115.4 81.3593 115.22C82.0073 115.076 82.5113 114.788 82.8713 114.32C83.2313 113.852 83.4113 113.312 83.4113 112.664C83.4113 112.016 83.3033 111.368 83.0873 110.756C82.8713 110.144 82.5833 109.424 82.1873 108.56C82.0073 108.2 81.8633 107.876 81.7553 107.552C81.6473 107.264 81.6113 107.084 81.6833 106.976C81.7553 106.868 81.8633 106.832 82.0433 106.832C82.1873 106.832 82.4393 106.868 82.8353 106.976C83.3033 107.084 83.6993 107.12 83.9513 107.12C84.3113 107.12 84.5993 107.012 84.7793 106.832C84.8873 106.724 84.9593 106.508 84.9593 106.256C84.9593 105.788 84.7433 105.212 84.3113 104.6C83.8793 103.988 83.3033 103.484 82.5833 103.052Z" fill="white"/>
<path d="M112.118 115.148C111.362 114.68 110.57 114.464 109.742 114.464C108.914 114.464 108.122 114.68 107.366 115.112C106.61 115.58 106.034 116.12 105.566 116.732C105.098 117.38 104.882 117.92 104.882 118.388C104.882 118.568 104.954 118.748 105.062 118.928C105.206 119.108 105.458 119.18 105.854 119.18C106.034 119.18 106.502 119.108 107.258 119C107.834 118.892 108.194 118.856 108.374 118.856C108.626 118.856 108.77 118.928 108.806 119.036C108.842 119.144 108.842 119.288 108.734 119.468C108.626 119.648 108.446 119.936 108.194 120.296C107.582 121.124 107.222 121.772 107.042 122.312C106.898 122.78 106.754 123.572 106.646 124.616C106.574 125.192 106.502 125.588 106.43 125.804C106.358 126.056 106.25 126.164 106.07 126.164C105.89 126.164 105.566 125.948 105.17 125.48C104.81 125.048 104.414 124.652 104.018 124.328C103.622 124.004 103.118 123.788 102.542 123.608C102.146 123.5 101.714 123.428 101.174 123.428C100.598 123.428 100.058 123.5 99.5902 123.644C99.1222 123.824 98.5822 124.04 97.9702 124.292C97.5742 124.472 97.3222 124.616 97.1422 124.652C96.9622 124.688 96.7822 124.688 96.6742 124.616C96.5662 124.508 96.5302 124.364 96.6022 124.148C96.6382 123.932 96.7822 123.536 97.0342 122.996C97.3942 122.168 97.6822 121.412 97.9342 120.692C98.1502 119.972 98.2582 119.18 98.2582 118.352C98.2582 117.524 98.0422 116.84 97.6462 116.228C97.2502 115.652 96.6742 115.328 95.9902 115.22C96.6742 115.112 97.2502 114.752 97.6462 114.176C98.0422 113.6 98.2582 112.916 98.2582 112.088C98.2582 111.224 98.1502 110.432 97.8982 109.676C97.6462 108.92 97.3582 108.164 96.9982 107.408C96.8542 107.048 96.7462 106.724 96.6382 106.436C96.5302 106.148 96.5302 105.968 96.6022 105.86C96.6742 105.752 96.7822 105.716 96.9622 105.752C97.1062 105.788 97.3582 105.86 97.7542 106.004C99.2662 106.616 100.814 106.904 102.398 106.904H104.378C105.674 106.904 106.61 107.012 107.15 107.264C107.69 107.516 107.978 108.056 107.978 108.884L107.942 110.72C107.942 111.116 107.978 111.44 108.05 111.692C108.086 111.944 108.194 112.088 108.374 112.196C108.446 112.232 108.59 112.268 108.77 112.268C109.238 112.268 109.814 112.016 110.426 111.548C111.038 111.08 111.542 110.468 111.974 109.712C112.406 108.956 112.622 108.2 112.622 107.372C112.622 106.436 112.406 105.572 111.974 104.78C111.506 103.988 111.002 103.376 110.39 102.944C109.778 102.512 109.238 102.368 108.806 102.476C108.482 102.512 108.338 102.836 108.338 103.448C108.338 103.664 108.374 103.952 108.41 104.348L108.446 105.068C108.446 105.392 108.374 105.572 108.194 105.572C108.014 105.572 107.726 105.356 107.33 104.888C106.574 104.132 105.782 103.484 104.918 102.98C104.054 102.476 102.938 102.224 101.534 102.224C99.7342 102.224 98.1502 102.656 96.8182 103.52C95.4502 104.42 94.4062 105.572 93.6502 107.048C92.8942 108.524 92.5342 110.144 92.5342 111.836C92.5342 112.736 92.7502 113.492 93.2182 114.104C93.6502 114.716 94.2622 115.112 95.0182 115.22C94.2622 115.328 93.6502 115.724 93.2182 116.336C92.7502 116.948 92.5342 117.704 92.5342 118.604C92.5342 120.332 92.8942 121.916 93.6142 123.392C94.3342 124.868 95.4142 126.02 96.8182 126.884C98.2222 127.784 99.9502 128.216 101.966 128.216C104.342 128.216 106.322 127.856 107.906 127.172C109.49 126.488 110.57 125.516 111.11 124.256C111.434 123.572 111.578 122.852 111.578 122.096C111.578 121.484 111.47 120.836 111.254 120.08C111.074 119.54 111.038 119.18 111.11 119.036C111.146 118.928 111.254 118.892 111.47 118.892C111.578 118.892 111.902 118.928 112.37 119.036C113.054 119.144 113.45 119.216 113.63 119.216C113.99 119.216 114.242 119.108 114.422 118.928C114.53 118.748 114.602 118.568 114.602 118.388C114.602 117.92 114.386 117.38 113.918 116.768C113.45 116.156 112.874 115.616 112.118 115.148Z" fill="white"/>
<path d="M127.247 123.644C127.067 123.644 126.923 123.608 126.851 123.5C126.779 123.392 126.815 123.212 126.923 122.888C127.031 122.6 127.175 122.276 127.355 121.916C127.751 121.052 128.039 120.296 128.255 119.684C128.471 119.072 128.579 118.46 128.579 117.812C128.579 117.128 128.363 116.516 127.967 116.048C127.571 115.58 126.995 115.328 126.275 115.22C126.995 115.112 127.571 114.824 127.967 114.356C128.363 113.888 128.579 113.312 128.579 112.628C128.579 111.98 128.471 111.332 128.255 110.72C128.039 110.108 127.751 109.388 127.355 108.524C127.175 108.164 127.031 107.84 126.923 107.516C126.815 107.228 126.779 107.048 126.851 106.94C126.923 106.832 127.067 106.796 127.247 106.796C127.391 106.796 127.715 106.832 128.183 106.94C128.759 107.048 129.191 107.084 129.443 107.084C129.839 107.084 130.127 106.976 130.307 106.796C130.415 106.616 130.487 106.436 130.487 106.256C130.487 105.788 130.271 105.212 129.839 104.6C129.371 103.988 128.795 103.484 128.075 103.016C127.319 102.584 126.527 102.368 125.699 102.368C124.871 102.368 124.079 102.584 123.359 103.016C122.603 103.484 122.027 103.988 121.595 104.6C121.127 105.212 120.911 105.788 120.911 106.256C120.911 106.436 120.983 106.616 121.091 106.796C121.271 106.976 121.559 107.084 121.955 107.084C122.351 107.084 122.783 107.012 123.215 106.904C123.359 106.868 123.503 106.868 123.683 106.832C123.827 106.796 123.971 106.796 124.151 106.796C124.439 106.796 124.583 106.904 124.583 107.084C124.583 107.264 124.511 107.516 124.367 107.84C124.187 108.2 124.079 108.416 124.043 108.524C123.647 109.388 123.359 110.108 123.143 110.72C122.927 111.332 122.819 111.98 122.819 112.628C122.819 113.312 123.035 113.888 123.431 114.356C123.827 114.824 124.403 115.112 125.123 115.22C124.403 115.328 123.827 115.58 123.431 116.048C123.035 116.516 122.819 117.128 122.819 117.812C122.819 118.46 122.927 119.072 123.143 119.684C123.359 120.296 123.647 121.052 124.043 121.916C124.223 122.276 124.367 122.6 124.475 122.888C124.583 123.212 124.619 123.392 124.547 123.5C124.475 123.608 124.331 123.644 124.151 123.644C124.007 123.644 123.683 123.608 123.215 123.5C122.639 123.392 122.207 123.356 121.955 123.356C121.559 123.356 121.271 123.464 121.091 123.644C120.983 123.824 120.911 124.004 120.911 124.184C120.911 124.652 121.127 125.192 121.595 125.804C122.027 126.416 122.603 126.956 123.359 127.388C124.079 127.856 124.871 128.072 125.699 128.072C126.527 128.072 127.319 127.856 128.075 127.388C128.795 126.956 129.371 126.416 129.839 125.804C130.271 125.192 130.487 124.652 130.487 124.184C130.487 124.004 130.415 123.824 130.307 123.644C130.127 123.464 129.839 123.356 129.443 123.356C129.047 123.356 128.615 123.428 128.183 123.536C128.039 123.572 127.895 123.572 127.751 123.608C127.571 123.644 127.427 123.644 127.247 123.644Z" fill="white"/>
<path d="M152.671 103.088C151.627 102.656 150.439 102.44 149.035 102.44C147.631 102.44 146.443 102.656 145.399 103.088C144.355 103.556 143.599 104.096 143.059 104.708C142.519 105.32 142.231 105.896 142.231 106.4C142.231 106.58 142.303 106.76 142.411 106.94C142.591 107.12 142.915 107.228 143.347 107.228C143.563 107.228 143.887 107.192 144.319 107.156C144.751 107.12 145.039 107.084 145.147 107.084C145.471 107.084 145.651 107.156 145.723 107.336C145.795 107.516 145.723 107.696 145.543 107.876C145.327 108.092 144.967 108.38 144.427 108.704C143.239 109.496 142.411 110.18 141.979 110.792C141.475 111.476 141.223 112.16 141.223 112.916C141.223 113.816 141.619 114.644 142.375 115.328C141.547 115.364 140.899 115.652 140.431 116.192C139.927 116.768 139.675 117.452 139.639 118.244C139.603 118.82 139.567 119.216 139.567 119.432C139.567 120.008 139.603 120.692 139.711 121.448C139.747 122.024 139.783 122.384 139.783 122.564C139.783 122.888 139.711 123.14 139.603 123.284C139.495 123.464 139.279 123.536 138.991 123.536C138.811 123.536 138.487 123.5 138.055 123.392C137.587 123.284 137.227 123.248 137.047 123.248C136.687 123.248 136.435 123.356 136.255 123.536C136.147 123.716 136.075 123.896 136.075 124.112C136.075 124.58 136.291 125.12 136.723 125.732C137.155 126.344 137.731 126.884 138.487 127.316C139.207 127.784 139.999 128 140.863 128C141.691 128 142.483 127.784 143.239 127.316C143.959 126.884 144.535 126.344 145.003 125.732C145.435 125.12 145.651 124.58 145.651 124.112C145.651 123.896 145.579 123.716 145.471 123.536C145.291 123.356 145.003 123.248 144.571 123.248C144.319 123.248 143.887 123.284 143.311 123.392C142.843 123.5 142.519 123.536 142.339 123.536C142.051 123.536 141.907 123.464 141.907 123.284C141.907 123.176 141.943 123.068 142.051 122.96C142.123 122.852 142.267 122.672 142.447 122.456C142.627 122.276 142.771 122.132 142.879 122.024C143.599 121.304 144.175 120.656 144.607 120.044C145.039 119.432 145.291 118.784 145.363 118.064C145.975 118.604 146.551 119.036 147.127 119.324C147.703 119.612 148.351 119.756 149.035 119.756C149.719 119.756 150.367 119.612 150.943 119.324C151.519 119.036 152.095 118.604 152.707 118.064C152.779 118.784 153.031 119.432 153.463 120.044C153.895 120.656 154.471 121.34 155.155 122.024C155.407 122.276 155.659 122.528 155.875 122.78C156.055 123.032 156.163 123.212 156.163 123.32C156.163 123.464 156.019 123.536 155.767 123.536C155.623 123.536 155.479 123.536 155.335 123.5C155.155 123.464 155.011 123.464 154.867 123.428C154.327 123.32 153.895 123.248 153.499 123.248C152.779 123.248 152.419 123.536 152.419 124.112C152.419 124.58 152.635 125.12 153.103 125.732C153.535 126.344 154.111 126.884 154.867 127.316C155.587 127.784 156.379 128 157.207 128C158.071 128 158.863 127.784 159.619 127.316C160.339 126.884 160.915 126.344 161.383 125.732C161.815 125.12 162.031 124.58 162.031 124.112C162.031 123.86 161.959 123.644 161.779 123.464C161.599 123.32 161.383 123.248 161.059 123.248C160.807 123.248 160.483 123.284 160.051 123.392C159.583 123.5 159.259 123.536 159.079 123.536C158.863 123.536 158.683 123.5 158.575 123.392C158.395 123.212 158.287 122.924 158.287 122.492C158.287 122.312 158.323 121.952 158.359 121.412C158.431 120.26 158.467 119.576 158.467 119.396C158.467 118.892 158.467 118.496 158.431 118.244C158.359 117.416 158.071 116.732 157.603 116.192C157.135 115.652 156.487 115.364 155.695 115.328C156.451 114.644 156.847 113.816 156.847 112.916C156.847 112.16 156.595 111.476 156.091 110.792C155.839 110.396 155.515 110.072 155.119 109.748C154.723 109.424 154.219 109.1 153.679 108.74C153.211 108.416 152.887 108.164 152.671 107.984C152.419 107.804 152.311 107.624 152.311 107.444C152.311 107.3 152.347 107.192 152.455 107.156C152.563 107.12 152.707 107.12 152.923 107.12C153.103 107.12 153.355 107.156 153.751 107.192C154.183 107.228 154.507 107.264 154.723 107.264C155.479 107.264 155.839 106.976 155.839 106.4C155.839 105.896 155.587 105.32 155.047 104.708C154.507 104.096 153.715 103.556 152.671 103.088ZM150.907 115.616C150.295 115.436 149.683 115.364 149.035 115.364C148.387 115.364 147.775 115.436 147.163 115.616C146.551 115.796 146.227 115.868 146.119 115.904C145.435 116.084 145.039 116.192 144.895 116.192C144.715 116.192 144.571 116.12 144.499 116.012C144.391 115.904 144.391 115.724 144.463 115.544C144.535 115.364 144.715 115.112 144.967 114.752C145.363 114.212 145.687 113.672 146.011 113.132C146.299 112.592 146.587 111.944 146.875 111.152C147.271 110.144 147.667 108.74 148.063 106.904C148.243 106.004 148.387 105.392 148.531 104.996C148.639 104.6 148.819 104.42 149.035 104.42C149.251 104.42 149.431 104.6 149.575 104.996C149.683 105.392 149.827 106.004 150.007 106.904C150.403 108.74 150.799 110.144 151.195 111.152C151.483 111.872 151.771 112.484 152.059 112.952C152.311 113.42 152.671 113.996 153.067 114.608C153.319 115.04 153.499 115.364 153.607 115.544C153.679 115.724 153.679 115.904 153.571 116.012C153.499 116.12 153.355 116.192 153.175 116.192C153.031 116.192 152.635 116.084 151.951 115.904C151.843 115.868 151.519 115.796 150.907 115.616Z" fill="white"/>
<path d="M18.1035 71.3029H7.38085C7.20506 71.924 7.0703 72.551 6.97655 73.1838C6.8828 73.8049 6.83592 74.426 6.83592 75.0471C6.83592 75.4807 6.85936 75.9025 6.90624 76.3127C6.95311 76.7229 7.02928 77.1154 7.13475 77.4904L4.39256 78.2463C4.11131 78.3166 3.84764 78.3518 3.60155 78.3518C2.8867 78.3518 2.52928 78.0061 2.52928 77.3147C2.52928 77.2561 2.53514 77.2092 2.54686 77.174C2.55858 77.1389 2.56444 77.092 2.56444 77.0334C2.66991 76.1545 2.8867 75.1408 3.21483 73.9924C3.55467 72.8322 3.96483 71.6076 4.4453 70.3186C4.92577 69.0295 5.45311 67.7111 6.02733 66.3635C6.60155 65.0158 7.18163 63.7092 7.76756 62.4436C8.3535 61.1662 8.92186 59.965 9.47264 58.84C10.0234 57.715 10.5098 56.7307 10.9316 55.8869C11.3652 55.0432 11.7109 54.3811 11.9687 53.9006C12.2265 53.4084 12.3555 53.1623 12.3555 53.1623H14.1484C14.4414 53.1623 14.6933 53.1857 14.9043 53.2326C15.1152 53.2678 15.2969 53.3381 15.4492 53.4436C15.6133 53.549 15.7539 53.6955 15.8711 53.883C16 54.0705 16.123 54.3107 16.2402 54.6037L24.3437 75.1877L27.4375 73.9748L28.0176 75.2229C27.7246 75.4924 27.3555 75.8147 26.9101 76.1897C26.4648 76.5529 25.9785 76.9045 25.4512 77.2443C24.9355 77.5725 24.3965 77.8537 23.834 78.0881C23.2832 78.3225 22.7558 78.4397 22.2519 78.4397C21.9238 78.4397 21.6308 78.3635 21.373 78.2111C21.1152 78.0588 20.9043 77.7951 20.7402 77.4201L18.1035 71.3029ZM12.7773 57.1877C12.2617 58.383 11.7578 59.5256 11.2656 60.6154C10.7851 61.6936 10.3281 62.7189 9.89452 63.6916C9.47264 64.6643 9.09178 65.59 8.75194 66.4689C8.42381 67.3361 8.16014 68.1447 7.96092 68.8947H17.207L12.9707 57.1877H12.7773Z" fill="white"/>
<path d="M32.4437 60.4748C32.6898 60.3693 33.0355 60.2697 33.4808 60.176C33.9262 60.0822 34.4125 60.0061 34.9398 59.9475C35.4789 59.8889 36.0238 59.842 36.5746 59.8068C37.1371 59.7717 37.6469 59.7541 38.1039 59.7541C38.35 59.7541 38.5668 59.76 38.7543 59.7717C38.9418 59.7834 39.1 59.8186 39.2289 59.8771C39.3578 59.9357 39.4515 60.0295 39.5101 60.1584C39.5805 60.2756 39.6156 60.4514 39.6156 60.6857V64.9045L41.848 61.7229C42.4105 60.9494 43.0316 60.3811 43.7113 60.0178C44.4027 59.6428 45.182 59.4553 46.0492 59.4553C46.2015 59.4553 46.3949 59.467 46.6293 59.4904C46.8754 59.5021 47.1098 59.5432 47.3324 59.6135C47.5668 59.6838 47.766 59.7834 47.9301 59.9123C48.0941 60.0412 48.1762 60.217 48.1762 60.4396C48.1762 60.4982 48.1762 60.5451 48.1762 60.5803C48.1762 60.6154 48.1644 60.6623 48.141 60.7209L47.3851 63.1994C46.9398 63.0588 46.5355 62.9592 46.1723 62.9006C45.8207 62.842 45.4926 62.8127 45.1879 62.8127C44.5551 62.8127 43.9515 62.9943 43.3773 63.3576C42.8031 63.7092 42.2758 64.1311 41.7953 64.6232C41.3148 65.1037 40.8871 65.5959 40.5121 66.0998C40.1488 66.592 39.85 66.9729 39.6156 67.2424V72.7092C39.6156 73.4357 39.6332 74.0744 39.6683 74.6252C39.7035 75.176 39.7445 75.6564 39.7914 76.0666C39.85 76.4768 39.9086 76.8225 39.9672 77.1037C40.0258 77.3732 40.0726 77.59 40.1078 77.7541C39.9437 77.8479 39.7562 77.9299 39.5453 78.0002C39.3461 78.0588 39.1293 78.1115 38.8949 78.1584C38.6723 78.217 38.4437 78.258 38.2094 78.2814C37.9867 78.3049 37.7816 78.3166 37.5941 78.3166C37.2894 78.3166 37.014 78.2873 36.768 78.2287C36.5219 78.1818 36.3051 78.0939 36.1176 77.965C35.9301 77.8361 35.7836 77.6662 35.6781 77.4553C35.5844 77.2326 35.5375 76.9572 35.5375 76.6291V61.7932H32.4437V60.4748Z" fill="white"/>
<path d="M66.9109 60.0002V60.7561C66.9109 61.2834 66.7937 61.6525 66.5594 61.8635C66.3367 62.0627 65.9734 62.1623 65.4695 62.1623H60.7937V72.4631C60.7937 73.7756 61.034 74.7717 61.5144 75.4514C61.9949 76.1193 62.7273 76.4533 63.7117 76.4533C64.1453 76.4533 64.5906 76.4006 65.0476 76.2951C65.5047 76.1897 65.9148 76.0783 66.2781 75.9611C66.6414 75.8439 66.9344 75.7443 67.157 75.6623C67.3914 75.5686 67.5027 75.5334 67.491 75.5568L68.0535 76.7697C67.6433 77.0275 67.2332 77.2678 66.823 77.4904C66.4129 77.7014 65.9793 77.883 65.5223 78.0354C65.0652 78.1994 64.573 78.3225 64.0457 78.4045C63.5183 78.4982 62.9265 78.5451 62.2703 78.5451C61.4148 78.5451 60.6414 78.4104 59.95 78.1408C59.2703 77.883 58.6902 77.508 58.2098 77.0158C57.7293 76.5236 57.3601 75.9201 57.1023 75.2053C56.8445 74.4904 56.7156 73.6818 56.7156 72.7795V62.1623H53.0769V61.3713C53.0769 60.8439 53.1883 60.4865 53.4109 60.299C53.6453 60.0998 54.0144 60.0002 54.5183 60.0002H56.7156V55.8166C56.7156 55.5002 56.7625 55.2365 56.8562 55.0256C56.9617 54.8029 57.1082 54.633 57.2957 54.5158C57.4832 54.3869 57.7 54.299 57.9461 54.2521C58.1922 54.1936 58.4676 54.1643 58.7723 54.1643C58.9598 54.1643 59.1648 54.176 59.3875 54.1994C59.6219 54.2229 59.8504 54.258 60.073 54.3049C60.3074 54.34 60.5242 54.3928 60.7234 54.4631C60.9344 54.5334 61.1219 54.6154 61.2859 54.7092C61.2508 54.8732 61.2039 55.0959 61.1453 55.3771C61.0867 55.6467 61.0281 55.9924 60.9695 56.4143C60.9226 56.8361 60.8816 57.3459 60.8465 57.9436C60.8113 58.5295 60.7937 59.215 60.7937 60.0002H66.9109Z" fill="white"/>
<path d="M80.6711 76.2424H83.7297V77.5607C83.5305 77.6662 83.2551 77.7658 82.9035 77.8596C82.5637 77.9533 82.1828 78.0354 81.7609 78.1057C81.3391 78.176 80.8996 78.2287 80.4426 78.2639C79.9855 78.299 79.5461 78.3166 79.1242 78.3166C78.7609 78.3166 78.4269 78.2932 78.1223 78.2463C77.8176 78.2111 77.548 78.1291 77.3137 78.0002C77.091 77.883 76.9152 77.7189 76.7863 77.508C76.6574 77.2854 76.593 76.9924 76.593 76.6291V61.7229H73.4992V60.4045C73.7453 60.299 74.091 60.1994 74.5363 60.1057C74.9816 60.0119 75.468 59.9357 75.9953 59.8771C76.5344 59.8186 77.0793 59.7717 77.6301 59.7365C78.1926 59.7014 78.7023 59.6838 79.1594 59.6838C79.4055 59.6838 79.6223 59.6896 79.8098 59.7014C79.9973 59.7131 80.1555 59.7482 80.2844 59.8068C80.4133 59.8654 80.507 59.9592 80.5656 60.0881C80.6359 60.2053 80.6711 60.3811 80.6711 60.6154V76.2424ZM76.1711 53.883C76.1711 53.5549 76.2355 53.2443 76.3644 52.9514C76.4933 52.6584 76.6691 52.4064 76.8918 52.1955C77.1144 51.9846 77.3781 51.8205 77.6828 51.7033C77.9875 51.5744 78.3098 51.51 78.6496 51.51C78.9894 51.51 79.3117 51.5744 79.6164 51.7033C79.9211 51.8205 80.1848 51.9846 80.4074 52.1955C80.6301 52.4064 80.8058 52.6584 80.9348 52.9514C81.0637 53.2443 81.1281 53.5549 81.1281 53.883C81.1281 54.2111 81.0637 54.5158 80.9348 54.7971C80.8058 55.0783 80.6301 55.3244 80.4074 55.5354C80.1848 55.7463 79.9211 55.9162 79.6164 56.0451C79.3117 56.1623 78.9894 56.2209 78.6496 56.2209C78.3098 56.2209 77.9875 56.1623 77.6828 56.0451C77.3781 55.9162 77.1144 55.7463 76.8918 55.5354C76.6691 55.3244 76.4933 55.0783 76.3644 54.7971C76.2355 54.5158 76.1711 54.2111 76.1711 53.883Z" fill="white"/>
<path d="M97.6656 62.1623V78.2814C97.6656 79.7111 97.4195 80.9533 96.9273 82.008C96.4469 83.0627 95.8023 83.9299 94.9937 84.6096C94.1969 85.301 93.2887 85.8107 92.2691 86.1389C91.2496 86.4787 90.2066 86.6486 89.1402 86.6486C88.9058 86.6486 88.5953 86.6369 88.2086 86.6135C87.8219 86.59 87.4469 86.5432 87.0836 86.4729C86.7086 86.4025 86.3863 86.2971 86.1168 86.1564C85.8473 86.0158 85.7125 85.8283 85.7125 85.5939C85.7125 85.5354 85.7183 85.4826 85.7301 85.4357C85.7418 85.3889 85.7594 85.3361 85.7828 85.2775L86.943 82.6057C87.3765 82.7932 87.816 82.9807 88.2613 83.1682C88.7066 83.3557 89.1344 83.5256 89.5445 83.6779C89.9547 83.8303 90.3414 83.9533 90.7047 84.0471C91.0797 84.1408 91.4078 84.1877 91.689 84.1877C92.1812 84.1877 92.5621 84.0002 92.8316 83.6252C93.1012 83.2619 93.2945 82.7932 93.4117 82.2189C93.5289 81.6564 93.5933 81.0295 93.6051 80.3381C93.6285 79.6467 93.6402 78.9729 93.6402 78.3166L93.6051 62.1623H89.4215V61.3713C89.4215 60.8439 89.5328 60.4865 89.7555 60.299C89.9898 60.0998 90.359 60.0002 90.8629 60.0002H93.6051V58.84C93.6051 57.4338 93.8219 56.2385 94.2555 55.2541C94.7008 54.258 95.2926 53.4494 96.0308 52.8283C96.7691 52.1955 97.6129 51.7326 98.5621 51.4396C99.523 51.1467 100.519 51.0002 101.55 51.0002C101.773 51.0002 102.095 51.0119 102.517 51.0354C102.951 51.0588 103.379 51.1174 103.8 51.2111C104.222 51.2932 104.586 51.4279 104.89 51.6154C105.207 51.7912 105.365 52.0314 105.365 52.3361C105.365 52.4299 105.347 52.5119 105.312 52.5822C105.289 52.6525 105.248 52.7346 105.189 52.8283L103.888 55.1838C103.443 54.9494 103.015 54.715 102.605 54.4807C102.195 54.2463 101.802 54.0412 101.427 53.8654C101.052 53.6779 100.689 53.5256 100.337 53.4084C99.9976 53.2912 99.6812 53.2326 99.3883 53.2326C98.9898 53.2326 98.6734 53.3322 98.439 53.5314C98.2164 53.7307 98.0465 54.0178 97.9293 54.3928C97.8121 54.7678 97.7359 55.2307 97.7008 55.7814C97.6773 56.3205 97.6656 56.9357 97.6656 57.6271V60.0002H102.711V60.7561C102.711 61.2834 102.593 61.6525 102.359 61.8635C102.136 62.0627 101.773 62.1623 101.269 62.1623H97.6656Z" fill="white"/>
<path d="M116.453 76.2424H119.512V77.5607C119.312 77.6662 119.037 77.7658 118.686 77.8596C118.346 77.9533 117.965 78.0354 117.543 78.1057C117.121 78.176 116.682 78.2287 116.225 78.2639C115.768 78.299 115.328 78.3166 114.906 78.3166C114.543 78.3166 114.209 78.2932 113.904 78.2463C113.6 78.2111 113.33 78.1291 113.096 78.0002C112.873 77.883 112.697 77.7189 112.568 77.508C112.439 77.2854 112.375 76.9924 112.375 76.6291V61.7229H109.281V60.4045C109.527 60.299 109.873 60.1994 110.318 60.1057C110.764 60.0119 111.25 59.9357 111.777 59.8771C112.316 59.8186 112.861 59.7717 113.412 59.7365C113.975 59.7014 114.484 59.6838 114.941 59.6838C115.187 59.6838 115.404 59.6896 115.592 59.7014C115.779 59.7131 115.937 59.7482 116.066 59.8068C116.195 59.8654 116.289 59.9592 116.348 60.0881C116.418 60.2053 116.453 60.3811 116.453 60.6154V76.2424ZM111.953 53.883C111.953 53.5549 112.018 53.2443 112.146 52.9514C112.275 52.6584 112.451 52.4064 112.674 52.1955C112.896 51.9846 113.16 51.8205 113.465 51.7033C113.77 51.5744 114.092 51.51 114.432 51.51C114.771 51.51 115.094 51.5744 115.398 51.7033C115.703 51.8205 115.967 51.9846 116.189 52.1955C116.412 52.4064 116.588 52.6584 116.717 52.9514C116.846 53.2443 116.91 53.5549 116.91 53.883C116.91 54.2111 116.846 54.5158 116.717 54.7971C116.588 55.0783 116.412 55.3244 116.189 55.5354C115.967 55.7463 115.703 55.9162 115.398 56.0451C115.094 56.1623 114.771 56.2209 114.432 56.2209C114.092 56.2209 113.77 56.1623 113.465 56.0451C113.16 55.9162 112.896 55.7463 112.674 55.5354C112.451 55.3244 112.275 55.0783 112.146 54.7971C112.018 54.5158 111.953 54.2111 111.953 53.883Z" fill="white"/>
<path d="M124.87 53.0568V51.7209C125.116 51.6154 125.461 51.5158 125.907 51.4221C126.364 51.3283 126.856 51.2521 127.383 51.1936C127.911 51.135 128.45 51.0881 129 51.0529C129.563 51.0178 130.073 51.0002 130.53 51.0002C130.776 51.0002 130.993 51.0061 131.18 51.0178C131.368 51.0295 131.526 51.0646 131.655 51.1232C131.784 51.1818 131.877 51.2756 131.936 51.4045C132.006 51.5217 132.041 51.6975 132.041 51.9318V72.7092C132.041 74.1506 132.106 75.2697 132.235 76.0666C132.364 76.8635 132.469 77.426 132.551 77.7541C132.387 77.8479 132.2 77.9299 131.989 78.0002C131.778 78.0588 131.555 78.1115 131.321 78.1584C131.098 78.217 130.87 78.258 130.635 78.2814C130.412 78.3049 130.207 78.3166 130.02 78.3166C129.727 78.3166 129.452 78.2873 129.194 78.2287C128.948 78.1818 128.731 78.0939 128.543 77.965C128.368 77.8361 128.227 77.6662 128.121 77.4553C128.028 77.2326 127.981 76.9572 127.981 76.6291V53.0568H124.87ZM143.239 60.7561C143.239 61.1311 143.121 61.5295 142.887 61.9514C142.664 62.3732 142.36 62.8068 141.973 63.2521C141.598 63.6857 141.164 64.1252 140.672 64.5705C140.192 65.0158 139.688 65.4494 139.161 65.8713C138.645 66.2814 138.135 66.6799 137.631 67.0666C137.127 67.4416 136.67 67.7873 136.26 68.1037L141.832 75.2229L144.434 73.5354L145.137 74.6076C144.926 75.0061 144.621 75.4279 144.223 75.8732C143.836 76.3068 143.403 76.7053 142.922 77.0686C142.454 77.4318 141.967 77.7307 141.463 77.965C140.959 78.1994 140.496 78.3166 140.075 78.3166C139.805 78.3166 139.536 78.2522 139.266 78.1232C139.008 77.9943 138.774 77.7834 138.563 77.4904L132.797 70.1076C132.75 70.049 132.709 69.9846 132.674 69.9143C132.592 69.7736 132.551 69.6154 132.551 69.4397C132.551 69.3107 132.58 69.1818 132.639 69.0529C132.698 68.9123 132.797 68.7775 132.938 68.6486C133.184 68.426 133.5 68.1564 133.887 67.84C134.274 67.5236 134.678 67.1779 135.1 66.8029C135.534 66.4279 135.967 66.0295 136.401 65.6076C136.834 65.174 137.221 64.7404 137.561 64.3068C137.912 63.8732 138.194 63.4396 138.405 63.0061C138.627 62.5725 138.739 62.1564 138.739 61.758C138.739 61.4416 138.692 61.1662 138.598 60.9318C139.196 60.6389 139.67 60.3986 140.022 60.2111C140.385 60.0119 140.678 59.8596 140.901 59.7541C141.123 59.6369 141.317 59.5607 141.481 59.5256C141.645 59.4787 141.832 59.4553 142.043 59.4553C142.442 59.4553 142.741 59.5842 142.94 59.842C143.139 60.0881 143.239 60.3928 143.239 60.7561Z" fill="white"/>
<path d="M163.274 76.4533C163.274 76.4533 163.192 76.5061 163.028 76.6115C162.876 76.7053 162.659 76.8283 162.378 76.9807C162.108 77.133 161.786 77.3029 161.411 77.4904C161.048 77.6662 160.643 77.8361 160.198 78.0002C159.764 78.1525 159.307 78.2814 158.827 78.3869C158.358 78.4924 157.884 78.5451 157.403 78.5451C156.641 78.5451 155.915 78.4397 155.223 78.2287C154.532 78.0295 153.923 77.7131 153.395 77.2795C152.88 76.8459 152.464 76.301 152.147 75.6447C151.843 74.9885 151.69 74.2033 151.69 73.2893C151.69 72.2814 151.913 71.426 152.358 70.7229C152.815 70.0197 153.442 69.4514 154.239 69.0178C155.048 68.5725 156.009 68.2561 157.122 68.0686C158.235 67.8693 159.46 67.7697 160.796 67.7697H163.274V66.4514C163.274 65.7717 163.245 65.1213 163.186 64.5002C163.139 63.8674 163.016 63.3166 162.817 62.8479C162.63 62.3791 162.348 62.0041 161.973 61.7229C161.61 61.4416 161.118 61.301 160.497 61.301C159.899 61.301 159.302 61.4123 158.704 61.635C158.106 61.8459 157.52 62.1154 156.946 62.4436C156.372 62.7717 155.821 63.135 155.294 63.5334C154.766 63.9201 154.286 64.2893 153.852 64.6408L152.411 62.7072C152.235 62.4963 152.147 62.2795 152.147 62.0568C152.147 61.6701 152.387 61.3186 152.868 61.0021C153.36 60.6857 153.97 60.4162 154.696 60.1936C155.434 59.9592 156.225 59.7775 157.069 59.6486C157.913 59.5197 158.698 59.4553 159.425 59.4553C160.503 59.4553 161.522 59.5842 162.483 59.842C163.444 60.0998 164.282 60.51 164.997 61.0725C165.723 61.6232 166.298 62.3439 166.72 63.2346C167.141 64.1135 167.352 65.1857 167.352 66.4514V76.2424H170.411V77.5607C170.212 77.6662 169.936 77.7658 169.585 77.8596C169.245 77.9533 168.864 78.0354 168.442 78.1057C168.02 78.176 167.575 78.2287 167.106 78.2639C166.649 78.299 166.21 78.3166 165.788 78.3166C165.507 78.3166 165.22 78.299 164.927 78.2639C164.634 78.2287 164.364 78.1467 164.118 78.0178C163.884 77.9006 163.684 77.7365 163.52 77.5256C163.368 77.3029 163.286 77.0041 163.274 76.6291V76.4533ZM158.634 75.9436C159.044 75.9436 159.512 75.8908 160.04 75.7854C160.579 75.6682 161.089 75.5451 161.569 75.4162C162.132 75.2639 162.7 75.0822 163.274 74.8713V69.9318H160.321C159.876 69.9318 159.384 69.9729 158.845 70.0549C158.317 70.1369 157.819 70.2951 157.35 70.5295C156.893 70.7522 156.507 71.0686 156.19 71.4787C155.874 71.8889 155.716 72.4279 155.716 73.0959C155.716 73.5178 155.78 73.9045 155.909 74.2561C156.038 74.5959 156.225 74.8947 156.471 75.1525C156.718 75.3986 157.022 75.592 157.386 75.7326C157.749 75.8732 158.165 75.9436 158.634 75.9436Z" fill="white"/>
<path d="M0.747986 5.45619V3.80019H11.656V5.45619L8.70399 6.06819L14.824 23.3482L20.584 6.24819L17.74 5.45619V3.80019H26.416V5.45619L23.104 6.24819L15.184 29.2522H12.34L3.95199 6.24819L0.747986 5.45619Z" fill="white"/>
<path d="M38.1787 10.4602C40.8187 10.4602 43.0027 11.3602 44.7307 13.1602C46.4587 14.9362 47.3227 17.2042 47.3227 19.9642C47.3227 22.7482 46.4587 25.0402 44.7307 26.8402C43.0027 28.6402 40.8187 29.5402 38.1787 29.5402C35.5387 29.5402 33.3427 28.6402 31.5907 26.8402C29.8627 25.0402 28.9987 22.7482 28.9987 19.9642C28.9987 17.2042 29.8627 14.9362 31.5907 13.1602C33.3427 11.3602 35.5387 10.4602 38.1787 10.4602ZM38.1787 12.4402C36.6907 12.4402 35.5387 13.1242 34.7227 14.4922C33.9307 15.8602 33.5347 17.6842 33.5347 19.9642C33.5347 22.2442 33.9307 24.0802 34.7227 25.4722C35.5387 26.8642 36.6907 27.5602 38.1787 27.5602C39.6667 27.5602 40.8067 26.8642 41.5987 25.4722C42.4147 24.0562 42.8227 22.2202 42.8227 19.9642C42.8227 17.6842 42.4147 15.8602 41.5987 14.4922C40.8067 13.1242 39.6667 12.4402 38.1787 12.4402Z" fill="white"/>
<path d="M53.0068 29.0002V27.4522L56.0668 26.7322V3.11619H53.0068V1.56819L58.7668 0.200195H60.3868V26.7322L63.4468 27.4522V29.0002H53.0068Z" fill="white"/>
<path d="M68.5599 29.0002V27.4522L71.6199 26.7322V3.11619H68.5599V1.56819L74.3199 0.200195H75.9399V26.7322L78.2799 27.4522V29.0002H68.5599ZM76.5519 20.3242L83.1399 13.1602L80.7279 12.5482V11.0002H88.8639V12.5482L85.6959 13.2682L80.6919 18.7402L86.6319 26.7682L89.5839 27.4522V29.0002H82.8879L76.5519 20.3242Z" fill="white"/>
<path d="M94.3435 29.0002V27.4522L97.4035 26.7322V3.11619H94.3435V1.56819L100.103 0.200195H101.723V12.7282C103.547 11.2162 105.479 10.4602 107.519 10.4602C109.391 10.4602 110.867 10.9882 111.947 12.0442C113.027 13.1002 113.567 14.4562 113.567 16.1122V26.7322L116.627 27.4522V29.0002H106.943V27.4522L109.283 26.7322V16.7602C109.283 14.3122 108.239 13.0882 106.151 13.0882C104.735 13.0882 103.259 13.6402 101.723 14.7442V26.7322L104.063 27.4522V29.0002H94.3435Z" fill="white"/>
<path d="M131.364 10.4602C134.004 10.4602 136.188 11.3602 137.916 13.1602C139.644 14.9362 140.508 17.2042 140.508 19.9642C140.508 22.7482 139.644 25.0402 137.916 26.8402C136.188 28.6402 134.004 29.5402 131.364 29.5402C128.724 29.5402 126.528 28.6402 124.776 26.8402C123.048 25.0402 122.184 22.7482 122.184 19.9642C122.184 17.2042 123.048 14.9362 124.776 13.1602C126.528 11.3602 128.724 10.4602 131.364 10.4602ZM131.364 12.4402C129.876 12.4402 128.724 13.1242 127.908 14.4922C127.116 15.8602 126.72 17.6842 126.72 19.9642C126.72 22.2442 127.116 24.0802 127.908 25.4722C128.724 26.8642 129.876 27.5602 131.364 27.5602C132.852 27.5602 133.992 26.8642 134.784 25.4722C135.6 24.0562 136.008 22.2202 136.008 19.9642C136.008 17.6842 135.6 15.8602 134.784 14.4922C133.992 13.1242 132.852 12.4402 131.364 12.4402Z" fill="white"/>
<path d="M145.227 12.5482V11.0002H154.803V12.5482L152.247 13.1242L156.711 23.6722L160.887 13.2322L158.367 12.5482V11.0002H165.819V12.5482L162.939 13.3402L156.639 29.2522H154.479L147.639 13.2322L145.227 12.5482Z" fill="white"/>
<path d="M4.02399 196.44C2.83599 196.44 2.43999 196.836 2.43999 198.024V220.416C2.43999 221.604 2.83599 222 4.02399 222H9.20799C10.396 222 10.792 221.604 10.792 220.416V214.944H14.356C20.26 214.944 23.968 211.632 23.968 205.764C23.968 199.86 20.188 196.44 14.284 196.44H4.02399ZM10.792 207.744V203.64H13.276C16.012 203.424 16.012 207.96 13.276 207.744H10.792Z" fill="white"/>
<path d="M29.1343 206.484C28.6663 207.42 28.9183 208.104 29.9263 208.536L33.0943 209.832C34.4983 210.264 34.7503 210.12 35.2183 209.508L35.3983 209.256C35.6503 208.932 35.6143 209.004 35.8663 208.752C36.1543 208.464 36.4423 208.356 36.9823 208.356C37.8103 208.356 38.2423 208.716 38.2423 209.4V210.444H37.5223C34.2103 210.444 31.8703 210.876 30.5023 211.704C29.1343 212.568 28.4503 214.188 28.4503 216.528C28.4503 218.688 29.0983 220.236 30.3583 221.136C31.6183 222.072 33.9223 222.54 37.3423 222.54C40.6903 222.54 43.1383 222.18 44.7223 221.496C45.8743 221.028 46.1263 220.632 46.1263 219.228V210.696C46.1263 205.548 43.6783 202.74 37.4503 202.74C33.2383 202.74 30.4663 204 29.1343 206.484ZM38.2423 217.464C38.2423 217.536 38.2063 217.572 38.1343 217.572C37.9543 217.608 37.6663 217.608 37.3063 217.608C36.4783 217.608 36.0463 217.248 36.0463 216.492C36.0463 215.7 36.4783 215.304 37.3783 215.304H38.2423V217.464Z" fill="white"/>
<path d="M53.2976 204.144C52.0376 204.612 51.7496 205.08 51.7496 206.376V220.56C51.7496 221.604 52.0736 222 53.1896 222H58.2296C59.3456 222 59.6696 221.604 59.6696 220.56V210.012C59.6696 209.94 59.7056 209.904 59.7776 209.868C59.9216 209.832 60.1376 209.832 60.4616 209.832C61.4336 209.832 61.7576 210.156 61.7576 211.164V220.56C61.7576 221.604 62.0816 222 63.1976 222H68.2376C69.3536 222 69.6776 221.604 69.6776 220.56V210.804C69.6776 205.62 66.9056 202.74 61.2536 202.74C58.3016 202.74 55.6376 203.208 53.2976 204.144Z" fill="white"/>
<path d="M78.3449 198.96C77.3009 198.96 76.9049 199.356 76.9049 200.4V203.28H75.6809C74.6369 203.28 74.2769 203.604 74.2769 204.72V207.924C74.2769 209.04 74.6369 209.364 75.6809 209.364H76.9049V214.62C76.9049 220.272 80.0009 222.468 86.4809 222.468C87.5969 222.468 87.9569 222.108 87.9569 220.992V217.14C87.9569 216.024 87.5969 215.664 86.4809 215.664C85.3649 215.664 84.8249 215.088 84.8249 213.972V209.364H86.5529C87.5969 209.364 87.9569 208.968 87.9569 207.924V204.72C87.9569 203.676 87.5969 203.28 86.5529 203.28H84.8249V200.4C84.8249 199.356 84.4289 198.96 83.3849 198.96H78.3449Z" fill="white"/>
<path d="M92.9372 214.368C92.9372 219.516 96.2492 222.54 102.189 222.54C108.237 222.54 111.477 219.516 111.477 214.368V210.912C111.477 205.764 108.237 202.74 102.189 202.74C96.2492 202.74 92.9372 205.764 92.9372 210.912V214.368ZM103.593 214.692C103.593 215.448 103.125 215.844 102.189 215.844C101.289 215.844 100.821 215.448 100.821 214.692V210.588C100.821 209.796 101.289 209.4 102.189 209.4C103.125 209.4 103.593 209.796 103.593 210.588V214.692Z" fill="white"/>
<path d="M118.484 204.144C117.224 204.612 116.936 205.08 116.936 206.376V220.56C116.936 221.604 117.26 222 118.376 222H123.416C124.532 222 124.856 221.604 124.856 220.56V210.012C124.856 209.94 124.892 209.904 124.964 209.868C125.108 209.832 125.324 209.832 125.648 209.832C126.62 209.832 126.944 210.156 126.944 211.164V220.56C126.944 221.604 127.268 222 128.384 222H133.424C134.54 222 134.864 221.604 134.864 220.56V210.804C134.864 205.62 132.092 202.74 126.44 202.74C123.488 202.74 120.824 203.208 118.484 204.144Z" fill="white"/>
<path d="M151.779 196.44C150.591 196.44 150.195 196.836 150.195 198.024V220.416C150.195 221.604 150.591 222 151.779 222H167.727C168.915 222 169.311 221.604 169.311 220.416V216.348C169.311 215.16 168.915 214.764 167.727 214.764H158.547V212.712H165.459C166.647 212.712 167.043 212.316 167.043 211.128V207.096C167.043 205.908 166.647 205.512 165.459 205.512H158.547V203.64H167.475C168.663 203.64 169.059 203.244 169.059 202.056V198.024C169.059 196.836 168.663 196.44 167.475 196.44H151.779Z" fill="white"/>
<path d="M188.491 203.28C186.907 203.28 186.583 203.388 186.007 204.504L184.603 207.384L183.163 204.504C182.623 203.46 182.119 203.28 180.499 203.28H175.891C174.415 203.28 174.019 203.856 174.775 204.972L179.707 212.388L174.523 220.308C173.695 221.46 173.911 222 175.603 222H180.283C181.903 222 182.335 221.892 182.875 220.776L184.531 217.248L186.223 220.776C186.763 221.892 187.123 222 188.815 222H193.531C195.115 222 195.331 221.496 194.575 220.308L189.463 212.352L194.251 204.972C195.007 203.856 194.683 203.28 193.279 203.28H188.491Z" fill="white"/>
<path d="M202.32 198.96C201.276 198.96 200.88 199.356 200.88 200.4V203.28H199.656C198.612 203.28 198.252 203.604 198.252 204.72V207.924C198.252 209.04 198.612 209.364 199.656 209.364H200.88V214.62C200.88 220.272 203.976 222.468 210.456 222.468C211.572 222.468 211.932 222.108 211.932 220.992V217.14C211.932 216.024 211.572 215.664 210.456 215.664C209.34 215.664 208.8 215.088 208.8 213.972V209.364H210.528C211.572 209.364 211.932 208.968 211.932 207.924V204.72C211.932 203.676 211.572 203.28 210.528 203.28H208.8V200.4C208.8 199.356 208.404 198.96 207.36 198.96H202.32Z" fill="white"/>
<path d="M226.524 202.74C223.176 202.848 220.62 203.244 218.856 203.928C217.596 204.396 217.308 204.9 217.308 206.196V220.56C217.308 221.604 217.704 222 218.748 222H223.788C224.832 222 225.228 221.604 225.228 220.56V209.724C225.228 209.58 225.3 209.508 225.408 209.508C225.588 209.472 225.84 209.472 226.2 209.472H227.604C228.648 209.472 229.044 209.076 229.044 208.032V204.18C229.044 203.064 228.648 202.74 227.604 202.74H226.524Z" fill="white"/>
<path d="M234.095 206.484C233.627 207.42 233.879 208.104 234.887 208.536L238.055 209.832C239.459 210.264 239.711 210.12 240.179 209.508L240.359 209.256C240.611 208.932 240.575 209.004 240.827 208.752C241.115 208.464 241.403 208.356 241.943 208.356C242.771 208.356 243.203 208.716 243.203 209.4V210.444H242.483C239.171 210.444 236.831 210.876 235.463 211.704C234.095 212.568 233.411 214.188 233.411 216.528C233.411 218.688 234.059 220.236 235.319 221.136C236.579 222.072 238.883 222.54 242.303 222.54C245.651 222.54 248.099 222.18 249.683 221.496C250.835 221.028 251.087 220.632 251.087 219.228V210.696C251.087 205.548 248.639 202.74 242.411 202.74C238.199 202.74 235.427 204 234.095 206.484ZM243.203 217.464C243.203 217.536 243.167 217.572 243.095 217.572C242.915 217.608 242.627 217.608 242.267 217.608C241.439 217.608 241.007 217.248 241.007 216.492C241.007 215.7 241.439 215.304 242.339 215.304H243.203V217.464Z" fill="white"/>
<path d="M258.618 196.404C257.43 196.404 257.035 196.8 257.035 197.988V220.416C257.035 221.604 257.43 222 258.618 222H269.707C272.443 222 274.675 221.388 276.367 220.128C278.059 218.868 278.923 217.104 278.923 214.836C278.923 211.848 277.663 209.796 275.143 208.68V208.5C276.943 207.276 277.843 205.512 277.843 203.244C277.843 198.816 274.783 196.404 269.562 196.404H258.618ZM269.383 204.324C269.383 205.44 268.807 205.836 267.547 205.836H265.387V202.776H267.547C268.771 202.776 269.383 203.28 269.383 204.324ZM270.211 213.9C270.211 215.16 269.599 215.592 268.267 215.592H265.387V212.28H268.267C269.563 212.28 270.211 212.82 270.211 213.9Z" fill="white"/>
<path d="M292.138 196.8C292.138 195.756 291.814 195.36 290.698 195.36H285.658C284.542 195.36 284.218 195.756 284.218 196.8V220.56C284.218 221.604 284.542 222 285.658 222H290.698C291.814 222 292.138 221.604 292.138 220.56V196.8Z" fill="white"/>
<path d="M298.227 206.484C297.759 207.42 298.011 208.104 299.019 208.536L302.187 209.832C303.591 210.264 303.843 210.12 304.311 209.508L304.491 209.256C304.743 208.932 304.707 209.004 304.959 208.752C305.247 208.464 305.535 208.356 306.075 208.356C306.903 208.356 307.335 208.716 307.335 209.4V210.444H306.615C303.303 210.444 300.963 210.876 299.595 211.704C298.227 212.568 297.543 214.188 297.543 216.528C297.543 218.688 298.191 220.236 299.451 221.136C300.711 222.072 303.015 222.54 306.435 222.54C309.783 222.54 312.231 222.18 313.815 221.496C314.967 221.028 315.219 220.632 315.219 219.228V210.696C315.219 205.548 312.771 202.74 306.543 202.74C302.331 202.74 299.559 204 298.227 206.484ZM307.335 217.464C307.335 217.536 307.299 217.572 307.227 217.572C307.047 217.608 306.759 217.608 306.399 217.608C305.571 217.608 305.139 217.248 305.139 216.492C305.139 215.7 305.571 215.304 306.471 215.304H307.335V217.464Z" fill="white"/>
<path d="M320.483 214.296C320.483 219.588 323.327 222.54 329.339 222.54C333.803 222.54 336.755 220.812 338.195 217.392C338.627 216.312 338.303 215.628 337.223 215.304L332.723 213.972C331.571 213.576 331.103 213.792 330.671 214.908C330.275 215.88 330.023 216.024 329.339 216.024C328.691 216.024 328.367 215.592 328.367 214.764V210.516C328.367 209.652 328.691 209.22 329.339 209.22C329.951 209.22 330.275 209.436 330.671 210.408C331.103 211.524 331.571 211.776 332.723 211.38L337.079 209.94C338.195 209.544 338.447 209.076 338.051 207.96C336.935 204.828 334.163 202.74 329.735 202.74C323.543 202.74 320.483 205.764 320.483 210.948V214.296Z" fill="white"/>
<path d="M358.837 213.252L358.477 212.568L361.825 205.224C362.437 203.928 361.969 203.28 360.493 203.28H356.533C354.949 203.28 354.445 203.604 353.905 204.792L351.889 209.436H351.313V196.8C351.313 195.756 350.953 195.36 349.909 195.36H344.833C343.789 195.36 343.429 195.684 343.429 196.8V220.56C343.429 221.676 343.789 222 344.833 222H349.909C350.953 222 351.313 221.604 351.313 220.56V215.52H351.421C351.925 215.52 352.249 215.772 352.429 216.276L353.797 220.524C354.193 221.712 354.805 222 356.641 222H360.745C362.329 222 362.761 221.316 362.077 219.984L358.837 213.252Z" fill="white"/>
</svg>
