<svg width="1009" height="299" viewBox="0 0 1009 299" fill="none" xmlns="http://www.w3.org/2000/svg">
<path d="M83.5 205C83.5 268.25 107 297.5 149.5 297.5C178.5 297.5 197 289.75 197 289.75V203.25H141.25V207H193.5V287C184.5 290 168.5 293.75 150.25 293.75C114.5 293.75 87.25 273.25 87.25 205C87.25 136.75 115 116.25 150.25 116.25C173.75 116.25 192.75 123.5 192.75 123.5C193.75 122.75 194.25 121.75 194.25 120.25C194.25 120.25 177.25 112.5 149.5 112.5C107.25 112.5 83.5 143.25 83.5 205Z" fill="white"/>
<path d="M263.809 117.5C255.559 117.5 252.809 120.25 252.809 128.5V284C252.809 292.25 255.559 295 263.809 295H299.809C308.059 295 310.809 292.25 310.809 284V246H335.559C376.559 246 402.309 223 402.309 182.25C402.309 141.25 376.059 117.5 335.059 117.5H263.809ZM310.809 196V167.5H328.059C347.059 166 347.059 197.5 328.059 196H310.809Z" fill="white"/>
<path d="M495.133 243.5C496.883 240 497.633 236 497.633 231.25C497.633 228.25 497.383 225.75 496.633 223.75C495.883 221.75 495.133 219.5 493.883 217.25C493.383 216 493.133 215 492.883 214.25C492.633 213.5 492.633 212.75 493.133 212.25C493.633 211.75 494.383 211.75 495.383 212C496.383 212.25 497.883 213 500.133 214.25C508.133 219 515.883 221.5 523.133 221.5C527.133 221.5 530.633 221 533.883 219.75C536.883 218.5 540.633 216.75 544.883 214.5C546.633 213.5 548.133 212.75 549.383 212C550.633 211.5 551.633 211.5 552.133 212C552.633 212.5 552.883 213.25 552.883 214.5C552.883 215.5 552.883 216.5 552.633 217.5C552.383 218.5 552.383 219.5 552.133 220.25C551.383 223.5 551.133 226 551.133 227.75C551.133 232 552.883 234 556.633 234C559.883 234 563.383 232.75 567.383 230.25C571.383 227.75 574.883 224.25 577.883 220C580.633 215.75 582.133 211.25 582.133 206.25C582.133 201.25 580.633 196.5 577.883 192.25C574.883 188 571.383 184.75 567.383 182.25C563.383 179.75 559.883 178.5 556.633 178.5C554.883 178.5 553.883 178.75 553.133 179.5C551.883 180.5 551.383 182.25 551.383 185C551.383 185.25 551.633 187.75 552.133 192.25C552.633 194.5 552.883 196.25 552.883 198C552.883 199.75 552.383 200.75 551.133 200.75C550.383 200.75 549.133 200.25 547.633 199.5C546.133 198.75 545.133 198.25 544.883 198C541.133 195.75 537.383 194 534.133 192.75C530.883 191.5 527.133 191 523.133 191C515.883 191 508.133 193.5 500.133 198.25C497.883 199.5 496.383 200.25 495.383 200.5C494.383 200.75 493.633 200.75 493.133 200.25C492.633 199.75 492.633 199 492.883 198.25C493.133 197.5 493.383 196.5 493.883 195.25C495.133 192.5 496.133 190 496.883 187.75C497.633 185.5 497.883 182.5 497.883 179C497.883 174 496.883 169 494.883 164C492.633 159.25 489.883 153.5 486.133 147.25C483.883 143 482.133 140 481.383 137.75C480.633 135.75 480.633 134.5 481.383 133.75C482.133 133 483.383 133.25 485.133 134C486.633 134.75 488.883 136.25 491.633 138.25C497.383 142 502.383 144.75 506.883 146.75C511.133 149 516.133 150 521.383 150C526.883 150 531.883 148.75 536.383 146.5C540.633 144.25 545.133 141 549.633 137.25C553.883 133.75 556.883 132 558.633 132C559.633 132 560.383 132.25 560.633 133C560.883 133.75 561.133 134.75 561.133 136.25C561.133 138 560.383 142.25 559.133 148.5C557.883 154.5 557.133 158.75 557.133 161C557.133 163.5 557.633 165 558.633 165.25C559.133 165.5 560.133 165.75 561.633 165.75C564.883 165.75 569.133 164.5 573.883 162.25C578.633 160 582.633 157 586.133 153.25C589.633 149.5 591.383 146 591.383 142.25C591.383 134 585.133 127.5 572.633 123.25C560.133 119 543.883 117 523.633 117C506.133 117 491.383 118.5 479.383 121.75C467.383 125 458.383 129 452.633 133.5C446.883 138.25 443.883 142.5 443.883 146.5C443.883 149.25 445.133 151 447.383 151.75C449.633 152.5 454.633 153 462.133 153C464.383 153 465.883 153.25 466.883 153.5C467.633 154 468.133 154.75 468.133 155.75C468.133 156.5 467.633 158 466.633 159.75C463.383 165.5 461.133 170.25 459.883 174C458.383 177.75 457.633 181.75 457.633 185.5C457.633 190.75 459.383 195.25 462.883 199C466.133 202.75 470.883 205 477.133 206.25C470.883 207.5 466.133 210 462.883 213.75C459.383 217.75 457.633 222.5 457.633 228.25C457.633 233 458.383 237.5 459.883 241.5C461.133 245.5 462.883 249.75 465.133 254C465.383 254.75 465.883 255.5 466.383 256.5C466.883 257.75 467.383 259 467.883 260.25C468.133 261.75 468.133 262.75 467.883 263.5C467.383 264.25 466.383 264.5 465.133 264.5C464.133 264.5 462.133 264.25 459.133 263.5C455.883 262.75 453.133 262.5 451.133 262.5C448.383 262.5 446.633 263.25 445.383 264.5C444.633 265.25 444.133 266.75 444.133 268.5C444.133 271.75 445.633 275.5 448.883 279.75C451.883 284 455.883 287.75 461.133 290.75C466.133 294 471.633 295.5 477.383 295.5C483.383 295.5 488.883 294 494.133 290.75C499.133 287.75 503.133 284 506.133 279.75C509.133 275.5 510.633 271.75 510.633 268.5C510.633 266.75 510.133 265.25 509.383 264.5C508.133 263.25 506.133 262.5 503.383 262.5C501.383 262.5 498.383 262.75 494.383 263.5C490.633 264.25 488.383 264.5 487.383 264.5C485.133 264.5 483.883 263.75 483.883 262.5C483.883 261.75 484.383 260.5 485.133 259.25C485.883 258 486.883 256.75 487.883 255.5C490.883 251.25 493.383 247.25 495.133 243.5Z" fill="white"/>
<path d="M740.196 248.491H665.733C664.513 252.804 663.577 257.158 662.926 261.553C662.275 265.866 661.949 270.179 661.949 274.492C661.949 277.503 662.112 280.433 662.438 283.281C662.763 286.13 663.292 288.856 664.024 291.46L644.981 296.709C643.028 297.197 641.197 297.441 639.488 297.441C634.524 297.441 632.042 295.041 632.042 290.239C632.042 289.832 632.083 289.507 632.164 289.263C632.245 289.019 632.286 288.693 632.286 288.286C633.019 282.183 634.524 275.143 636.803 267.168C639.163 259.111 642.011 250.607 645.348 241.655C648.684 232.703 652.346 223.548 656.334 214.189C660.322 204.831 664.35 195.757 668.419 186.968C672.488 178.097 676.435 169.756 680.26 161.943C684.085 154.131 687.462 147.295 690.392 141.436C693.403 135.576 695.803 130.978 697.594 127.642C699.384 124.224 700.279 122.515 700.279 122.515H712.73C714.765 122.515 716.515 122.677 717.979 123.003C719.444 123.247 720.706 123.735 721.764 124.468C722.903 125.2 723.88 126.217 724.693 127.52C725.589 128.822 726.443 130.49 727.257 132.524L783.531 275.469L805.016 267.046L809.044 275.713C807.009 277.585 804.446 279.823 801.354 282.427C798.261 284.95 794.884 287.391 791.222 289.751C787.641 292.03 783.897 293.983 779.991 295.61C776.166 297.238 772.504 298.052 769.005 298.052C766.726 298.052 764.692 297.523 762.901 296.465C761.111 295.407 759.646 293.576 758.507 290.972L740.196 248.491ZM703.209 150.469C699.628 158.77 696.129 166.704 692.711 174.272C689.374 181.759 686.201 188.88 683.189 195.635C680.26 202.389 677.615 208.818 675.255 214.922C672.976 220.944 671.145 226.559 669.762 231.768H733.971L704.552 150.469H703.209Z" fill="white"/>
<path d="M829.975 131.5V120H905.725V131.5L885.225 135.75L927.725 255.75L967.725 137L947.975 131.5V120H1008.22V131.5L985.225 137L930.225 296.75H910.475L852.225 137L829.975 131.5Z" fill="white"/>
<g opacity="0.5">
<path d="M0.5 93C0.5 156.25 24 185.5 66.5 185.5C95.5 185.5 114 177.75 114 177.75V91.25H58.25V95H110.5V175C101.5 178 85.5 181.75 67.25 181.75C31.5 181.75 4.25 161.25 4.25 93C4.25 24.75 32 4.25 67.25 4.25C90.75 4.25 109.75 11.5 109.75 11.5C110.75 10.75 111.25 9.75 111.25 8.24999C111.25 8.24999 94.25 0.5 66.5 0.5C24.25 0.5 0.5 31.25 0.5 93Z" fill="white"/>
<path d="M180.809 5.5C172.559 5.5 169.809 8.24999 169.809 16.5V172C169.809 180.25 172.559 183 180.809 183H216.809C225.059 183 227.809 180.25 227.809 172V134H252.559C293.559 134 319.309 111 319.309 70.25C319.309 29.25 293.059 5.5 252.059 5.5H180.809ZM227.809 84V55.5H245.059C264.059 54 264.059 85.5 245.059 84H227.809Z" fill="white"/>
<path d="M412.133 131.5C413.883 128 414.633 124 414.633 119.25C414.633 116.25 414.383 113.75 413.633 111.75C412.883 109.75 412.133 107.5 410.883 105.25C410.383 104 410.133 103 409.883 102.25C409.633 101.5 409.633 100.75 410.133 100.25C410.633 99.75 411.383 99.75 412.383 100C413.383 100.25 414.883 101 417.133 102.25C425.133 107 432.883 109.5 440.133 109.5C444.133 109.5 447.633 109 450.883 107.75C453.883 106.5 457.633 104.75 461.883 102.5C463.633 101.5 465.133 100.75 466.383 100C467.633 99.5 468.633 99.5 469.133 100C469.633 100.5 469.883 101.25 469.883 102.5C469.883 103.5 469.883 104.5 469.633 105.5C469.383 106.5 469.383 107.5 469.133 108.25C468.383 111.5 468.133 114 468.133 115.75C468.133 120 469.883 122 473.633 122C476.883 122 480.383 120.75 484.383 118.25C488.383 115.75 491.883 112.25 494.883 108C497.633 103.75 499.133 99.25 499.133 94.25C499.133 89.25 497.633 84.5 494.883 80.25C491.883 76 488.383 72.75 484.383 70.25C480.383 67.75 476.883 66.5 473.633 66.5C471.883 66.5 470.883 66.75 470.133 67.5C468.883 68.5 468.383 70.25 468.383 73C468.383 73.25 468.633 75.75 469.133 80.25C469.633 82.5 469.883 84.25 469.883 86C469.883 87.75 469.383 88.75 468.133 88.75C467.383 88.75 466.133 88.25 464.633 87.5C463.133 86.75 462.133 86.25 461.883 86C458.133 83.75 454.383 82 451.133 80.75C447.883 79.5 444.133 79 440.133 79C432.883 79 425.133 81.5 417.133 86.25C414.883 87.5 413.383 88.25 412.383 88.5C411.383 88.75 410.633 88.75 410.133 88.25C409.633 87.75 409.633 87 409.883 86.25C410.133 85.5 410.383 84.5 410.883 83.25C412.133 80.5 413.133 78 413.883 75.75C414.633 73.5 414.883 70.5 414.883 67C414.883 62 413.883 57 411.883 52C409.633 47.25 406.883 41.5 403.133 35.25C400.883 31 399.133 28 398.383 25.75C397.633 23.75 397.633 22.5 398.383 21.75C399.133 21 400.383 21.25 402.133 22C403.633 22.75 405.883 24.25 408.633 26.25C414.383 30 419.383 32.75 423.883 34.75C428.133 37 433.133 38 438.383 38C443.883 38 448.883 36.75 453.383 34.5C457.633 32.25 462.133 29 466.633 25.25C470.883 21.75 473.883 20 475.633 20C476.633 20 477.383 20.25 477.633 21C477.883 21.75 478.133 22.75 478.133 24.25C478.133 26 477.383 30.25 476.133 36.5C474.883 42.5 474.133 46.75 474.133 49C474.133 51.5 474.633 53 475.633 53.25C476.133 53.5 477.133 53.75 478.633 53.75C481.883 53.75 486.133 52.5 490.883 50.25C495.633 48 499.633 45 503.133 41.25C506.633 37.5 508.383 34 508.383 30.25C508.383 22 502.133 15.5 489.633 11.25C477.133 6.99999 460.883 5 440.633 5C423.133 5 408.383 6.5 396.383 9.75C384.383 13 375.383 17 369.633 21.5C363.883 26.25 360.883 30.5 360.883 34.5C360.883 37.25 362.133 39 364.383 39.75C366.633 40.5 371.633 41 379.133 41C381.383 41 382.883 41.25 383.883 41.5C384.633 42 385.133 42.75 385.133 43.75C385.133 44.5 384.633 46 383.633 47.75C380.383 53.5 378.133 58.25 376.883 62C375.383 65.75 374.633 69.75 374.633 73.5C374.633 78.75 376.383 83.25 379.883 87C383.133 90.75 387.883 93 394.133 94.25C387.883 95.5 383.133 98 379.883 101.75C376.383 105.75 374.633 110.5 374.633 116.25C374.633 121 375.383 125.5 376.883 129.5C378.133 133.5 379.883 137.75 382.133 142C382.383 142.75 382.883 143.5 383.383 144.5C383.883 145.75 384.383 147 384.883 148.25C385.133 149.75 385.133 150.75 384.883 151.5C384.383 152.25 383.383 152.5 382.133 152.5C381.133 152.5 379.133 152.25 376.133 151.5C372.883 150.75 370.133 150.5 368.133 150.5C365.383 150.5 363.633 151.25 362.383 152.5C361.633 153.25 361.133 154.75 361.133 156.5C361.133 159.75 362.633 163.5 365.883 167.75C368.883 172 372.883 175.75 378.133 178.75C383.133 182 388.633 183.5 394.383 183.5C400.383 183.5 405.883 182 411.133 178.75C416.133 175.75 420.133 172 423.133 167.75C426.133 163.5 427.633 159.75 427.633 156.5C427.633 154.75 427.133 153.25 426.383 152.5C425.133 151.25 423.133 150.5 420.383 150.5C418.383 150.5 415.383 150.75 411.383 151.5C407.633 152.25 405.383 152.5 404.383 152.5C402.133 152.5 400.883 151.75 400.883 150.5C400.883 149.75 401.383 148.5 402.133 147.25C402.883 146 403.883 144.75 404.883 143.5C407.883 139.25 410.383 135.25 412.133 131.5Z" fill="white"/>
<path d="M657.196 136.491H582.733C581.513 140.804 580.577 145.158 579.926 149.553C579.275 153.866 578.949 158.179 578.949 162.492C578.949 165.503 579.112 168.433 579.438 171.281C579.763 174.13 580.292 176.856 581.024 179.46L561.981 184.709C560.028 185.197 558.197 185.441 556.488 185.441C551.524 185.441 549.042 183.041 549.042 178.239C549.042 177.832 549.083 177.507 549.164 177.263C549.245 177.019 549.286 176.693 549.286 176.286C550.019 170.183 551.524 163.143 553.803 155.168C556.163 147.111 559.011 138.607 562.348 129.655C565.684 120.703 569.346 111.548 573.334 102.189C577.322 92.8307 581.35 83.7568 585.419 74.9678C589.488 66.0973 593.435 57.7559 597.26 49.9434C601.085 42.1309 604.462 35.2949 607.392 29.4356C610.403 23.5762 612.803 18.9782 614.594 15.6416C616.384 12.2236 617.279 10.5147 617.279 10.5147H629.73C631.765 10.5147 633.515 10.6774 634.979 11.0029C636.444 11.2471 637.706 11.7354 638.764 12.4678C639.903 13.2002 640.88 14.2175 641.693 15.5195C642.589 16.8216 643.443 18.4899 644.257 20.5244L700.531 163.469L722.016 155.046L726.044 163.713C724.009 165.585 721.446 167.823 718.354 170.427C715.261 172.95 711.884 175.391 708.222 177.751C704.641 180.03 700.897 181.983 696.991 183.61C693.166 185.238 689.504 186.052 686.005 186.052C683.726 186.052 681.692 185.523 679.901 184.465C678.111 183.407 676.646 181.576 675.507 178.972L657.196 136.491ZM620.209 38.4688C616.628 46.7695 613.129 54.7041 609.711 62.2725C606.374 69.7594 603.201 76.8802 600.189 83.6348C597.26 90.3893 594.615 96.8184 592.255 102.922C589.976 108.944 588.145 114.559 586.762 119.768H650.971L621.552 38.4688H620.209Z" fill="white"/>
<path d="M746.975 19.5V7.99999H822.725V19.5L802.225 23.75L844.725 143.75L884.725 25L864.975 19.5V7.99999H925.225V19.5L902.225 25L847.225 184.75H827.475L769.225 25L746.975 19.5Z" fill="white"/>
</g>
</svg>
