<svg width="1440" height="733" viewBox="0 0 1440 733" fill="none" xmlns="http://www.w3.org/2000/svg">
<rect x="-13.7316" width="1626.73" height="733" fill="white"/>
<path d="M-6.61965 220.671L14.2397 217.022L87.5236 245.057L821.573 116.639L716.861 61.6827L471.957 70.7766L453.554 61.1177L675.06 22.3662L1088.19 239.194L866.687 277.945L847.648 267.953L996.726 208.566L891.38 153.276L157.331 281.695L200.816 314.944L179.957 318.593L-6.61965 220.671Z" fill="black"/>
<path d="M1343.6 416.523L1322.97 420.482L1247.98 393.552L522.242 532.857L630.316 586.226L874.542 573.485L893.537 582.865L674.538 624.901L248.14 414.335L467.138 372.298L486.788 382.002L341.465 443.584L450.193 497.277L1175.93 357.972L1130.4 325.387L1151.03 321.428L1343.6 416.523Z" fill="black"/>
<path d="M-8.03874 242.613L12.8206 238.964L86.1045 267L820.154 138.581L715.442 83.6248L470.538 92.7188L452.134 83.0598L673.64 44.3083L1086.77 261.136L865.268 299.887L846.229 289.895L995.307 230.508L889.961 175.219L155.912 303.637L199.397 336.886L178.538 340.535L-8.03874 242.613Z" fill="black"/>
<path d="M1343.65 394.57L1323.03 398.528L1248.04 371.599L522.3 510.904L630.373 564.273L874.6 551.531L893.594 560.911L674.596 602.948L248.197 392.382L467.196 350.345L486.846 360.049L341.523 421.631L450.251 475.324L1175.99 336.019L1130.46 303.434L1151.09 299.475L1343.65 394.57Z" fill="black"/>
<path d="M-8.03877 269.281L12.8206 265.632L86.1045 293.668L820.154 165.249L715.442 110.293L470.538 119.387L452.134 109.728L673.64 70.9764L1086.77 287.804L865.268 326.555L846.229 316.563L995.307 257.176L889.961 201.887L155.912 330.305L199.397 363.554L178.538 367.203L-8.03877 269.281Z" fill="black"/>
<path d="M1342 367.915L1321.37 371.873L1246.38 344.943L520.644 484.249L628.718 537.618L872.944 524.876L891.939 534.256L672.94 576.293L246.542 365.726L465.541 323.69L485.19 333.393L339.867 394.976L448.596 448.669L1174.34 309.364L1128.81 276.779L1149.43 272.82L1342 367.915Z" fill="black"/>
<path d="M40.1159 395.918L60.9752 392.269L134.259 420.304L868.308 291.886L763.597 236.93L518.693 246.023L500.289 236.364L721.795 197.613L1134.93 414.44L913.422 453.192L894.384 443.2L1043.46 383.813L938.116 328.523L204.067 456.942L247.552 490.191L226.692 493.84L40.1159 395.918Z" fill="black" fill-opacity="0.76"/>
<path d="M38.6964 417.859L59.5557 414.21L132.84 442.246L866.889 313.827L762.177 258.871L517.273 267.965L498.87 258.306L720.376 219.554L1133.51 436.382L912.003 475.133L892.965 465.141L1042.04 405.754L936.696 350.465L202.647 478.883L246.132 512.132L225.273 515.781L38.6964 417.859Z" fill="black" fill-opacity="0.76"/>
<path d="M38.6964 444.527L59.5557 440.878L132.84 468.914L866.889 340.495L762.177 285.539L517.273 294.633L498.87 284.974L720.376 246.222L1133.51 463.05L912.003 501.801L892.965 491.809L1042.04 432.422L936.696 377.133L202.647 505.551L246.132 538.8L225.273 542.449L38.6964 444.527Z" fill="black" fill-opacity="0.76"/>
<path d="M1446.06 484.177L1425.56 488.286L1349.76 461.906L628.332 606.495L738.015 659.07L981.827 644.546L1001.1 653.786L783.408 697.417L350.658 489.988L568.355 446.357L588.297 455.916L444.862 518.553L555.21 571.446L1276.64 426.857L1230.12 394.608L1250.62 390.499L1446.06 484.177Z" fill="black" fill-opacity="0.76"/>
<path d="M1445.45 462.227L1424.95 466.335L1349.15 439.956L627.722 584.545L737.405 637.12L981.217 622.596L1000.5 631.836L782.798 675.467L350.048 468.038L567.745 424.407L587.687 433.966L444.252 496.603L554.6 549.496L1276.03 404.907L1229.51 372.658L1250.01 368.549L1445.45 462.227Z" fill="black" fill-opacity="0.76"/>
<path d="M1442.98 435.585L1422.48 439.694L1346.68 413.315L625.256 557.904L734.939 610.478L978.751 595.955L998.029 605.195L780.332 648.826L347.582 441.397L565.278 397.766L585.221 407.325L441.786 469.962L552.134 522.855L1273.56 378.265L1227.05 346.016L1247.55 341.908L1442.98 435.585Z" fill="black" fill-opacity="0.76"/>
</svg>
